<svg clip-rule="evenodd" fill-rule="evenodd" stroke-linejoin="round" stroke-miterlimit="2" viewBox="0 0 669 58" xmlns="http://www.w3.org/2000/svg" xmlns:xlink="http://www.w3.org/1999/xlink"><clipPath id="a"><path clip-rule="evenodd" d="m635.591 61.426h668.018v57.938h-668.018z"/></clipPath><g transform="translate(-635.590679 -61.42564)"><path d="m635.591 61.426h668.018v57.938h-668.018z" fill="none"/><g clip-path="url(#a)" fill-rule="nonzero"><path d="m.345 0-.339-.729h.132l.253.562.029.069h.006l.028-.069.254-.562h.132l-.339.729z" transform="matrix(64 0 0 64 635.7702 109.037)"/><path d="m.339.009c-.062 0-.116-.011-.162-.033s-.081-.053-.106-.094c-.026-.041-.038-.089-.038-.144 0-.057.012-.106.038-.147.025-.041.06-.073.105-.095.046-.022.099-.033.16-.033.064 0 .119.011.164.035.045.023.079.057.101.101.023.044.032.097.028.159h-.48c.001.035.009.066.025.091s.038.045.067.058c.028.014.062.02.101.02.043 0 .081-.008.112-.025.032-.017.053-.038.061-.066h.111c-.006.035-.022.065-.048.091s-.06.046-.101.06c-.041.015-.087.022-.138.022zm-.192-.312-.006-.007h.38l-.008.007c0-.032-.007-.059-.021-.082-.015-.023-.035-.04-.061-.052-.027-.012-.059-.018-.095-.018-.037 0-.069.006-.096.018s-.049.03-.064.053c-.016.023-.025.05-.029.081z" transform="matrix(64 0 0 64 675.70624 109.037)"/><path d="m.222.168c-.048 0-.087-.005-.117-.014s-.052-.023-.065-.04c-.014-.018-.02-.039-.02-.064 0-.02.004-.037.014-.053.01-.015.024-.027.041-.037.018-.01.039-.017.062-.02v-.006c-.021-.004-.039-.014-.053-.028-.014-.015-.021-.032-.021-.051 0-.017.005-.032.015-.045.009-.013.022-.023.038-.031.016-.009.033-.014.05-.016v-.007c-.027-.013-.048-.031-.064-.053-.015-.023-.023-.048-.023-.075 0-.035.01-.064.03-.089.02-.024.049-.044.086-.057.037-.014.081-.021.133-.021.018 0 .036.001.053.004.017.002.034.005.049.01.009-.026.022-.047.041-.065.018-.017.041-.031.068-.04s.057-.013.09-.012v.083c-.032-.002-.06.002-.086.011-.027.009-.045.024-.057.043.029.011.051.028.068.053.016.025.025.053.025.086 0 .032-.01.061-.029.085s-.047.043-.084.056-.082.019-.135.019c-.017 0-.031 0-.043-.001-.011-.001-.022-.002-.031-.004s-.019-.004-.029-.006c-.023.002-.04.007-.051.015-.011.009-.016.02-.016.032 0 .014.008.024.025.029.017.006.037.008.062.008h.185c.041 0 .076.005.104.015s.049.025.064.046c.014.021.021.048.021.082 0 .036-.009.066-.027.089-.018.024-.044.041-.077.052s-.072.017-.117.017zm.016-.062h.164c.033 0 .058-.006.076-.017.018-.012.027-.029.027-.052 0-.017-.003-.03-.011-.039-.008-.01-.019-.016-.033-.02-.014-.003-.031-.005-.051-.005h-.211c-.024.002-.043.01-.056.022s-.02.027-.02.044.005.031.015.041c.009.01.023.017.04.02.017.004.037.006.06.006zm.093-.385c.042 0 .075-.008.1-.023.024-.016.036-.038.036-.067 0-.022-.005-.04-.017-.054s-.028-.025-.049-.032c-.02-.007-.044-.01-.072-.01s-.053.003-.074.01c-.02.007-.036.018-.047.032s-.017.031-.017.051c0 .031.013.054.039.07s.06.023.101.023z" transform="matrix(64 0 0 64 712.5702 109.037)"/><path d="m.23.009c-.058 0-.105-.013-.142-.04s-.055-.064-.055-.112c0-.033.006-.061.019-.082.013-.022.031-.039.053-.051.023-.013.05-.021.08-.026.031-.005.064-.008.1-.008h.158v-.038c0-.024-.005-.044-.015-.06-.01-.015-.026-.027-.046-.035-.021-.008-.046-.012-.077-.012-.026 0-.049.003-.069.01-.021.006-.037.016-.049.029-.013.013-.02.03-.023.052h-.111c.004-.058.029-.101.075-.13.045-.029.104-.044.176-.044.037 0 .07.003.101.01s.058.017.08.032c.023.015.041.034.054.059s.019.055.019.091v.239c0 .013.003.023.008.029.004.006.012.009.022.009.005 0 .01-.001.015-.002.005-.002.01-.004.014-.007v.073c-.007.004-.016.007-.028.01-.012.002-.025.003-.039.003-.015 0-.028-.001-.041-.005-.012-.004-.022-.009-.031-.016-.009-.008-.015-.016-.02-.027-.004-.01-.006-.022-.006-.035v-.039l.016.022h-.02c-.012.03-.038.054-.077.073-.038.019-.086.028-.141.028zm.041-.077c.052 0 .093-.01.125-.03.031-.02.047-.05.047-.089v-.059h-.14c-.031 0-.058.003-.081.008-.024.005-.041.014-.054.027-.012.013-.019.032-.019.056 0 .027.011.048.031.064.021.015.051.023.091.023z" transform="matrix(64 0 0 64 749.7542 109.037)"/><path d="m.056 0v-.529h.113l.003.109h.007c.019-.038.048-.067.087-.087s.082-.03.127-.03c.034 0 .065.004.093.013.028.008.052.022.073.041.02.019.036.045.047.076.011.032.017.071.017.117v.29h-.116v-.27c0-.04-.005-.073-.016-.099s-.027-.046-.049-.059c-.023-.013-.051-.019-.086-.019-.037 0-.069.008-.096.023-.028.016-.049.038-.065.065-.015.028-.023.06-.023.097v.262z" transform="matrix(64 0 0 64 787.13 109.037)"/><path d="m.432.009c-.061 0-.117-.009-.166-.027-.049-.017-.091-.043-.126-.076s-.061-.072-.08-.118c-.018-.046-.027-.096-.027-.152 0-.057.009-.108.027-.154.018-.045.045-.084.08-.117s.077-.058.126-.076c.049-.017.105-.026.167-.026.069 0 .129.01.181.031.053.021.095.05.128.088.032.038.052.082.061.134h-.121c-.008-.032-.023-.059-.046-.083-.023-.023-.052-.041-.086-.054-.035-.013-.074-.019-.117-.019-.057 0-.107.011-.148.033-.042.022-.074.053-.097.094-.022.041-.033.091-.033.149 0 .043.006.082.019.116.013.033.031.062.056.086.024.024.053.042.087.054.035.013.073.019.116.019.044 0 .084-.006.119-.019s.064-.032.087-.056c.022-.024.037-.051.044-.083l.12.001c-.007.051-.027.096-.061.134-.033.039-.077.068-.13.089s-.113.032-.18.032z" transform="matrix(64 0 0 64 827.834 109.037)"/><path d="m.056 0v-.729h.116v.309h.007c.019-.037.048-.066.087-.087.038-.02.081-.03.127-.03.034 0 .065.004.093.013.028.008.052.022.073.041.02.019.036.045.047.076.011.032.017.071.017.117v.29h-.116v-.27c0-.04-.005-.073-.016-.099s-.027-.046-.049-.059c-.023-.012-.051-.019-.086-.019-.037 0-.069.008-.096.024-.028.015-.05.037-.065.064-.015.028-.023.06-.023.097v.262z" transform="matrix(64 0 0 64 879.418 109.037)"/><path d="m.339.009c-.062 0-.116-.011-.162-.033s-.081-.053-.106-.094c-.026-.041-.038-.089-.038-.144 0-.057.012-.106.038-.147.025-.041.06-.073.105-.095.046-.022.099-.033.16-.033.064 0 .119.011.164.035.045.023.079.057.101.101.023.044.032.097.028.159h-.48c.001.035.009.066.025.091s.038.045.067.058c.028.014.062.02.101.02.043 0 .081-.008.112-.025.032-.017.053-.038.061-.066h.111c-.006.035-.022.065-.048.091s-.06.046-.101.06c-.041.015-.087.022-.138.022zm-.192-.312-.006-.007h.38l-.008.007c0-.032-.007-.059-.021-.082-.015-.023-.035-.04-.061-.052-.027-.012-.059-.018-.095-.018-.037 0-.069.006-.096.018s-.049.03-.064.053c-.016.023-.025.05-.029.081z" transform="matrix(64 0 0 64 920.122 109.037)"/><path d="m.332.009c-.046 0-.087-.006-.124-.019s-.068-.031-.094-.055c-.027-.024-.047-.053-.06-.087-.014-.034-.021-.071-.021-.113 0-.056.013-.104.038-.145.026-.04.061-.072.107-.094s.1-.033.16-.033c.054 0 .102.008.143.024s.074.039.098.067c.025.029.039.063.043.101h-.115c-.006-.022-.017-.041-.033-.056s-.035-.026-.058-.034c-.024-.007-.049-.011-.078-.011-.039 0-.072.007-.101.022-.028.016-.05.037-.065.064-.016.027-.023.059-.023.096s.007.07.022.097c.015.028.037.049.065.063.028.015.061.022.1.022.03 0 .056-.005.08-.014s.044-.021.061-.037c.016-.017.027-.035.032-.057h.117c-.005.04-.021.075-.048.105s-.062.053-.105.069c-.042.017-.089.025-.141.025z" transform="matrix(64 0 0 64 959.034 109.037)"/><path d="m.056 0v-.729h.116v.448l.068-.059.233-.189h.149l-.253.206.264.323h-.144l-.165-.204-.038-.051-.114.09v.165z" transform="matrix(64 0 0 64 997.178 109.037)"/><path d="m.404.009c-.056 0-.106-.009-.152-.026-.046-.018-.085-.043-.117-.075-.033-.033-.058-.071-.076-.116-.017-.045-.026-.095-.026-.151 0-.058.009-.111.029-.157.019-.046.046-.086.081-.119.036-.033.078-.058.128-.076s.106-.026.168-.026c.065 0 .124.009.176.028.052.02.095.047.128.083.033.035.053.078.062.128h-.122c-.008-.029-.022-.054-.044-.075-.022-.022-.05-.039-.083-.051-.034-.011-.073-.017-.116-.017-.062 0-.114.011-.156.035-.043.023-.075.056-.097.098s-.033.091-.033.147c0 .042.006.081.019.114.012.034.031.063.055.087s.053.042.086.055.071.019.113.019c.05 0 .095-.008.135-.025.04-.016.071-.04.094-.07s.035-.065.035-.105v-.044l.022.024h-.303v-.085h.404v.391h-.095l-.007-.141h-.007c-.013.031-.035.057-.064.08-.029.022-.064.039-.105.052-.041.012-.085.018-.132.018z" transform="matrix(64 0 0 64 1052.346 109.037)"/><path d="m.056 0v-.529h.105l.005.093h.004c.012-.031.031-.055.058-.073s.058-.027.095-.027c.01 0 .019 0 .027.001s.015.002.021.003v.106c-.007-.002-.015-.004-.024-.005-.008 0-.017-.001-.026-.001-.028 0-.053.005-.075.016s-.039.027-.052.048-.021.048-.023.081v.287z" transform="matrix(64 0 0 64 1107.13 109.037)"/><path d="m.23.009c-.058 0-.105-.013-.142-.04s-.055-.064-.055-.112c0-.033.006-.061.019-.082.013-.022.031-.039.053-.051.023-.013.05-.021.08-.026.031-.005.064-.008.1-.008h.158v-.038c0-.024-.005-.044-.015-.06-.01-.015-.026-.027-.046-.035-.021-.008-.046-.012-.077-.012-.026 0-.049.003-.069.01-.021.006-.037.016-.049.029-.013.013-.02.03-.023.052h-.111c.004-.058.029-.101.075-.13.045-.029.104-.044.176-.044.037 0 .07.003.101.01s.058.017.08.032c.023.015.041.034.054.059s.019.055.019.091v.239c0 .013.003.023.008.029.004.006.012.009.022.009.005 0 .01-.001.015-.002.005-.002.01-.004.014-.007v.073c-.007.004-.016.007-.028.01-.012.002-.025.003-.039.003-.015 0-.028-.001-.041-.005-.012-.004-.022-.009-.031-.016-.009-.008-.015-.016-.02-.027-.004-.01-.006-.022-.006-.035v-.039l.016.022h-.02c-.012.03-.038.054-.077.073-.038.019-.086.028-.141.028zm.041-.077c.052 0 .093-.01.125-.03.031-.02.047-.05.047-.089v-.059h-.14c-.031 0-.058.003-.081.008-.024.005-.041.014-.054.027-.012.013-.019.032-.019.056 0 .027.011.048.031.064.021.015.051.023.091.023z" transform="matrix(64 0 0 64 1130.49 109.037)"/><path d="m.299.012c-.04 0-.076-.006-.109-.019-.032-.013-.06-.032-.084-.056-.023-.024-.041-.053-.054-.087s-.019-.072-.019-.113c0-.056.011-.105.033-.146s.054-.072.094-.095.087-.034.14-.034c.032 0 .063.005.09.014.028.009.052.022.072.039s.036.037.047.06h.005v-.304h.116v.729h-.111l-.003-.101h-.005c-.016.033-.042.061-.078.082s-.081.031-.134.031zm.032-.09c.038 0 .07-.007.097-.021.028-.014.049-.034.064-.059.014-.026.022-.054.022-.087v-.036c0-.025-.004-.047-.013-.067-.009-.021-.021-.038-.036-.053-.016-.015-.035-.026-.058-.034-.022-.008-.048-.012-.076-.012-.038 0-.07.007-.097.022-.027.014-.048.036-.063.063-.014.028-.021.06-.021.099 0 .037.007.07.021.098.015.028.036.049.063.064s.059.023.097.023z" transform="matrix(64 0 0 64 1167.162 109.037)"/><path d="m.339.009c-.062 0-.116-.011-.162-.033s-.081-.053-.106-.094c-.026-.041-.038-.089-.038-.144 0-.057.012-.106.038-.147.025-.041.06-.073.105-.095.046-.022.099-.033.16-.033.064 0 .119.011.164.035.045.023.079.057.101.101.023.044.032.097.028.159h-.48c.001.035.009.066.025.091s.038.045.067.058c.028.014.062.02.101.02.043 0 .081-.008.112-.025.032-.017.053-.038.061-.066h.111c-.006.035-.022.065-.048.091s-.06.046-.101.06c-.041.015-.087.022-.138.022zm-.192-.312-.006-.007h.38l-.008.007c0-.032-.007-.059-.021-.082-.015-.023-.035-.04-.061-.052-.027-.012-.059-.018-.095-.018-.037 0-.069.006-.096.018s-.049.03-.064.053c-.016.023-.025.05-.029.081z" transform="matrix(64 0 0 64 1207.674 109.037)"/><path d="m.297.01c-.057 0-.106-.007-.146-.022-.04-.014-.07-.035-.092-.061-.021-.026-.033-.057-.034-.093h.114c.001.032.016.057.044.075s.067.027.117.027c.044 0 .08-.006.107-.019.026-.013.039-.033.039-.06 0-.02-.005-.036-.014-.047-.01-.01-.026-.018-.049-.023-.023-.006-.054-.01-.094-.014-.058-.006-.104-.014-.141-.025-.036-.011-.062-.026-.079-.046s-.025-.047-.025-.08.01-.062.03-.086c.021-.024.05-.042.087-.055.038-.013.083-.02.135-.02.051 0 .094.007.13.02.036.014.064.033.085.058.02.024.032.054.035.09h-.111c-.002-.022-.009-.04-.021-.053-.013-.014-.029-.024-.049-.031-.02-.006-.043-.009-.069-.009-.041 0-.074.006-.1.018s-.04.032-.04.059c0 .017.006.031.016.041.011.009.028.017.051.022s.053.01.089.014c.044.004.082.009.114.016.031.006.057.016.077.027.02.012.035.027.044.045.009.019.014.043.014.071 0 .048-.022.087-.065.117-.044.029-.11.044-.199.044z" transform="matrix(64 0 0 64 1245.946 109.037)"/></g></g></svg>