<?xml version="1.0" encoding="UTF-8" standalone="no"?>
<!DOCTYPE svg PUBLIC "-//W3C//DTD SVG 1.1//EN" "http://www.w3.org/Graphics/SVG/1.1/DTD/svg11.dtd">
<svg width="100%" height="100%" viewBox="0 0 889 677" version="1.1" xmlns="http://www.w3.org/2000/svg" xmlns:xlink="http://www.w3.org/1999/xlink" xml:space="preserve" xmlns:serif="http://www.serif.com/" style="fill-rule:evenodd;clip-rule:evenodd;stroke-linejoin:round;stroke-miterlimit:2;">
    <g transform="matrix(1,0,0,1,-1970,0)">
        <g id="ArtBoard2" transform="matrix(0.46301,0,0,0.135297,1057.87,0)">
            <rect x="1970" y="0" width="1920" height="5000" style="fill:none;"/>
            <g transform="matrix(2.45853,0,0,8.41352,-2966.4,-1143.69)">
                <circle cx="2398.35" cy="433.076" r="295.024" style="fill:rgb(246,230,213);"/>
            </g>
            <g transform="matrix(2.15978,0,0,7.39115,411.931,-1353.97)">
                <g transform="matrix(-0.784579,0.620029,-0.620029,-0.784579,2008.75,-79.2618)">
                    <g transform="matrix(44.6,0,0,44.6,1018.15,309.327)">
                        <path d="M0.271,-0L0.005,-0.729L0.127,-0.729L0.303,-0.222L0.341,-0.103L0.348,-0.103L0.387,-0.221L0.564,-0.729L0.684,-0.729L0.419,-0L0.271,-0Z" style="fill:rgb(0,53,255);fill-rule:nonzero;"/>
                    </g>
                </g>
                <g transform="matrix(-0.712612,0.701558,-0.701558,-0.712612,1934.75,-138.98)">
                    <g transform="matrix(44.6,0,0,44.6,995.84,326.787)">
                        <path d="M0.088,-0L0.088,-0.729L0.599,-0.729L0.599,-0.635L0.173,-0.635L0.197,-0.659L0.197,-0.392L0.173,-0.416L0.55,-0.416L0.55,-0.328L0.173,-0.328L0.197,-0.352L0.197,-0.071L0.173,-0.095L0.6,-0.095L0.6,-0L0.088,-0Z" style="fill:rgb(0,53,255);fill-rule:nonzero;"/>
                    </g>
                </g>
                <g transform="matrix(-0.62834,0.777939,-0.777939,-0.62834,1858.4,-196.251)">
                    <g transform="matrix(44.6,0,0,44.6,976.08,345.8)">
                        <path d="M0.396,0.009C0.341,0.009 0.292,-0 0.248,-0.018C0.204,-0.036 0.166,-0.061 0.135,-0.094C0.104,-0.127 0.08,-0.166 0.064,-0.212C0.048,-0.258 0.04,-0.309 0.04,-0.364C0.04,-0.422 0.048,-0.474 0.066,-0.52C0.083,-0.566 0.107,-0.605 0.139,-0.637C0.171,-0.67 0.209,-0.695 0.253,-0.712C0.298,-0.729 0.347,-0.737 0.4,-0.737C0.462,-0.737 0.517,-0.727 0.564,-0.706C0.612,-0.685 0.65,-0.656 0.679,-0.619C0.708,-0.582 0.726,-0.538 0.732,-0.487L0.62,-0.487C0.614,-0.521 0.601,-0.549 0.58,-0.572C0.56,-0.595 0.534,-0.612 0.503,-0.624C0.473,-0.636 0.438,-0.642 0.4,-0.642C0.35,-0.642 0.306,-0.632 0.269,-0.61C0.231,-0.588 0.202,-0.557 0.182,-0.516C0.161,-0.474 0.151,-0.424 0.151,-0.365C0.151,-0.321 0.157,-0.281 0.168,-0.246C0.18,-0.211 0.196,-0.182 0.218,-0.158C0.24,-0.133 0.266,-0.115 0.296,-0.103C0.326,-0.09 0.36,-0.084 0.398,-0.084C0.446,-0.084 0.488,-0.093 0.524,-0.111C0.56,-0.129 0.588,-0.156 0.607,-0.191C0.627,-0.225 0.637,-0.267 0.637,-0.315L0.637,-0.339L0.673,-0.299L0.405,-0.299L0.405,-0.38L0.748,-0.38L0.748,-0.327C0.748,-0.276 0.739,-0.229 0.723,-0.188C0.706,-0.146 0.682,-0.111 0.651,-0.082C0.62,-0.053 0.583,-0.03 0.54,-0.015C0.497,0.001 0.449,0.009 0.396,0.009Z" style="fill:rgb(0,53,255);fill-rule:nonzero;"/>
                    </g>
                </g>
                <g transform="matrix(-0.528741,0.848783,-0.848783,-0.528741,1775.58,-240.931)">
                    <g transform="matrix(44.6,0,0,44.6,954.674,372.45)">
                        <path d="M0.003,-0L0.262,-0.729L0.415,-0.729L0.674,-0L0.56,-0L0.5,-0.17L0.177,-0.17L0.117,-0L0.003,-0ZM0.203,-0.255L0.473,-0.255L0.393,-0.48L0.342,-0.629L0.336,-0.629L0.285,-0.48L0.203,-0.255Z" style="fill:rgb(0,53,255);fill-rule:nonzero;"/>
                    </g>
                </g>
                <g transform="matrix(-0.424156,0.905589,-0.905589,-0.424156,1696.86,-286.66)">
                    <g transform="matrix(44.6,0,0,44.6,939.569,396.167)">
                        <path d="M0.088,-0L0.088,-0.729L0.222,-0.729L0.599,-0.145L0.606,-0.145L0.6,-0.389L0.6,-0.729L0.706,-0.729L0.706,-0L0.578,-0L0.201,-0.577L0.195,-0.577L0.199,-0.35L0.199,-0L0.088,-0Z" style="fill:rgb(0,53,255);fill-rule:nonzero;"/>
                    </g>
                </g>
                <g transform="matrix(-0.299461,0.954109,-0.954109,-0.299461,1609.86,-326.378)">
                    <g transform="matrix(44.6,0,0,44.6,924.75,427.82)">
                        <path d="M0.397,0.009C0.343,0.009 0.295,0 0.251,-0.017C0.207,-0.034 0.169,-0.059 0.138,-0.092C0.106,-0.124 0.082,-0.163 0.065,-0.209C0.048,-0.255 0.04,-0.307 0.04,-0.364C0.04,-0.422 0.048,-0.474 0.065,-0.52C0.082,-0.566 0.106,-0.605 0.138,-0.637C0.17,-0.67 0.208,-0.695 0.251,-0.712C0.295,-0.729 0.343,-0.737 0.397,-0.737C0.457,-0.737 0.511,-0.727 0.558,-0.706C0.605,-0.685 0.643,-0.656 0.673,-0.618C0.703,-0.581 0.721,-0.536 0.728,-0.485L0.618,-0.485C0.611,-0.516 0.598,-0.543 0.578,-0.567C0.558,-0.591 0.533,-0.609 0.503,-0.623C0.472,-0.636 0.437,-0.643 0.397,-0.643C0.347,-0.643 0.303,-0.632 0.267,-0.61C0.23,-0.588 0.202,-0.557 0.182,-0.515C0.162,-0.474 0.152,-0.423 0.152,-0.364C0.152,-0.32 0.158,-0.281 0.169,-0.246C0.181,-0.211 0.197,-0.182 0.218,-0.158C0.239,-0.135 0.265,-0.117 0.295,-0.104C0.325,-0.092 0.359,-0.085 0.397,-0.085C0.436,-0.085 0.471,-0.092 0.502,-0.105C0.533,-0.119 0.559,-0.138 0.579,-0.162C0.599,-0.186 0.612,-0.214 0.618,-0.247L0.728,-0.246C0.722,-0.195 0.704,-0.15 0.675,-0.112C0.645,-0.073 0.606,-0.044 0.559,-0.023C0.511,-0.002 0.457,0.009 0.397,0.009Z" style="fill:rgb(0,53,255);fill-rule:nonzero;"/>
                    </g>
                </g>
                <g transform="matrix(-0.168686,0.98567,-0.98567,-0.168686,1522.26,-363.83)">
                    <g transform="matrix(44.6,0,0,44.6,914.557,460.022)">
                        <path d="M0.088,-0L0.088,-0.729L0.197,-0.729L0.197,-0.401L0.181,-0.417L0.621,-0.417L0.605,-0.401L0.605,-0.729L0.714,-0.729L0.714,-0L0.605,-0L0.605,-0.338L0.621,-0.322L0.181,-0.322L0.197,-0.338L0.197,-0L0.088,-0Z" style="fill:rgb(0,53,255);fill-rule:nonzero;"/>
                    </g>
                </g>
                <g transform="matrix(-0.0435755,0.99905,-0.99905,-0.0435755,1442.55,-391.662)">
                    <g transform="matrix(44.6,0,0,44.6,908.752,494.672)">
                        <path d="M0.088,-0L0.088,-0.729L0.599,-0.729L0.599,-0.635L0.173,-0.635L0.197,-0.659L0.197,-0.392L0.173,-0.416L0.55,-0.416L0.55,-0.328L0.173,-0.328L0.197,-0.352L0.197,-0.071L0.173,-0.095L0.6,-0.095L0.6,-0L0.088,-0Z" style="fill:rgb(0,53,255);fill-rule:nonzero;"/>
                    </g>
                </g>
                <g transform="matrix(0.0676849,0.997707,-0.997707,0.0676849,1366.7,-418.492)">
                    <g transform="matrix(44.6,0,0,44.6,907.273,522.034)">
                        <path d="M0.397,0.009C0.343,0.009 0.295,0 0.251,-0.017C0.207,-0.034 0.169,-0.059 0.138,-0.092C0.106,-0.124 0.082,-0.163 0.065,-0.209C0.048,-0.255 0.04,-0.307 0.04,-0.364C0.04,-0.422 0.048,-0.474 0.065,-0.52C0.082,-0.566 0.106,-0.605 0.138,-0.637C0.17,-0.67 0.208,-0.695 0.251,-0.712C0.295,-0.729 0.343,-0.737 0.397,-0.737C0.457,-0.737 0.511,-0.727 0.558,-0.706C0.605,-0.685 0.643,-0.656 0.673,-0.618C0.703,-0.581 0.721,-0.536 0.728,-0.485L0.618,-0.485C0.611,-0.516 0.598,-0.543 0.578,-0.567C0.558,-0.591 0.533,-0.609 0.503,-0.623C0.472,-0.636 0.437,-0.643 0.397,-0.643C0.347,-0.643 0.303,-0.632 0.267,-0.61C0.23,-0.588 0.202,-0.557 0.182,-0.515C0.162,-0.474 0.152,-0.423 0.152,-0.364C0.152,-0.32 0.158,-0.281 0.169,-0.246C0.181,-0.211 0.197,-0.182 0.218,-0.158C0.239,-0.135 0.265,-0.117 0.295,-0.104C0.325,-0.092 0.359,-0.085 0.397,-0.085C0.436,-0.085 0.471,-0.092 0.502,-0.105C0.533,-0.119 0.559,-0.138 0.579,-0.162C0.599,-0.186 0.612,-0.214 0.618,-0.247L0.728,-0.246C0.722,-0.195 0.704,-0.15 0.675,-0.112C0.645,-0.073 0.606,-0.044 0.559,-0.023C0.511,-0.002 0.457,0.009 0.397,0.009Z" style="fill:rgb(0,53,255);fill-rule:nonzero;"/>
                    </g>
                </g>
                <g transform="matrix(0.19723,0.980357,-0.980357,0.19723,1274.95,-445.537)">
                    <g transform="matrix(44.6,0,0,44.6,909.522,555.725)">
                        <path d="M0.088,-0L0.088,-0.729L0.197,-0.729L0.197,-0.347L0.543,-0.729L0.675,-0.729L0.394,-0.426L0.68,-0L0.551,-0L0.32,-0.347L0.197,-0.217L0.197,-0L0.088,-0Z" style="fill:rgb(0,53,255);fill-rule:nonzero;"/>
                    </g>
                </g>
                <g transform="matrix(0.348406,0.937344,-0.937344,0.348406,1155.53,-472.741)">
                    <g transform="matrix(44.6,0,0,44.6,917.796,594.771)">
                        <path d="M0.396,0.009C0.341,0.009 0.292,-0 0.248,-0.018C0.204,-0.036 0.166,-0.061 0.135,-0.094C0.104,-0.127 0.08,-0.166 0.064,-0.212C0.048,-0.258 0.04,-0.309 0.04,-0.364C0.04,-0.422 0.048,-0.474 0.066,-0.52C0.083,-0.566 0.107,-0.605 0.139,-0.637C0.171,-0.67 0.209,-0.695 0.253,-0.712C0.298,-0.729 0.347,-0.737 0.4,-0.737C0.462,-0.737 0.517,-0.727 0.564,-0.706C0.612,-0.685 0.65,-0.656 0.679,-0.619C0.708,-0.582 0.726,-0.538 0.732,-0.487L0.62,-0.487C0.614,-0.521 0.601,-0.549 0.58,-0.572C0.56,-0.595 0.534,-0.612 0.503,-0.624C0.473,-0.636 0.438,-0.642 0.4,-0.642C0.35,-0.642 0.306,-0.632 0.269,-0.61C0.231,-0.588 0.202,-0.557 0.182,-0.516C0.161,-0.474 0.151,-0.424 0.151,-0.365C0.151,-0.321 0.157,-0.281 0.168,-0.246C0.18,-0.211 0.196,-0.182 0.218,-0.158C0.24,-0.133 0.266,-0.115 0.296,-0.103C0.326,-0.09 0.36,-0.084 0.398,-0.084C0.446,-0.084 0.488,-0.093 0.524,-0.111C0.56,-0.129 0.588,-0.156 0.607,-0.191C0.627,-0.225 0.637,-0.267 0.637,-0.315L0.637,-0.339L0.673,-0.299L0.405,-0.299L0.405,-0.38L0.748,-0.38L0.748,-0.327C0.748,-0.276 0.739,-0.229 0.723,-0.188C0.706,-0.146 0.682,-0.111 0.651,-0.082C0.62,-0.053 0.583,-0.03 0.54,-0.015C0.497,0.001 0.449,0.009 0.396,0.009Z" style="fill:rgb(0,53,255);fill-rule:nonzero;"/>
                    </g>
                </g>
                <g transform="matrix(0.47054,0.882379,-0.882379,0.47054,1046.28,-488.35)">
                    <g transform="matrix(44.6,0,0,44.6,930.075,627.674)">
                        <path d="M0.088,-0L0.088,-0.729L0.428,-0.729C0.468,-0.729 0.503,-0.725 0.533,-0.716C0.563,-0.707 0.589,-0.694 0.609,-0.677C0.629,-0.659 0.644,-0.638 0.654,-0.614C0.664,-0.589 0.67,-0.56 0.67,-0.528C0.67,-0.484 0.658,-0.447 0.636,-0.415C0.614,-0.384 0.582,-0.363 0.541,-0.352L0.541,-0.345C0.581,-0.338 0.609,-0.323 0.627,-0.299C0.644,-0.275 0.653,-0.243 0.653,-0.201L0.653,-0.079C0.653,-0.067 0.653,-0.054 0.654,-0.041C0.655,-0.028 0.659,-0.014 0.665,-0L0.555,-0C0.551,-0.01 0.548,-0.022 0.546,-0.035C0.544,-0.049 0.544,-0.064 0.544,-0.081L0.544,-0.182C0.544,-0.207 0.54,-0.228 0.533,-0.245C0.525,-0.261 0.513,-0.274 0.494,-0.282C0.475,-0.291 0.449,-0.295 0.414,-0.295L0.197,-0.295L0.197,-0L0.088,-0ZM0.197,-0.383L0.413,-0.383C0.465,-0.383 0.503,-0.396 0.525,-0.42C0.547,-0.444 0.558,-0.476 0.558,-0.514C0.558,-0.543 0.552,-0.567 0.54,-0.585C0.528,-0.603 0.511,-0.616 0.489,-0.625C0.468,-0.633 0.442,-0.637 0.413,-0.637L0.197,-0.637L0.197,-0.383Z" style="fill:rgb(0,53,255);fill-rule:nonzero;"/>
                    </g>
                </g>
                <g transform="matrix(0.567378,0.823458,-0.823458,0.567378,948.194,-494.466)">
                    <g transform="matrix(44.6,0,0,44.6,944.683,655.168)">
                        <path d="M0.003,-0L0.262,-0.729L0.415,-0.729L0.674,-0L0.56,-0L0.5,-0.17L0.177,-0.17L0.117,-0L0.003,-0ZM0.203,-0.255L0.473,-0.255L0.393,-0.48L0.342,-0.629L0.336,-0.629L0.285,-0.48L0.203,-0.255Z" style="fill:rgb(0,53,255);fill-rule:nonzero;"/>
                    </g>
                </g>
                <g transform="matrix(0.661245,0.75017,-0.75017,0.661245,834.377,-490.637)">
                    <g transform="matrix(44.6,0,0,44.6,960.444,678.542)">
                        <path d="M0.088,-0L0.088,-0.729L0.383,-0.729C0.453,-0.729 0.513,-0.714 0.562,-0.684C0.611,-0.653 0.648,-0.611 0.674,-0.556C0.7,-0.501 0.713,-0.437 0.713,-0.364C0.713,-0.31 0.706,-0.26 0.691,-0.215C0.676,-0.17 0.655,-0.132 0.627,-0.1C0.598,-0.068 0.564,-0.043 0.523,-0.026C0.482,-0.009 0.435,-0 0.383,-0L0.088,-0ZM0.197,-0.094L0.367,-0.094C0.402,-0.094 0.434,-0.1 0.463,-0.111C0.492,-0.122 0.516,-0.138 0.537,-0.161C0.558,-0.183 0.574,-0.212 0.585,-0.246C0.596,-0.28 0.601,-0.32 0.601,-0.366C0.601,-0.428 0.591,-0.479 0.572,-0.518C0.552,-0.558 0.525,-0.587 0.49,-0.606C0.455,-0.626 0.414,-0.635 0.367,-0.635L0.197,-0.635L0.197,-0.094Z" style="fill:rgb(0,53,255);fill-rule:nonzero;"/>
                    </g>
                </g>
                <g transform="matrix(0.744477,0.667648,-0.667648,0.744477,720.569,-476.098)">
                    <g transform="matrix(44.6,0,0,44.6,982.277,703.328)">
                        <path d="M0.088,-0L0.088,-0.729L0.599,-0.729L0.599,-0.635L0.173,-0.635L0.197,-0.659L0.197,-0.392L0.173,-0.416L0.55,-0.416L0.55,-0.328L0.173,-0.328L0.197,-0.352L0.197,-0.071L0.173,-0.095L0.6,-0.095L0.6,-0L0.088,-0Z" style="fill:rgb(0,53,255);fill-rule:nonzero;"/>
                    </g>
                </g>
                <g transform="matrix(0.810279,0.586044,-0.586044,0.810279,613.44,-450.805)">
                    <g transform="matrix(44.6,0,0,44.6,1002.98,722.05)">
                        <path d="M0.332,0.009C0.267,0.009 0.214,-0.001 0.171,-0.021C0.128,-0.041 0.096,-0.069 0.075,-0.105C0.054,-0.141 0.043,-0.181 0.042,-0.228L0.154,-0.228C0.155,-0.197 0.161,-0.17 0.174,-0.148C0.187,-0.125 0.207,-0.107 0.233,-0.095C0.259,-0.083 0.293,-0.077 0.334,-0.077C0.385,-0.077 0.426,-0.086 0.457,-0.105C0.488,-0.124 0.504,-0.153 0.504,-0.191C0.504,-0.213 0.5,-0.231 0.494,-0.246C0.487,-0.26 0.476,-0.272 0.461,-0.282C0.446,-0.292 0.426,-0.3 0.402,-0.307C0.377,-0.314 0.347,-0.32 0.312,-0.326C0.27,-0.333 0.233,-0.342 0.202,-0.353C0.17,-0.363 0.144,-0.376 0.123,-0.392C0.101,-0.407 0.086,-0.426 0.075,-0.449C0.064,-0.471 0.059,-0.498 0.059,-0.529C0.059,-0.572 0.07,-0.609 0.091,-0.64C0.113,-0.671 0.143,-0.695 0.183,-0.712C0.223,-0.729 0.271,-0.737 0.327,-0.737C0.383,-0.737 0.431,-0.729 0.47,-0.711C0.509,-0.693 0.54,-0.668 0.561,-0.636C0.582,-0.605 0.593,-0.567 0.594,-0.524L0.483,-0.524C0.482,-0.553 0.475,-0.577 0.461,-0.597C0.447,-0.616 0.429,-0.63 0.405,-0.639C0.382,-0.649 0.354,-0.653 0.323,-0.653C0.291,-0.653 0.264,-0.649 0.241,-0.64C0.219,-0.631 0.202,-0.618 0.19,-0.602C0.178,-0.585 0.172,-0.566 0.172,-0.544C0.172,-0.517 0.178,-0.496 0.191,-0.482C0.204,-0.467 0.225,-0.456 0.254,-0.447C0.283,-0.439 0.321,-0.431 0.367,-0.422C0.4,-0.417 0.431,-0.41 0.46,-0.402C0.49,-0.394 0.517,-0.382 0.54,-0.366C0.564,-0.351 0.583,-0.33 0.596,-0.304C0.61,-0.277 0.617,-0.243 0.617,-0.201C0.617,-0.16 0.606,-0.123 0.584,-0.091C0.563,-0.06 0.531,-0.035 0.489,-0.018C0.446,0 0.394,0.009 0.332,0.009Z" style="fill:rgb(0,53,255);fill-rule:nonzero;"/>
                    </g>
                </g>
                <g transform="matrix(0.877158,0.480202,-0.480202,0.877158,484.606,-405.834)">
                    <g transform="matrix(44.6,0,0,44.6,1035.53,744.27)">
                        <path d="M0.051,-0.277C0.051,-0.3 0.057,-0.32 0.067,-0.338C0.078,-0.356 0.092,-0.37 0.11,-0.381C0.128,-0.391 0.149,-0.396 0.172,-0.396C0.208,-0.396 0.237,-0.385 0.259,-0.362C0.281,-0.34 0.292,-0.311 0.292,-0.277C0.292,-0.255 0.287,-0.234 0.277,-0.216C0.267,-0.199 0.253,-0.184 0.235,-0.174C0.217,-0.164 0.196,-0.159 0.172,-0.159C0.149,-0.159 0.128,-0.164 0.11,-0.174C0.092,-0.184 0.078,-0.199 0.067,-0.216C0.057,-0.234 0.051,-0.255 0.051,-0.277Z" style="fill:rgb(0,53,255);fill-rule:nonzero;"/>
                    </g>
                </g>
                <g transform="matrix(0.931874,0.362783,-0.362783,0.931874,346.502,-332.319)">
                    <g transform="matrix(44.6,0,0,44.6,1058.07,756.426)">
                        <path d="M0.271,-0L0.005,-0.729L0.127,-0.729L0.303,-0.222L0.341,-0.103L0.348,-0.103L0.387,-0.221L0.564,-0.729L0.684,-0.729L0.419,-0L0.271,-0Z" style="fill:rgb(0,53,255);fill-rule:nonzero;"/>
                    </g>
                </g>
                <g transform="matrix(0.966226,0.257695,-0.257695,0.966226,234.238,-253.563)">
                    <g transform="matrix(44.6,0,0,44.6,1084.47,766.842)">
                        <path d="M0.088,-0L0.088,-0.729L0.599,-0.729L0.599,-0.635L0.173,-0.635L0.197,-0.659L0.197,-0.392L0.173,-0.416L0.55,-0.416L0.55,-0.328L0.173,-0.328L0.197,-0.352L0.197,-0.071L0.173,-0.095L0.6,-0.095L0.6,-0L0.088,-0Z" style="fill:rgb(0,53,255);fill-rule:nonzero;"/>
                    </g>
                </g>
                <g transform="matrix(0.989433,0.144992,-0.144992,0.989433,123.992,-152.882)">
                    <g transform="matrix(44.6,0,0,44.6,1110.84,774.204)">
                        <path d="M0.396,0.009C0.341,0.009 0.292,-0 0.248,-0.018C0.204,-0.036 0.166,-0.061 0.135,-0.094C0.104,-0.127 0.08,-0.166 0.064,-0.212C0.048,-0.258 0.04,-0.309 0.04,-0.364C0.04,-0.422 0.048,-0.474 0.066,-0.52C0.083,-0.566 0.107,-0.605 0.139,-0.637C0.171,-0.67 0.209,-0.695 0.253,-0.712C0.298,-0.729 0.347,-0.737 0.4,-0.737C0.462,-0.737 0.517,-0.727 0.564,-0.706C0.612,-0.685 0.65,-0.656 0.679,-0.619C0.708,-0.582 0.726,-0.538 0.732,-0.487L0.62,-0.487C0.614,-0.521 0.601,-0.549 0.58,-0.572C0.56,-0.595 0.534,-0.612 0.503,-0.624C0.473,-0.636 0.438,-0.642 0.4,-0.642C0.35,-0.642 0.306,-0.632 0.269,-0.61C0.231,-0.588 0.202,-0.557 0.182,-0.516C0.161,-0.474 0.151,-0.424 0.151,-0.365C0.151,-0.321 0.157,-0.281 0.168,-0.246C0.18,-0.211 0.196,-0.182 0.218,-0.158C0.24,-0.133 0.266,-0.115 0.296,-0.103C0.326,-0.09 0.36,-0.084 0.398,-0.084C0.446,-0.084 0.488,-0.093 0.524,-0.111C0.56,-0.129 0.588,-0.156 0.607,-0.191C0.627,-0.225 0.637,-0.267 0.637,-0.315L0.637,-0.339L0.673,-0.299L0.405,-0.299L0.405,-0.38L0.748,-0.38L0.748,-0.327C0.748,-0.276 0.739,-0.229 0.723,-0.188C0.706,-0.146 0.682,-0.111 0.651,-0.082C0.62,-0.053 0.583,-0.03 0.54,-0.015C0.497,0.001 0.449,0.009 0.396,0.009Z" style="fill:rgb(0,53,255);fill-rule:nonzero;"/>
                    </g>
                </g>
                <g transform="matrix(0.999727,0.0233829,-0.0233829,0.999727,18.5297,-26.5526)">
                    <g transform="matrix(44.6,0,0,44.6,1144.67,779.062)">
                        <path d="M0.003,-0L0.262,-0.729L0.415,-0.729L0.674,-0L0.56,-0L0.5,-0.17L0.177,-0.17L0.117,-0L0.003,-0ZM0.203,-0.255L0.473,-0.255L0.393,-0.48L0.342,-0.629L0.336,-0.629L0.285,-0.48L0.203,-0.255Z" style="fill:rgb(0,53,255);fill-rule:nonzero;"/>
                    </g>
                </g>
                <g transform="matrix(0.995564,-0.0940886,0.0940886,0.995564,-68.1862,113.807)">
                    <g transform="matrix(44.6,0,0,44.6,1172.8,779.998)">
                        <path d="M0.088,-0L0.088,-0.729L0.222,-0.729L0.599,-0.145L0.606,-0.145L0.6,-0.389L0.6,-0.729L0.706,-0.729L0.706,-0L0.578,-0L0.201,-0.577L0.195,-0.577L0.199,-0.35L0.199,-0L0.088,-0Z" style="fill:rgb(0,53,255);fill-rule:nonzero;"/>
                    </g>
                </g>
                <g transform="matrix(0.974236,-0.225529,0.225529,0.974236,-144.061,292.349)">
                    <g transform="matrix(44.6,0,0,44.6,1207.55,776.713)">
                        <path d="M0.397,0.009C0.343,0.009 0.295,0 0.251,-0.017C0.207,-0.034 0.169,-0.059 0.138,-0.092C0.106,-0.124 0.082,-0.163 0.065,-0.209C0.048,-0.255 0.04,-0.307 0.04,-0.364C0.04,-0.422 0.048,-0.474 0.065,-0.52C0.082,-0.566 0.106,-0.605 0.138,-0.637C0.17,-0.67 0.208,-0.695 0.251,-0.712C0.295,-0.729 0.343,-0.737 0.397,-0.737C0.457,-0.737 0.511,-0.727 0.558,-0.706C0.605,-0.685 0.643,-0.656 0.673,-0.618C0.703,-0.581 0.721,-0.536 0.728,-0.485L0.618,-0.485C0.611,-0.516 0.598,-0.543 0.578,-0.567C0.558,-0.591 0.533,-0.609 0.503,-0.623C0.472,-0.636 0.437,-0.643 0.397,-0.643C0.347,-0.643 0.303,-0.632 0.267,-0.61C0.23,-0.588 0.202,-0.557 0.182,-0.515C0.162,-0.474 0.152,-0.423 0.152,-0.364C0.152,-0.32 0.158,-0.281 0.169,-0.246C0.181,-0.211 0.197,-0.182 0.218,-0.158C0.239,-0.135 0.265,-0.117 0.295,-0.104C0.325,-0.092 0.359,-0.085 0.397,-0.085C0.436,-0.085 0.471,-0.092 0.502,-0.105C0.533,-0.119 0.559,-0.138 0.579,-0.162C0.599,-0.186 0.612,-0.214 0.618,-0.247L0.728,-0.246C0.722,-0.195 0.704,-0.15 0.675,-0.112C0.645,-0.073 0.606,-0.044 0.559,-0.023C0.511,-0.002 0.457,0.009 0.397,0.009Z" style="fill:rgb(0,53,255);fill-rule:nonzero;"/>
                    </g>
                </g>
                <g transform="matrix(0.935181,-0.35417,0.35417,0.935181,-192.021,489.182)">
                    <g transform="matrix(44.6,0,0,44.6,1240.43,769.192)">
                        <path d="M0.088,-0L0.088,-0.729L0.197,-0.729L0.197,-0.401L0.181,-0.417L0.621,-0.417L0.605,-0.401L0.605,-0.729L0.714,-0.729L0.714,-0L0.605,-0L0.605,-0.338L0.621,-0.322L0.181,-0.322L0.197,-0.338L0.197,-0L0.088,-0Z" style="fill:rgb(0,53,255);fill-rule:nonzero;"/>
                    </g>
                </g>
                <g transform="matrix(0.882735,-0.469871,0.469871,0.882735,-206.189,687.018)">
                    <g transform="matrix(44.6,0,0,44.6,1273.32,756.6)">
                        <path d="M0.088,-0L0.088,-0.729L0.599,-0.729L0.599,-0.635L0.173,-0.635L0.197,-0.659L0.197,-0.392L0.173,-0.416L0.55,-0.416L0.55,-0.328L0.173,-0.328L0.197,-0.352L0.197,-0.071L0.173,-0.095L0.6,-0.095L0.6,-0L0.088,-0Z" style="fill:rgb(0,53,255);fill-rule:nonzero;"/>
                    </g>
                </g>
                <g transform="matrix(0.824308,-0.566142,0.566142,0.824308,-193.224,865.349)">
                    <g transform="matrix(44.6,0,0,44.6,1297.62,743.992)">
                        <path d="M0.397,0.009C0.343,0.009 0.295,0 0.251,-0.017C0.207,-0.034 0.169,-0.059 0.138,-0.092C0.106,-0.124 0.082,-0.163 0.065,-0.209C0.048,-0.255 0.04,-0.307 0.04,-0.364C0.04,-0.422 0.048,-0.474 0.065,-0.52C0.082,-0.566 0.106,-0.605 0.138,-0.637C0.17,-0.67 0.208,-0.695 0.251,-0.712C0.295,-0.729 0.343,-0.737 0.397,-0.737C0.457,-0.737 0.511,-0.727 0.558,-0.706C0.605,-0.685 0.643,-0.656 0.673,-0.618C0.703,-0.581 0.721,-0.536 0.728,-0.485L0.618,-0.485C0.611,-0.516 0.598,-0.543 0.578,-0.567C0.558,-0.591 0.533,-0.609 0.503,-0.623C0.472,-0.636 0.437,-0.643 0.397,-0.643C0.347,-0.643 0.303,-0.632 0.267,-0.61C0.23,-0.588 0.202,-0.557 0.182,-0.515C0.162,-0.474 0.152,-0.423 0.152,-0.364C0.152,-0.32 0.158,-0.281 0.169,-0.246C0.181,-0.211 0.197,-0.182 0.218,-0.158C0.239,-0.135 0.265,-0.117 0.295,-0.104C0.325,-0.092 0.359,-0.085 0.397,-0.085C0.436,-0.085 0.471,-0.092 0.502,-0.105C0.533,-0.119 0.559,-0.138 0.579,-0.162C0.599,-0.186 0.612,-0.214 0.618,-0.247L0.728,-0.246C0.722,-0.195 0.704,-0.15 0.675,-0.112C0.645,-0.073 0.606,-0.044 0.559,-0.023C0.511,-0.002 0.457,0.009 0.397,0.009Z" style="fill:rgb(0,53,255);fill-rule:nonzero;"/>
                    </g>
                </g>
                <g transform="matrix(0.74398,-0.668202,0.668202,0.74398,-145.036,1071.27)">
                    <g transform="matrix(44.6,0,0,44.6,1325.47,724.903)">
                        <path d="M0.088,-0L0.088,-0.729L0.197,-0.729L0.197,-0.347L0.543,-0.729L0.675,-0.729L0.394,-0.426L0.68,-0L0.551,-0L0.32,-0.347L0.197,-0.217L0.197,-0L0.088,-0Z" style="fill:rgb(0,53,255);fill-rule:nonzero;"/>
                    </g>
                </g>
                <g transform="matrix(0.631817,-0.775118,0.775118,0.631817,-42.111,1307.17)">
                    <g transform="matrix(44.6,0,0,44.6,1354.91,697.913)">
                        <path d="M0.396,0.009C0.341,0.009 0.292,-0 0.248,-0.018C0.204,-0.036 0.166,-0.061 0.135,-0.094C0.104,-0.127 0.08,-0.166 0.064,-0.212C0.048,-0.258 0.04,-0.309 0.04,-0.364C0.04,-0.422 0.048,-0.474 0.066,-0.52C0.083,-0.566 0.107,-0.605 0.139,-0.637C0.171,-0.67 0.209,-0.695 0.253,-0.712C0.298,-0.729 0.347,-0.737 0.4,-0.737C0.462,-0.737 0.517,-0.727 0.564,-0.706C0.612,-0.685 0.65,-0.656 0.679,-0.619C0.708,-0.582 0.726,-0.538 0.732,-0.487L0.62,-0.487C0.614,-0.521 0.601,-0.549 0.58,-0.572C0.56,-0.595 0.534,-0.612 0.503,-0.624C0.473,-0.636 0.438,-0.642 0.4,-0.642C0.35,-0.642 0.306,-0.632 0.269,-0.61C0.231,-0.588 0.202,-0.557 0.182,-0.516C0.161,-0.474 0.151,-0.424 0.151,-0.365C0.151,-0.321 0.157,-0.281 0.168,-0.246C0.18,-0.211 0.196,-0.182 0.218,-0.158C0.24,-0.133 0.266,-0.115 0.296,-0.103C0.326,-0.09 0.36,-0.084 0.398,-0.084C0.446,-0.084 0.488,-0.093 0.524,-0.111C0.56,-0.129 0.588,-0.156 0.607,-0.191C0.627,-0.225 0.637,-0.267 0.637,-0.315L0.637,-0.339L0.673,-0.299L0.405,-0.299L0.405,-0.38L0.748,-0.38L0.748,-0.327C0.748,-0.276 0.739,-0.229 0.723,-0.188C0.706,-0.146 0.682,-0.111 0.651,-0.082C0.62,-0.053 0.583,-0.03 0.54,-0.015C0.497,0.001 0.449,0.009 0.396,0.009Z" style="fill:rgb(0,53,255);fill-rule:nonzero;"/>
                    </g>
                </g>
                <g transform="matrix(0.523619,-0.851953,0.851953,0.523619,84.6156,1492.68)">
                    <g transform="matrix(44.6,0,0,44.6,1377.05,670.679)">
                        <path d="M0.088,-0L0.088,-0.729L0.428,-0.729C0.468,-0.729 0.503,-0.725 0.533,-0.716C0.563,-0.707 0.589,-0.694 0.609,-0.677C0.629,-0.659 0.644,-0.638 0.654,-0.614C0.664,-0.589 0.67,-0.56 0.67,-0.528C0.67,-0.484 0.658,-0.447 0.636,-0.415C0.614,-0.384 0.582,-0.363 0.541,-0.352L0.541,-0.345C0.581,-0.338 0.609,-0.323 0.627,-0.299C0.644,-0.275 0.653,-0.243 0.653,-0.201L0.653,-0.079C0.653,-0.067 0.653,-0.054 0.654,-0.041C0.655,-0.028 0.659,-0.014 0.665,-0L0.555,-0C0.551,-0.01 0.548,-0.022 0.546,-0.035C0.544,-0.049 0.544,-0.064 0.544,-0.081L0.544,-0.182C0.544,-0.207 0.54,-0.228 0.533,-0.245C0.525,-0.261 0.513,-0.274 0.494,-0.282C0.475,-0.291 0.449,-0.295 0.414,-0.295L0.197,-0.295L0.197,-0L0.088,-0ZM0.197,-0.383L0.413,-0.383C0.465,-0.383 0.503,-0.396 0.525,-0.42C0.547,-0.444 0.558,-0.476 0.558,-0.514C0.558,-0.543 0.552,-0.567 0.54,-0.585C0.528,-0.603 0.511,-0.616 0.489,-0.625C0.468,-0.633 0.442,-0.637 0.413,-0.637L0.197,-0.637L0.197,-0.383Z" style="fill:rgb(0,53,255);fill-rule:nonzero;"/>
                    </g>
                </g>
                <g transform="matrix(0.423465,-0.905912,0.905912,0.423465,219.807,1633.69)">
                    <g transform="matrix(44.6,0,0,44.6,1393.41,644.152)">
                        <path d="M0.003,-0L0.262,-0.729L0.415,-0.729L0.674,-0L0.56,-0L0.5,-0.17L0.177,-0.17L0.117,-0L0.003,-0ZM0.203,-0.255L0.473,-0.255L0.393,-0.48L0.342,-0.629L0.336,-0.629L0.285,-0.48L0.203,-0.255Z" style="fill:rgb(0,53,255);fill-rule:nonzero;"/>
                    </g>
                </g>
                <g transform="matrix(0.311622,-0.950206,0.950206,0.311622,379.599,1761.56)">
                    <g transform="matrix(44.6,0,0,44.6,1405.59,618.792)">
                        <path d="M0.088,-0L0.088,-0.729L0.383,-0.729C0.453,-0.729 0.513,-0.714 0.562,-0.684C0.611,-0.653 0.648,-0.611 0.674,-0.556C0.7,-0.501 0.713,-0.437 0.713,-0.364C0.713,-0.31 0.706,-0.26 0.691,-0.215C0.676,-0.17 0.655,-0.132 0.627,-0.1C0.598,-0.068 0.564,-0.043 0.523,-0.026C0.482,-0.009 0.435,-0 0.383,-0L0.088,-0ZM0.197,-0.094L0.367,-0.094C0.402,-0.094 0.434,-0.1 0.463,-0.111C0.492,-0.122 0.516,-0.138 0.537,-0.161C0.558,-0.183 0.574,-0.212 0.585,-0.246C0.596,-0.28 0.601,-0.32 0.601,-0.366C0.601,-0.428 0.591,-0.479 0.572,-0.518C0.552,-0.558 0.525,-0.587 0.49,-0.606C0.455,-0.626 0.414,-0.635 0.367,-0.635L0.197,-0.635L0.197,-0.094Z" style="fill:rgb(0,53,255);fill-rule:nonzero;"/>
                    </g>
                </g>
                <g transform="matrix(0.196462,-0.980511,0.980511,0.196462,561.792,1860.29)">
                    <g transform="matrix(44.6,0,0,44.6,1415.9,587.386)">
                        <path d="M0.088,-0L0.088,-0.729L0.599,-0.729L0.599,-0.635L0.173,-0.635L0.197,-0.659L0.197,-0.392L0.173,-0.416L0.55,-0.416L0.55,-0.328L0.173,-0.328L0.197,-0.352L0.197,-0.071L0.173,-0.095L0.6,-0.095L0.6,-0L0.088,-0Z" style="fill:rgb(0,53,255);fill-rule:nonzero;"/>
                    </g>
                </g>
                <g transform="matrix(0.0919248,-0.995766,0.995766,0.0919248,733.153,1924.04)">
                    <g transform="matrix(44.6,0,0,44.6,1421.49,560.042)">
                        <path d="M0.332,0.009C0.267,0.009 0.214,-0.001 0.171,-0.021C0.128,-0.041 0.096,-0.069 0.075,-0.105C0.054,-0.141 0.043,-0.181 0.042,-0.228L0.154,-0.228C0.155,-0.197 0.161,-0.17 0.174,-0.148C0.187,-0.125 0.207,-0.107 0.233,-0.095C0.259,-0.083 0.293,-0.077 0.334,-0.077C0.385,-0.077 0.426,-0.086 0.457,-0.105C0.488,-0.124 0.504,-0.153 0.504,-0.191C0.504,-0.213 0.5,-0.231 0.494,-0.246C0.487,-0.26 0.476,-0.272 0.461,-0.282C0.446,-0.292 0.426,-0.3 0.402,-0.307C0.377,-0.314 0.347,-0.32 0.312,-0.326C0.27,-0.333 0.233,-0.342 0.202,-0.353C0.17,-0.363 0.144,-0.376 0.123,-0.392C0.101,-0.407 0.086,-0.426 0.075,-0.449C0.064,-0.471 0.059,-0.498 0.059,-0.529C0.059,-0.572 0.07,-0.609 0.091,-0.64C0.113,-0.671 0.143,-0.695 0.183,-0.712C0.223,-0.729 0.271,-0.737 0.327,-0.737C0.383,-0.737 0.431,-0.729 0.47,-0.711C0.509,-0.693 0.54,-0.668 0.561,-0.636C0.582,-0.605 0.593,-0.567 0.594,-0.524L0.483,-0.524C0.482,-0.553 0.475,-0.577 0.461,-0.597C0.447,-0.616 0.429,-0.63 0.405,-0.639C0.382,-0.649 0.354,-0.653 0.323,-0.653C0.291,-0.653 0.264,-0.649 0.241,-0.64C0.219,-0.631 0.202,-0.618 0.19,-0.602C0.178,-0.585 0.172,-0.566 0.172,-0.544C0.172,-0.517 0.178,-0.496 0.191,-0.482C0.204,-0.467 0.225,-0.456 0.254,-0.447C0.283,-0.439 0.321,-0.431 0.367,-0.422C0.4,-0.417 0.431,-0.41 0.46,-0.402C0.49,-0.394 0.517,-0.382 0.54,-0.366C0.564,-0.351 0.583,-0.33 0.596,-0.304C0.61,-0.277 0.617,-0.243 0.617,-0.201C0.617,-0.16 0.606,-0.123 0.584,-0.091C0.563,-0.06 0.531,-0.035 0.489,-0.018C0.446,0 0.394,0.009 0.332,0.009Z" style="fill:rgb(0,53,255);fill-rule:nonzero;"/>
                    </g>
                </g>
                <g transform="matrix(-0.0317005,-0.999497,0.999497,-0.0317005,948.692,1960.62)">
                    <g transform="matrix(44.6,0,0,44.6,1424.06,520.771)">
                        <path d="M0.051,-0.277C0.051,-0.3 0.057,-0.32 0.067,-0.338C0.078,-0.356 0.092,-0.37 0.11,-0.381C0.128,-0.391 0.149,-0.396 0.172,-0.396C0.208,-0.396 0.237,-0.385 0.259,-0.362C0.281,-0.34 0.292,-0.311 0.292,-0.277C0.292,-0.255 0.287,-0.234 0.277,-0.216C0.267,-0.199 0.253,-0.184 0.235,-0.174C0.217,-0.164 0.196,-0.159 0.172,-0.159C0.149,-0.159 0.128,-0.164 0.11,-0.174C0.092,-0.184 0.078,-0.199 0.067,-0.216C0.057,-0.234 0.051,-0.255 0.051,-0.277Z" style="fill:rgb(0,53,255);fill-rule:nonzero;"/>
                    </g>
                </g>
                <g transform="matrix(-0.159962,-0.987123,0.987123,-0.159962,1162,1979.03)">
                    <g transform="matrix(44.6,0,0,44.6,1423.08,495.087)">
                        <path d="M0.271,-0L0.005,-0.729L0.127,-0.729L0.303,-0.222L0.341,-0.103L0.348,-0.103L0.387,-0.221L0.564,-0.729L0.684,-0.729L0.419,-0L0.271,-0Z" style="fill:rgb(0,53,255);fill-rule:nonzero;"/>
                    </g>
                </g>
                <g transform="matrix(-0.267455,-0.96357,0.96357,-0.267455,1347.99,1959.1)">
                    <g transform="matrix(44.6,0,0,44.6,1418.69,467.149)">
                        <path d="M0.088,-0L0.088,-0.729L0.599,-0.729L0.599,-0.635L0.173,-0.635L0.197,-0.659L0.197,-0.392L0.173,-0.416L0.55,-0.416L0.55,-0.328L0.173,-0.328L0.197,-0.352L0.197,-0.071L0.173,-0.095L0.6,-0.095L0.6,-0L0.088,-0Z" style="fill:rgb(0,53,255);fill-rule:nonzero;"/>
                    </g>
                </g>
                <g transform="matrix(-0.376693,-0.926338,0.926338,-0.376693,1535.24,1914.31)">
                    <g transform="matrix(44.6,0,0,44.6,1411.66,440.648)">
                        <path d="M0.396,0.009C0.341,0.009 0.292,-0 0.248,-0.018C0.204,-0.036 0.166,-0.061 0.135,-0.094C0.104,-0.127 0.08,-0.166 0.064,-0.212C0.048,-0.258 0.04,-0.309 0.04,-0.364C0.04,-0.422 0.048,-0.474 0.066,-0.52C0.083,-0.566 0.107,-0.605 0.139,-0.637C0.171,-0.67 0.209,-0.695 0.253,-0.712C0.298,-0.729 0.347,-0.737 0.4,-0.737C0.462,-0.737 0.517,-0.727 0.564,-0.706C0.612,-0.685 0.65,-0.656 0.679,-0.619C0.708,-0.582 0.726,-0.538 0.732,-0.487L0.62,-0.487C0.614,-0.521 0.601,-0.549 0.58,-0.572C0.56,-0.595 0.534,-0.612 0.503,-0.624C0.473,-0.636 0.438,-0.642 0.4,-0.642C0.35,-0.642 0.306,-0.632 0.269,-0.61C0.231,-0.588 0.202,-0.557 0.182,-0.516C0.161,-0.474 0.151,-0.424 0.151,-0.365C0.151,-0.321 0.157,-0.281 0.168,-0.246C0.18,-0.211 0.196,-0.182 0.218,-0.158C0.24,-0.133 0.266,-0.115 0.296,-0.103C0.326,-0.09 0.36,-0.084 0.398,-0.084C0.446,-0.084 0.488,-0.093 0.524,-0.111C0.56,-0.129 0.588,-0.156 0.607,-0.191C0.627,-0.225 0.637,-0.267 0.637,-0.315L0.637,-0.339L0.673,-0.299L0.405,-0.299L0.405,-0.38L0.748,-0.38L0.748,-0.327C0.748,-0.276 0.739,-0.229 0.723,-0.188C0.706,-0.146 0.682,-0.111 0.651,-0.082C0.62,-0.053 0.583,-0.03 0.54,-0.015C0.497,0.001 0.449,0.009 0.396,0.009Z" style="fill:rgb(0,53,255);fill-rule:nonzero;"/>
                    </g>
                </g>
                <g transform="matrix(-0.487816,-0.872947,0.872947,-0.487816,1723.95,1829.48)">
                    <g transform="matrix(44.6,0,0,44.6,1398.68,408.994)">
                        <path d="M0.003,-0L0.262,-0.729L0.415,-0.729L0.674,-0L0.56,-0L0.5,-0.17L0.177,-0.17L0.117,-0L0.003,-0ZM0.203,-0.255L0.473,-0.255L0.393,-0.48L0.342,-0.629L0.336,-0.629L0.285,-0.48L0.203,-0.255Z" style="fill:rgb(0,53,255);fill-rule:nonzero;"/>
                    </g>
                </g>
                <g transform="matrix(-0.587711,-0.809071,0.809071,-0.587711,1888.38,1730.93)">
                    <g transform="matrix(44.6,0,0,44.6,1385.22,384.325)">
                        <path d="M0.088,-0L0.088,-0.729L0.222,-0.729L0.599,-0.145L0.606,-0.145L0.6,-0.389L0.6,-0.729L0.706,-0.729L0.706,-0L0.578,-0L0.201,-0.577L0.195,-0.577L0.199,-0.35L0.199,-0L0.088,-0Z" style="fill:rgb(0,53,255);fill-rule:nonzero;"/>
                    </g>
                </g>
                <g transform="matrix(-0.689254,-0.724519,0.724519,-0.689254,2047.3,1590.17)">
                    <g transform="matrix(44.6,0,0,44.6,1364.66,356.043)">
                        <path d="M0.397,0.009C0.343,0.009 0.295,0 0.251,-0.017C0.207,-0.034 0.169,-0.059 0.138,-0.092C0.106,-0.124 0.082,-0.163 0.065,-0.209C0.048,-0.255 0.04,-0.307 0.04,-0.364C0.04,-0.422 0.048,-0.474 0.065,-0.52C0.082,-0.566 0.106,-0.605 0.138,-0.637C0.17,-0.67 0.208,-0.695 0.251,-0.712C0.295,-0.729 0.343,-0.737 0.397,-0.737C0.457,-0.737 0.511,-0.727 0.558,-0.706C0.605,-0.685 0.643,-0.656 0.673,-0.618C0.703,-0.581 0.721,-0.536 0.728,-0.485L0.618,-0.485C0.611,-0.516 0.598,-0.543 0.578,-0.567C0.558,-0.591 0.533,-0.609 0.503,-0.623C0.472,-0.636 0.437,-0.643 0.397,-0.643C0.347,-0.643 0.303,-0.632 0.267,-0.61C0.23,-0.588 0.202,-0.557 0.182,-0.515C0.162,-0.474 0.152,-0.423 0.152,-0.364C0.152,-0.32 0.158,-0.281 0.169,-0.246C0.181,-0.211 0.197,-0.182 0.218,-0.158C0.239,-0.135 0.265,-0.117 0.295,-0.104C0.325,-0.092 0.359,-0.085 0.397,-0.085C0.436,-0.085 0.471,-0.092 0.502,-0.105C0.533,-0.119 0.559,-0.138 0.579,-0.162C0.599,-0.186 0.612,-0.214 0.618,-0.247L0.728,-0.246C0.722,-0.195 0.704,-0.15 0.675,-0.112C0.645,-0.073 0.606,-0.044 0.559,-0.023C0.511,-0.002 0.457,0.009 0.397,0.009Z" style="fill:rgb(0,53,255);fill-rule:nonzero;"/>
                    </g>
                </g>
                <g transform="matrix(-0.778993,-0.627033,0.627033,-0.778993,2178.57,1430.94)">
                    <g transform="matrix(44.6,0,0,44.6,1341.46,331.535)">
                        <path d="M0.088,-0L0.088,-0.729L0.197,-0.729L0.197,-0.401L0.181,-0.417L0.621,-0.417L0.605,-0.401L0.605,-0.729L0.714,-0.729L0.714,-0L0.605,-0L0.605,-0.338L0.621,-0.322L0.181,-0.322L0.197,-0.338L0.197,-0L0.088,-0Z" style="fill:rgb(0,53,255);fill-rule:nonzero;"/>
                    </g>
                </g>
                <g transform="matrix(-0.851558,-0.52426,0.52426,-0.851558,2270.62,1262.05)">
                    <g transform="matrix(44.6,0,0,44.6,1313.98,309.569)">
                        <path d="M0.088,-0L0.088,-0.729L0.599,-0.729L0.599,-0.635L0.173,-0.635L0.197,-0.659L0.197,-0.392L0.173,-0.416L0.55,-0.416L0.55,-0.328L0.173,-0.328L0.197,-0.352L0.197,-0.071L0.173,-0.095L0.6,-0.095L0.6,-0L0.088,-0Z" style="fill:rgb(0,53,255);fill-rule:nonzero;"/>
                    </g>
                </g>
                <g transform="matrix(-0.905185,-0.425018,0.425018,-0.905185,2333.92,1110.63)">
                    <g transform="matrix(44.6,0,0,44.6,1290.84,294.981)">
                        <path d="M0.397,0.009C0.343,0.009 0.295,0 0.251,-0.017C0.207,-0.034 0.169,-0.059 0.138,-0.092C0.106,-0.124 0.082,-0.163 0.065,-0.209C0.048,-0.255 0.04,-0.307 0.04,-0.364C0.04,-0.422 0.048,-0.474 0.065,-0.52C0.082,-0.566 0.106,-0.605 0.138,-0.637C0.17,-0.67 0.208,-0.695 0.251,-0.712C0.295,-0.729 0.343,-0.737 0.397,-0.737C0.457,-0.737 0.511,-0.727 0.558,-0.706C0.605,-0.685 0.643,-0.656 0.673,-0.618C0.703,-0.581 0.721,-0.536 0.728,-0.485L0.618,-0.485C0.611,-0.516 0.598,-0.543 0.578,-0.567C0.558,-0.591 0.533,-0.609 0.503,-0.623C0.472,-0.636 0.437,-0.643 0.397,-0.643C0.347,-0.643 0.303,-0.632 0.267,-0.61C0.23,-0.588 0.202,-0.557 0.182,-0.515C0.162,-0.474 0.152,-0.423 0.152,-0.364C0.152,-0.32 0.158,-0.281 0.169,-0.246C0.181,-0.211 0.197,-0.182 0.218,-0.158C0.239,-0.135 0.265,-0.117 0.295,-0.104C0.325,-0.092 0.359,-0.085 0.397,-0.085C0.436,-0.085 0.471,-0.092 0.502,-0.105C0.533,-0.119 0.559,-0.138 0.579,-0.162C0.599,-0.186 0.612,-0.214 0.618,-0.247L0.728,-0.246C0.722,-0.195 0.704,-0.15 0.675,-0.112C0.645,-0.073 0.606,-0.044 0.559,-0.023C0.511,-0.002 0.457,0.009 0.397,0.009Z" style="fill:rgb(0,53,255);fill-rule:nonzero;"/>
                    </g>
                </g>
                <g transform="matrix(-0.953176,-0.302415,0.302415,-0.953176,2376.64,929.146)">
                    <g transform="matrix(44.6,0,0,44.6,1260.25,280.582)">
                        <path d="M0.088,-0L0.088,-0.729L0.197,-0.729L0.197,-0.347L0.543,-0.729L0.675,-0.729L0.394,-0.426L0.68,-0L0.551,-0L0.32,-0.347L0.197,-0.217L0.197,-0L0.088,-0Z" style="fill:rgb(0,53,255);fill-rule:nonzero;"/>
                    </g>
                </g>
                <g transform="matrix(-0.988737,-0.149663,0.149663,-0.988737,2390.25,717.714)">
                    <g transform="matrix(44.6,0,0,44.6,1222.13,268.917)">
                        <path d="M0.396,0.009C0.341,0.009 0.292,-0 0.248,-0.018C0.204,-0.036 0.166,-0.061 0.135,-0.094C0.104,-0.127 0.08,-0.166 0.064,-0.212C0.048,-0.258 0.04,-0.309 0.04,-0.364C0.04,-0.422 0.048,-0.474 0.066,-0.52C0.083,-0.566 0.107,-0.605 0.139,-0.637C0.171,-0.67 0.209,-0.695 0.253,-0.712C0.298,-0.729 0.347,-0.737 0.4,-0.737C0.462,-0.737 0.517,-0.727 0.564,-0.706C0.612,-0.685 0.65,-0.656 0.679,-0.619C0.708,-0.582 0.726,-0.538 0.732,-0.487L0.62,-0.487C0.614,-0.521 0.601,-0.549 0.58,-0.572C0.56,-0.595 0.534,-0.612 0.503,-0.624C0.473,-0.636 0.438,-0.642 0.4,-0.642C0.35,-0.642 0.306,-0.632 0.269,-0.61C0.231,-0.588 0.202,-0.557 0.182,-0.516C0.161,-0.474 0.151,-0.424 0.151,-0.365C0.151,-0.321 0.157,-0.281 0.168,-0.246C0.18,-0.211 0.196,-0.182 0.218,-0.158C0.24,-0.133 0.266,-0.115 0.296,-0.103C0.326,-0.09 0.36,-0.084 0.398,-0.084C0.446,-0.084 0.488,-0.093 0.524,-0.111C0.56,-0.129 0.588,-0.156 0.607,-0.191C0.627,-0.225 0.637,-0.267 0.637,-0.315L0.637,-0.339L0.673,-0.299L0.405,-0.299L0.405,-0.38L0.748,-0.38L0.748,-0.327C0.748,-0.276 0.739,-0.229 0.723,-0.188C0.706,-0.146 0.682,-0.111 0.651,-0.082C0.62,-0.053 0.583,-0.03 0.54,-0.015C0.497,0.001 0.449,0.009 0.396,0.009Z" style="fill:rgb(0,53,255);fill-rule:nonzero;"/>
                    </g>
                </g>
                <g transform="matrix(-0.999844,-0.0176378,0.0176378,-0.999844,2370.01,548.329)">
                    <g transform="matrix(44.6,0,0,44.6,1187.42,263.713)">
                        <path d="M0.088,-0L0.088,-0.729L0.428,-0.729C0.468,-0.729 0.503,-0.725 0.533,-0.716C0.563,-0.707 0.589,-0.694 0.609,-0.677C0.629,-0.659 0.644,-0.638 0.654,-0.614C0.664,-0.589 0.67,-0.56 0.67,-0.528C0.67,-0.484 0.658,-0.447 0.636,-0.415C0.614,-0.384 0.582,-0.363 0.541,-0.352L0.541,-0.345C0.581,-0.338 0.609,-0.323 0.627,-0.299C0.644,-0.275 0.653,-0.243 0.653,-0.201L0.653,-0.079C0.653,-0.067 0.653,-0.054 0.654,-0.041C0.655,-0.028 0.659,-0.014 0.665,-0L0.555,-0C0.551,-0.01 0.548,-0.022 0.546,-0.035C0.544,-0.049 0.544,-0.064 0.544,-0.081L0.544,-0.182C0.544,-0.207 0.54,-0.228 0.533,-0.245C0.525,-0.261 0.513,-0.274 0.494,-0.282C0.475,-0.291 0.449,-0.295 0.414,-0.295L0.197,-0.295L0.197,-0L0.088,-0ZM0.197,-0.383L0.413,-0.383C0.465,-0.383 0.503,-0.396 0.525,-0.42C0.547,-0.444 0.558,-0.476 0.558,-0.514C0.558,-0.543 0.552,-0.567 0.54,-0.585C0.528,-0.603 0.511,-0.616 0.489,-0.625C0.468,-0.633 0.442,-0.637 0.413,-0.637L0.197,-0.637L0.197,-0.383Z" style="fill:rgb(0,53,255);fill-rule:nonzero;"/>
                    </g>
                </g>
                <g transform="matrix(-0.995489,0.0948752,-0.0948752,-0.995489,2332.09,415.352)">
                    <g transform="matrix(44.6,0,0,44.6,1156.17,263.116)">
                        <path d="M0.003,-0L0.262,-0.729L0.415,-0.729L0.674,-0L0.56,-0L0.5,-0.17L0.177,-0.17L0.117,-0L0.003,-0ZM0.203,-0.255L0.473,-0.255L0.393,-0.48L0.342,-0.629L0.336,-0.629L0.285,-0.48L0.203,-0.255Z" style="fill:rgb(0,53,255);fill-rule:nonzero;"/>
                    </g>
                </g>
                <g transform="matrix(-0.977065,0.212942,-0.212942,-0.977065,2287.11,284.625)">
                    <g transform="matrix(44.6,0,0,44.6,1128.23,265.48)">
                        <path d="M0.088,-0L0.088,-0.729L0.383,-0.729C0.453,-0.729 0.513,-0.714 0.562,-0.684C0.611,-0.653 0.648,-0.611 0.674,-0.556C0.7,-0.501 0.713,-0.437 0.713,-0.364C0.713,-0.31 0.706,-0.26 0.691,-0.215C0.676,-0.17 0.655,-0.132 0.627,-0.1C0.598,-0.068 0.564,-0.043 0.523,-0.026C0.482,-0.009 0.435,-0 0.383,-0L0.088,-0ZM0.197,-0.094L0.367,-0.094C0.402,-0.094 0.434,-0.1 0.463,-0.111C0.492,-0.122 0.516,-0.138 0.537,-0.161C0.558,-0.183 0.574,-0.212 0.585,-0.246C0.596,-0.28 0.601,-0.32 0.601,-0.366C0.601,-0.428 0.591,-0.479 0.572,-0.518C0.552,-0.558 0.525,-0.587 0.49,-0.606C0.455,-0.626 0.414,-0.635 0.367,-0.635L0.197,-0.635L0.197,-0.094Z" style="fill:rgb(0,53,255);fill-rule:nonzero;"/>
                    </g>
                </g>
                <g transform="matrix(-0.944772,0.32773,-0.32773,-0.944772,2220.58,170.829)">
                    <g transform="matrix(44.6,0,0,44.6,1095.89,272.518)">
                        <path d="M0.088,-0L0.088,-0.729L0.599,-0.729L0.599,-0.635L0.173,-0.635L0.197,-0.659L0.197,-0.392L0.173,-0.416L0.55,-0.416L0.55,-0.328L0.173,-0.328L0.197,-0.352L0.197,-0.071L0.173,-0.095L0.6,-0.095L0.6,-0L0.088,-0Z" style="fill:rgb(0,53,255);fill-rule:nonzero;"/>
                    </g>
                </g>
                <g transform="matrix(-0.904698,0.426053,-0.426053,-0.904698,2156.98,80.6479)">
                    <g transform="matrix(44.6,0,0,44.6,1069.47,281.566)">
                        <path d="M0.332,0.009C0.267,0.009 0.214,-0.001 0.171,-0.021C0.128,-0.041 0.096,-0.069 0.075,-0.105C0.054,-0.141 0.043,-0.181 0.042,-0.228L0.154,-0.228C0.155,-0.197 0.161,-0.17 0.174,-0.148C0.187,-0.125 0.207,-0.107 0.233,-0.095C0.259,-0.083 0.293,-0.077 0.334,-0.077C0.385,-0.077 0.426,-0.086 0.457,-0.105C0.488,-0.124 0.504,-0.153 0.504,-0.191C0.504,-0.213 0.5,-0.231 0.494,-0.246C0.487,-0.26 0.476,-0.272 0.461,-0.282C0.446,-0.292 0.426,-0.3 0.402,-0.307C0.377,-0.314 0.347,-0.32 0.312,-0.326C0.27,-0.333 0.233,-0.342 0.202,-0.353C0.17,-0.363 0.144,-0.376 0.123,-0.392C0.101,-0.407 0.086,-0.426 0.075,-0.449C0.064,-0.471 0.059,-0.498 0.059,-0.529C0.059,-0.572 0.07,-0.609 0.091,-0.64C0.113,-0.671 0.143,-0.695 0.183,-0.712C0.223,-0.729 0.271,-0.737 0.327,-0.737C0.383,-0.737 0.431,-0.729 0.47,-0.711C0.509,-0.693 0.54,-0.668 0.561,-0.636C0.582,-0.605 0.593,-0.567 0.594,-0.524L0.483,-0.524C0.482,-0.553 0.475,-0.577 0.461,-0.597C0.447,-0.616 0.429,-0.63 0.405,-0.639C0.382,-0.649 0.354,-0.653 0.323,-0.653C0.291,-0.653 0.264,-0.649 0.241,-0.64C0.219,-0.631 0.202,-0.618 0.19,-0.602C0.178,-0.585 0.172,-0.566 0.172,-0.544C0.172,-0.517 0.178,-0.496 0.191,-0.482C0.204,-0.467 0.225,-0.456 0.254,-0.447C0.283,-0.439 0.321,-0.431 0.367,-0.422C0.4,-0.417 0.431,-0.41 0.46,-0.402C0.49,-0.394 0.517,-0.382 0.54,-0.366C0.564,-0.351 0.583,-0.33 0.596,-0.304C0.61,-0.277 0.617,-0.243 0.617,-0.201C0.617,-0.16 0.606,-0.123 0.584,-0.091C0.563,-0.06 0.531,-0.035 0.489,-0.018C0.446,0 0.394,0.009 0.332,0.009Z" style="fill:rgb(0,53,255);fill-rule:nonzero;"/>
                    </g>
                </g>
                <g transform="matrix(-0.844176,0.536066,-0.536066,-0.844176,2067.87,-2.45019)">
                    <g transform="matrix(44.6,0,0,44.6,1034.29,299.32)">
                        <path d="M0.051,-0.277C0.051,-0.3 0.057,-0.32 0.067,-0.338C0.078,-0.356 0.092,-0.37 0.11,-0.381C0.128,-0.391 0.149,-0.396 0.172,-0.396C0.208,-0.396 0.237,-0.385 0.259,-0.362C0.281,-0.34 0.292,-0.311 0.292,-0.277C0.292,-0.255 0.287,-0.234 0.277,-0.216C0.267,-0.199 0.253,-0.184 0.235,-0.174C0.217,-0.164 0.196,-0.159 0.172,-0.159C0.149,-0.159 0.128,-0.164 0.11,-0.174C0.092,-0.184 0.078,-0.199 0.067,-0.216C0.057,-0.234 0.051,-0.255 0.051,-0.277Z" style="fill:rgb(0,53,255);fill-rule:nonzero;"/>
                    </g>
                </g>
            </g>
            <g transform="matrix(2.15978,0,0,7.39115,2388.23,1111.71)">
                <g transform="matrix(72,0,0,72,127.581,137.07)">
                    <path d="M0.192,-0L0.091,-0.729L0.252,-0.729L0.303,-0.26L0.315,-0.15L0.322,-0.15L0.376,-0.262L0.616,-0.729L0.792,-0.729L0.387,-0L0.192,-0Z" style="fill:white;fill-rule:nonzero;"/>
                </g>
                <g transform="matrix(72,0,0,72,173.229,137.07)">
                    <path d="M0.013,-0L0.164,-0.729L0.68,-0.729L0.652,-0.596L0.255,-0.596L0.298,-0.632L0.25,-0.397L0.221,-0.431L0.57,-0.431L0.545,-0.306L0.194,-0.306L0.238,-0.342L0.188,-0.098L0.16,-0.133L0.558,-0.133L0.531,-0L0.013,-0Z" style="fill:white;fill-rule:nonzero;"/>
                </g>
                <g transform="matrix(72,0,0,72,217.365,137.07)">
                    <path d="M0.361,0.01C0.309,0.01 0.263,0.002 0.223,-0.014C0.183,-0.031 0.15,-0.054 0.123,-0.083C0.096,-0.113 0.076,-0.149 0.062,-0.19C0.049,-0.231 0.043,-0.277 0.045,-0.328C0.047,-0.391 0.058,-0.447 0.079,-0.498C0.099,-0.548 0.127,-0.591 0.163,-0.626C0.198,-0.662 0.24,-0.689 0.288,-0.709C0.336,-0.728 0.389,-0.738 0.447,-0.738C0.507,-0.738 0.56,-0.727 0.604,-0.706C0.649,-0.685 0.685,-0.655 0.71,-0.617C0.736,-0.579 0.749,-0.535 0.75,-0.485L0.593,-0.483C0.591,-0.508 0.584,-0.53 0.57,-0.549C0.557,-0.567 0.539,-0.581 0.518,-0.592C0.496,-0.602 0.47,-0.607 0.44,-0.607C0.393,-0.607 0.352,-0.596 0.317,-0.573C0.282,-0.549 0.255,-0.517 0.236,-0.475C0.216,-0.433 0.205,-0.384 0.203,-0.328C0.202,-0.293 0.205,-0.262 0.213,-0.236C0.22,-0.21 0.231,-0.188 0.247,-0.171C0.262,-0.154 0.28,-0.141 0.302,-0.133C0.323,-0.124 0.347,-0.12 0.373,-0.12C0.412,-0.12 0.445,-0.126 0.472,-0.139C0.499,-0.152 0.521,-0.171 0.537,-0.197C0.554,-0.223 0.565,-0.254 0.572,-0.291L0.576,-0.312L0.599,-0.285L0.388,-0.285L0.411,-0.389L0.752,-0.389L0.736,-0.306C0.726,-0.25 0.709,-0.202 0.686,-0.162C0.663,-0.122 0.635,-0.089 0.602,-0.064C0.57,-0.039 0.533,-0.02 0.492,-0.008C0.451,0.004 0.407,0.01 0.361,0.01Z" style="fill:white;fill-rule:nonzero;"/>
                </g>
                <g transform="matrix(72,0,0,72,272.517,137.07)">
                    <path d="M-0.066,-0L0.325,-0.729L0.512,-0.729L0.607,-0L0.459,-0L0.441,-0.15L0.17,-0.15L0.09,-0L-0.066,-0ZM0.228,-0.269L0.43,-0.269L0.403,-0.487L0.392,-0.574L0.386,-0.574L0.344,-0.489L0.228,-0.269Z" style="fill:white;fill-rule:nonzero;"/>
                </g>
                <g transform="matrix(72,0,0,72,317.805,137.07)">
                    <path d="M0.013,-0L0.164,-0.729L0.342,-0.729L0.533,-0.221L0.54,-0.221L0.576,-0.439L0.637,-0.729L0.79,-0.729L0.638,-0L0.461,-0L0.271,-0.504L0.264,-0.504L0.228,-0.293L0.167,-0L0.013,-0Z" style="fill:white;fill-rule:nonzero;"/>
                </g>
                <g transform="matrix(72,0,0,72,122.397,209.07)">
                    <path d="M0.371,0.009C0.317,0.009 0.27,0.001 0.229,-0.015C0.187,-0.031 0.153,-0.054 0.125,-0.084C0.098,-0.114 0.077,-0.149 0.063,-0.191C0.049,-0.232 0.043,-0.278 0.045,-0.329C0.047,-0.391 0.058,-0.447 0.078,-0.497C0.098,-0.547 0.125,-0.59 0.16,-0.626C0.195,-0.662 0.235,-0.689 0.282,-0.709C0.329,-0.728 0.381,-0.738 0.438,-0.738C0.5,-0.738 0.554,-0.726 0.601,-0.704C0.648,-0.682 0.685,-0.651 0.711,-0.612C0.738,-0.573 0.751,-0.528 0.752,-0.476L0.598,-0.476C0.596,-0.502 0.588,-0.525 0.574,-0.545C0.56,-0.565 0.541,-0.58 0.517,-0.591C0.493,-0.602 0.466,-0.607 0.435,-0.607C0.389,-0.607 0.35,-0.595 0.316,-0.572C0.282,-0.548 0.255,-0.515 0.236,-0.473C0.217,-0.43 0.207,-0.38 0.204,-0.323C0.204,-0.29 0.207,-0.261 0.214,-0.236C0.221,-0.211 0.232,-0.19 0.246,-0.173C0.26,-0.156 0.277,-0.143 0.298,-0.135C0.318,-0.126 0.34,-0.122 0.365,-0.121C0.398,-0.121 0.427,-0.126 0.452,-0.136C0.478,-0.146 0.499,-0.16 0.517,-0.18C0.534,-0.2 0.547,-0.223 0.555,-0.25L0.711,-0.25C0.701,-0.197 0.681,-0.151 0.649,-0.112C0.618,-0.073 0.578,-0.043 0.531,-0.022C0.483,-0.001 0.43,0.009 0.371,0.009Z" style="fill:white;fill-rule:nonzero;"/>
                </g>
                <g transform="matrix(72,0,0,72,176.829,209.07)">
                    <path d="M0.013,-0L0.164,-0.729L0.318,-0.729L0.252,-0.402L0.224,-0.436L0.622,-0.436L0.58,-0.402L0.648,-0.729L0.802,-0.729L0.651,-0L0.497,-0L0.568,-0.337L0.596,-0.303L0.194,-0.303L0.237,-0.337L0.167,-0L0.013,-0Z" style="fill:white;fill-rule:nonzero;"/>
                </g>
                <g transform="matrix(72,0,0,72,233.565,209.07)">
                    <path d="M0.013,-0L0.164,-0.729L0.68,-0.729L0.652,-0.596L0.255,-0.596L0.298,-0.632L0.25,-0.397L0.221,-0.431L0.57,-0.431L0.545,-0.306L0.194,-0.306L0.238,-0.342L0.188,-0.098L0.16,-0.133L0.558,-0.133L0.531,-0L0.013,-0Z" style="fill:white;fill-rule:nonzero;"/>
                </g>
                <g transform="matrix(72,0,0,72,277.701,209.07)">
                    <path d="M0.371,0.009C0.317,0.009 0.27,0.001 0.229,-0.015C0.187,-0.031 0.153,-0.054 0.125,-0.084C0.098,-0.114 0.077,-0.149 0.063,-0.191C0.049,-0.232 0.043,-0.278 0.045,-0.329C0.047,-0.391 0.058,-0.447 0.078,-0.497C0.098,-0.547 0.125,-0.59 0.16,-0.626C0.195,-0.662 0.235,-0.689 0.282,-0.709C0.329,-0.728 0.381,-0.738 0.438,-0.738C0.5,-0.738 0.554,-0.726 0.601,-0.704C0.648,-0.682 0.685,-0.651 0.711,-0.612C0.738,-0.573 0.751,-0.528 0.752,-0.476L0.598,-0.476C0.596,-0.502 0.588,-0.525 0.574,-0.545C0.56,-0.565 0.541,-0.58 0.517,-0.591C0.493,-0.602 0.466,-0.607 0.435,-0.607C0.389,-0.607 0.35,-0.595 0.316,-0.572C0.282,-0.548 0.255,-0.515 0.236,-0.473C0.217,-0.43 0.207,-0.38 0.204,-0.323C0.204,-0.29 0.207,-0.261 0.214,-0.236C0.221,-0.211 0.232,-0.19 0.246,-0.173C0.26,-0.156 0.277,-0.143 0.298,-0.135C0.318,-0.126 0.34,-0.122 0.365,-0.121C0.398,-0.121 0.427,-0.126 0.452,-0.136C0.478,-0.146 0.499,-0.16 0.517,-0.18C0.534,-0.2 0.547,-0.223 0.555,-0.25L0.711,-0.25C0.701,-0.197 0.681,-0.151 0.649,-0.112C0.618,-0.073 0.578,-0.043 0.531,-0.022C0.483,-0.001 0.43,0.009 0.371,0.009Z" style="fill:white;fill-rule:nonzero;"/>
                </g>
                <g transform="matrix(72,0,0,72,332.133,209.07)">
                    <path d="M0.013,-0L0.165,-0.729L0.319,-0.729L0.251,-0.405L0.591,-0.729L0.783,-0.729L0.451,-0.422L0.641,-0L0.471,-0L0.334,-0.317L0.21,-0.206L0.167,-0L0.013,-0Z" style="fill:white;fill-rule:nonzero;"/>
                </g>
                <g transform="matrix(72,0,0,72,102.417,281.07)">
                    <path d="M0.361,0.01C0.309,0.01 0.263,0.002 0.223,-0.014C0.183,-0.031 0.15,-0.054 0.123,-0.083C0.096,-0.113 0.076,-0.149 0.062,-0.19C0.049,-0.231 0.043,-0.277 0.045,-0.328C0.047,-0.391 0.058,-0.447 0.079,-0.498C0.099,-0.548 0.127,-0.591 0.163,-0.626C0.198,-0.662 0.24,-0.689 0.288,-0.709C0.336,-0.728 0.389,-0.738 0.447,-0.738C0.507,-0.738 0.56,-0.727 0.604,-0.706C0.649,-0.685 0.685,-0.655 0.71,-0.617C0.736,-0.579 0.749,-0.535 0.75,-0.485L0.593,-0.483C0.591,-0.508 0.584,-0.53 0.57,-0.549C0.557,-0.567 0.539,-0.581 0.518,-0.592C0.496,-0.602 0.47,-0.607 0.44,-0.607C0.393,-0.607 0.352,-0.596 0.317,-0.573C0.282,-0.549 0.255,-0.517 0.236,-0.475C0.216,-0.433 0.205,-0.384 0.203,-0.328C0.202,-0.293 0.205,-0.262 0.213,-0.236C0.22,-0.21 0.231,-0.188 0.247,-0.171C0.262,-0.154 0.28,-0.141 0.302,-0.133C0.323,-0.124 0.347,-0.12 0.373,-0.12C0.412,-0.12 0.445,-0.126 0.472,-0.139C0.499,-0.152 0.521,-0.171 0.537,-0.197C0.554,-0.223 0.565,-0.254 0.572,-0.291L0.576,-0.312L0.599,-0.285L0.388,-0.285L0.411,-0.389L0.752,-0.389L0.736,-0.306C0.726,-0.25 0.709,-0.202 0.686,-0.162C0.663,-0.122 0.635,-0.089 0.602,-0.064C0.57,-0.039 0.533,-0.02 0.492,-0.008C0.451,0.004 0.407,0.01 0.361,0.01Z" style="fill:white;fill-rule:nonzero;"/>
                </g>
                <g transform="matrix(72,0,0,72,158.937,281.07)">
                    <path d="M0.013,-0L0.164,-0.729L0.495,-0.729C0.534,-0.729 0.568,-0.724 0.597,-0.715C0.625,-0.706 0.648,-0.693 0.667,-0.677C0.685,-0.66 0.699,-0.64 0.708,-0.617C0.716,-0.593 0.72,-0.568 0.719,-0.539C0.717,-0.49 0.703,-0.447 0.677,-0.411C0.651,-0.376 0.613,-0.351 0.563,-0.337L0.561,-0.33C0.591,-0.323 0.612,-0.306 0.625,-0.281C0.637,-0.255 0.639,-0.224 0.631,-0.187L0.608,-0.071C0.605,-0.057 0.603,-0.044 0.602,-0.032C0.601,-0.02 0.601,-0.009 0.602,-0L0.447,-0C0.446,-0.009 0.446,-0.018 0.446,-0.029C0.447,-0.04 0.449,-0.052 0.452,-0.065L0.475,-0.174C0.481,-0.198 0.481,-0.217 0.477,-0.232C0.473,-0.246 0.465,-0.257 0.452,-0.264C0.439,-0.271 0.421,-0.274 0.399,-0.274L0.224,-0.274L0.167,-0L0.013,-0ZM0.247,-0.39L0.426,-0.39C0.466,-0.39 0.498,-0.401 0.522,-0.422C0.547,-0.444 0.559,-0.473 0.56,-0.51C0.561,-0.529 0.558,-0.546 0.551,-0.56C0.544,-0.574 0.533,-0.585 0.517,-0.593C0.501,-0.601 0.48,-0.604 0.454,-0.604L0.292,-0.604L0.247,-0.39Z" style="fill:white;fill-rule:nonzero;"/>
                </g>
                <g transform="matrix(72,0,0,72,209.265,281.07)">
                    <path d="M-0.066,-0L0.325,-0.729L0.512,-0.729L0.607,-0L0.459,-0L0.441,-0.15L0.17,-0.15L0.09,-0L-0.066,-0ZM0.228,-0.269L0.43,-0.269L0.403,-0.487L0.392,-0.574L0.386,-0.574L0.344,-0.489L0.228,-0.269Z" style="fill:white;fill-rule:nonzero;"/>
                </g>
                <g transform="matrix(72,0,0,72,254.553,281.07)">
                    <path d="M0.013,-0L0.164,-0.729L0.437,-0.729C0.499,-0.729 0.552,-0.716 0.596,-0.691C0.639,-0.666 0.672,-0.63 0.695,-0.585C0.717,-0.539 0.727,-0.486 0.725,-0.425C0.723,-0.361 0.712,-0.302 0.691,-0.25C0.671,-0.198 0.643,-0.153 0.607,-0.116C0.571,-0.079 0.529,-0.05 0.48,-0.03C0.431,-0.01 0.376,-0 0.316,-0L0.013,-0ZM0.194,-0.13L0.317,-0.13C0.355,-0.13 0.388,-0.137 0.418,-0.15C0.447,-0.162 0.473,-0.181 0.494,-0.206C0.516,-0.23 0.532,-0.26 0.544,-0.295C0.556,-0.33 0.563,-0.37 0.565,-0.415C0.566,-0.457 0.56,-0.491 0.547,-0.518C0.534,-0.545 0.515,-0.566 0.49,-0.579C0.466,-0.592 0.436,-0.599 0.403,-0.599L0.291,-0.599L0.194,-0.13Z" style="fill:white;fill-rule:nonzero;"/>
                </g>
                <g transform="matrix(72,0,0,72,307.833,281.07)">
                    <path d="M0.013,-0L0.164,-0.729L0.68,-0.729L0.652,-0.596L0.255,-0.596L0.298,-0.632L0.25,-0.397L0.221,-0.431L0.57,-0.431L0.545,-0.306L0.194,-0.306L0.238,-0.342L0.188,-0.098L0.16,-0.133L0.558,-0.133L0.531,-0L0.013,-0Z" style="fill:white;fill-rule:nonzero;"/>
                </g>
                <g transform="matrix(72,0,0,72,352.905,281.07)">
                    <path d="M0.293,0.01C0.232,0.01 0.18,0 0.138,-0.019C0.095,-0.039 0.064,-0.067 0.043,-0.103C0.022,-0.139 0.013,-0.182 0.016,-0.232L0.168,-0.232C0.167,-0.207 0.172,-0.186 0.182,-0.168C0.192,-0.15 0.208,-0.136 0.228,-0.126C0.248,-0.117 0.272,-0.112 0.299,-0.112C0.34,-0.112 0.372,-0.12 0.395,-0.137C0.418,-0.154 0.43,-0.178 0.431,-0.209C0.432,-0.222 0.43,-0.233 0.426,-0.242C0.423,-0.251 0.416,-0.26 0.407,-0.267C0.398,-0.274 0.387,-0.28 0.372,-0.286C0.357,-0.291 0.338,-0.297 0.316,-0.303C0.275,-0.314 0.24,-0.326 0.211,-0.339C0.182,-0.352 0.158,-0.366 0.14,-0.383C0.122,-0.399 0.109,-0.418 0.101,-0.439C0.093,-0.46 0.09,-0.484 0.09,-0.511C0.092,-0.56 0.106,-0.601 0.132,-0.635C0.157,-0.668 0.192,-0.694 0.235,-0.712C0.279,-0.729 0.328,-0.738 0.382,-0.738C0.436,-0.738 0.482,-0.729 0.52,-0.71C0.559,-0.691 0.588,-0.665 0.609,-0.632C0.629,-0.598 0.639,-0.559 0.637,-0.515L0.48,-0.515C0.481,-0.536 0.478,-0.555 0.469,-0.57C0.46,-0.585 0.448,-0.597 0.431,-0.605C0.414,-0.614 0.393,-0.618 0.369,-0.618C0.347,-0.618 0.328,-0.614 0.312,-0.607C0.295,-0.6 0.282,-0.591 0.273,-0.578C0.263,-0.566 0.258,-0.55 0.257,-0.532C0.257,-0.516 0.261,-0.503 0.269,-0.492C0.277,-0.481 0.291,-0.472 0.309,-0.464C0.327,-0.456 0.35,-0.449 0.378,-0.442C0.42,-0.432 0.455,-0.421 0.484,-0.409C0.512,-0.397 0.535,-0.382 0.552,-0.366C0.569,-0.349 0.582,-0.331 0.589,-0.309C0.596,-0.287 0.599,-0.263 0.598,-0.234C0.596,-0.184 0.583,-0.14 0.557,-0.104C0.532,-0.067 0.497,-0.039 0.452,-0.02C0.406,0 0.354,0.01 0.293,0.01Z" style="fill:white;fill-rule:nonzero;"/>
                </g>
            </g>
        </g>
    </g>
</svg>
