<?xml version="1.0" encoding="UTF-8" standalone="no"?>
<!DOCTYPE svg PUBLIC "-//W3C//DTD SVG 1.1//EN" "http://www.w3.org/Graphics/SVG/1.1/DTD/svg11.dtd">
<svg width="100%" height="100%" viewBox="0 0 500 500" version="1.1" xmlns="http://www.w3.org/2000/svg" xmlns:xlink="http://www.w3.org/1999/xlink" xml:space="preserve" xmlns:serif="http://www.serif.com/" style="fill-rule:evenodd;clip-rule:evenodd;stroke-linejoin:round;stroke-miterlimit:2;">
    <rect x="0" y="0" width="500" height="500" style="fill:none;"/>
    <g transform="matrix(1.02839,0,0,1.04179,-15.1471,-24.4365)">
        <path d="M498.29,263.511C498.29,132.681 390.687,26.463 258.152,26.463L256.763,26.463C124.227,26.463 16.625,132.681 16.625,263.511C16.625,394.342 124.227,500.56 256.763,500.56L258.152,500.56C390.687,500.56 498.29,394.342 498.29,263.511Z" style="fill:rgb(116,255,212);"/>
    </g>
    <g transform="matrix(1,0,0,1,-21.2002,62.236)">
        <g>
            <clipPath id="_clip1">
                <rect x="132.631" y="76.645" width="277.667" height="223.45"/>
            </clipPath>
            <g clip-path="url(#_clip1)">
                <g transform="matrix(300,0,0,300,155.236,295.581)">
                    <path d="M-0.066,0L0.325,-0.729L0.512,-0.729L0.607,0L0.459,0L0.441,-0.15L0.17,-0.15L0.09,0L-0.066,0ZM0.228,-0.269L0.43,-0.269L0.403,-0.487L0.392,-0.574L0.386,-0.574L0.344,-0.489L0.228,-0.269Z" style="fill:white;fill-rule:nonzero;"/>
                </g>
                <g transform="matrix(150,0,0,150,327.557,165.934)">
                    <path d="M0.173,-0.123L0.21,-0.303L0.035,-0.303L0.059,-0.418L0.235,-0.418L0.272,-0.598L0.39,-0.598L0.353,-0.418L0.528,-0.418L0.504,-0.303L0.328,-0.303L0.29,-0.123L0.173,-0.123Z" style="fill:white;fill-rule:nonzero;"/>
                </g>
            </g>
        </g>
    </g>
    <g transform="matrix(1,0,0,1,-13.2575,-47.283)">
        <g transform="matrix(0.784355,-0.620312,0.620312,0.784355,-58.514,111.122)">
            <g transform="matrix(28,0,0,28,130.567,139.72)">
                <path d="M0.271,-0L0.005,-0.729L0.127,-0.729L0.303,-0.222L0.341,-0.103L0.348,-0.103L0.387,-0.221L0.564,-0.729L0.684,-0.729L0.419,-0L0.271,-0Z" style="fill:white;fill-rule:nonzero;"/>
            </g>
        </g>
        <g transform="matrix(0.825902,-0.563814,0.563814,0.825902,-48.2057,103.29)">
            <g transform="matrix(28,0,0,28,143.148,129.702)">
                <path d="M0.292,0.009C0.239,0.009 0.194,-0.002 0.156,-0.025C0.117,-0.047 0.088,-0.079 0.067,-0.12C0.047,-0.16 0.036,-0.208 0.036,-0.262C0.036,-0.318 0.047,-0.366 0.067,-0.408C0.087,-0.449 0.116,-0.481 0.154,-0.504C0.192,-0.526 0.236,-0.537 0.288,-0.537C0.346,-0.537 0.394,-0.525 0.432,-0.499C0.469,-0.474 0.496,-0.439 0.513,-0.394C0.53,-0.35 0.535,-0.3 0.53,-0.244L0.138,-0.244C0.139,-0.207 0.145,-0.176 0.158,-0.15C0.171,-0.125 0.189,-0.105 0.212,-0.092C0.235,-0.078 0.261,-0.071 0.292,-0.071C0.328,-0.071 0.359,-0.08 0.383,-0.097C0.407,-0.113 0.422,-0.135 0.429,-0.163L0.527,-0.163C0.523,-0.128 0.51,-0.098 0.488,-0.073C0.467,-0.047 0.439,-0.027 0.405,-0.013C0.372,0.002 0.334,0.009 0.292,0.009ZM0.139,-0.302L0.129,-0.311L0.439,-0.311L0.429,-0.3C0.43,-0.335 0.425,-0.364 0.413,-0.388C0.401,-0.411 0.384,-0.428 0.363,-0.44C0.342,-0.452 0.316,-0.458 0.287,-0.458C0.258,-0.458 0.232,-0.451 0.21,-0.439C0.188,-0.426 0.171,-0.408 0.159,-0.385C0.147,-0.361 0.14,-0.334 0.139,-0.302Z" style="fill:white;fill-rule:nonzero;"/>
            </g>
        </g>
        <g transform="matrix(0.866619,-0.498971,0.498971,0.866619,-39.5084,93.9816)">
            <g transform="matrix(28,0,0,28,156.035,120.89)">
                <path d="M0.281,0.177C0.239,0.177 0.202,0.171 0.171,0.158C0.139,0.146 0.114,0.129 0.096,0.106C0.077,0.083 0.066,0.056 0.062,0.025L0.162,0.025C0.165,0.041 0.171,0.054 0.182,0.066C0.193,0.077 0.207,0.086 0.224,0.092C0.241,0.098 0.26,0.101 0.283,0.101C0.315,0.101 0.341,0.097 0.363,0.088C0.384,0.078 0.401,0.064 0.412,0.044C0.423,0.024 0.429,-0.002 0.429,-0.035L0.429,-0.138L0.422,-0.138C0.41,-0.106 0.389,-0.08 0.358,-0.06C0.327,-0.041 0.291,-0.031 0.249,-0.031C0.217,-0.031 0.188,-0.036 0.162,-0.047C0.135,-0.059 0.113,-0.075 0.094,-0.097C0.076,-0.119 0.061,-0.145 0.051,-0.177C0.041,-0.208 0.036,-0.244 0.036,-0.284C0.036,-0.338 0.045,-0.384 0.063,-0.422C0.081,-0.46 0.106,-0.488 0.138,-0.508C0.17,-0.528 0.208,-0.538 0.25,-0.538C0.292,-0.538 0.328,-0.528 0.359,-0.509C0.389,-0.489 0.41,-0.463 0.422,-0.431L0.429,-0.431L0.431,-0.529L0.531,-0.529L0.531,-0.049C0.531,-0.007 0.525,0.028 0.513,0.056C0.501,0.085 0.484,0.108 0.462,0.126C0.44,0.144 0.413,0.157 0.383,0.165C0.352,0.173 0.318,0.177 0.281,0.177ZM0.284,-0.111C0.315,-0.111 0.341,-0.118 0.362,-0.132C0.383,-0.146 0.4,-0.164 0.411,-0.186C0.422,-0.207 0.428,-0.23 0.429,-0.253L0.428,-0.317C0.428,-0.34 0.422,-0.362 0.411,-0.383C0.4,-0.405 0.384,-0.422 0.363,-0.436C0.342,-0.45 0.316,-0.457 0.285,-0.457C0.256,-0.457 0.231,-0.45 0.209,-0.437C0.188,-0.423 0.171,-0.404 0.159,-0.378C0.148,-0.352 0.142,-0.321 0.142,-0.284C0.142,-0.247 0.148,-0.215 0.16,-0.189C0.171,-0.164 0.188,-0.144 0.209,-0.131C0.231,-0.118 0.256,-0.111 0.284,-0.111Z" style="fill:white;fill-rule:nonzero;"/>
            </g>
        </g>
        <g transform="matrix(0.903574,-0.428432,0.428432,0.903574,-31.9963,83.669)">
            <g transform="matrix(28,0,0,28,169.878,112.916)">
                <path d="M0.252,0.009C0.22,0.009 0.191,0.003 0.164,-0.009C0.138,-0.021 0.115,-0.038 0.096,-0.062C0.077,-0.085 0.062,-0.113 0.052,-0.147C0.042,-0.181 0.036,-0.22 0.036,-0.265C0.036,-0.324 0.045,-0.373 0.064,-0.414C0.082,-0.455 0.107,-0.486 0.139,-0.507C0.172,-0.528 0.209,-0.538 0.252,-0.538C0.282,-0.538 0.308,-0.533 0.333,-0.524C0.357,-0.515 0.377,-0.501 0.394,-0.485C0.411,-0.468 0.424,-0.448 0.432,-0.425L0.438,-0.425L0.442,-0.529L0.541,-0.529L0.541,-0L0.438,-0L0.438,-0.105L0.432,-0.105C0.42,-0.071 0.397,-0.043 0.366,-0.022C0.335,-0.002 0.296,0.009 0.252,0.009ZM0.288,-0.076C0.321,-0.076 0.348,-0.084 0.37,-0.099C0.392,-0.114 0.409,-0.134 0.42,-0.158C0.431,-0.182 0.437,-0.208 0.437,-0.235L0.437,-0.295C0.437,-0.322 0.431,-0.348 0.42,-0.372C0.409,-0.396 0.392,-0.416 0.37,-0.431C0.348,-0.446 0.321,-0.454 0.288,-0.454C0.259,-0.454 0.233,-0.446 0.211,-0.432C0.189,-0.418 0.172,-0.397 0.16,-0.369C0.148,-0.341 0.142,-0.307 0.142,-0.265C0.142,-0.224 0.148,-0.189 0.16,-0.161C0.172,-0.133 0.189,-0.112 0.211,-0.097C0.233,-0.083 0.259,-0.076 0.288,-0.076Z" style="fill:white;fill-rule:nonzero;"/>
            </g>
        </g>
        <g transform="matrix(0.936422,-0.350877,0.350877,0.936422,-25.4167,71.5198)">
            <g transform="matrix(28,0,0,28,184.644,105.895)">
                <path d="M0.072,-0L0.072,-0.529L0.17,-0.529L0.174,-0.424L0.18,-0.424C0.195,-0.461 0.219,-0.49 0.252,-0.509C0.284,-0.528 0.32,-0.537 0.359,-0.537C0.386,-0.537 0.411,-0.533 0.434,-0.525C0.457,-0.517 0.477,-0.504 0.494,-0.486C0.511,-0.469 0.524,-0.446 0.534,-0.417C0.543,-0.389 0.548,-0.355 0.548,-0.314L0.548,-0L0.445,-0L0.445,-0.293C0.445,-0.329 0.441,-0.359 0.432,-0.382C0.423,-0.406 0.41,-0.423 0.392,-0.435C0.374,-0.446 0.35,-0.452 0.322,-0.452C0.292,-0.452 0.266,-0.445 0.243,-0.43C0.221,-0.415 0.204,-0.396 0.192,-0.371C0.18,-0.347 0.174,-0.319 0.174,-0.289L0.174,-0L0.072,-0Z" style="fill:white;fill-rule:nonzero;"/>
            </g>
        </g>
        <g transform="matrix(0.954516,-0.29816,0.29816,0.954516,-20.7951,64.1995)">
            <g transform="matrix(28,0,0,28,200.024,100.258)">
                <path d="M0.072,-0L0.072,-0.529L0.175,-0.529L0.175,-0L0.072,-0ZM0.072,-0.61L0.072,-0.729L0.175,-0.729L0.175,-0.61L0.072,-0.61Z" style="fill:white;fill-rule:nonzero;"/>
            </g>
        </g>
        <g transform="matrix(0.964736,-0.263218,0.263218,0.964736,-18.6724,57.5814)">
            <g transform="matrix(28,0,0,28,205.566,98.4787)">
                <path d="M0.108,-0L0.108,-0.445L0.012,-0.445L0.012,-0.529L0.108,-0.529L0.108,-0.607C0.108,-0.647 0.12,-0.677 0.145,-0.698C0.169,-0.719 0.202,-0.729 0.244,-0.729L0.338,-0.729L0.338,-0.657L0.271,-0.657C0.247,-0.657 0.232,-0.652 0.223,-0.641C0.215,-0.631 0.211,-0.617 0.211,-0.599L0.211,-0.529L0.327,-0.529L0.327,-0.445L0.211,-0.445L0.211,-0L0.108,-0Z" style="fill:white;fill-rule:nonzero;"/>
            </g>
        </g>
        <g transform="matrix(0.977166,-0.212479,0.212479,0.977166,-15.5599,47.5856)">
            <g transform="matrix(28,0,0,28,213.617,96.187)">
                <path d="M0.037,0.167L0.037,0.082L0.094,0.082C0.109,0.082 0.123,0.08 0.134,0.075C0.145,0.071 0.154,0.064 0.162,0.055C0.17,0.046 0.176,0.035 0.182,0.021L0.214,-0.061L0.214,-0.016L-0.003,-0.529L0.11,-0.529L0.231,-0.207L0.253,-0.144L0.257,-0.144L0.278,-0.207L0.392,-0.529L0.501,-0.529L0.281,0.046C0.27,0.076 0.256,0.1 0.24,0.118C0.224,0.136 0.206,0.148 0.185,0.156C0.163,0.163 0.139,0.167 0.111,0.167L0.037,0.167Z" style="fill:white;fill-rule:nonzero;"/>
            </g>
        </g>
        <g transform="matrix(0.994992,-0.0999594,0.0999594,0.994992,-8.05785,23.6538)">
            <g transform="matrix(28,0,0,28,232.013,92.2363)">
                <path d="M0.396,0.009C0.341,0.009 0.292,-0 0.248,-0.018C0.204,-0.036 0.166,-0.061 0.135,-0.094C0.104,-0.127 0.08,-0.166 0.064,-0.212C0.048,-0.258 0.04,-0.309 0.04,-0.364C0.04,-0.422 0.048,-0.474 0.066,-0.52C0.083,-0.566 0.107,-0.605 0.139,-0.637C0.171,-0.67 0.209,-0.695 0.253,-0.712C0.298,-0.729 0.347,-0.737 0.4,-0.737C0.462,-0.737 0.517,-0.727 0.564,-0.706C0.612,-0.685 0.65,-0.656 0.679,-0.619C0.708,-0.582 0.726,-0.538 0.732,-0.487L0.62,-0.487C0.614,-0.521 0.601,-0.549 0.58,-0.572C0.56,-0.595 0.534,-0.612 0.503,-0.624C0.473,-0.636 0.438,-0.642 0.4,-0.642C0.35,-0.642 0.306,-0.632 0.269,-0.61C0.231,-0.588 0.202,-0.557 0.182,-0.516C0.161,-0.474 0.151,-0.424 0.151,-0.365C0.151,-0.321 0.157,-0.281 0.168,-0.246C0.18,-0.211 0.196,-0.182 0.218,-0.158C0.24,-0.133 0.266,-0.115 0.296,-0.103C0.326,-0.09 0.36,-0.084 0.398,-0.084C0.446,-0.084 0.488,-0.093 0.524,-0.111C0.56,-0.129 0.588,-0.156 0.607,-0.191C0.627,-0.225 0.637,-0.267 0.637,-0.315L0.637,-0.339L0.673,-0.299L0.405,-0.299L0.405,-0.38L0.748,-0.38L0.748,-0.327C0.748,-0.276 0.739,-0.229 0.723,-0.188C0.706,-0.146 0.682,-0.111 0.651,-0.082C0.62,-0.053 0.583,-0.03 0.54,-0.015C0.497,0.001 0.449,0.009 0.396,0.009Z" style="fill:white;fill-rule:nonzero;"/>
            </g>
        </g>
        <g transform="matrix(0.999864,-0.0165086,0.0165086,0.999864,-1.45528,4.20325)">
            <g transform="matrix(28,0,0,28,253.865,90.2484)">
                <path d="M0.072,-0L0.072,-0.529L0.164,-0.529L0.169,-0.435L0.174,-0.435C0.185,-0.469 0.205,-0.494 0.233,-0.511C0.261,-0.527 0.292,-0.536 0.327,-0.536C0.333,-0.536 0.339,-0.535 0.344,-0.535C0.349,-0.535 0.354,-0.535 0.358,-0.534L0.358,-0.437C0.354,-0.438 0.349,-0.438 0.344,-0.438C0.338,-0.438 0.332,-0.438 0.326,-0.438C0.295,-0.438 0.268,-0.433 0.246,-0.422C0.224,-0.411 0.207,-0.396 0.195,-0.376C0.183,-0.356 0.176,-0.331 0.174,-0.302L0.174,-0L0.072,-0Z" style="fill:white;fill-rule:nonzero;"/>
            </g>
        </g>
        <g transform="matrix(0.999314,0.037029,-0.037029,0.999314,3.51136,-9.66681)">
            <g transform="matrix(28,0,0,28,262.726,89.9614)">
                <path d="M0.252,0.009C0.22,0.009 0.191,0.003 0.164,-0.009C0.138,-0.021 0.115,-0.038 0.096,-0.062C0.077,-0.085 0.062,-0.113 0.052,-0.147C0.042,-0.181 0.036,-0.22 0.036,-0.265C0.036,-0.324 0.045,-0.373 0.064,-0.414C0.082,-0.455 0.107,-0.486 0.139,-0.507C0.172,-0.528 0.209,-0.538 0.252,-0.538C0.282,-0.538 0.308,-0.533 0.333,-0.524C0.357,-0.515 0.377,-0.501 0.394,-0.485C0.411,-0.468 0.424,-0.448 0.432,-0.425L0.438,-0.425L0.442,-0.529L0.541,-0.529L0.541,-0L0.438,-0L0.438,-0.105L0.432,-0.105C0.42,-0.071 0.397,-0.043 0.366,-0.022C0.335,-0.002 0.296,0.009 0.252,0.009ZM0.288,-0.076C0.321,-0.076 0.348,-0.084 0.37,-0.099C0.392,-0.114 0.409,-0.134 0.42,-0.158C0.431,-0.182 0.437,-0.208 0.437,-0.235L0.437,-0.295C0.437,-0.322 0.431,-0.348 0.42,-0.372C0.409,-0.396 0.392,-0.416 0.37,-0.431C0.348,-0.446 0.321,-0.454 0.288,-0.454C0.259,-0.454 0.233,-0.446 0.211,-0.432C0.189,-0.418 0.172,-0.397 0.16,-0.369C0.148,-0.341 0.142,-0.307 0.142,-0.265C0.142,-0.224 0.148,-0.189 0.16,-0.161C0.172,-0.133 0.189,-0.112 0.211,-0.097C0.233,-0.083 0.259,-0.076 0.288,-0.076Z" style="fill:white;fill-rule:nonzero;"/>
            </g>
        </g>
        <g transform="matrix(0.993074,0.117494,-0.117494,0.993074,12.5741,-32.1569)">
            <g transform="matrix(28,0,0,28,279.028,90.5698)">
                <path d="M0.252,0.009C0.22,0.009 0.191,0.003 0.164,-0.009C0.138,-0.021 0.115,-0.038 0.096,-0.062C0.077,-0.085 0.062,-0.113 0.052,-0.147C0.042,-0.181 0.036,-0.22 0.036,-0.265C0.036,-0.324 0.045,-0.373 0.064,-0.414C0.082,-0.455 0.107,-0.486 0.139,-0.507C0.172,-0.528 0.209,-0.538 0.252,-0.538C0.282,-0.538 0.308,-0.533 0.333,-0.524C0.357,-0.515 0.377,-0.501 0.394,-0.485C0.411,-0.468 0.424,-0.448 0.432,-0.425L0.438,-0.425L0.438,-0.729L0.541,-0.729L0.541,-0L0.442,-0L0.438,-0.105L0.432,-0.105C0.42,-0.071 0.397,-0.043 0.366,-0.022C0.335,-0.002 0.296,0.009 0.252,0.009ZM0.288,-0.076C0.321,-0.076 0.348,-0.084 0.37,-0.099C0.392,-0.114 0.409,-0.134 0.42,-0.158C0.431,-0.182 0.437,-0.208 0.437,-0.235L0.437,-0.295C0.437,-0.315 0.434,-0.335 0.427,-0.354C0.421,-0.373 0.412,-0.39 0.399,-0.405C0.387,-0.42 0.372,-0.431 0.353,-0.44C0.334,-0.449 0.313,-0.454 0.288,-0.454C0.259,-0.454 0.233,-0.446 0.211,-0.432C0.189,-0.418 0.172,-0.397 0.16,-0.369C0.148,-0.341 0.142,-0.307 0.142,-0.265C0.142,-0.224 0.148,-0.189 0.16,-0.161C0.172,-0.133 0.189,-0.112 0.211,-0.097C0.233,-0.083 0.259,-0.076 0.288,-0.076Z" style="fill:white;fill-rule:nonzero;"/>
            </g>
        </g>
        <g transform="matrix(0.980302,0.197506,-0.197506,0.980302,24.0874,-56.4995)">
            <g transform="matrix(28,0,0,28,295.291,92.507)">
                <path d="M0.292,0.009C0.239,0.009 0.194,-0.002 0.156,-0.025C0.117,-0.047 0.088,-0.079 0.067,-0.12C0.047,-0.16 0.036,-0.208 0.036,-0.262C0.036,-0.318 0.047,-0.366 0.067,-0.408C0.087,-0.449 0.116,-0.481 0.154,-0.504C0.192,-0.526 0.236,-0.537 0.288,-0.537C0.346,-0.537 0.394,-0.525 0.432,-0.499C0.469,-0.474 0.496,-0.439 0.513,-0.394C0.53,-0.35 0.535,-0.3 0.53,-0.244L0.138,-0.244C0.139,-0.207 0.145,-0.176 0.158,-0.15C0.171,-0.125 0.189,-0.105 0.212,-0.092C0.235,-0.078 0.261,-0.071 0.292,-0.071C0.328,-0.071 0.359,-0.08 0.383,-0.097C0.407,-0.113 0.422,-0.135 0.429,-0.163L0.527,-0.163C0.523,-0.128 0.51,-0.098 0.488,-0.073C0.467,-0.047 0.439,-0.027 0.405,-0.013C0.372,0.002 0.334,0.009 0.292,0.009ZM0.139,-0.302L0.129,-0.311L0.439,-0.311L0.429,-0.3C0.43,-0.335 0.425,-0.364 0.413,-0.388C0.401,-0.411 0.384,-0.428 0.363,-0.44C0.342,-0.452 0.316,-0.458 0.287,-0.458C0.258,-0.458 0.232,-0.451 0.21,-0.439C0.188,-0.426 0.171,-0.408 0.159,-0.385C0.147,-0.361 0.14,-0.334 0.139,-0.302Z" style="fill:white;fill-rule:nonzero;"/>
            </g>
        </g>
        <g transform="matrix(0.957285,0.289146,-0.289146,0.957285,41.6617,-87.444)">
            <g transform="matrix(28,0,0,28,316.793,97.2859)">
                <path d="M0.051,-0.277C0.051,-0.3 0.057,-0.32 0.067,-0.338C0.078,-0.356 0.092,-0.37 0.11,-0.381C0.128,-0.391 0.149,-0.396 0.172,-0.396C0.208,-0.396 0.237,-0.385 0.259,-0.362C0.281,-0.34 0.292,-0.311 0.292,-0.277C0.292,-0.255 0.287,-0.234 0.277,-0.216C0.267,-0.199 0.253,-0.184 0.235,-0.174C0.217,-0.164 0.196,-0.159 0.172,-0.159C0.149,-0.159 0.128,-0.164 0.11,-0.174C0.092,-0.184 0.078,-0.199 0.067,-0.216C0.057,-0.234 0.051,-0.255 0.051,-0.277Z" style="fill:white;fill-rule:nonzero;"/>
            </g>
        </g>
        <g transform="matrix(0.921858,0.387528,-0.387528,0.921858,65.4983,-120.763)">
            <g transform="matrix(28,0,0,28,332.198,102.03)">
                <path d="M0.271,-0L0.005,-0.729L0.127,-0.729L0.303,-0.222L0.341,-0.103L0.348,-0.103L0.387,-0.221L0.564,-0.729L0.684,-0.729L0.419,-0L0.271,-0Z" style="fill:white;fill-rule:nonzero;"/>
            </g>
        </g>
        <g transform="matrix(0.891896,0.452241,-0.452241,0.891896,86.4533,-145.247)">
            <g transform="matrix(28,0,0,28,347.038,108.21)">
                <path d="M0.292,0.009C0.239,0.009 0.194,-0.002 0.156,-0.025C0.117,-0.047 0.088,-0.079 0.067,-0.12C0.047,-0.16 0.036,-0.208 0.036,-0.262C0.036,-0.318 0.047,-0.366 0.067,-0.408C0.087,-0.449 0.116,-0.481 0.154,-0.504C0.192,-0.526 0.236,-0.537 0.288,-0.537C0.346,-0.537 0.394,-0.525 0.432,-0.499C0.469,-0.474 0.496,-0.439 0.513,-0.394C0.53,-0.35 0.535,-0.3 0.53,-0.244L0.138,-0.244C0.139,-0.207 0.145,-0.176 0.158,-0.15C0.171,-0.125 0.189,-0.105 0.212,-0.092C0.235,-0.078 0.261,-0.071 0.292,-0.071C0.328,-0.071 0.359,-0.08 0.383,-0.097C0.407,-0.113 0.422,-0.135 0.429,-0.163L0.527,-0.163C0.523,-0.128 0.51,-0.098 0.488,-0.073C0.467,-0.047 0.439,-0.027 0.405,-0.013C0.372,0.002 0.334,0.009 0.292,0.009ZM0.139,-0.302L0.129,-0.311L0.439,-0.311L0.429,-0.3C0.43,-0.335 0.425,-0.364 0.413,-0.388C0.401,-0.411 0.384,-0.428 0.363,-0.44C0.342,-0.452 0.316,-0.458 0.287,-0.458C0.258,-0.458 0.232,-0.451 0.21,-0.439C0.188,-0.426 0.171,-0.408 0.159,-0.385C0.147,-0.361 0.14,-0.334 0.139,-0.302Z" style="fill:white;fill-rule:nonzero;"/>
            </g>
        </g>
        <g transform="matrix(0.854415,0.519592,-0.519592,0.854415,112.452,-170.787)">
            <g transform="matrix(28,0,0,28,360.994,115.276)">
                <path d="M0.281,0.177C0.239,0.177 0.202,0.171 0.171,0.158C0.139,0.146 0.114,0.129 0.096,0.106C0.077,0.083 0.066,0.056 0.062,0.025L0.162,0.025C0.165,0.041 0.171,0.054 0.182,0.066C0.193,0.077 0.207,0.086 0.224,0.092C0.241,0.098 0.26,0.101 0.283,0.101C0.315,0.101 0.341,0.097 0.363,0.088C0.384,0.078 0.401,0.064 0.412,0.044C0.423,0.024 0.429,-0.002 0.429,-0.035L0.429,-0.138L0.422,-0.138C0.41,-0.106 0.389,-0.08 0.358,-0.06C0.327,-0.041 0.291,-0.031 0.249,-0.031C0.217,-0.031 0.188,-0.036 0.162,-0.047C0.135,-0.059 0.113,-0.075 0.094,-0.097C0.076,-0.119 0.061,-0.145 0.051,-0.177C0.041,-0.208 0.036,-0.244 0.036,-0.284C0.036,-0.338 0.045,-0.384 0.063,-0.422C0.081,-0.46 0.106,-0.488 0.138,-0.508C0.17,-0.528 0.208,-0.538 0.25,-0.538C0.292,-0.538 0.328,-0.528 0.359,-0.509C0.389,-0.489 0.41,-0.463 0.422,-0.431L0.429,-0.431L0.431,-0.529L0.531,-0.529L0.531,-0.049C0.531,-0.007 0.525,0.028 0.513,0.056C0.501,0.085 0.484,0.108 0.462,0.126C0.44,0.144 0.413,0.157 0.383,0.165C0.352,0.173 0.318,0.177 0.281,0.177ZM0.284,-0.111C0.315,-0.111 0.341,-0.118 0.362,-0.132C0.383,-0.146 0.4,-0.164 0.411,-0.186C0.422,-0.207 0.428,-0.23 0.429,-0.253L0.428,-0.317C0.428,-0.34 0.422,-0.362 0.411,-0.383C0.4,-0.405 0.384,-0.422 0.363,-0.436C0.342,-0.45 0.316,-0.457 0.285,-0.457C0.256,-0.457 0.231,-0.45 0.209,-0.437C0.188,-0.423 0.171,-0.404 0.159,-0.378C0.148,-0.352 0.142,-0.321 0.142,-0.284C0.142,-0.247 0.148,-0.215 0.16,-0.189C0.171,-0.164 0.188,-0.144 0.209,-0.131C0.231,-0.118 0.256,-0.111 0.284,-0.111Z" style="fill:white;fill-rule:nonzero;"/>
            </g>
        </g>
        <g transform="matrix(0.81085,0.585254,-0.585254,0.81085,143.175,-195.878)">
            <g transform="matrix(28,0,0,28,374.624,123.562)">
                <path d="M0.252,0.009C0.22,0.009 0.191,0.003 0.164,-0.009C0.138,-0.021 0.115,-0.038 0.096,-0.062C0.077,-0.085 0.062,-0.113 0.052,-0.147C0.042,-0.181 0.036,-0.22 0.036,-0.265C0.036,-0.324 0.045,-0.373 0.064,-0.414C0.082,-0.455 0.107,-0.486 0.139,-0.507C0.172,-0.528 0.209,-0.538 0.252,-0.538C0.282,-0.538 0.308,-0.533 0.333,-0.524C0.357,-0.515 0.377,-0.501 0.394,-0.485C0.411,-0.468 0.424,-0.448 0.432,-0.425L0.438,-0.425L0.442,-0.529L0.541,-0.529L0.541,-0L0.438,-0L0.438,-0.105L0.432,-0.105C0.42,-0.071 0.397,-0.043 0.366,-0.022C0.335,-0.002 0.296,0.009 0.252,0.009ZM0.288,-0.076C0.321,-0.076 0.348,-0.084 0.37,-0.099C0.392,-0.114 0.409,-0.134 0.42,-0.158C0.431,-0.182 0.437,-0.208 0.437,-0.235L0.437,-0.295C0.437,-0.322 0.431,-0.348 0.42,-0.372C0.409,-0.396 0.392,-0.416 0.37,-0.431C0.348,-0.446 0.321,-0.454 0.288,-0.454C0.259,-0.454 0.233,-0.446 0.211,-0.432C0.189,-0.418 0.172,-0.397 0.16,-0.369C0.148,-0.341 0.142,-0.307 0.142,-0.265C0.142,-0.224 0.148,-0.189 0.16,-0.161C0.172,-0.133 0.189,-0.112 0.211,-0.097C0.233,-0.083 0.259,-0.076 0.288,-0.076Z" style="fill:white;fill-rule:nonzero;"/>
            </g>
        </g>
        <g transform="matrix(0.759984,0.649941,-0.649941,0.759984,179.608,-220.15)">
            <g transform="matrix(28,0,0,28,387.878,133.107)">
                <path d="M0.072,-0L0.072,-0.529L0.17,-0.529L0.174,-0.424L0.18,-0.424C0.195,-0.461 0.219,-0.49 0.252,-0.509C0.284,-0.528 0.32,-0.537 0.359,-0.537C0.386,-0.537 0.411,-0.533 0.434,-0.525C0.457,-0.517 0.477,-0.504 0.494,-0.486C0.511,-0.469 0.524,-0.446 0.534,-0.417C0.543,-0.389 0.548,-0.355 0.548,-0.314L0.548,-0L0.445,-0L0.445,-0.293C0.445,-0.329 0.441,-0.359 0.432,-0.382C0.423,-0.406 0.41,-0.423 0.392,-0.435C0.374,-0.446 0.35,-0.452 0.322,-0.452C0.292,-0.452 0.266,-0.445 0.243,-0.43C0.221,-0.415 0.204,-0.396 0.192,-0.371C0.18,-0.347 0.174,-0.319 0.174,-0.289L0.174,-0L0.072,-0Z" style="fill:white;fill-rule:nonzero;"/>
            </g>
        </g>
        <g transform="matrix(0.723723,0.690091,-0.690091,0.723723,209.854,-236.475)">
            <g transform="matrix(28,0,0,28,400.263,143.851)">
                <path d="M0.072,-0L0.072,-0.529L0.175,-0.529L0.175,-0L0.072,-0ZM0.072,-0.61L0.072,-0.729L0.175,-0.729L0.175,-0.61L0.072,-0.61Z" style="fill:white;fill-rule:nonzero;"/>
            </g>
        </g>
        <g transform="matrix(0.699131,0.714994,-0.714994,0.699131,227.382,-244.731)">
            <g transform="matrix(28,0,0,28,404.484,147.814)">
                <path d="M0.108,-0L0.108,-0.445L0.012,-0.445L0.012,-0.529L0.108,-0.529L0.108,-0.607C0.108,-0.647 0.12,-0.677 0.145,-0.698C0.169,-0.719 0.202,-0.729 0.244,-0.729L0.338,-0.729L0.338,-0.657L0.271,-0.657C0.247,-0.657 0.232,-0.652 0.223,-0.641C0.215,-0.631 0.211,-0.617 0.211,-0.599L0.211,-0.529L0.327,-0.529L0.327,-0.445L0.211,-0.445L0.211,-0L0.108,-0Z" style="fill:white;fill-rule:nonzero;"/>
            </g>
        </g>
        <g transform="matrix(0.662228,0.749303,-0.749303,0.662228,253.827,-255.589)">
            <g transform="matrix(28,0,0,28,410.408,153.747)">
                <path d="M0.037,0.167L0.037,0.082L0.094,0.082C0.109,0.082 0.123,0.08 0.134,0.075C0.145,0.071 0.154,0.064 0.162,0.055C0.17,0.046 0.176,0.035 0.182,0.021L0.214,-0.061L0.214,-0.016L-0.003,-0.529L0.11,-0.529L0.231,-0.207L0.253,-0.144L0.257,-0.144L0.278,-0.207L0.392,-0.529L0.501,-0.529L0.281,0.046C0.27,0.076 0.256,0.1 0.24,0.118C0.224,0.136 0.206,0.148 0.185,0.156C0.163,0.163 0.139,0.167 0.111,0.167L0.037,0.167Z" style="fill:white;fill-rule:nonzero;"/>
            </g>
        </g>
        <g transform="matrix(0.576037,0.817423,-0.817423,0.576037,316.49,-274.462)">
            <g transform="matrix(28,0,0,28,422.834,167.874)">
                <path d="M0.396,0.009C0.341,0.009 0.292,-0 0.248,-0.018C0.204,-0.036 0.166,-0.061 0.135,-0.094C0.104,-0.127 0.08,-0.166 0.064,-0.212C0.048,-0.258 0.04,-0.309 0.04,-0.364C0.04,-0.422 0.048,-0.474 0.066,-0.52C0.083,-0.566 0.107,-0.605 0.139,-0.637C0.171,-0.67 0.209,-0.695 0.253,-0.712C0.298,-0.729 0.347,-0.737 0.4,-0.737C0.462,-0.737 0.517,-0.727 0.564,-0.706C0.612,-0.685 0.65,-0.656 0.679,-0.619C0.708,-0.582 0.726,-0.538 0.732,-0.487L0.62,-0.487C0.614,-0.521 0.601,-0.549 0.58,-0.572C0.56,-0.595 0.534,-0.612 0.503,-0.624C0.473,-0.636 0.438,-0.642 0.4,-0.642C0.35,-0.642 0.306,-0.632 0.269,-0.61C0.231,-0.588 0.202,-0.557 0.182,-0.516C0.161,-0.474 0.151,-0.424 0.151,-0.365C0.151,-0.321 0.157,-0.281 0.168,-0.246C0.18,-0.211 0.196,-0.182 0.218,-0.158C0.24,-0.133 0.266,-0.115 0.296,-0.103C0.326,-0.09 0.36,-0.084 0.398,-0.084C0.446,-0.084 0.488,-0.093 0.524,-0.111C0.56,-0.129 0.588,-0.156 0.607,-0.191C0.627,-0.225 0.637,-0.267 0.637,-0.315L0.637,-0.339L0.673,-0.299L0.405,-0.299L0.405,-0.38L0.748,-0.38L0.748,-0.327C0.748,-0.276 0.739,-0.229 0.723,-0.188C0.706,-0.146 0.682,-0.111 0.651,-0.082C0.62,-0.053 0.583,-0.03 0.54,-0.015C0.497,0.001 0.449,0.009 0.396,0.009Z" style="fill:white;fill-rule:nonzero;"/>
            </g>
        </g>
        <g transform="matrix(0.507692,0.861539,-0.861539,0.507692,374.475,-283.503)">
            <g transform="matrix(28,0,0,28,435.303,185.914)">
                <path d="M0.072,-0L0.072,-0.529L0.164,-0.529L0.169,-0.435L0.174,-0.435C0.185,-0.469 0.205,-0.494 0.233,-0.511C0.261,-0.527 0.292,-0.536 0.327,-0.536C0.333,-0.536 0.339,-0.535 0.344,-0.535C0.349,-0.535 0.354,-0.535 0.358,-0.534L0.358,-0.437C0.354,-0.438 0.349,-0.438 0.344,-0.438C0.338,-0.438 0.332,-0.438 0.326,-0.438C0.295,-0.438 0.268,-0.433 0.246,-0.422C0.224,-0.411 0.207,-0.396 0.195,-0.376C0.183,-0.356 0.176,-0.331 0.174,-0.302L0.174,-0L0.072,-0Z" style="fill:white;fill-rule:nonzero;"/>
            </g>
        </g>
        <g transform="matrix(0.461628,0.887074,-0.887074,0.461628,408.499,-286.078)">
            <g transform="matrix(28,0,0,28,439.934,193.502)">
                <path d="M0.252,0.009C0.22,0.009 0.191,0.003 0.164,-0.009C0.138,-0.021 0.115,-0.038 0.096,-0.062C0.077,-0.085 0.062,-0.113 0.052,-0.147C0.042,-0.181 0.036,-0.22 0.036,-0.265C0.036,-0.324 0.045,-0.373 0.064,-0.414C0.082,-0.455 0.107,-0.486 0.139,-0.507C0.172,-0.528 0.209,-0.538 0.252,-0.538C0.282,-0.538 0.308,-0.533 0.333,-0.524C0.357,-0.515 0.377,-0.501 0.394,-0.485C0.411,-0.468 0.424,-0.448 0.432,-0.425L0.438,-0.425L0.442,-0.529L0.541,-0.529L0.541,-0L0.438,-0L0.438,-0.105L0.432,-0.105C0.42,-0.071 0.397,-0.043 0.366,-0.022C0.335,-0.002 0.296,0.009 0.252,0.009ZM0.288,-0.076C0.321,-0.076 0.348,-0.084 0.37,-0.099C0.392,-0.114 0.409,-0.134 0.42,-0.158C0.431,-0.182 0.437,-0.208 0.437,-0.235L0.437,-0.295C0.437,-0.322 0.431,-0.348 0.42,-0.372C0.409,-0.396 0.392,-0.416 0.37,-0.431C0.348,-0.446 0.321,-0.454 0.288,-0.454C0.259,-0.454 0.233,-0.446 0.211,-0.432C0.189,-0.418 0.172,-0.397 0.16,-0.369C0.148,-0.341 0.142,-0.307 0.142,-0.265C0.142,-0.224 0.148,-0.189 0.16,-0.161C0.172,-0.133 0.189,-0.112 0.211,-0.097C0.233,-0.083 0.259,-0.076 0.288,-0.076Z" style="fill:white;fill-rule:nonzero;"/>
            </g>
        </g>
        <g transform="matrix(0.390541,0.920585,-0.920585,0.390541,464.198,-285.168)">
            <g transform="matrix(28,0,0,28,447.472,208.001)">
                <path d="M0.252,0.009C0.22,0.009 0.191,0.003 0.164,-0.009C0.138,-0.021 0.115,-0.038 0.096,-0.062C0.077,-0.085 0.062,-0.113 0.052,-0.147C0.042,-0.181 0.036,-0.22 0.036,-0.265C0.036,-0.324 0.045,-0.373 0.064,-0.414C0.082,-0.455 0.107,-0.486 0.139,-0.507C0.172,-0.528 0.209,-0.538 0.252,-0.538C0.282,-0.538 0.308,-0.533 0.333,-0.524C0.357,-0.515 0.377,-0.501 0.394,-0.485C0.411,-0.468 0.424,-0.448 0.432,-0.425L0.438,-0.425L0.438,-0.729L0.541,-0.729L0.541,-0L0.442,-0L0.438,-0.105L0.432,-0.105C0.42,-0.071 0.397,-0.043 0.366,-0.022C0.335,-0.002 0.296,0.009 0.252,0.009ZM0.288,-0.076C0.321,-0.076 0.348,-0.084 0.37,-0.099C0.392,-0.114 0.409,-0.134 0.42,-0.158C0.431,-0.182 0.437,-0.208 0.437,-0.235L0.437,-0.295C0.437,-0.315 0.434,-0.335 0.427,-0.354C0.421,-0.373 0.412,-0.39 0.399,-0.405C0.387,-0.42 0.372,-0.431 0.353,-0.44C0.334,-0.449 0.313,-0.454 0.288,-0.454C0.259,-0.454 0.233,-0.446 0.211,-0.432C0.189,-0.418 0.172,-0.397 0.16,-0.369C0.148,-0.341 0.142,-0.307 0.142,-0.265C0.142,-0.224 0.148,-0.189 0.16,-0.161C0.172,-0.133 0.189,-0.112 0.211,-0.097C0.233,-0.083 0.259,-0.076 0.288,-0.076Z" style="fill:white;fill-rule:nonzero;"/>
            </g>
        </g>
        <g transform="matrix(0.317733,0.94818,-0.94818,0.317733,521.106,-278.153)">
            <g transform="matrix(28,0,0,28,453.835,223.027)">
                <path d="M0.292,0.009C0.239,0.009 0.194,-0.002 0.156,-0.025C0.117,-0.047 0.088,-0.079 0.067,-0.12C0.047,-0.16 0.036,-0.208 0.036,-0.262C0.036,-0.318 0.047,-0.366 0.067,-0.408C0.087,-0.449 0.116,-0.481 0.154,-0.504C0.192,-0.526 0.236,-0.537 0.288,-0.537C0.346,-0.537 0.394,-0.525 0.432,-0.499C0.469,-0.474 0.496,-0.439 0.513,-0.394C0.53,-0.35 0.535,-0.3 0.53,-0.244L0.138,-0.244C0.139,-0.207 0.145,-0.176 0.158,-0.15C0.171,-0.125 0.189,-0.105 0.212,-0.092C0.235,-0.078 0.261,-0.071 0.292,-0.071C0.328,-0.071 0.359,-0.08 0.383,-0.097C0.407,-0.113 0.422,-0.135 0.429,-0.163L0.527,-0.163C0.523,-0.128 0.51,-0.098 0.488,-0.073C0.467,-0.047 0.439,-0.027 0.405,-0.013C0.372,0.002 0.334,0.009 0.292,0.009ZM0.139,-0.302L0.129,-0.311L0.439,-0.311L0.429,-0.3C0.43,-0.335 0.425,-0.364 0.413,-0.388C0.401,-0.411 0.384,-0.428 0.363,-0.44C0.342,-0.452 0.316,-0.458 0.287,-0.458C0.258,-0.458 0.232,-0.451 0.21,-0.439C0.188,-0.426 0.171,-0.408 0.159,-0.385C0.147,-0.361 0.14,-0.334 0.139,-0.302Z" style="fill:white;fill-rule:nonzero;"/>
            </g>
        </g>
        <g transform="matrix(0.230434,0.973088,-0.973088,0.230434,591.813,-260.233)">
            <g transform="matrix(28,0,0,28,460.434,244.046)">
                <path d="M0.051,-0.277C0.051,-0.3 0.057,-0.32 0.067,-0.338C0.078,-0.356 0.092,-0.37 0.11,-0.381C0.128,-0.391 0.149,-0.396 0.172,-0.396C0.208,-0.396 0.237,-0.385 0.259,-0.362C0.281,-0.34 0.292,-0.311 0.292,-0.277C0.292,-0.255 0.287,-0.234 0.277,-0.216C0.267,-0.199 0.253,-0.184 0.235,-0.174C0.217,-0.164 0.196,-0.159 0.172,-0.159C0.149,-0.159 0.128,-0.164 0.11,-0.174C0.092,-0.184 0.078,-0.199 0.067,-0.216C0.057,-0.234 0.051,-0.255 0.051,-0.277Z" style="fill:white;fill-rule:nonzero;"/>
            </g>
        </g>
        <g transform="matrix(0.132015,0.991248,-0.991248,0.132015,660.25,-234.563)">
            <g transform="matrix(28,0,0,28,464.062,259.725)">
                <path d="M0.271,-0L0.005,-0.729L0.127,-0.729L0.303,-0.222L0.341,-0.103L0.348,-0.103L0.387,-0.221L0.564,-0.729L0.684,-0.729L0.419,-0L0.271,-0Z" style="fill:white;fill-rule:nonzero;"/>
            </g>
        </g>
        <g transform="matrix(0.0641062,0.997943,-0.997943,0.0641062,711.459,-207.273)">
            <g transform="matrix(28,0,0,28,466.237,275.678)">
                <path d="M0.292,0.009C0.239,0.009 0.194,-0.002 0.156,-0.025C0.117,-0.047 0.088,-0.079 0.067,-0.12C0.047,-0.16 0.036,-0.208 0.036,-0.262C0.036,-0.318 0.047,-0.366 0.067,-0.408C0.087,-0.449 0.116,-0.481 0.154,-0.504C0.192,-0.526 0.236,-0.537 0.288,-0.537C0.346,-0.537 0.394,-0.525 0.432,-0.499C0.469,-0.474 0.496,-0.439 0.513,-0.394C0.53,-0.35 0.535,-0.3 0.53,-0.244L0.138,-0.244C0.139,-0.207 0.145,-0.176 0.158,-0.15C0.171,-0.125 0.189,-0.105 0.212,-0.092C0.235,-0.078 0.261,-0.071 0.292,-0.071C0.328,-0.071 0.359,-0.08 0.383,-0.097C0.407,-0.113 0.422,-0.135 0.429,-0.163L0.527,-0.163C0.523,-0.128 0.51,-0.098 0.488,-0.073C0.467,-0.047 0.439,-0.027 0.405,-0.013C0.372,0.002 0.334,0.009 0.292,0.009ZM0.139,-0.302L0.129,-0.311L0.439,-0.311L0.429,-0.3C0.43,-0.335 0.425,-0.364 0.413,-0.388C0.401,-0.411 0.384,-0.428 0.363,-0.44C0.342,-0.452 0.316,-0.458 0.287,-0.458C0.258,-0.458 0.232,-0.451 0.21,-0.439C0.188,-0.426 0.171,-0.408 0.159,-0.385C0.147,-0.361 0.14,-0.334 0.139,-0.302Z" style="fill:white;fill-rule:nonzero;"/>
            </g>
        </g>
        <g transform="matrix(-0.00897478,0.99996,-0.99996,-0.00897478,762.691,-173.353)">
            <g transform="matrix(28,0,0,28,467.248,291.261)">
                <path d="M0.281,0.177C0.239,0.177 0.202,0.171 0.171,0.158C0.139,0.146 0.114,0.129 0.096,0.106C0.077,0.083 0.066,0.056 0.062,0.025L0.162,0.025C0.165,0.041 0.171,0.054 0.182,0.066C0.193,0.077 0.207,0.086 0.224,0.092C0.241,0.098 0.26,0.101 0.283,0.101C0.315,0.101 0.341,0.097 0.363,0.088C0.384,0.078 0.401,0.064 0.412,0.044C0.423,0.024 0.429,-0.002 0.429,-0.035L0.429,-0.138L0.422,-0.138C0.41,-0.106 0.389,-0.08 0.358,-0.06C0.327,-0.041 0.291,-0.031 0.249,-0.031C0.217,-0.031 0.188,-0.036 0.162,-0.047C0.135,-0.059 0.113,-0.075 0.094,-0.097C0.076,-0.119 0.061,-0.145 0.051,-0.177C0.041,-0.208 0.036,-0.244 0.036,-0.284C0.036,-0.338 0.045,-0.384 0.063,-0.422C0.081,-0.46 0.106,-0.488 0.138,-0.508C0.17,-0.528 0.208,-0.538 0.25,-0.538C0.292,-0.538 0.328,-0.528 0.359,-0.509C0.389,-0.489 0.41,-0.463 0.422,-0.431L0.429,-0.431L0.431,-0.529L0.531,-0.529L0.531,-0.049C0.531,-0.007 0.525,0.028 0.513,0.056C0.501,0.085 0.484,0.108 0.462,0.126C0.44,0.144 0.413,0.157 0.383,0.165C0.352,0.173 0.318,0.177 0.281,0.177ZM0.284,-0.111C0.315,-0.111 0.341,-0.118 0.362,-0.132C0.383,-0.146 0.4,-0.164 0.411,-0.186C0.422,-0.207 0.428,-0.23 0.429,-0.253L0.428,-0.317C0.428,-0.34 0.422,-0.362 0.411,-0.383C0.4,-0.405 0.384,-0.422 0.363,-0.436C0.342,-0.45 0.316,-0.457 0.285,-0.457C0.256,-0.457 0.231,-0.45 0.209,-0.437C0.188,-0.423 0.171,-0.404 0.159,-0.378C0.148,-0.352 0.142,-0.321 0.142,-0.284C0.142,-0.247 0.148,-0.215 0.16,-0.189C0.171,-0.164 0.188,-0.144 0.209,-0.131C0.231,-0.118 0.256,-0.111 0.284,-0.111Z" style="fill:white;fill-rule:nonzero;"/>
            </g>
        </g>
        <g transform="matrix(-0.0846867,0.996408,-0.996408,-0.0846867,812.807,-132.164)">
            <g transform="matrix(28,0,0,28,467.107,307.245)">
                <path d="M0.252,0.009C0.22,0.009 0.191,0.003 0.164,-0.009C0.138,-0.021 0.115,-0.038 0.096,-0.062C0.077,-0.085 0.062,-0.113 0.052,-0.147C0.042,-0.181 0.036,-0.22 0.036,-0.265C0.036,-0.324 0.045,-0.373 0.064,-0.414C0.082,-0.455 0.107,-0.486 0.139,-0.507C0.172,-0.528 0.209,-0.538 0.252,-0.538C0.282,-0.538 0.308,-0.533 0.333,-0.524C0.357,-0.515 0.377,-0.501 0.394,-0.485C0.411,-0.468 0.424,-0.448 0.432,-0.425L0.438,-0.425L0.442,-0.529L0.541,-0.529L0.541,-0L0.438,-0L0.438,-0.105L0.432,-0.105C0.42,-0.071 0.397,-0.043 0.366,-0.022C0.335,-0.002 0.296,0.009 0.252,0.009ZM0.288,-0.076C0.321,-0.076 0.348,-0.084 0.37,-0.099C0.392,-0.114 0.409,-0.134 0.42,-0.158C0.431,-0.182 0.437,-0.208 0.437,-0.235L0.437,-0.295C0.437,-0.322 0.431,-0.348 0.42,-0.372C0.409,-0.396 0.392,-0.416 0.37,-0.431C0.348,-0.446 0.321,-0.454 0.288,-0.454C0.259,-0.454 0.233,-0.446 0.211,-0.432C0.189,-0.418 0.172,-0.397 0.16,-0.369C0.148,-0.341 0.142,-0.307 0.142,-0.265C0.142,-0.224 0.148,-0.189 0.16,-0.161C0.172,-0.133 0.189,-0.112 0.211,-0.097C0.233,-0.083 0.259,-0.076 0.288,-0.076Z" style="fill:white;fill-rule:nonzero;"/>
            </g>
        </g>
        <g transform="matrix(-0.164598,0.986361,-0.986361,-0.164598,861.528,-82.5923)">
            <g transform="matrix(28,0,0,28,465.74,323.541)">
                <path d="M0.072,-0L0.072,-0.529L0.17,-0.529L0.174,-0.424L0.18,-0.424C0.195,-0.461 0.219,-0.49 0.252,-0.509C0.284,-0.528 0.32,-0.537 0.359,-0.537C0.386,-0.537 0.411,-0.533 0.434,-0.525C0.457,-0.517 0.477,-0.504 0.494,-0.486C0.511,-0.469 0.524,-0.446 0.534,-0.417C0.543,-0.389 0.548,-0.355 0.548,-0.314L0.548,-0L0.445,-0L0.445,-0.293C0.445,-0.329 0.441,-0.359 0.432,-0.382C0.423,-0.406 0.41,-0.423 0.392,-0.435C0.374,-0.446 0.35,-0.452 0.322,-0.452C0.292,-0.452 0.266,-0.445 0.243,-0.43C0.221,-0.415 0.204,-0.396 0.192,-0.371C0.18,-0.347 0.174,-0.319 0.174,-0.289L0.174,-0L0.072,-0Z" style="fill:white;fill-rule:nonzero;"/>
            </g>
        </g>
        <g transform="matrix(-0.217109,0.976147,-0.976147,-0.217109,895.028,-38.4385)">
            <g transform="matrix(28,0,0,28,462.929,339.697)">
                <path d="M0.072,-0L0.072,-0.529L0.175,-0.529L0.175,-0L0.072,-0ZM0.072,-0.61L0.072,-0.729L0.175,-0.729L0.175,-0.61L0.072,-0.61Z" style="fill:white;fill-rule:nonzero;"/>
            </g>
        </g>
        <g transform="matrix(-0.25096,0.967997,-0.967997,-0.25096,911.898,-14.8983)">
            <g transform="matrix(28,0,0,28,461.713,345.366)">
                <path d="M0.108,-0L0.108,-0.445L0.012,-0.445L0.012,-0.529L0.108,-0.529L0.108,-0.607C0.108,-0.647 0.12,-0.677 0.145,-0.698C0.169,-0.719 0.202,-0.729 0.244,-0.729L0.338,-0.729L0.338,-0.657L0.271,-0.657C0.247,-0.657 0.232,-0.652 0.223,-0.641C0.215,-0.631 0.211,-0.617 0.211,-0.599L0.211,-0.529L0.327,-0.529L0.327,-0.445L0.211,-0.445L0.211,-0L0.108,-0Z" style="fill:white;fill-rule:nonzero;"/>
            </g>
        </g>
        <g transform="matrix(-0.299211,0.954187,-0.954187,-0.299211,934.542,20.623)">
            <g transform="matrix(28,0,0,28,459.698,353.492)">
                <path d="M0.037,0.167L0.037,0.082L0.094,0.082C0.109,0.082 0.123,0.08 0.134,0.075C0.145,0.071 0.154,0.064 0.162,0.055C0.17,0.046 0.176,0.035 0.182,0.021L0.214,-0.061L0.214,-0.016L-0.003,-0.529L0.11,-0.529L0.231,-0.207L0.253,-0.144L0.257,-0.144L0.278,-0.207L0.392,-0.529L0.501,-0.529L0.281,0.046C0.27,0.076 0.256,0.1 0.24,0.118C0.224,0.136 0.206,0.148 0.185,0.156C0.163,0.163 0.139,0.167 0.111,0.167L0.037,0.167Z" style="fill:white;fill-rule:nonzero;"/>
            </g>
        </g>
        <g transform="matrix(-0.402,0.91564,-0.91564,-0.402,976.631,104.978)">
            <g transform="matrix(28,0,0,28,454.035,371.406)">
                <path d="M0.396,0.009C0.341,0.009 0.292,-0 0.248,-0.018C0.204,-0.036 0.166,-0.061 0.135,-0.094C0.104,-0.127 0.08,-0.166 0.064,-0.212C0.048,-0.258 0.04,-0.309 0.04,-0.364C0.04,-0.422 0.048,-0.474 0.066,-0.52C0.083,-0.566 0.107,-0.605 0.139,-0.637C0.171,-0.67 0.209,-0.695 0.253,-0.712C0.298,-0.729 0.347,-0.737 0.4,-0.737C0.462,-0.737 0.517,-0.727 0.564,-0.706C0.612,-0.685 0.65,-0.656 0.679,-0.619C0.708,-0.582 0.726,-0.538 0.732,-0.487L0.62,-0.487C0.614,-0.521 0.601,-0.549 0.58,-0.572C0.56,-0.595 0.534,-0.612 0.503,-0.624C0.473,-0.636 0.438,-0.642 0.4,-0.642C0.35,-0.642 0.306,-0.632 0.269,-0.61C0.231,-0.588 0.202,-0.557 0.182,-0.516C0.161,-0.474 0.151,-0.424 0.151,-0.365C0.151,-0.321 0.157,-0.281 0.168,-0.246C0.18,-0.211 0.196,-0.182 0.218,-0.158C0.24,-0.133 0.266,-0.115 0.296,-0.103C0.326,-0.09 0.36,-0.084 0.398,-0.084C0.446,-0.084 0.488,-0.093 0.524,-0.111C0.56,-0.129 0.588,-0.156 0.607,-0.191C0.627,-0.225 0.637,-0.267 0.637,-0.315L0.637,-0.339L0.673,-0.299L0.405,-0.299L0.405,-0.38L0.748,-0.38L0.748,-0.327C0.748,-0.276 0.739,-0.229 0.723,-0.188C0.706,-0.146 0.682,-0.111 0.651,-0.082C0.62,-0.053 0.583,-0.03 0.54,-0.015C0.497,0.001 0.449,0.009 0.396,0.009Z" style="fill:white;fill-rule:nonzero;"/>
            </g>
        </g>
        <g transform="matrix(-0.475393,0.879774,-0.879774,-0.475393,1000.96,186.039)">
            <g transform="matrix(28,0,0,28,445.012,391.454)">
                <path d="M0.072,-0L0.072,-0.529L0.164,-0.529L0.169,-0.435L0.174,-0.435C0.185,-0.469 0.205,-0.494 0.233,-0.511C0.261,-0.527 0.292,-0.536 0.327,-0.536C0.333,-0.536 0.339,-0.535 0.344,-0.535C0.349,-0.535 0.354,-0.535 0.358,-0.534L0.358,-0.437C0.354,-0.438 0.349,-0.438 0.344,-0.438C0.338,-0.438 0.332,-0.438 0.326,-0.438C0.295,-0.438 0.268,-0.433 0.246,-0.422C0.224,-0.411 0.207,-0.396 0.195,-0.376C0.183,-0.356 0.176,-0.331 0.174,-0.302L0.174,-0L0.072,-0Z" style="fill:white;fill-rule:nonzero;"/>
            </g>
        </g>
        <g transform="matrix(-0.520842,0.853653,-0.853653,-0.520842,1011.45,230.864)">
            <g transform="matrix(28,0,0,28,440.932,399.296)">
                <path d="M0.252,0.009C0.22,0.009 0.191,0.003 0.164,-0.009C0.138,-0.021 0.115,-0.038 0.096,-0.062C0.077,-0.085 0.062,-0.113 0.052,-0.147C0.042,-0.181 0.036,-0.22 0.036,-0.265C0.036,-0.324 0.045,-0.373 0.064,-0.414C0.082,-0.455 0.107,-0.486 0.139,-0.507C0.172,-0.528 0.209,-0.538 0.252,-0.538C0.282,-0.538 0.308,-0.533 0.333,-0.524C0.357,-0.515 0.377,-0.501 0.394,-0.485C0.411,-0.468 0.424,-0.448 0.432,-0.425L0.438,-0.425L0.442,-0.529L0.541,-0.529L0.541,-0L0.438,-0L0.438,-0.105L0.432,-0.105C0.42,-0.071 0.397,-0.043 0.366,-0.022C0.335,-0.002 0.296,0.009 0.252,0.009ZM0.288,-0.076C0.321,-0.076 0.348,-0.084 0.37,-0.099C0.392,-0.114 0.409,-0.134 0.42,-0.158C0.431,-0.182 0.437,-0.208 0.437,-0.235L0.437,-0.295C0.437,-0.322 0.431,-0.348 0.42,-0.372C0.409,-0.396 0.392,-0.416 0.37,-0.431C0.348,-0.446 0.321,-0.454 0.288,-0.454C0.259,-0.454 0.233,-0.446 0.211,-0.432C0.189,-0.418 0.172,-0.397 0.16,-0.369C0.148,-0.341 0.142,-0.307 0.142,-0.265C0.142,-0.224 0.148,-0.189 0.16,-0.161C0.172,-0.133 0.189,-0.112 0.211,-0.097C0.233,-0.083 0.259,-0.076 0.288,-0.076Z" style="fill:white;fill-rule:nonzero;"/>
            </g>
        </g>
        <g transform="matrix(-0.58619,0.810174,-0.810174,-0.58619,1020.69,305.142)">
            <g transform="matrix(28,0,0,28,432.418,413.239)">
                <path d="M0.252,0.009C0.22,0.009 0.191,0.003 0.164,-0.009C0.138,-0.021 0.115,-0.038 0.096,-0.062C0.077,-0.085 0.062,-0.113 0.052,-0.147C0.042,-0.181 0.036,-0.22 0.036,-0.265C0.036,-0.324 0.045,-0.373 0.064,-0.414C0.082,-0.455 0.107,-0.486 0.139,-0.507C0.172,-0.528 0.209,-0.538 0.252,-0.538C0.282,-0.538 0.308,-0.533 0.333,-0.524C0.357,-0.515 0.377,-0.501 0.394,-0.485C0.411,-0.468 0.424,-0.448 0.432,-0.425L0.438,-0.425L0.438,-0.729L0.541,-0.729L0.541,-0L0.442,-0L0.438,-0.105L0.432,-0.105C0.42,-0.071 0.397,-0.043 0.366,-0.022C0.335,-0.002 0.296,0.009 0.252,0.009ZM0.288,-0.076C0.321,-0.076 0.348,-0.084 0.37,-0.099C0.392,-0.114 0.409,-0.134 0.42,-0.158C0.431,-0.182 0.437,-0.208 0.437,-0.235L0.437,-0.295C0.437,-0.315 0.434,-0.335 0.427,-0.354C0.421,-0.373 0.412,-0.39 0.399,-0.405C0.387,-0.42 0.372,-0.431 0.353,-0.44C0.334,-0.449 0.313,-0.454 0.288,-0.454C0.259,-0.454 0.233,-0.446 0.211,-0.432C0.189,-0.418 0.172,-0.397 0.16,-0.369C0.148,-0.341 0.142,-0.307 0.142,-0.265C0.142,-0.224 0.148,-0.189 0.16,-0.161C0.172,-0.133 0.189,-0.112 0.211,-0.097C0.233,-0.083 0.259,-0.076 0.288,-0.076Z" style="fill:white;fill-rule:nonzero;"/>
            </g>
        </g>
        <g transform="matrix(-0.647478,0.762084,-0.762084,-0.647478,1021.61,380.362)">
            <g transform="matrix(28,0,0,28,422.832,426.468)">
                <path d="M0.292,0.009C0.239,0.009 0.194,-0.002 0.156,-0.025C0.117,-0.047 0.088,-0.079 0.067,-0.12C0.047,-0.16 0.036,-0.208 0.036,-0.262C0.036,-0.318 0.047,-0.366 0.067,-0.408C0.087,-0.449 0.116,-0.481 0.154,-0.504C0.192,-0.526 0.236,-0.537 0.288,-0.537C0.346,-0.537 0.394,-0.525 0.432,-0.499C0.469,-0.474 0.496,-0.439 0.513,-0.394C0.53,-0.35 0.535,-0.3 0.53,-0.244L0.138,-0.244C0.139,-0.207 0.145,-0.176 0.158,-0.15C0.171,-0.125 0.189,-0.105 0.212,-0.092C0.235,-0.078 0.261,-0.071 0.292,-0.071C0.328,-0.071 0.359,-0.08 0.383,-0.097C0.407,-0.113 0.422,-0.135 0.429,-0.163L0.527,-0.163C0.523,-0.128 0.51,-0.098 0.488,-0.073C0.467,-0.047 0.439,-0.027 0.405,-0.013C0.372,0.002 0.334,0.009 0.292,0.009ZM0.139,-0.302L0.129,-0.311L0.439,-0.311L0.429,-0.3C0.43,-0.335 0.425,-0.364 0.413,-0.388C0.401,-0.411 0.384,-0.428 0.363,-0.44C0.342,-0.452 0.316,-0.458 0.287,-0.458C0.258,-0.458 0.232,-0.451 0.21,-0.439C0.188,-0.426 0.171,-0.408 0.159,-0.385C0.147,-0.361 0.14,-0.334 0.139,-0.302Z" style="fill:white;fill-rule:nonzero;"/>
            </g>
        </g>
        <g transform="matrix(-0.714143,0.7,-0.7,-0.714143,1009.88,473.574)">
            <g transform="matrix(28,0,0,28,408.243,442.987)">
                <path d="M0.051,-0.277C0.051,-0.3 0.057,-0.32 0.067,-0.338C0.078,-0.356 0.092,-0.37 0.11,-0.381C0.128,-0.391 0.149,-0.396 0.172,-0.396C0.208,-0.396 0.237,-0.385 0.259,-0.362C0.281,-0.34 0.292,-0.311 0.292,-0.277C0.292,-0.255 0.287,-0.234 0.277,-0.216C0.267,-0.199 0.253,-0.184 0.235,-0.174C0.217,-0.164 0.196,-0.159 0.172,-0.159C0.149,-0.159 0.128,-0.164 0.11,-0.174C0.092,-0.184 0.078,-0.199 0.067,-0.216C0.057,-0.234 0.051,-0.255 0.051,-0.277Z" style="fill:white;fill-rule:nonzero;"/>
            </g>
        </g>
        <g transform="matrix(-0.78144,0.62398,-0.62398,-0.78144,990.069,561.634)">
            <g transform="matrix(28,0,0,28,396.673,454.211)">
                <path d="M0.271,-0L0.005,-0.729L0.127,-0.729L0.303,-0.222L0.341,-0.103L0.348,-0.103L0.387,-0.221L0.564,-0.729L0.684,-0.729L0.419,-0L0.271,-0Z" style="fill:white;fill-rule:nonzero;"/>
            </g>
        </g>
        <g transform="matrix(-0.823126,0.567859,-0.567859,-0.823126,964.029,628.259)">
            <g transform="matrix(28,0,0,28,384.171,464.265)">
                <path d="M0.292,0.009C0.239,0.009 0.194,-0.002 0.156,-0.025C0.117,-0.047 0.088,-0.079 0.067,-0.12C0.047,-0.16 0.036,-0.208 0.036,-0.262C0.036,-0.318 0.047,-0.366 0.067,-0.408C0.087,-0.449 0.116,-0.481 0.154,-0.504C0.192,-0.526 0.236,-0.537 0.288,-0.537C0.346,-0.537 0.394,-0.525 0.432,-0.499C0.469,-0.474 0.496,-0.439 0.513,-0.394C0.53,-0.35 0.535,-0.3 0.53,-0.244L0.138,-0.244C0.139,-0.207 0.145,-0.176 0.158,-0.15C0.171,-0.125 0.189,-0.105 0.212,-0.092C0.235,-0.078 0.261,-0.071 0.292,-0.071C0.328,-0.071 0.359,-0.08 0.383,-0.097C0.407,-0.113 0.422,-0.135 0.429,-0.163L0.527,-0.163C0.523,-0.128 0.51,-0.098 0.488,-0.073C0.467,-0.047 0.439,-0.027 0.405,-0.013C0.372,0.002 0.334,0.009 0.292,0.009ZM0.139,-0.302L0.129,-0.311L0.439,-0.311L0.429,-0.3C0.43,-0.335 0.425,-0.364 0.413,-0.388C0.401,-0.411 0.384,-0.428 0.363,-0.44C0.342,-0.452 0.316,-0.458 0.287,-0.458C0.258,-0.458 0.232,-0.451 0.21,-0.439C0.188,-0.426 0.171,-0.408 0.159,-0.385C0.147,-0.361 0.14,-0.334 0.139,-0.302Z" style="fill:white;fill-rule:nonzero;"/>
            </g>
        </g>
        <g transform="matrix(-0.864234,0.503091,-0.503091,-0.864234,930.226,695.283)">
            <g transform="matrix(28,0,0,28,371.297,473.159)">
                <path d="M0.281,0.177C0.239,0.177 0.202,0.171 0.171,0.158C0.139,0.146 0.114,0.129 0.096,0.106C0.077,0.083 0.066,0.056 0.062,0.025L0.162,0.025C0.165,0.041 0.171,0.054 0.182,0.066C0.193,0.077 0.207,0.086 0.224,0.092C0.241,0.098 0.26,0.101 0.283,0.101C0.315,0.101 0.341,0.097 0.363,0.088C0.384,0.078 0.401,0.064 0.412,0.044C0.423,0.024 0.429,-0.002 0.429,-0.035L0.429,-0.138L0.422,-0.138C0.41,-0.106 0.389,-0.08 0.358,-0.06C0.327,-0.041 0.291,-0.031 0.249,-0.031C0.217,-0.031 0.188,-0.036 0.162,-0.047C0.135,-0.059 0.113,-0.075 0.094,-0.097C0.076,-0.119 0.061,-0.145 0.051,-0.177C0.041,-0.208 0.036,-0.244 0.036,-0.284C0.036,-0.338 0.045,-0.384 0.063,-0.422C0.081,-0.46 0.106,-0.488 0.138,-0.508C0.17,-0.528 0.208,-0.538 0.25,-0.538C0.292,-0.538 0.328,-0.528 0.359,-0.509C0.389,-0.489 0.41,-0.463 0.422,-0.431L0.429,-0.431L0.431,-0.529L0.531,-0.529L0.531,-0.049C0.531,-0.007 0.525,0.028 0.513,0.056C0.501,0.085 0.484,0.108 0.462,0.126C0.44,0.144 0.413,0.157 0.383,0.165C0.352,0.173 0.318,0.177 0.281,0.177ZM0.284,-0.111C0.315,-0.111 0.341,-0.118 0.362,-0.132C0.383,-0.146 0.4,-0.164 0.411,-0.186C0.422,-0.207 0.428,-0.23 0.429,-0.253L0.428,-0.317C0.428,-0.34 0.422,-0.362 0.411,-0.383C0.4,-0.405 0.384,-0.422 0.363,-0.436C0.342,-0.45 0.316,-0.457 0.285,-0.457C0.256,-0.457 0.231,-0.45 0.209,-0.437C0.188,-0.423 0.171,-0.404 0.159,-0.378C0.148,-0.352 0.142,-0.321 0.142,-0.284C0.142,-0.247 0.148,-0.215 0.16,-0.189C0.171,-0.164 0.188,-0.144 0.209,-0.131C0.231,-0.118 0.256,-0.111 0.284,-0.111Z" style="fill:white;fill-rule:nonzero;"/>
            </g>
        </g>
        <g transform="matrix(-0.901502,0.432774,-0.432774,-0.901502,888.029,760.282)">
            <g transform="matrix(28,0,0,28,357.496,481.197)">
                <path d="M0.252,0.009C0.22,0.009 0.191,0.003 0.164,-0.009C0.138,-0.021 0.115,-0.038 0.096,-0.062C0.077,-0.085 0.062,-0.113 0.052,-0.147C0.042,-0.181 0.036,-0.22 0.036,-0.265C0.036,-0.324 0.045,-0.373 0.064,-0.414C0.082,-0.455 0.107,-0.486 0.139,-0.507C0.172,-0.528 0.209,-0.538 0.252,-0.538C0.282,-0.538 0.308,-0.533 0.333,-0.524C0.357,-0.515 0.377,-0.501 0.394,-0.485C0.411,-0.468 0.424,-0.448 0.432,-0.425L0.438,-0.425L0.442,-0.529L0.541,-0.529L0.541,-0L0.438,-0L0.438,-0.105L0.432,-0.105C0.42,-0.071 0.397,-0.043 0.366,-0.022C0.335,-0.002 0.296,0.009 0.252,0.009ZM0.288,-0.076C0.321,-0.076 0.348,-0.084 0.37,-0.099C0.392,-0.114 0.409,-0.134 0.42,-0.158C0.431,-0.182 0.437,-0.208 0.437,-0.235L0.437,-0.295C0.437,-0.322 0.431,-0.348 0.42,-0.372C0.409,-0.396 0.392,-0.416 0.37,-0.431C0.348,-0.446 0.321,-0.454 0.288,-0.454C0.259,-0.454 0.233,-0.446 0.211,-0.432C0.189,-0.418 0.172,-0.397 0.16,-0.369C0.148,-0.341 0.142,-0.307 0.142,-0.265C0.142,-0.224 0.148,-0.189 0.16,-0.161C0.172,-0.133 0.189,-0.112 0.211,-0.097C0.233,-0.083 0.259,-0.076 0.288,-0.076Z" style="fill:white;fill-rule:nonzero;"/>
            </g>
        </g>
        <g transform="matrix(-0.934702,0.355432,-0.355432,-0.934702,836.709,822.859)">
            <g transform="matrix(28,0,0,28,342.769,488.287)">
                <path d="M0.072,-0L0.072,-0.529L0.17,-0.529L0.174,-0.424L0.18,-0.424C0.195,-0.461 0.219,-0.49 0.252,-0.509C0.284,-0.528 0.32,-0.537 0.359,-0.537C0.386,-0.537 0.411,-0.533 0.434,-0.525C0.457,-0.517 0.477,-0.504 0.494,-0.486C0.511,-0.469 0.524,-0.446 0.534,-0.417C0.543,-0.389 0.548,-0.355 0.548,-0.314L0.548,-0L0.445,-0L0.445,-0.293C0.445,-0.329 0.441,-0.359 0.432,-0.382C0.423,-0.406 0.41,-0.423 0.392,-0.435C0.374,-0.446 0.35,-0.452 0.322,-0.452C0.292,-0.452 0.266,-0.445 0.243,-0.43C0.221,-0.415 0.204,-0.396 0.192,-0.371C0.18,-0.347 0.174,-0.319 0.174,-0.289L0.174,-0L0.072,-0Z" style="fill:white;fill-rule:nonzero;"/>
            </g>
        </g>
        <g transform="matrix(-0.953101,0.302653,-0.302653,-0.953101,788.927,865.766)">
            <g transform="matrix(28,0,0,28,327.384,494.009)">
                <path d="M0.072,-0L0.072,-0.529L0.175,-0.529L0.175,-0L0.072,-0ZM0.072,-0.61L0.072,-0.729L0.175,-0.729L0.175,-0.61L0.072,-0.61Z" style="fill:white;fill-rule:nonzero;"/>
            </g>
        </g>
        <g transform="matrix(-0.963427,0.267971,-0.267971,-0.963427,764.871,887.214)">
            <g transform="matrix(28,0,0,28,321.892,495.802)">
                <path d="M0.108,-0L0.108,-0.445L0.012,-0.445L0.012,-0.529L0.108,-0.529L0.108,-0.607C0.108,-0.647 0.12,-0.677 0.145,-0.698C0.169,-0.719 0.202,-0.729 0.244,-0.729L0.338,-0.729L0.338,-0.657L0.271,-0.657C0.247,-0.657 0.232,-0.652 0.223,-0.641C0.215,-0.631 0.211,-0.617 0.211,-0.599L0.211,-0.529L0.327,-0.529L0.327,-0.445L0.211,-0.445L0.211,-0L0.108,-0Z" style="fill:white;fill-rule:nonzero;"/>
            </g>
        </g>
        <g transform="matrix(-0.976099,0.217324,-0.217324,-0.976099,728.472,916.15)">
            <g transform="matrix(28,0,0,28,313.858,498.132)">
                <path d="M0.037,0.167L0.037,0.082L0.094,0.082C0.109,0.082 0.123,0.08 0.134,0.075C0.145,0.071 0.154,0.064 0.162,0.055C0.17,0.046 0.176,0.035 0.182,0.021L0.214,-0.061L0.214,-0.016L-0.003,-0.529L0.11,-0.529L0.231,-0.207L0.253,-0.144L0.257,-0.144L0.278,-0.207L0.392,-0.529L0.501,-0.529L0.281,0.046C0.27,0.076 0.256,0.1 0.24,0.118C0.224,0.136 0.206,0.148 0.185,0.156C0.163,0.163 0.139,0.167 0.111,0.167L0.037,0.167Z" style="fill:white;fill-rule:nonzero;"/>
            </g>
        </g>
        <g transform="matrix(-0.994478,0.104946,-0.104946,-0.994478,642.07,970.558)">
            <g transform="matrix(28,0,0,28,295.5,502.171)">
                <path d="M0.396,0.009C0.341,0.009 0.292,-0 0.248,-0.018C0.204,-0.036 0.166,-0.061 0.135,-0.094C0.104,-0.127 0.08,-0.166 0.064,-0.212C0.048,-0.258 0.04,-0.309 0.04,-0.364C0.04,-0.422 0.048,-0.474 0.066,-0.52C0.083,-0.566 0.107,-0.605 0.139,-0.637C0.171,-0.67 0.209,-0.695 0.253,-0.712C0.298,-0.729 0.347,-0.737 0.4,-0.737C0.462,-0.737 0.517,-0.727 0.564,-0.706C0.612,-0.685 0.65,-0.656 0.679,-0.619C0.708,-0.582 0.726,-0.538 0.732,-0.487L0.62,-0.487C0.614,-0.521 0.601,-0.549 0.58,-0.572C0.56,-0.595 0.534,-0.612 0.503,-0.624C0.473,-0.636 0.438,-0.642 0.4,-0.642C0.35,-0.642 0.306,-0.632 0.269,-0.61C0.231,-0.588 0.202,-0.557 0.182,-0.516C0.161,-0.474 0.151,-0.424 0.151,-0.365C0.151,-0.321 0.157,-0.281 0.168,-0.246C0.18,-0.211 0.196,-0.182 0.218,-0.158C0.24,-0.133 0.266,-0.115 0.296,-0.103C0.326,-0.09 0.36,-0.084 0.398,-0.084C0.446,-0.084 0.488,-0.093 0.524,-0.111C0.56,-0.129 0.588,-0.156 0.607,-0.191C0.627,-0.225 0.637,-0.267 0.637,-0.315L0.637,-0.339L0.673,-0.299L0.405,-0.299L0.405,-0.38L0.748,-0.38L0.748,-0.327C0.748,-0.276 0.739,-0.229 0.723,-0.188C0.706,-0.146 0.682,-0.111 0.651,-0.082C0.62,-0.053 0.583,-0.03 0.54,-0.015C0.497,0.001 0.449,0.009 0.396,0.009Z" style="fill:white;fill-rule:nonzero;"/>
            </g>
        </g>
        <g transform="matrix(-0.999772,0.0213388,-0.0213388,-0.999772,557.967,1002.59)">
            <g transform="matrix(28,0,0,28,273.634,504.27)">
                <path d="M0.072,-0L0.072,-0.529L0.164,-0.529L0.169,-0.435L0.174,-0.435C0.185,-0.469 0.205,-0.494 0.233,-0.511C0.261,-0.527 0.292,-0.536 0.327,-0.536C0.333,-0.536 0.339,-0.535 0.344,-0.535C0.349,-0.535 0.354,-0.535 0.358,-0.534L0.358,-0.437C0.354,-0.438 0.349,-0.438 0.344,-0.438C0.338,-0.438 0.332,-0.438 0.326,-0.438C0.295,-0.438 0.268,-0.433 0.246,-0.422C0.224,-0.411 0.207,-0.396 0.195,-0.376C0.183,-0.356 0.176,-0.331 0.174,-0.302L0.174,-0L0.072,-0Z" style="fill:white;fill-rule:nonzero;"/>
            </g>
        </g>
        <g transform="matrix(-0.999481,-0.0322028,0.0322028,-0.999481,513.155,1017.46)">
            <g transform="matrix(28,0,0,28,264.771,504.6)">
                <path d="M0.252,0.009C0.22,0.009 0.191,0.003 0.164,-0.009C0.138,-0.021 0.115,-0.038 0.096,-0.062C0.077,-0.085 0.062,-0.113 0.052,-0.147C0.042,-0.181 0.036,-0.22 0.036,-0.265C0.036,-0.324 0.045,-0.373 0.064,-0.414C0.082,-0.455 0.107,-0.486 0.139,-0.507C0.172,-0.528 0.209,-0.538 0.252,-0.538C0.282,-0.538 0.308,-0.533 0.333,-0.524C0.357,-0.515 0.377,-0.501 0.394,-0.485C0.411,-0.468 0.424,-0.448 0.432,-0.425L0.438,-0.425L0.442,-0.529L0.541,-0.529L0.541,-0L0.438,-0L0.438,-0.105L0.432,-0.105C0.42,-0.071 0.397,-0.043 0.366,-0.022C0.335,-0.002 0.296,0.009 0.252,0.009ZM0.288,-0.076C0.321,-0.076 0.348,-0.084 0.37,-0.099C0.392,-0.114 0.409,-0.134 0.42,-0.158C0.431,-0.182 0.437,-0.208 0.437,-0.235L0.437,-0.295C0.437,-0.322 0.431,-0.348 0.42,-0.372C0.409,-0.396 0.392,-0.416 0.37,-0.431C0.348,-0.446 0.321,-0.454 0.288,-0.454C0.259,-0.454 0.233,-0.446 0.211,-0.432C0.189,-0.418 0.172,-0.397 0.16,-0.369C0.148,-0.341 0.142,-0.307 0.142,-0.265C0.142,-0.224 0.148,-0.189 0.16,-0.161C0.172,-0.133 0.189,-0.112 0.211,-0.097C0.233,-0.083 0.259,-0.076 0.288,-0.076Z" style="fill:white;fill-rule:nonzero;"/>
            </g>
        </g>
        <g transform="matrix(-0.993627,-0.112718,0.112718,-0.993627,438.502,1032.93)">
            <g transform="matrix(28,0,0,28,248.451,504.069)">
                <path d="M0.252,0.009C0.22,0.009 0.191,0.003 0.164,-0.009C0.138,-0.021 0.115,-0.038 0.096,-0.062C0.077,-0.085 0.062,-0.113 0.052,-0.147C0.042,-0.181 0.036,-0.22 0.036,-0.265C0.036,-0.324 0.045,-0.373 0.064,-0.414C0.082,-0.455 0.107,-0.486 0.139,-0.507C0.172,-0.528 0.209,-0.538 0.252,-0.538C0.282,-0.538 0.308,-0.533 0.333,-0.524C0.357,-0.515 0.377,-0.501 0.394,-0.485C0.411,-0.468 0.424,-0.448 0.432,-0.425L0.438,-0.425L0.438,-0.729L0.541,-0.729L0.541,-0L0.442,-0L0.438,-0.105L0.432,-0.105C0.42,-0.071 0.397,-0.043 0.366,-0.022C0.335,-0.002 0.296,0.009 0.252,0.009ZM0.288,-0.076C0.321,-0.076 0.348,-0.084 0.37,-0.099C0.392,-0.114 0.409,-0.134 0.42,-0.158C0.431,-0.182 0.437,-0.208 0.437,-0.235L0.437,-0.295C0.437,-0.315 0.434,-0.335 0.427,-0.354C0.421,-0.373 0.412,-0.39 0.399,-0.405C0.387,-0.42 0.372,-0.431 0.353,-0.44C0.334,-0.449 0.313,-0.454 0.288,-0.454C0.259,-0.454 0.233,-0.446 0.211,-0.432C0.189,-0.418 0.172,-0.397 0.16,-0.369C0.148,-0.341 0.142,-0.307 0.142,-0.265C0.142,-0.224 0.148,-0.189 0.16,-0.161C0.172,-0.133 0.189,-0.112 0.211,-0.097C0.233,-0.083 0.259,-0.076 0.288,-0.076Z" style="fill:white;fill-rule:nonzero;"/>
            </g>
        </g>
        <g transform="matrix(-0.98131,-0.192434,0.192434,-0.98131,363.507,1039.75)">
            <g transform="matrix(28,0,0,28,232.246,502.22)">
                <path d="M0.292,0.009C0.239,0.009 0.194,-0.002 0.156,-0.025C0.117,-0.047 0.088,-0.079 0.067,-0.12C0.047,-0.16 0.036,-0.208 0.036,-0.262C0.036,-0.318 0.047,-0.366 0.067,-0.408C0.087,-0.449 0.116,-0.481 0.154,-0.504C0.192,-0.526 0.236,-0.537 0.288,-0.537C0.346,-0.537 0.394,-0.525 0.432,-0.499C0.469,-0.474 0.496,-0.439 0.513,-0.394C0.53,-0.35 0.535,-0.3 0.53,-0.244L0.138,-0.244C0.139,-0.207 0.145,-0.176 0.158,-0.15C0.171,-0.125 0.189,-0.105 0.212,-0.092C0.235,-0.078 0.261,-0.071 0.292,-0.071C0.328,-0.071 0.359,-0.08 0.383,-0.097C0.407,-0.113 0.422,-0.135 0.429,-0.163L0.527,-0.163C0.523,-0.128 0.51,-0.098 0.488,-0.073C0.467,-0.047 0.439,-0.027 0.405,-0.013C0.372,0.002 0.334,0.009 0.292,0.009ZM0.139,-0.302L0.129,-0.311L0.439,-0.311L0.429,-0.3C0.43,-0.335 0.425,-0.364 0.413,-0.388C0.401,-0.411 0.384,-0.428 0.363,-0.44C0.342,-0.452 0.316,-0.458 0.287,-0.458C0.258,-0.458 0.232,-0.451 0.21,-0.439C0.188,-0.426 0.171,-0.408 0.159,-0.385C0.147,-0.361 0.14,-0.334 0.139,-0.302Z" style="fill:white;fill-rule:nonzero;"/>
            </g>
        </g>
        <g transform="matrix(-0.958751,-0.284248,0.284248,-0.958751,271.296,1034.47)">
            <g transform="matrix(28,0,0,28,210.707,497.549)">
                <path d="M0.051,-0.277C0.051,-0.3 0.057,-0.32 0.067,-0.338C0.078,-0.356 0.092,-0.37 0.11,-0.381C0.128,-0.391 0.149,-0.396 0.172,-0.396C0.208,-0.396 0.237,-0.385 0.259,-0.362C0.281,-0.34 0.292,-0.311 0.292,-0.277C0.292,-0.255 0.287,-0.234 0.277,-0.216C0.267,-0.199 0.253,-0.184 0.235,-0.174C0.217,-0.164 0.196,-0.159 0.172,-0.159C0.149,-0.159 0.128,-0.164 0.11,-0.174C0.092,-0.184 0.078,-0.199 0.067,-0.216C0.057,-0.234 0.051,-0.255 0.051,-0.277Z" style="fill:white;fill-rule:nonzero;"/>
            </g>
        </g>
        <g transform="matrix(-0.923799,-0.382878,0.382878,-0.923799,186.947,1022.97)">
            <g transform="matrix(28,0,0,28,195.27,492.881)">
                <path d="M0.271,-0L0.005,-0.729L0.127,-0.729L0.303,-0.222L0.341,-0.103L0.348,-0.103L0.387,-0.221L0.564,-0.729L0.684,-0.729L0.419,-0L0.271,-0Z" style="fill:white;fill-rule:nonzero;"/>
            </g>
        </g>
        <g transform="matrix(-0.894141,-0.447786,0.447786,-0.894141,123.722,1002.8)">
            <g transform="matrix(28,0,0,28,180.394,486.774)">
                <path d="M0.292,0.009C0.239,0.009 0.194,-0.002 0.156,-0.025C0.117,-0.047 0.088,-0.079 0.067,-0.12C0.047,-0.16 0.036,-0.208 0.036,-0.262C0.036,-0.318 0.047,-0.366 0.067,-0.408C0.087,-0.449 0.116,-0.481 0.154,-0.504C0.192,-0.526 0.236,-0.537 0.288,-0.537C0.346,-0.537 0.394,-0.525 0.432,-0.499C0.469,-0.474 0.496,-0.439 0.513,-0.394C0.53,-0.35 0.535,-0.3 0.53,-0.244L0.138,-0.244C0.139,-0.207 0.145,-0.176 0.158,-0.15C0.171,-0.125 0.189,-0.105 0.212,-0.092C0.235,-0.078 0.261,-0.071 0.292,-0.071C0.328,-0.071 0.359,-0.08 0.383,-0.097C0.407,-0.113 0.422,-0.135 0.429,-0.163L0.527,-0.163C0.523,-0.128 0.51,-0.098 0.488,-0.073C0.467,-0.047 0.439,-0.027 0.405,-0.013C0.372,0.002 0.334,0.009 0.292,0.009ZM0.139,-0.302L0.129,-0.311L0.439,-0.311L0.429,-0.3C0.43,-0.335 0.425,-0.364 0.413,-0.388C0.401,-0.411 0.384,-0.428 0.363,-0.44C0.342,-0.452 0.316,-0.458 0.287,-0.458C0.258,-0.458 0.232,-0.451 0.21,-0.439C0.188,-0.426 0.171,-0.408 0.159,-0.385C0.147,-0.361 0.14,-0.334 0.139,-0.302Z" style="fill:white;fill-rule:nonzero;"/>
            </g>
        </g>
        <g transform="matrix(-0.85697,-0.515366,0.515366,-0.85697,61.7411,976.688)">
            <g transform="matrix(28,0,0,28,166.401,479.776)">
                <path d="M0.281,0.177C0.239,0.177 0.202,0.171 0.171,0.158C0.139,0.146 0.114,0.129 0.096,0.106C0.077,0.083 0.066,0.056 0.062,0.025L0.162,0.025C0.165,0.041 0.171,0.054 0.182,0.066C0.193,0.077 0.207,0.086 0.224,0.092C0.241,0.098 0.26,0.101 0.283,0.101C0.315,0.101 0.341,0.097 0.363,0.088C0.384,0.078 0.401,0.064 0.412,0.044C0.423,0.024 0.429,-0.002 0.429,-0.035L0.429,-0.138L0.422,-0.138C0.41,-0.106 0.389,-0.08 0.358,-0.06C0.327,-0.041 0.291,-0.031 0.249,-0.031C0.217,-0.031 0.188,-0.036 0.162,-0.047C0.135,-0.059 0.113,-0.075 0.094,-0.097C0.076,-0.119 0.061,-0.145 0.051,-0.177C0.041,-0.208 0.036,-0.244 0.036,-0.284C0.036,-0.338 0.045,-0.384 0.063,-0.422C0.081,-0.46 0.106,-0.488 0.138,-0.508C0.17,-0.528 0.208,-0.538 0.25,-0.538C0.292,-0.538 0.328,-0.528 0.359,-0.509C0.389,-0.489 0.41,-0.463 0.422,-0.431L0.429,-0.431L0.431,-0.529L0.531,-0.529L0.531,-0.049C0.531,-0.007 0.525,0.028 0.513,0.056C0.501,0.085 0.484,0.108 0.462,0.126C0.44,0.144 0.413,0.157 0.383,0.165C0.352,0.173 0.318,0.177 0.281,0.177ZM0.284,-0.111C0.315,-0.111 0.341,-0.118 0.362,-0.132C0.383,-0.146 0.4,-0.164 0.411,-0.186C0.422,-0.207 0.428,-0.23 0.429,-0.253L0.428,-0.317C0.428,-0.34 0.422,-0.362 0.411,-0.383C0.4,-0.405 0.384,-0.422 0.363,-0.436C0.342,-0.45 0.316,-0.457 0.285,-0.457C0.256,-0.457 0.231,-0.45 0.209,-0.437C0.188,-0.423 0.171,-0.404 0.159,-0.378C0.148,-0.352 0.142,-0.321 0.142,-0.284C0.142,-0.247 0.148,-0.215 0.16,-0.189C0.171,-0.164 0.188,-0.144 0.209,-0.131C0.231,-0.118 0.256,-0.111 0.284,-0.111Z" style="fill:white;fill-rule:nonzero;"/>
            </g>
        </g>
        <g transform="matrix(-0.813705,-0.581278,0.581278,-0.813705,2.8982,944.042)">
            <g transform="matrix(28,0,0,28,152.728,471.557)">
                <path d="M0.252,0.009C0.22,0.009 0.191,0.003 0.164,-0.009C0.138,-0.021 0.115,-0.038 0.096,-0.062C0.077,-0.085 0.062,-0.113 0.052,-0.147C0.042,-0.181 0.036,-0.22 0.036,-0.265C0.036,-0.324 0.045,-0.373 0.064,-0.414C0.082,-0.455 0.107,-0.486 0.139,-0.507C0.172,-0.528 0.209,-0.538 0.252,-0.538C0.282,-0.538 0.308,-0.533 0.333,-0.524C0.357,-0.515 0.377,-0.501 0.394,-0.485C0.411,-0.468 0.424,-0.448 0.432,-0.425L0.438,-0.425L0.442,-0.529L0.541,-0.529L0.541,-0L0.438,-0L0.438,-0.105L0.432,-0.105C0.42,-0.071 0.397,-0.043 0.366,-0.022C0.335,-0.002 0.296,0.009 0.252,0.009ZM0.288,-0.076C0.321,-0.076 0.348,-0.084 0.37,-0.099C0.392,-0.114 0.409,-0.134 0.42,-0.158C0.431,-0.182 0.437,-0.208 0.437,-0.235L0.437,-0.295C0.437,-0.322 0.431,-0.348 0.42,-0.372C0.409,-0.396 0.392,-0.416 0.37,-0.431C0.348,-0.446 0.321,-0.454 0.288,-0.454C0.259,-0.454 0.233,-0.446 0.211,-0.432C0.189,-0.418 0.172,-0.397 0.16,-0.369C0.148,-0.341 0.142,-0.307 0.142,-0.265C0.142,-0.224 0.148,-0.189 0.16,-0.161C0.172,-0.133 0.189,-0.112 0.211,-0.097C0.233,-0.083 0.259,-0.076 0.288,-0.076Z" style="fill:white;fill-rule:nonzero;"/>
            </g>
        </g>
        <g transform="matrix(-0.763134,-0.64624,0.64624,-0.763134,-52.7832,904.805)">
            <g transform="matrix(28,0,0,28,139.427,462.076)">
                <path d="M0.072,-0L0.072,-0.529L0.17,-0.529L0.174,-0.424L0.18,-0.424C0.195,-0.461 0.219,-0.49 0.252,-0.509C0.284,-0.528 0.32,-0.537 0.359,-0.537C0.386,-0.537 0.411,-0.533 0.434,-0.525C0.457,-0.517 0.477,-0.504 0.494,-0.486C0.511,-0.469 0.524,-0.446 0.534,-0.417C0.543,-0.389 0.548,-0.355 0.548,-0.314L0.548,-0L0.445,-0L0.445,-0.293C0.445,-0.329 0.441,-0.359 0.432,-0.382C0.423,-0.406 0.41,-0.423 0.392,-0.435C0.374,-0.446 0.35,-0.452 0.322,-0.452C0.292,-0.452 0.266,-0.445 0.243,-0.43C0.221,-0.415 0.204,-0.396 0.192,-0.371C0.18,-0.347 0.174,-0.319 0.174,-0.289L0.174,-0L0.072,-0Z" style="fill:white;fill-rule:nonzero;"/>
            </g>
        </g>
        <g transform="matrix(-0.727058,-0.686577,0.686577,-0.727058,-90.5958,866.77)">
            <g transform="matrix(28,0,0,28,126.99,451.393)">
                <path d="M0.072,-0L0.072,-0.529L0.175,-0.529L0.175,-0L0.072,-0ZM0.072,-0.61L0.072,-0.729L0.175,-0.729L0.175,-0.61L0.072,-0.61Z" style="fill:white;fill-rule:nonzero;"/>
            </g>
        </g>
        <g transform="matrix(-0.702449,-0.711734,0.711734,-0.702449,-109.517,849.062)">
            <g transform="matrix(28,0,0,28,122.723,447.424)">
                <path d="M0.108,-0L0.108,-0.445L0.012,-0.445L0.012,-0.529L0.108,-0.529L0.108,-0.607C0.108,-0.647 0.12,-0.677 0.145,-0.698C0.169,-0.719 0.202,-0.729 0.244,-0.729L0.338,-0.729L0.338,-0.657L0.271,-0.657C0.247,-0.657 0.232,-0.652 0.223,-0.641C0.215,-0.631 0.211,-0.617 0.211,-0.599L0.211,-0.529L0.327,-0.529L0.327,-0.445L0.211,-0.445L0.211,-0L0.108,-0Z" style="fill:white;fill-rule:nonzero;"/>
            </g>
        </g>
        <g transform="matrix(-0.665703,-0.746217,0.746217,-0.665703,-134.963,822.576)">
            <g transform="matrix(28,0,0,28,116.771,441.519)">
                <path d="M0.037,0.167L0.037,0.082L0.094,0.082C0.109,0.082 0.123,0.08 0.134,0.075C0.145,0.071 0.154,0.064 0.162,0.055C0.17,0.046 0.176,0.035 0.182,0.021L0.214,-0.061L0.214,-0.016L-0.003,-0.529L0.11,-0.529L0.231,-0.207L0.253,-0.144L0.257,-0.144L0.278,-0.207L0.392,-0.529L0.501,-0.529L0.281,0.046C0.27,0.076 0.256,0.1 0.24,0.118C0.224,0.136 0.206,0.148 0.185,0.156C0.163,0.163 0.139,0.167 0.111,0.167L0.037,0.167Z" style="fill:white;fill-rule:nonzero;"/>
            </g>
        </g>
        <g transform="matrix(-0.579988,-0.814625,0.814625,-0.579988,-183.434,760.388)">
            <g transform="matrix(28,0,0,28,104.307,427.482)">
                <path d="M0.396,0.009C0.341,0.009 0.292,-0 0.248,-0.018C0.204,-0.036 0.166,-0.061 0.135,-0.094C0.104,-0.127 0.08,-0.166 0.064,-0.212C0.048,-0.258 0.04,-0.309 0.04,-0.364C0.04,-0.422 0.048,-0.474 0.066,-0.52C0.083,-0.566 0.107,-0.605 0.139,-0.637C0.171,-0.67 0.209,-0.695 0.253,-0.712C0.298,-0.729 0.347,-0.737 0.4,-0.737C0.462,-0.737 0.517,-0.727 0.564,-0.706C0.612,-0.685 0.65,-0.656 0.679,-0.619C0.708,-0.582 0.726,-0.538 0.732,-0.487L0.62,-0.487C0.614,-0.521 0.601,-0.549 0.58,-0.572C0.56,-0.595 0.534,-0.612 0.503,-0.624C0.473,-0.636 0.438,-0.642 0.4,-0.642C0.35,-0.642 0.306,-0.632 0.269,-0.61C0.231,-0.588 0.202,-0.557 0.182,-0.516C0.161,-0.474 0.151,-0.424 0.151,-0.365C0.151,-0.321 0.157,-0.281 0.168,-0.246C0.18,-0.211 0.196,-0.182 0.218,-0.158C0.24,-0.133 0.266,-0.115 0.296,-0.103C0.326,-0.09 0.36,-0.084 0.398,-0.084C0.446,-0.084 0.488,-0.093 0.524,-0.111C0.56,-0.129 0.588,-0.156 0.607,-0.191C0.627,-0.225 0.637,-0.267 0.637,-0.315L0.637,-0.339L0.673,-0.299L0.405,-0.299L0.405,-0.38L0.748,-0.38L0.748,-0.327C0.748,-0.276 0.739,-0.229 0.723,-0.188C0.706,-0.146 0.682,-0.111 0.651,-0.082C0.62,-0.053 0.583,-0.03 0.54,-0.015C0.497,0.001 0.449,0.009 0.396,0.009Z" style="fill:white;fill-rule:nonzero;"/>
            </g>
        </g>
        <g transform="matrix(-0.511555,-0.859251,0.859251,-0.511555,-213.187,697.697)">
            <g transform="matrix(28,0,0,28,91.7112,409.442)">
                <path d="M0.072,-0L0.072,-0.529L0.164,-0.529L0.169,-0.435L0.174,-0.435C0.185,-0.469 0.205,-0.494 0.233,-0.511C0.261,-0.527 0.292,-0.536 0.327,-0.536C0.333,-0.536 0.339,-0.535 0.344,-0.535C0.349,-0.535 0.354,-0.535 0.358,-0.534L0.358,-0.437C0.354,-0.438 0.349,-0.438 0.344,-0.438C0.338,-0.438 0.332,-0.438 0.326,-0.438C0.295,-0.438 0.268,-0.433 0.246,-0.422C0.224,-0.411 0.207,-0.396 0.195,-0.376C0.183,-0.356 0.176,-0.331 0.174,-0.302L0.174,-0L0.072,-0Z" style="fill:white;fill-rule:nonzero;"/>
            </g>
        </g>
        <g transform="matrix(-0.465788,-0.884897,0.884897,-0.465788,-228.028,666.161)">
            <g transform="matrix(28,0,0,28,87.0669,401.911)">
                <path d="M0.252,0.009C0.22,0.009 0.191,0.003 0.164,-0.009C0.138,-0.021 0.115,-0.038 0.096,-0.062C0.077,-0.085 0.062,-0.113 0.052,-0.147C0.042,-0.181 0.036,-0.22 0.036,-0.265C0.036,-0.324 0.045,-0.373 0.064,-0.414C0.082,-0.455 0.107,-0.486 0.139,-0.507C0.172,-0.528 0.209,-0.538 0.252,-0.538C0.282,-0.538 0.308,-0.533 0.333,-0.524C0.357,-0.515 0.377,-0.501 0.394,-0.485C0.411,-0.468 0.424,-0.448 0.432,-0.425L0.438,-0.425L0.442,-0.529L0.541,-0.529L0.541,-0L0.438,-0L0.438,-0.105L0.432,-0.105C0.42,-0.071 0.397,-0.043 0.366,-0.022C0.335,-0.002 0.296,0.009 0.252,0.009ZM0.288,-0.076C0.321,-0.076 0.348,-0.084 0.37,-0.099C0.392,-0.114 0.409,-0.134 0.42,-0.158C0.431,-0.182 0.437,-0.208 0.437,-0.235L0.437,-0.295C0.437,-0.322 0.431,-0.348 0.42,-0.372C0.409,-0.396 0.392,-0.416 0.37,-0.431C0.348,-0.446 0.321,-0.454 0.288,-0.454C0.259,-0.454 0.233,-0.446 0.211,-0.432C0.189,-0.418 0.172,-0.397 0.16,-0.369C0.148,-0.341 0.142,-0.307 0.142,-0.265C0.142,-0.224 0.148,-0.189 0.16,-0.161C0.172,-0.133 0.189,-0.112 0.211,-0.097C0.233,-0.083 0.259,-0.076 0.288,-0.076Z" style="fill:white;fill-rule:nonzero;"/>
            </g>
        </g>
        <g transform="matrix(-0.395064,-0.918653,0.918653,-0.395064,-245.087,613.588)">
            <g transform="matrix(28,0,0,28,79.4808,387.489)">
                <path d="M0.252,0.009C0.22,0.009 0.191,0.003 0.164,-0.009C0.138,-0.021 0.115,-0.038 0.096,-0.062C0.077,-0.085 0.062,-0.113 0.052,-0.147C0.042,-0.181 0.036,-0.22 0.036,-0.265C0.036,-0.324 0.045,-0.373 0.064,-0.414C0.082,-0.455 0.107,-0.486 0.139,-0.507C0.172,-0.528 0.209,-0.538 0.252,-0.538C0.282,-0.538 0.308,-0.533 0.333,-0.524C0.357,-0.515 0.377,-0.501 0.394,-0.485C0.411,-0.468 0.424,-0.448 0.432,-0.425L0.438,-0.425L0.438,-0.729L0.541,-0.729L0.541,-0L0.442,-0L0.438,-0.105L0.432,-0.105C0.42,-0.071 0.397,-0.043 0.366,-0.022C0.335,-0.002 0.296,0.009 0.252,0.009ZM0.288,-0.076C0.321,-0.076 0.348,-0.084 0.37,-0.099C0.392,-0.114 0.409,-0.134 0.42,-0.158C0.431,-0.182 0.437,-0.208 0.437,-0.235L0.437,-0.295C0.437,-0.315 0.434,-0.335 0.427,-0.354C0.421,-0.373 0.412,-0.39 0.399,-0.405C0.387,-0.42 0.372,-0.431 0.353,-0.44C0.334,-0.449 0.313,-0.454 0.288,-0.454C0.259,-0.454 0.233,-0.446 0.211,-0.432C0.189,-0.418 0.172,-0.397 0.16,-0.369C0.148,-0.341 0.142,-0.307 0.142,-0.265C0.142,-0.224 0.148,-0.189 0.16,-0.161C0.172,-0.133 0.189,-0.112 0.211,-0.097C0.233,-0.083 0.259,-0.076 0.288,-0.076Z" style="fill:white;fill-rule:nonzero;"/>
            </g>
        </g>
        <g transform="matrix(-0.322249,-0.946655,0.946655,-0.322249,-256.029,561.629)">
            <g transform="matrix(28,0,0,28,73.033,372.466)">
                <path d="M0.292,0.009C0.239,0.009 0.194,-0.002 0.156,-0.025C0.117,-0.047 0.088,-0.079 0.067,-0.12C0.047,-0.16 0.036,-0.208 0.036,-0.262C0.036,-0.318 0.047,-0.366 0.067,-0.408C0.087,-0.449 0.116,-0.481 0.154,-0.504C0.192,-0.526 0.236,-0.537 0.288,-0.537C0.346,-0.537 0.394,-0.525 0.432,-0.499C0.469,-0.474 0.496,-0.439 0.513,-0.394C0.53,-0.35 0.535,-0.3 0.53,-0.244L0.138,-0.244C0.139,-0.207 0.145,-0.176 0.158,-0.15C0.171,-0.125 0.189,-0.105 0.212,-0.092C0.235,-0.078 0.261,-0.071 0.292,-0.071C0.328,-0.071 0.359,-0.08 0.383,-0.097C0.407,-0.113 0.422,-0.135 0.429,-0.163L0.527,-0.163C0.523,-0.128 0.51,-0.098 0.488,-0.073C0.467,-0.047 0.439,-0.027 0.405,-0.013C0.372,0.002 0.334,0.009 0.292,0.009ZM0.139,-0.302L0.129,-0.311L0.439,-0.311L0.429,-0.3C0.43,-0.335 0.425,-0.364 0.413,-0.388C0.401,-0.411 0.384,-0.428 0.363,-0.44C0.342,-0.452 0.316,-0.458 0.287,-0.458C0.258,-0.458 0.232,-0.451 0.21,-0.439C0.188,-0.426 0.171,-0.408 0.159,-0.385C0.147,-0.361 0.14,-0.334 0.139,-0.302Z" style="fill:white;fill-rule:nonzero;"/>
            </g>
        </g>
        <g transform="matrix(-0.234925,-0.972013,0.972013,-0.234925,-259.706,498.485)">
            <g transform="matrix(28,0,0,28,66.3264,351.45)">
                <path d="M0.051,-0.277C0.051,-0.3 0.057,-0.32 0.067,-0.338C0.078,-0.356 0.092,-0.37 0.11,-0.381C0.128,-0.391 0.149,-0.396 0.172,-0.396C0.208,-0.396 0.237,-0.385 0.259,-0.362C0.281,-0.34 0.292,-0.311 0.292,-0.277C0.292,-0.255 0.287,-0.234 0.277,-0.216C0.267,-0.199 0.253,-0.184 0.235,-0.174C0.217,-0.164 0.196,-0.159 0.172,-0.159C0.149,-0.159 0.128,-0.164 0.11,-0.174C0.092,-0.184 0.078,-0.199 0.067,-0.216C0.057,-0.234 0.051,-0.255 0.051,-0.277Z" style="fill:white;fill-rule:nonzero;"/>
            </g>
        </g>
        <g transform="matrix(-0.136629,-0.990622,0.990622,-0.136629,-261.469,443.726)">
            <g transform="matrix(28,0,0,28,62.6293,335.804)">
                <path d="M0.271,-0L0.005,-0.729L0.127,-0.729L0.303,-0.222L0.341,-0.103L0.348,-0.103L0.387,-0.221L0.564,-0.729L0.684,-0.729L0.419,-0L0.271,-0Z" style="fill:white;fill-rule:nonzero;"/>
            </g>
        </g>
        <g transform="matrix(-0.0687703,-0.997633,0.997633,-0.0687703,-254.584,402.109)">
            <g transform="matrix(28,0,0,28,60.3805,319.874)">
                <path d="M0.292,0.009C0.239,0.009 0.194,-0.002 0.156,-0.025C0.117,-0.047 0.088,-0.079 0.067,-0.12C0.047,-0.16 0.036,-0.208 0.036,-0.262C0.036,-0.318 0.047,-0.366 0.067,-0.408C0.087,-0.449 0.116,-0.481 0.154,-0.504C0.192,-0.526 0.236,-0.537 0.288,-0.537C0.346,-0.537 0.394,-0.525 0.432,-0.499C0.469,-0.474 0.496,-0.439 0.513,-0.394C0.53,-0.35 0.535,-0.3 0.53,-0.244L0.138,-0.244C0.139,-0.207 0.145,-0.176 0.158,-0.15C0.171,-0.125 0.189,-0.105 0.212,-0.092C0.235,-0.078 0.261,-0.071 0.292,-0.071C0.328,-0.071 0.359,-0.08 0.383,-0.097C0.407,-0.113 0.422,-0.135 0.429,-0.163L0.527,-0.163C0.523,-0.128 0.51,-0.098 0.488,-0.073C0.467,-0.047 0.439,-0.027 0.405,-0.013C0.372,0.002 0.334,0.009 0.292,0.009ZM0.139,-0.302L0.129,-0.311L0.439,-0.311L0.429,-0.3C0.43,-0.335 0.425,-0.364 0.413,-0.388C0.401,-0.411 0.384,-0.428 0.363,-0.44C0.342,-0.452 0.316,-0.458 0.287,-0.458C0.258,-0.458 0.232,-0.451 0.21,-0.439C0.188,-0.426 0.171,-0.408 0.159,-0.385C0.147,-0.361 0.14,-0.334 0.139,-0.302Z" style="fill:white;fill-rule:nonzero;"/>
            </g>
        </g>
        <g transform="matrix(0.00448756,-0.99999,0.99999,0.00448756,-245.233,362.197)">
            <g transform="matrix(28,0,0,28,59.2965,304.266)">
                <path d="M0.281,0.177C0.239,0.177 0.202,0.171 0.171,0.158C0.139,0.146 0.114,0.129 0.096,0.106C0.077,0.083 0.066,0.056 0.062,0.025L0.162,0.025C0.165,0.041 0.171,0.054 0.182,0.066C0.193,0.077 0.207,0.086 0.224,0.092C0.241,0.098 0.26,0.101 0.283,0.101C0.315,0.101 0.341,0.097 0.363,0.088C0.384,0.078 0.401,0.064 0.412,0.044C0.423,0.024 0.429,-0.002 0.429,-0.035L0.429,-0.138L0.422,-0.138C0.41,-0.106 0.389,-0.08 0.358,-0.06C0.327,-0.041 0.291,-0.031 0.249,-0.031C0.217,-0.031 0.188,-0.036 0.162,-0.047C0.135,-0.059 0.113,-0.075 0.094,-0.097C0.076,-0.119 0.061,-0.145 0.051,-0.177C0.041,-0.208 0.036,-0.244 0.036,-0.284C0.036,-0.338 0.045,-0.384 0.063,-0.422C0.081,-0.46 0.106,-0.488 0.138,-0.508C0.17,-0.528 0.208,-0.538 0.25,-0.538C0.292,-0.538 0.328,-0.528 0.359,-0.509C0.389,-0.489 0.41,-0.463 0.422,-0.431L0.429,-0.431L0.431,-0.529L0.531,-0.529L0.531,-0.049C0.531,-0.007 0.525,0.028 0.513,0.056C0.501,0.085 0.484,0.108 0.462,0.126C0.44,0.144 0.413,0.157 0.383,0.165C0.352,0.173 0.318,0.177 0.281,0.177ZM0.284,-0.111C0.315,-0.111 0.341,-0.118 0.362,-0.132C0.383,-0.146 0.4,-0.164 0.411,-0.186C0.422,-0.207 0.428,-0.23 0.429,-0.253L0.428,-0.317C0.428,-0.34 0.422,-0.362 0.411,-0.383C0.4,-0.405 0.384,-0.422 0.363,-0.436C0.342,-0.45 0.316,-0.457 0.285,-0.457C0.256,-0.457 0.231,-0.45 0.209,-0.437C0.188,-0.423 0.171,-0.404 0.159,-0.378C0.148,-0.352 0.142,-0.321 0.142,-0.284C0.142,-0.247 0.148,-0.215 0.16,-0.189C0.171,-0.164 0.188,-0.144 0.209,-0.131C0.231,-0.118 0.256,-0.111 0.284,-0.111Z" style="fill:white;fill-rule:nonzero;"/>
            </g>
        </g>
        <g transform="matrix(0.0800315,-0.996792,0.996792,0.0800315,-232.77,324.407)">
            <g transform="matrix(28,0,0,28,59.3639,288.307)">
                <path d="M0.252,0.009C0.22,0.009 0.191,0.003 0.164,-0.009C0.138,-0.021 0.115,-0.038 0.096,-0.062C0.077,-0.085 0.062,-0.113 0.052,-0.147C0.042,-0.181 0.036,-0.22 0.036,-0.265C0.036,-0.324 0.045,-0.373 0.064,-0.414C0.082,-0.455 0.107,-0.486 0.139,-0.507C0.172,-0.528 0.209,-0.538 0.252,-0.538C0.282,-0.538 0.308,-0.533 0.333,-0.524C0.357,-0.515 0.377,-0.501 0.394,-0.485C0.411,-0.468 0.424,-0.448 0.432,-0.425L0.438,-0.425L0.442,-0.529L0.541,-0.529L0.541,-0L0.438,-0L0.438,-0.105L0.432,-0.105C0.42,-0.071 0.397,-0.043 0.366,-0.022C0.335,-0.002 0.296,0.009 0.252,0.009ZM0.288,-0.076C0.321,-0.076 0.348,-0.084 0.37,-0.099C0.392,-0.114 0.409,-0.134 0.42,-0.158C0.431,-0.182 0.437,-0.208 0.437,-0.235L0.437,-0.295C0.437,-0.322 0.431,-0.348 0.42,-0.372C0.409,-0.396 0.392,-0.416 0.37,-0.431C0.348,-0.446 0.321,-0.454 0.288,-0.454C0.259,-0.454 0.233,-0.446 0.211,-0.432C0.189,-0.418 0.172,-0.397 0.16,-0.369C0.148,-0.341 0.142,-0.307 0.142,-0.265C0.142,-0.224 0.148,-0.189 0.16,-0.161C0.172,-0.133 0.189,-0.112 0.211,-0.097C0.233,-0.083 0.259,-0.076 0.288,-0.076Z" style="fill:white;fill-rule:nonzero;"/>
            </g>
        </g>
        <g transform="matrix(0.159822,-0.987146,0.987146,0.159822,-217.576,288.427)">
            <g transform="matrix(28,0,0,28,60.652,272.031)">
                <path d="M0.072,-0L0.072,-0.529L0.17,-0.529L0.174,-0.424L0.18,-0.424C0.195,-0.461 0.219,-0.49 0.252,-0.509C0.284,-0.528 0.32,-0.537 0.359,-0.537C0.386,-0.537 0.411,-0.533 0.434,-0.525C0.457,-0.517 0.477,-0.504 0.494,-0.486C0.511,-0.469 0.524,-0.446 0.534,-0.417C0.543,-0.389 0.548,-0.355 0.548,-0.314L0.548,-0L0.445,-0L0.445,-0.293C0.445,-0.329 0.441,-0.359 0.432,-0.382C0.423,-0.406 0.41,-0.423 0.392,-0.435C0.374,-0.446 0.35,-0.452 0.322,-0.452C0.292,-0.452 0.266,-0.445 0.243,-0.43C0.221,-0.415 0.204,-0.396 0.192,-0.371C0.18,-0.347 0.174,-0.319 0.174,-0.289L0.174,-0L0.072,-0Z" style="fill:white;fill-rule:nonzero;"/>
            </g>
        </g>
        <g transform="matrix(0.212403,-0.977182,0.977182,0.212403,-200.092,263.45)">
            <g transform="matrix(28,0,0,28,63.387,255.854)">
                <path d="M0.072,-0L0.072,-0.529L0.175,-0.529L0.175,-0L0.072,-0ZM0.072,-0.61L0.072,-0.729L0.175,-0.729L0.175,-0.61L0.072,-0.61Z" style="fill:white;fill-rule:nonzero;"/>
            </g>
        </g>
        <g transform="matrix(0.246308,-0.969192,0.969192,0.246308,-193.796,251.141)">
            <g transform="matrix(28,0,0,28,64.576,250.174)">
                <path d="M0.108,-0L0.108,-0.445L0.012,-0.445L0.012,-0.529L0.108,-0.529L0.108,-0.607C0.108,-0.647 0.12,-0.677 0.145,-0.698C0.169,-0.719 0.202,-0.729 0.244,-0.729L0.338,-0.729L0.338,-0.657L0.271,-0.657C0.247,-0.657 0.232,-0.652 0.223,-0.641C0.215,-0.631 0.211,-0.617 0.211,-0.599L0.211,-0.529L0.327,-0.529L0.327,-0.445L0.211,-0.445L0.211,-0L0.108,-0Z" style="fill:white;fill-rule:nonzero;"/>
            </g>
        </g>
        <g transform="matrix(0.294648,-0.955606,0.955606,0.294648,-184.343,234.318)">
            <g transform="matrix(28,0,0,28,66.5543,242.032)">
                <path d="M0.037,0.167L0.037,0.082L0.094,0.082C0.109,0.082 0.123,0.08 0.134,0.075C0.145,0.071 0.154,0.064 0.162,0.055C0.17,0.046 0.176,0.035 0.182,0.021L0.214,-0.061L0.214,-0.016L-0.003,-0.529L0.11,-0.529L0.231,-0.207L0.253,-0.144L0.257,-0.144L0.278,-0.207L0.392,-0.529L0.501,-0.529L0.281,0.046C0.27,0.076 0.256,0.1 0.24,0.118C0.224,0.136 0.206,0.148 0.185,0.156C0.163,0.163 0.139,0.167 0.111,0.167L0.037,0.167Z" style="fill:white;fill-rule:nonzero;"/>
            </g>
        </g>
        <g transform="matrix(0.397495,-0.917604,0.917604,0.397495,-162.198,201.211)">
            <g transform="matrix(28,0,0,28,72.1215,224.118)">
                <path d="M0.396,0.009C0.341,0.009 0.292,-0 0.248,-0.018C0.204,-0.036 0.166,-0.061 0.135,-0.094C0.104,-0.127 0.08,-0.166 0.064,-0.212C0.048,-0.258 0.04,-0.309 0.04,-0.364C0.04,-0.422 0.048,-0.474 0.066,-0.52C0.083,-0.566 0.107,-0.605 0.139,-0.637C0.171,-0.67 0.209,-0.695 0.253,-0.712C0.298,-0.729 0.347,-0.737 0.4,-0.737C0.462,-0.737 0.517,-0.727 0.564,-0.706C0.612,-0.685 0.65,-0.656 0.679,-0.619C0.708,-0.582 0.726,-0.538 0.732,-0.487L0.62,-0.487C0.614,-0.521 0.601,-0.549 0.58,-0.572C0.56,-0.595 0.534,-0.612 0.503,-0.624C0.473,-0.636 0.438,-0.642 0.4,-0.642C0.35,-0.642 0.306,-0.632 0.269,-0.61C0.231,-0.588 0.202,-0.557 0.182,-0.516C0.161,-0.474 0.151,-0.424 0.151,-0.365C0.151,-0.321 0.157,-0.281 0.168,-0.246C0.18,-0.211 0.196,-0.182 0.218,-0.158C0.24,-0.133 0.266,-0.115 0.296,-0.103C0.326,-0.09 0.36,-0.084 0.398,-0.084C0.446,-0.084 0.488,-0.093 0.524,-0.111C0.56,-0.129 0.588,-0.156 0.607,-0.191C0.627,-0.225 0.637,-0.267 0.637,-0.315L0.637,-0.339L0.673,-0.299L0.405,-0.299L0.405,-0.38L0.748,-0.38L0.748,-0.327C0.748,-0.276 0.739,-0.229 0.723,-0.188C0.706,-0.146 0.682,-0.111 0.651,-0.082C0.62,-0.053 0.583,-0.03 0.54,-0.015C0.497,0.001 0.449,0.009 0.396,0.009Z" style="fill:white;fill-rule:nonzero;"/>
            </g>
        </g>
        <g transform="matrix(0.471095,-0.882082,0.882082,0.471095,-137.095,179.398)">
            <g transform="matrix(28,0,0,28,81.0486,204.019)">
                <path d="M0.072,-0L0.072,-0.529L0.164,-0.529L0.169,-0.435L0.174,-0.435C0.185,-0.469 0.205,-0.494 0.233,-0.511C0.261,-0.527 0.292,-0.536 0.327,-0.536C0.333,-0.536 0.339,-0.535 0.344,-0.535C0.349,-0.535 0.354,-0.535 0.358,-0.534L0.358,-0.437C0.354,-0.438 0.349,-0.438 0.344,-0.438C0.338,-0.438 0.332,-0.438 0.326,-0.438C0.295,-0.438 0.268,-0.433 0.246,-0.422C0.224,-0.411 0.207,-0.396 0.195,-0.376C0.183,-0.356 0.176,-0.331 0.174,-0.302L0.174,-0L0.072,-0Z" style="fill:white;fill-rule:nonzero;"/>
            </g>
        </g>
        <g transform="matrix(0.516687,-0.856174,0.856174,0.516687,-126.816,167.658)">
            <g transform="matrix(28,0,0,28,85.0925,196.154)">
                <path d="M0.252,0.009C0.22,0.009 0.191,0.003 0.164,-0.009C0.138,-0.021 0.115,-0.038 0.096,-0.062C0.077,-0.085 0.062,-0.113 0.052,-0.147C0.042,-0.181 0.036,-0.22 0.036,-0.265C0.036,-0.324 0.045,-0.373 0.064,-0.414C0.082,-0.455 0.107,-0.486 0.139,-0.507C0.172,-0.528 0.209,-0.538 0.252,-0.538C0.282,-0.538 0.308,-0.533 0.333,-0.524C0.357,-0.515 0.377,-0.501 0.394,-0.485C0.411,-0.468 0.424,-0.448 0.432,-0.425L0.438,-0.425L0.442,-0.529L0.541,-0.529L0.541,-0L0.438,-0L0.438,-0.105L0.432,-0.105C0.42,-0.071 0.397,-0.043 0.366,-0.022C0.335,-0.002 0.296,0.009 0.252,0.009ZM0.288,-0.076C0.321,-0.076 0.348,-0.084 0.37,-0.099C0.392,-0.114 0.409,-0.134 0.42,-0.158C0.431,-0.182 0.437,-0.208 0.437,-0.235L0.437,-0.295C0.437,-0.322 0.431,-0.348 0.42,-0.372C0.409,-0.396 0.392,-0.416 0.37,-0.431C0.348,-0.446 0.321,-0.454 0.288,-0.454C0.259,-0.454 0.233,-0.446 0.211,-0.432C0.189,-0.418 0.172,-0.397 0.16,-0.369C0.148,-0.341 0.142,-0.307 0.142,-0.265C0.142,-0.224 0.148,-0.189 0.16,-0.161C0.172,-0.133 0.189,-0.112 0.211,-0.097C0.233,-0.083 0.259,-0.076 0.288,-0.076Z" style="fill:white;fill-rule:nonzero;"/>
            </g>
        </g>
        <g transform="matrix(0.582413,-0.812893,0.812893,0.582413,-108.985,152.113)">
            <g transform="matrix(28,0,0,28,93.5625,182.135)">
                <path d="M0.252,0.009C0.22,0.009 0.191,0.003 0.164,-0.009C0.138,-0.021 0.115,-0.038 0.096,-0.062C0.077,-0.085 0.062,-0.113 0.052,-0.147C0.042,-0.181 0.036,-0.22 0.036,-0.265C0.036,-0.324 0.045,-0.373 0.064,-0.414C0.082,-0.455 0.107,-0.486 0.139,-0.507C0.172,-0.528 0.209,-0.538 0.252,-0.538C0.282,-0.538 0.308,-0.533 0.333,-0.524C0.357,-0.515 0.377,-0.501 0.394,-0.485C0.411,-0.468 0.424,-0.448 0.432,-0.425L0.438,-0.425L0.438,-0.729L0.541,-0.729L0.541,-0L0.442,-0L0.438,-0.105L0.432,-0.105C0.42,-0.071 0.397,-0.043 0.366,-0.022C0.335,-0.002 0.296,0.009 0.252,0.009ZM0.288,-0.076C0.321,-0.076 0.348,-0.084 0.37,-0.099C0.392,-0.114 0.409,-0.134 0.42,-0.158C0.431,-0.182 0.437,-0.208 0.437,-0.235L0.437,-0.295C0.437,-0.315 0.434,-0.335 0.427,-0.354C0.421,-0.373 0.412,-0.39 0.399,-0.405C0.387,-0.42 0.372,-0.431 0.353,-0.44C0.334,-0.449 0.313,-0.454 0.288,-0.454C0.259,-0.454 0.233,-0.446 0.211,-0.432C0.189,-0.418 0.172,-0.397 0.16,-0.369C0.148,-0.341 0.142,-0.307 0.142,-0.265C0.142,-0.224 0.148,-0.189 0.16,-0.161C0.172,-0.133 0.189,-0.112 0.211,-0.097C0.233,-0.083 0.259,-0.076 0.288,-0.076Z" style="fill:white;fill-rule:nonzero;"/>
            </g>
        </g>
        <g transform="matrix(0.643788,-0.765204,0.765204,0.643788,-92.5224,139.026)">
            <g transform="matrix(28,0,0,28,103.064,168.89)">
                <path d="M0.292,0.009C0.239,0.009 0.194,-0.002 0.156,-0.025C0.117,-0.047 0.088,-0.079 0.067,-0.12C0.047,-0.16 0.036,-0.208 0.036,-0.262C0.036,-0.318 0.047,-0.366 0.067,-0.408C0.087,-0.449 0.116,-0.481 0.154,-0.504C0.192,-0.526 0.236,-0.537 0.288,-0.537C0.346,-0.537 0.394,-0.525 0.432,-0.499C0.469,-0.474 0.496,-0.439 0.513,-0.394C0.53,-0.35 0.535,-0.3 0.53,-0.244L0.138,-0.244C0.139,-0.207 0.145,-0.176 0.158,-0.15C0.171,-0.125 0.189,-0.105 0.212,-0.092C0.235,-0.078 0.261,-0.071 0.292,-0.071C0.328,-0.071 0.359,-0.08 0.383,-0.097C0.407,-0.113 0.422,-0.135 0.429,-0.163L0.527,-0.163C0.523,-0.128 0.51,-0.098 0.488,-0.073C0.467,-0.047 0.439,-0.027 0.405,-0.013C0.372,0.002 0.334,0.009 0.292,0.009ZM0.139,-0.302L0.129,-0.311L0.439,-0.311L0.429,-0.3C0.43,-0.335 0.425,-0.364 0.413,-0.388C0.401,-0.411 0.384,-0.428 0.363,-0.44C0.342,-0.452 0.316,-0.458 0.287,-0.458C0.258,-0.458 0.232,-0.451 0.21,-0.439C0.188,-0.426 0.171,-0.408 0.159,-0.385C0.147,-0.361 0.14,-0.334 0.139,-0.302Z" style="fill:white;fill-rule:nonzero;"/>
            </g>
        </g>
        <g transform="matrix(0.710747,-0.703448,0.703448,0.710747,-73.1251,126.761)">
            <g transform="matrix(28,0,0,28,117.575,152.298)">
                <path d="M0.051,-0.277C0.051,-0.3 0.057,-0.32 0.067,-0.338C0.078,-0.356 0.092,-0.37 0.11,-0.381C0.128,-0.391 0.149,-0.396 0.172,-0.396C0.208,-0.396 0.237,-0.385 0.259,-0.362C0.281,-0.34 0.292,-0.311 0.292,-0.277C0.292,-0.255 0.287,-0.234 0.277,-0.216C0.267,-0.199 0.253,-0.184 0.235,-0.174C0.217,-0.164 0.196,-0.159 0.172,-0.159C0.149,-0.159 0.128,-0.164 0.11,-0.174C0.092,-0.184 0.078,-0.199 0.067,-0.216C0.057,-0.234 0.051,-0.255 0.051,-0.277Z" style="fill:white;fill-rule:nonzero;"/>
            </g>
        </g>
    </g>
</svg>
