<svg xmlns="http://www.w3.org/2000/svg" xmlns:xlink="http://www.w3.org/1999/xlink" width="100%" height="100%" version="1.1" viewBox="0 0 669 58" xml:space="preserve" style="fill-rule:evenodd;clip-rule:evenodd;stroke-linejoin:round;stroke-miterlimit:2"><g transform="matrix(1,0,0,1,-635,-61)"><g id="ArtBoard3" transform="matrix(1,0,0,1,-0.590679,-0.42564)"><rect width="668.018" height="57.938" x="635.591" y="61.426" style="fill:none"/><clipPath id="_clip1"><rect width="668.018" height="57.938" x="635.591" y="61.426"/></clipPath><g clip-path="url(#_clip1)"><g id="_-VeganCheck-Grades-"><g><path d="M0.345,-0L0.006,-0.729L0.138,-0.729L0.391,-0.167L0.42,-0.098L0.426,-0.098L0.454,-0.167L0.708,-0.729L0.84,-0.729L0.501,-0L0.345,-0Z" style="fill-rule:nonzero" transform="matrix(1,0,0,1,670.872,-234.757) matrix(64,0,0,64,-35.1018,343.794)"/></g><g><path d="M0.339,0.009C0.277,0.009 0.223,-0.002 0.177,-0.024C0.131,-0.046 0.096,-0.077 0.071,-0.118C0.045,-0.159 0.033,-0.207 0.033,-0.262C0.033,-0.319 0.045,-0.368 0.071,-0.409C0.096,-0.45 0.131,-0.482 0.176,-0.504C0.222,-0.526 0.275,-0.537 0.336,-0.537C0.4,-0.537 0.455,-0.526 0.5,-0.502C0.545,-0.479 0.579,-0.445 0.601,-0.401C0.624,-0.357 0.633,-0.304 0.629,-0.242L0.149,-0.242C0.15,-0.207 0.158,-0.176 0.174,-0.151C0.19,-0.126 0.212,-0.106 0.241,-0.093C0.269,-0.079 0.303,-0.073 0.342,-0.073C0.385,-0.073 0.423,-0.081 0.454,-0.098C0.486,-0.115 0.507,-0.136 0.515,-0.164L0.626,-0.164C0.62,-0.129 0.604,-0.099 0.578,-0.073C0.552,-0.047 0.518,-0.027 0.477,-0.013C0.436,0.002 0.39,0.009 0.339,0.009ZM0.147,-0.303L0.141,-0.31L0.521,-0.31L0.513,-0.303C0.513,-0.335 0.506,-0.362 0.492,-0.385C0.477,-0.408 0.457,-0.425 0.431,-0.437C0.404,-0.449 0.372,-0.455 0.336,-0.455C0.299,-0.455 0.267,-0.449 0.24,-0.437C0.213,-0.425 0.191,-0.407 0.176,-0.384C0.16,-0.361 0.151,-0.334 0.147,-0.303Z" style="fill-rule:nonzero" transform="matrix(1,0,0,1,670.872,-234.757) matrix(64,0,0,64,4.83424,343.794)"/></g><g><path d="M0.222,0.168C0.174,0.168 0.135,0.163 0.105,0.154C0.075,0.145 0.053,0.131 0.04,0.114C0.026,0.096 0.02,0.075 0.02,0.05C0.02,0.03 0.024,0.013 0.034,-0.003C0.044,-0.018 0.058,-0.03 0.075,-0.04C0.093,-0.05 0.114,-0.057 0.137,-0.06L0.137,-0.066C0.116,-0.07 0.098,-0.08 0.084,-0.094C0.07,-0.109 0.063,-0.126 0.063,-0.145C0.063,-0.162 0.068,-0.177 0.078,-0.19C0.087,-0.203 0.1,-0.213 0.116,-0.221C0.132,-0.23 0.149,-0.235 0.166,-0.237L0.166,-0.244C0.139,-0.257 0.118,-0.275 0.102,-0.297C0.087,-0.32 0.079,-0.345 0.079,-0.372C0.079,-0.407 0.089,-0.436 0.109,-0.461C0.129,-0.485 0.158,-0.505 0.195,-0.518C0.232,-0.532 0.276,-0.539 0.328,-0.539C0.346,-0.539 0.364,-0.538 0.381,-0.535C0.398,-0.533 0.415,-0.53 0.43,-0.525C0.439,-0.551 0.452,-0.572 0.471,-0.59C0.489,-0.607 0.512,-0.621 0.539,-0.63C0.566,-0.639 0.596,-0.643 0.629,-0.642L0.629,-0.559C0.597,-0.561 0.569,-0.557 0.543,-0.548C0.516,-0.539 0.498,-0.524 0.486,-0.505C0.515,-0.494 0.537,-0.477 0.554,-0.452C0.57,-0.427 0.579,-0.399 0.579,-0.366C0.579,-0.334 0.569,-0.305 0.55,-0.281C0.531,-0.257 0.503,-0.238 0.466,-0.225C0.429,-0.212 0.384,-0.206 0.331,-0.206C0.314,-0.206 0.3,-0.206 0.288,-0.207C0.277,-0.208 0.266,-0.209 0.257,-0.211C0.248,-0.213 0.238,-0.215 0.228,-0.217C0.205,-0.215 0.188,-0.21 0.177,-0.202C0.166,-0.193 0.161,-0.182 0.161,-0.17C0.161,-0.156 0.169,-0.146 0.186,-0.141C0.203,-0.135 0.223,-0.133 0.248,-0.133L0.433,-0.133C0.474,-0.133 0.509,-0.128 0.537,-0.118C0.565,-0.108 0.586,-0.093 0.601,-0.072C0.615,-0.051 0.622,-0.024 0.622,0.01C0.622,0.046 0.613,0.076 0.595,0.099C0.577,0.123 0.551,0.14 0.518,0.151C0.485,0.162 0.446,0.168 0.401,0.168L0.222,0.168ZM0.238,0.106L0.402,0.106C0.435,0.106 0.46,0.1 0.478,0.089C0.496,0.077 0.505,0.06 0.505,0.037C0.505,0.02 0.502,0.007 0.494,-0.002C0.486,-0.012 0.475,-0.018 0.461,-0.022C0.447,-0.025 0.43,-0.027 0.41,-0.027L0.199,-0.027C0.175,-0.025 0.156,-0.017 0.143,-0.005C0.13,0.007 0.123,0.022 0.123,0.039C0.123,0.056 0.128,0.07 0.138,0.08C0.147,0.09 0.161,0.097 0.178,0.1C0.195,0.104 0.215,0.106 0.238,0.106ZM0.331,-0.279C0.373,-0.279 0.406,-0.287 0.431,-0.302C0.455,-0.318 0.467,-0.34 0.467,-0.369C0.467,-0.391 0.462,-0.409 0.45,-0.423C0.438,-0.437 0.422,-0.448 0.401,-0.455C0.381,-0.462 0.357,-0.465 0.329,-0.465C0.301,-0.465 0.276,-0.462 0.255,-0.455C0.235,-0.448 0.219,-0.437 0.208,-0.423C0.197,-0.409 0.191,-0.392 0.191,-0.372C0.191,-0.341 0.204,-0.318 0.23,-0.302C0.256,-0.286 0.29,-0.279 0.331,-0.279Z" style="fill-rule:nonzero" transform="matrix(1,0,0,1,670.872,-234.757) matrix(64,0,0,64,41.6982,343.794)"/></g><g><path d="M0.23,0.009C0.172,0.009 0.125,-0.004 0.088,-0.031C0.051,-0.058 0.033,-0.095 0.033,-0.143C0.033,-0.176 0.039,-0.204 0.052,-0.225C0.065,-0.247 0.083,-0.264 0.105,-0.276C0.128,-0.289 0.155,-0.297 0.185,-0.302C0.216,-0.307 0.249,-0.31 0.285,-0.31L0.443,-0.31L0.443,-0.348C0.443,-0.372 0.438,-0.392 0.428,-0.408C0.418,-0.423 0.402,-0.435 0.382,-0.443C0.361,-0.451 0.336,-0.455 0.305,-0.455C0.279,-0.455 0.256,-0.452 0.236,-0.445C0.215,-0.439 0.199,-0.429 0.187,-0.416C0.174,-0.403 0.167,-0.386 0.164,-0.364L0.053,-0.364C0.057,-0.422 0.082,-0.465 0.128,-0.494C0.173,-0.523 0.232,-0.538 0.304,-0.538C0.341,-0.538 0.374,-0.535 0.405,-0.528C0.436,-0.521 0.463,-0.511 0.485,-0.496C0.508,-0.481 0.526,-0.462 0.539,-0.437C0.552,-0.412 0.558,-0.382 0.558,-0.346L0.558,-0.107C0.558,-0.094 0.561,-0.084 0.566,-0.078C0.57,-0.072 0.578,-0.069 0.588,-0.069C0.593,-0.069 0.598,-0.07 0.603,-0.071C0.608,-0.073 0.613,-0.075 0.617,-0.078L0.617,-0.005C0.61,-0.001 0.601,0.002 0.589,0.005C0.577,0.007 0.564,0.008 0.55,0.008C0.535,0.008 0.522,0.007 0.509,0.003C0.497,-0.001 0.487,-0.006 0.478,-0.013C0.469,-0.021 0.463,-0.029 0.458,-0.04C0.454,-0.05 0.452,-0.062 0.452,-0.075L0.452,-0.114L0.468,-0.092L0.448,-0.092C0.436,-0.062 0.41,-0.038 0.371,-0.019C0.333,-0 0.285,0.009 0.23,0.009ZM0.271,-0.068C0.323,-0.068 0.364,-0.078 0.396,-0.098C0.427,-0.118 0.443,-0.148 0.443,-0.187L0.443,-0.246L0.303,-0.246C0.272,-0.246 0.245,-0.243 0.222,-0.238C0.198,-0.233 0.181,-0.224 0.168,-0.211C0.156,-0.198 0.149,-0.179 0.149,-0.155C0.149,-0.128 0.16,-0.107 0.18,-0.091C0.201,-0.076 0.231,-0.068 0.271,-0.068Z" style="fill-rule:nonzero" transform="matrix(1,0,0,1,670.872,-234.757) matrix(64,0,0,64,78.8822,343.794)"/></g><g><path d="M0.056,-0L0.056,-0.529L0.169,-0.529L0.172,-0.42L0.179,-0.42C0.198,-0.458 0.227,-0.487 0.266,-0.507C0.305,-0.527 0.348,-0.537 0.393,-0.537C0.427,-0.537 0.458,-0.533 0.486,-0.524C0.514,-0.516 0.538,-0.502 0.559,-0.483C0.579,-0.464 0.595,-0.438 0.606,-0.407C0.617,-0.375 0.623,-0.336 0.623,-0.29L0.623,-0L0.507,-0L0.507,-0.27C0.507,-0.31 0.502,-0.343 0.491,-0.369C0.48,-0.395 0.464,-0.415 0.442,-0.428C0.419,-0.441 0.391,-0.447 0.356,-0.447C0.319,-0.447 0.287,-0.439 0.26,-0.424C0.232,-0.408 0.211,-0.386 0.195,-0.359C0.18,-0.331 0.172,-0.299 0.172,-0.262L0.172,-0L0.056,-0Z" style="fill-rule:nonzero" transform="matrix(1,0,0,1,670.872,-234.757) matrix(64,0,0,64,116.258,343.794)"/></g><g><path d="M0.432,0.009C0.371,0.009 0.315,0 0.266,-0.018C0.217,-0.035 0.175,-0.061 0.14,-0.094C0.105,-0.127 0.079,-0.166 0.06,-0.212C0.042,-0.258 0.033,-0.308 0.033,-0.364C0.033,-0.421 0.042,-0.472 0.06,-0.518C0.078,-0.563 0.105,-0.602 0.14,-0.635C0.175,-0.668 0.217,-0.693 0.266,-0.711C0.315,-0.728 0.371,-0.737 0.433,-0.737C0.502,-0.737 0.562,-0.727 0.614,-0.706C0.667,-0.685 0.709,-0.656 0.742,-0.618C0.774,-0.58 0.794,-0.536 0.803,-0.484L0.682,-0.484C0.674,-0.516 0.659,-0.543 0.636,-0.567C0.613,-0.59 0.584,-0.608 0.55,-0.621C0.515,-0.634 0.476,-0.64 0.433,-0.64C0.376,-0.64 0.326,-0.629 0.285,-0.607C0.243,-0.585 0.211,-0.554 0.188,-0.513C0.166,-0.472 0.155,-0.422 0.155,-0.364C0.155,-0.321 0.161,-0.282 0.174,-0.248C0.187,-0.215 0.205,-0.186 0.23,-0.162C0.254,-0.138 0.283,-0.12 0.317,-0.108C0.352,-0.095 0.39,-0.089 0.433,-0.089C0.477,-0.089 0.517,-0.095 0.552,-0.108C0.587,-0.121 0.616,-0.14 0.639,-0.164C0.661,-0.188 0.676,-0.215 0.683,-0.247L0.803,-0.246C0.796,-0.195 0.776,-0.15 0.742,-0.112C0.709,-0.073 0.665,-0.044 0.612,-0.023C0.559,-0.002 0.499,0.009 0.432,0.009Z" style="fill-rule:nonzero" transform="matrix(1,0,0,1,670.872,-234.757) matrix(64,0,0,64,156.962,343.794)"/></g><g><path d="M0.056,-0L0.056,-0.729L0.172,-0.729L0.172,-0.42L0.179,-0.42C0.198,-0.457 0.227,-0.486 0.266,-0.507C0.304,-0.527 0.347,-0.537 0.393,-0.537C0.427,-0.537 0.458,-0.533 0.486,-0.524C0.514,-0.516 0.538,-0.502 0.559,-0.483C0.579,-0.464 0.595,-0.438 0.606,-0.407C0.617,-0.375 0.623,-0.336 0.623,-0.29L0.623,-0L0.507,-0L0.507,-0.27C0.507,-0.31 0.502,-0.343 0.491,-0.369C0.48,-0.395 0.464,-0.415 0.442,-0.428C0.419,-0.44 0.391,-0.447 0.356,-0.447C0.319,-0.447 0.287,-0.439 0.26,-0.423C0.232,-0.408 0.21,-0.386 0.195,-0.359C0.18,-0.331 0.172,-0.299 0.172,-0.262L0.172,-0L0.056,-0Z" style="fill-rule:nonzero" transform="matrix(1,0,0,1,670.872,-234.757) matrix(64,0,0,64,208.546,343.794)"/></g><g><path d="M0.339,0.009C0.277,0.009 0.223,-0.002 0.177,-0.024C0.131,-0.046 0.096,-0.077 0.071,-0.118C0.045,-0.159 0.033,-0.207 0.033,-0.262C0.033,-0.319 0.045,-0.368 0.071,-0.409C0.096,-0.45 0.131,-0.482 0.176,-0.504C0.222,-0.526 0.275,-0.537 0.336,-0.537C0.4,-0.537 0.455,-0.526 0.5,-0.502C0.545,-0.479 0.579,-0.445 0.601,-0.401C0.624,-0.357 0.633,-0.304 0.629,-0.242L0.149,-0.242C0.15,-0.207 0.158,-0.176 0.174,-0.151C0.19,-0.126 0.212,-0.106 0.241,-0.093C0.269,-0.079 0.303,-0.073 0.342,-0.073C0.385,-0.073 0.423,-0.081 0.454,-0.098C0.486,-0.115 0.507,-0.136 0.515,-0.164L0.626,-0.164C0.62,-0.129 0.604,-0.099 0.578,-0.073C0.552,-0.047 0.518,-0.027 0.477,-0.013C0.436,0.002 0.39,0.009 0.339,0.009ZM0.147,-0.303L0.141,-0.31L0.521,-0.31L0.513,-0.303C0.513,-0.335 0.506,-0.362 0.492,-0.385C0.477,-0.408 0.457,-0.425 0.431,-0.437C0.404,-0.449 0.372,-0.455 0.336,-0.455C0.299,-0.455 0.267,-0.449 0.24,-0.437C0.213,-0.425 0.191,-0.407 0.176,-0.384C0.16,-0.361 0.151,-0.334 0.147,-0.303Z" style="fill-rule:nonzero" transform="matrix(1,0,0,1,670.872,-234.757) matrix(64,0,0,64,249.25,343.794)"/></g><g><path d="M0.332,0.009C0.286,0.009 0.245,0.003 0.208,-0.01C0.171,-0.023 0.14,-0.041 0.114,-0.065C0.087,-0.089 0.067,-0.118 0.054,-0.152C0.04,-0.186 0.033,-0.223 0.033,-0.265C0.033,-0.321 0.046,-0.369 0.071,-0.41C0.097,-0.45 0.132,-0.482 0.178,-0.504C0.224,-0.526 0.278,-0.537 0.338,-0.537C0.392,-0.537 0.44,-0.529 0.481,-0.513C0.522,-0.497 0.555,-0.474 0.579,-0.446C0.604,-0.417 0.618,-0.383 0.622,-0.345L0.507,-0.345C0.501,-0.367 0.49,-0.386 0.474,-0.401C0.458,-0.416 0.439,-0.427 0.416,-0.435C0.392,-0.442 0.367,-0.446 0.338,-0.446C0.299,-0.446 0.266,-0.439 0.237,-0.424C0.209,-0.408 0.187,-0.387 0.172,-0.36C0.156,-0.333 0.149,-0.301 0.149,-0.264C0.149,-0.227 0.156,-0.194 0.171,-0.167C0.186,-0.139 0.208,-0.118 0.236,-0.104C0.264,-0.089 0.297,-0.082 0.336,-0.082C0.366,-0.082 0.392,-0.087 0.416,-0.096C0.44,-0.105 0.46,-0.117 0.477,-0.133C0.493,-0.15 0.504,-0.168 0.509,-0.19L0.626,-0.19C0.621,-0.15 0.605,-0.115 0.578,-0.085C0.551,-0.055 0.516,-0.032 0.473,-0.016C0.431,0.001 0.384,0.009 0.332,0.009Z" style="fill-rule:nonzero" transform="matrix(1,0,0,1,670.872,-234.757) matrix(64,0,0,64,288.162,343.794)"/></g><g><path d="M0.056,-0L0.056,-0.729L0.172,-0.729L0.172,-0.281L0.24,-0.34L0.473,-0.529L0.622,-0.529L0.369,-0.323L0.633,-0L0.489,-0L0.324,-0.204L0.286,-0.255L0.172,-0.165L0.172,-0L0.056,-0Z" style="fill-rule:nonzero" transform="matrix(1,0,0,1,670.872,-234.757) matrix(64,0,0,64,326.306,343.794)"/></g><g><path d="M0.404,0.009C0.348,0.009 0.298,0 0.252,-0.017C0.206,-0.035 0.167,-0.06 0.135,-0.092C0.102,-0.125 0.077,-0.163 0.059,-0.208C0.042,-0.253 0.033,-0.303 0.033,-0.359C0.033,-0.417 0.042,-0.47 0.062,-0.516C0.081,-0.562 0.108,-0.602 0.143,-0.635C0.179,-0.668 0.221,-0.693 0.271,-0.711C0.321,-0.729 0.377,-0.737 0.439,-0.737C0.504,-0.737 0.563,-0.728 0.615,-0.709C0.667,-0.689 0.71,-0.662 0.743,-0.626C0.776,-0.591 0.796,-0.548 0.805,-0.498L0.683,-0.498C0.675,-0.527 0.661,-0.552 0.639,-0.573C0.617,-0.595 0.589,-0.612 0.556,-0.624C0.522,-0.635 0.483,-0.641 0.44,-0.641C0.378,-0.641 0.326,-0.63 0.284,-0.606C0.241,-0.583 0.209,-0.55 0.187,-0.508C0.165,-0.466 0.154,-0.417 0.154,-0.361C0.154,-0.319 0.16,-0.28 0.173,-0.247C0.185,-0.213 0.204,-0.184 0.228,-0.16C0.252,-0.136 0.281,-0.118 0.314,-0.105C0.347,-0.092 0.385,-0.086 0.427,-0.086C0.477,-0.086 0.522,-0.094 0.562,-0.111C0.602,-0.127 0.633,-0.151 0.656,-0.181C0.679,-0.211 0.691,-0.246 0.691,-0.286L0.691,-0.33L0.713,-0.306L0.41,-0.306L0.41,-0.391L0.814,-0.391L0.814,-0L0.719,-0L0.712,-0.141L0.705,-0.141C0.692,-0.11 0.67,-0.084 0.641,-0.061C0.612,-0.039 0.577,-0.022 0.536,-0.009C0.495,0.003 0.451,0.009 0.404,0.009Z" style="fill-rule:nonzero" transform="matrix(1,0,0,1,670.872,-234.757) matrix(64,0,0,64,381.474,343.794)"/></g><g><path d="M0.056,-0L0.056,-0.529L0.161,-0.529L0.166,-0.436L0.17,-0.436C0.182,-0.467 0.201,-0.491 0.228,-0.509C0.255,-0.527 0.286,-0.536 0.323,-0.536C0.333,-0.536 0.342,-0.536 0.35,-0.535C0.358,-0.534 0.365,-0.533 0.371,-0.532L0.371,-0.426C0.364,-0.428 0.356,-0.43 0.347,-0.431C0.339,-0.431 0.33,-0.432 0.321,-0.432C0.293,-0.432 0.268,-0.427 0.246,-0.416C0.224,-0.405 0.207,-0.389 0.194,-0.368C0.181,-0.347 0.173,-0.32 0.171,-0.287L0.171,-0L0.056,-0Z" style="fill-rule:nonzero" transform="matrix(1,0,0,1,670.872,-234.757) matrix(64,0,0,64,436.258,343.794)"/></g><g><path d="M0.23,0.009C0.172,0.009 0.125,-0.004 0.088,-0.031C0.051,-0.058 0.033,-0.095 0.033,-0.143C0.033,-0.176 0.039,-0.204 0.052,-0.225C0.065,-0.247 0.083,-0.264 0.105,-0.276C0.128,-0.289 0.155,-0.297 0.185,-0.302C0.216,-0.307 0.249,-0.31 0.285,-0.31L0.443,-0.31L0.443,-0.348C0.443,-0.372 0.438,-0.392 0.428,-0.408C0.418,-0.423 0.402,-0.435 0.382,-0.443C0.361,-0.451 0.336,-0.455 0.305,-0.455C0.279,-0.455 0.256,-0.452 0.236,-0.445C0.215,-0.439 0.199,-0.429 0.187,-0.416C0.174,-0.403 0.167,-0.386 0.164,-0.364L0.053,-0.364C0.057,-0.422 0.082,-0.465 0.128,-0.494C0.173,-0.523 0.232,-0.538 0.304,-0.538C0.341,-0.538 0.374,-0.535 0.405,-0.528C0.436,-0.521 0.463,-0.511 0.485,-0.496C0.508,-0.481 0.526,-0.462 0.539,-0.437C0.552,-0.412 0.558,-0.382 0.558,-0.346L0.558,-0.107C0.558,-0.094 0.561,-0.084 0.566,-0.078C0.57,-0.072 0.578,-0.069 0.588,-0.069C0.593,-0.069 0.598,-0.07 0.603,-0.071C0.608,-0.073 0.613,-0.075 0.617,-0.078L0.617,-0.005C0.61,-0.001 0.601,0.002 0.589,0.005C0.577,0.007 0.564,0.008 0.55,0.008C0.535,0.008 0.522,0.007 0.509,0.003C0.497,-0.001 0.487,-0.006 0.478,-0.013C0.469,-0.021 0.463,-0.029 0.458,-0.04C0.454,-0.05 0.452,-0.062 0.452,-0.075L0.452,-0.114L0.468,-0.092L0.448,-0.092C0.436,-0.062 0.41,-0.038 0.371,-0.019C0.333,-0 0.285,0.009 0.23,0.009ZM0.271,-0.068C0.323,-0.068 0.364,-0.078 0.396,-0.098C0.427,-0.118 0.443,-0.148 0.443,-0.187L0.443,-0.246L0.303,-0.246C0.272,-0.246 0.245,-0.243 0.222,-0.238C0.198,-0.233 0.181,-0.224 0.168,-0.211C0.156,-0.198 0.149,-0.179 0.149,-0.155C0.149,-0.128 0.16,-0.107 0.18,-0.091C0.201,-0.076 0.231,-0.068 0.271,-0.068Z" style="fill-rule:nonzero" transform="matrix(1,0,0,1,670.872,-234.757) matrix(64,0,0,64,459.618,343.794)"/></g><g><path d="M0.299,0.012C0.259,0.012 0.223,0.006 0.19,-0.007C0.158,-0.02 0.13,-0.039 0.106,-0.063C0.083,-0.087 0.065,-0.116 0.052,-0.15C0.039,-0.184 0.033,-0.222 0.033,-0.263C0.033,-0.319 0.044,-0.368 0.066,-0.409C0.088,-0.45 0.12,-0.481 0.16,-0.504C0.2,-0.527 0.247,-0.538 0.3,-0.538C0.332,-0.538 0.363,-0.533 0.39,-0.524C0.418,-0.515 0.442,-0.502 0.462,-0.485C0.482,-0.468 0.498,-0.448 0.509,-0.425L0.514,-0.425L0.514,-0.729L0.63,-0.729L0.63,-0L0.519,-0L0.516,-0.101L0.511,-0.101C0.495,-0.068 0.469,-0.04 0.433,-0.019C0.397,0.002 0.352,0.012 0.299,0.012ZM0.331,-0.078C0.369,-0.078 0.401,-0.085 0.428,-0.099C0.456,-0.113 0.477,-0.133 0.492,-0.158C0.506,-0.184 0.514,-0.212 0.514,-0.245L0.514,-0.281C0.514,-0.306 0.51,-0.328 0.501,-0.348C0.492,-0.369 0.48,-0.386 0.465,-0.401C0.449,-0.416 0.43,-0.427 0.407,-0.435C0.385,-0.443 0.359,-0.447 0.331,-0.447C0.293,-0.447 0.261,-0.44 0.234,-0.425C0.207,-0.411 0.186,-0.389 0.171,-0.362C0.157,-0.334 0.15,-0.302 0.15,-0.263C0.15,-0.226 0.157,-0.193 0.171,-0.165C0.186,-0.137 0.207,-0.116 0.234,-0.101C0.261,-0.086 0.293,-0.078 0.331,-0.078Z" style="fill-rule:nonzero" transform="matrix(1,0,0,1,670.872,-234.757) matrix(64,0,0,64,496.29,343.794)"/></g><g><path d="M0.339,0.009C0.277,0.009 0.223,-0.002 0.177,-0.024C0.131,-0.046 0.096,-0.077 0.071,-0.118C0.045,-0.159 0.033,-0.207 0.033,-0.262C0.033,-0.319 0.045,-0.368 0.071,-0.409C0.096,-0.45 0.131,-0.482 0.176,-0.504C0.222,-0.526 0.275,-0.537 0.336,-0.537C0.4,-0.537 0.455,-0.526 0.5,-0.502C0.545,-0.479 0.579,-0.445 0.601,-0.401C0.624,-0.357 0.633,-0.304 0.629,-0.242L0.149,-0.242C0.15,-0.207 0.158,-0.176 0.174,-0.151C0.19,-0.126 0.212,-0.106 0.241,-0.093C0.269,-0.079 0.303,-0.073 0.342,-0.073C0.385,-0.073 0.423,-0.081 0.454,-0.098C0.486,-0.115 0.507,-0.136 0.515,-0.164L0.626,-0.164C0.62,-0.129 0.604,-0.099 0.578,-0.073C0.552,-0.047 0.518,-0.027 0.477,-0.013C0.436,0.002 0.39,0.009 0.339,0.009ZM0.147,-0.303L0.141,-0.31L0.521,-0.31L0.513,-0.303C0.513,-0.335 0.506,-0.362 0.492,-0.385C0.477,-0.408 0.457,-0.425 0.431,-0.437C0.404,-0.449 0.372,-0.455 0.336,-0.455C0.299,-0.455 0.267,-0.449 0.24,-0.437C0.213,-0.425 0.191,-0.407 0.176,-0.384C0.16,-0.361 0.151,-0.334 0.147,-0.303Z" style="fill-rule:nonzero" transform="matrix(1,0,0,1,670.872,-234.757) matrix(64,0,0,64,536.802,343.794)"/></g><g><path d="M0.297,0.01C0.24,0.01 0.191,0.003 0.151,-0.012C0.111,-0.026 0.081,-0.047 0.059,-0.073C0.038,-0.099 0.026,-0.13 0.025,-0.166L0.139,-0.166C0.14,-0.134 0.155,-0.109 0.183,-0.091C0.211,-0.073 0.25,-0.064 0.3,-0.064C0.344,-0.064 0.38,-0.07 0.407,-0.083C0.433,-0.096 0.446,-0.116 0.446,-0.143C0.446,-0.163 0.441,-0.179 0.432,-0.19C0.422,-0.2 0.406,-0.208 0.383,-0.213C0.36,-0.219 0.329,-0.223 0.289,-0.227C0.231,-0.233 0.185,-0.241 0.148,-0.252C0.112,-0.263 0.086,-0.278 0.069,-0.298C0.052,-0.318 0.044,-0.345 0.044,-0.378C0.044,-0.411 0.054,-0.44 0.074,-0.464C0.095,-0.488 0.124,-0.506 0.161,-0.519C0.199,-0.532 0.244,-0.539 0.296,-0.539C0.347,-0.539 0.39,-0.532 0.426,-0.519C0.462,-0.505 0.49,-0.486 0.511,-0.461C0.531,-0.437 0.543,-0.407 0.546,-0.371L0.435,-0.371C0.433,-0.393 0.426,-0.411 0.414,-0.424C0.401,-0.438 0.385,-0.448 0.365,-0.455C0.345,-0.461 0.322,-0.464 0.296,-0.464C0.255,-0.464 0.222,-0.458 0.196,-0.446C0.17,-0.434 0.156,-0.414 0.156,-0.387C0.156,-0.37 0.162,-0.356 0.172,-0.346C0.183,-0.337 0.2,-0.329 0.223,-0.324C0.246,-0.319 0.276,-0.314 0.312,-0.31C0.356,-0.306 0.394,-0.301 0.426,-0.294C0.457,-0.288 0.483,-0.278 0.503,-0.267C0.523,-0.255 0.538,-0.24 0.547,-0.222C0.556,-0.203 0.561,-0.179 0.561,-0.151C0.561,-0.103 0.539,-0.064 0.496,-0.034C0.452,-0.005 0.386,0.01 0.297,0.01Z" style="fill-rule:nonzero" transform="matrix(1,0,0,1,670.872,-234.757) matrix(64,0,0,64,575.074,343.794)"/></g></g></g></g></g></svg>