<svg clip-rule="evenodd" fill-rule="evenodd" stroke-linejoin="round" stroke-miterlimit="2" viewBox="0 0 44 90" xmlns="http://www.w3.org/2000/svg"><g transform="matrix(1.01308 0 0 1.00617 -28.7226 -5.4436)"><path d="m28.352 5.41h43.296v89.179h-43.296z" fill="none"/><g transform="matrix(.987091 0 0 .993865 .71326 .440877)"><path d="m64.199 5.41h-28.398c-4.121 0-7.449 3.34-7.449 7.449v74.281c0 4.122 3.34 7.45 7.449 7.45h28.398c4.121 0 7.449-3.34 7.449-7.45v-74.281c0-4.121-3.34-7.449-7.449-7.449zm5.91 81.73c0 3.262-2.648 5.91-5.91 5.91h-28.398c-3.262 0-5.91-2.648-5.91-5.91v-74.281c0-3.261 2.648-5.91 5.91-5.91h28.398c3.262 0 5.91 2.648 5.91 5.91z" fill-rule="nonzero"/><path d="m45.578 12.051h8.828c1.051 0 1.91-.852 1.91-1.91 0-1.059-.851-1.91-1.91-1.91h-8.828c-1.051 0-1.91.851-1.91 1.91 0 1.058.851 1.91 1.91 1.91z" fill-rule="nonzero"/><path d="m56.859 90.82h-13.719c-.211 0-.379.172-.379.379 0 .211.172.379.379.379h13.719c.211 0 .379-.172.379-.379 0-.211-.172-.379-.379-.379z" fill-rule="nonzero"/><path d="m34.8461294 44.91044245h30.235033235v10.1403885418h-30.235033235z" fill="none" stroke-width=".0765347"/><g fill-rule="nonzero"><path d="m13.398 20.102v.398c0 .102 0 .102.102.2 0 .101.101.101.101.199 0 0 0 .101.102.101 13.195 21.199 22.598 40 33.297 66.898v.204c0 .101.101.101.101.199.102.101.102.199.199.199h.102c.102 0 .102.102.199.102h.102c.101 0 .199.101.301.101h1.003c.102 0 .102 0 .2-.101h.101c.102 0 .102-.102.199-.102 0 0 .102 0 .102-.102.102-.101.199-.101.199-.199.102-.101.102-.199.199-.199v-.102c0-.101.102-.101.102-.199v-.203c4.199-13.199 9.301-25.398 15.602-37.102 2.199.801 4.301 1.102 6.301 1.102 4.801 0 8.898-2.102 12-6.2 4.398-5.898 3.898-13.398 3.5-19.5-.199-3.5-.399-6.898.601-8.199.2-.3.301-.699.301-1 0-.5-.199-1.101-.699-1.398-.801-.602-1.898-.399-2.398.398-1 1.301-4.2 2.102-7.7 2.899-5.898 1.398-13.199 3.199-17.602 9.101-4.898 6.602-4 14.398 2.399 21.301l.101.102c-2.8 5.199-5.3 10.5-7.699 15.898-9.398-23.699-22.102-43.699-23.602-46-.301-.5-.898-.801-1.5-.801l-14.516.004h-.699c-.102 0-.102.102-.199.102 0 0-.102 0-.102.101-.101 0-.101.102-.199.102l-.508.508c0 .101 0 .101-.101.199v.5c.007.386.007.488.007.488zm49.602 9.699c3.602-4.898 10-6.398 15.602-7.699 2-.5 3.898-.898 5.5-1.5-.102 1.699 0 3.602.199 5.699.399 5.801.801 12.301-2.898 17.199-4.102 5.5-9.602 5.301-13.699 4.102 2.898-5.301 6.101-10.398 9.601-15.602.5-.801.301-1.899-.5-2.399-.8-.5-1.898-.3-2.398.5-3.602 5.301-6.801 10.602-9.801 16-3.105-3.601-6.504-9.703-1.605-16.301zm-10 39.699c0 .102.102.102.102.199-1.602 4.102-3.2 8.2-4.602 12.398-9.699-23.598-18.398-41.098-30.199-60.398h10.699c3 4.7 15.301 24.902 24 47.801z" transform="matrix(.0765347 0 0 .0765347 33.8479638426 43.7989290019)"/><path d="m.289.009c-.052 0-.096-.012-.133-.034s-.066-.054-.086-.094c-.021-.04-.031-.088-.031-.142 0-.055.01-.103.03-.143.02-.041.048-.073.085-.096.037-.022.081-.033.131-.033.057 0 .103.012.14.037.036.025.063.059.079.102s.021.092.016.146h-.401c.001.041.009.075.023.104s.033.05.059.065c.025.015.054.023.088.023.04 0 .074-.01.1-.029.027-.018.044-.043.051-.074h.078c-.005.033-.018.063-.039.088s-.048.045-.081.059c-.032.014-.069.021-.109.021zm-.169-.305-.008-.008h.338l-.009.01c.001-.039-.005-.071-.018-.097s-.031-.045-.055-.058-.051-.02-.084-.02c-.032 0-.06.007-.084.021s-.043.034-.057.06c-.013.026-.021.056-.023.092z" transform="matrix(3.826735 0 0 3.826735 38.7904982339 50.5876334266)"/><path d="m.277.177c-.039 0-.074-.006-.104-.018s-.054-.028-.073-.05c-.018-.022-.029-.048-.033-.078h.079c.003.017.01.032.022.045s.027.023.046.029c.019.007.04.01.065.01.033 0 .061-.004.085-.014.023-.01.041-.025.054-.047s.019-.051.019-.088v-.109h-.006c-.012.034-.034.061-.065.082-.032.021-.07.031-.114.031-.032 0-.061-.005-.087-.017-.027-.011-.049-.028-.068-.05-.018-.021-.033-.048-.043-.079s-.015-.067-.015-.106c0-.053.009-.098.027-.135.018-.038.043-.067.075-.087.033-.02.07-.03.113-.03.044 0 .081.01.112.031.032.02.053.047.065.081h.006l.002-.103h.078v.484c0 .04-.005.073-.017.101-.011.028-.028.05-.049.067-.022.018-.047.03-.076.038-.03.008-.062.012-.098.012zm.001-.271c.034 0 .062-.008.086-.024.023-.015.041-.035.054-.059.012-.023.019-.048.019-.073v-.064c-.001-.025-.007-.05-.019-.073-.012-.024-.029-.043-.053-.059-.023-.015-.051-.023-.086-.023-.032 0-.06.008-.083.023-.024.014-.042.036-.055.064-.012.028-.019.061-.019.1 0 .04.007.074.02.102s.031.049.054.064c.024.014.051.022.082.022z" transform="matrix(3.826735 0 0 3.826735 40.9258163639 50.5876334266)"/><path d="m.255.009c-.032 0-.061-.006-.088-.019-.026-.012-.049-.029-.068-.052s-.034-.052-.044-.085c-.011-.034-.016-.072-.016-.116 0-.058.009-.107.028-.147.018-.041.043-.071.075-.092.033-.021.07-.032.113-.032.031 0 .059.005.084.015.024.01.045.023.063.041.017.017.03.038.039.062h.005l.003-.109h.078v.525h-.081v-.11h-.005c-.013.035-.036.064-.068.086s-.072.033-.118.033zm.027-.068c.035 0 .065-.009.089-.025.024-.017.042-.038.055-.064.012-.026.019-.054.019-.083v-.064c0-.029-.007-.057-.019-.084-.013-.026-.031-.047-.055-.063-.024-.017-.054-.025-.089-.025-.032 0-.06.008-.084.024-.024.015-.042.038-.056.068-.013.03-.02.068-.02.112s.007.081.02.111c.014.031.032.054.056.069.024.016.052.024.084.024z" transform="matrix(3.826735 0 0 3.826735 43.1070553139 50.5876334266)"/><path d="m.076 0v-.525h.077l.003.109h.006c.016-.039.041-.068.074-.088.033-.019.07-.029.109-.029.028 0 .053.004.076.012s.043.021.059.039c.017.018.03.041.04.069.009.029.014.063.014.104v.309h-.081v-.293c0-.039-.005-.072-.014-.097-.01-.025-.025-.044-.044-.057-.02-.012-.045-.018-.076-.018-.033 0-.061.008-.086.024-.024.016-.043.038-.057.065-.013.027-.02.058-.02.092v.284z" transform="matrix(3.826735 0 0 3.826735 45.3380418189 50.5876334266)"/><path d="m.291.009c-.038 0-.072-.007-.103-.02s-.058-.031-.08-.055-.039-.052-.051-.085-.018-.07-.018-.111c0-.054.011-.102.032-.142.02-.041.05-.072.088-.095.039-.023.084-.034.135-.034.041 0 .078.007.111.023.032.015.059.037.079.065.02.027.031.059.034.096h-.078c-.005-.025-.014-.046-.028-.063s-.031-.03-.052-.039-.043-.013-.068-.013c-.036 0-.066.008-.092.025s-.045.041-.059.071c-.013.031-.02.066-.02.107 0 .042.007.078.021.108.015.03.034.053.06.069.025.016.055.024.089.024.028 0 .053-.006.075-.016.021-.01.039-.024.052-.043s.021-.04.024-.065h.079c-.003.039-.015.073-.035.102-.021.029-.048.051-.081.067s-.072.024-.114.024z" transform="matrix(3.826735 0 0 3.826735 47.5805085289 50.5876334266)"/><path d="m.076 0v-.729h.08v.313h.006c.016-.039.041-.068.074-.088.033-.019.07-.029.109-.029.028 0 .053.004.076.012s.043.021.059.039c.017.018.03.041.04.069.009.029.014.063.014.104v.309h-.081v-.293c0-.039-.005-.072-.014-.097-.01-.025-.025-.044-.044-.057-.02-.012-.045-.018-.076-.018-.033 0-.061.008-.086.024-.024.016-.043.038-.057.065-.013.027-.02.058-.02.092v.284z" transform="matrix(3.826735 0 0 3.826735 49.6699058389 50.5876334266)"/><path d="m.289.009c-.052 0-.096-.012-.133-.034s-.066-.054-.086-.094c-.021-.04-.031-.088-.031-.142 0-.055.01-.103.03-.143.02-.041.048-.073.085-.096.037-.022.081-.033.131-.033.057 0 .103.012.14.037.036.025.063.059.079.102s.021.092.016.146h-.401c.001.041.009.075.023.104s.033.05.059.065c.025.015.054.023.088.023.04 0 .074-.01.1-.029.027-.018.044-.043.051-.074h.078c-.005.033-.018.063-.039.088s-.048.045-.081.059c-.032.014-.069.021-.109.021zm-.169-.305-.008-.008h.338l-.009.01c.001-.039-.005-.071-.018-.097s-.031-.045-.055-.058-.051-.02-.084-.02c-.032 0-.06.007-.084.021s-.043.034-.057.06c-.013.026-.021.056-.023.092z" transform="matrix(3.826735 0 0 3.826735 51.9123725489 50.5876334266)"/><path d="m.291.009c-.038 0-.072-.007-.103-.02s-.058-.031-.08-.055-.039-.052-.051-.085-.018-.07-.018-.111c0-.054.011-.102.032-.142.02-.041.05-.072.088-.095.039-.023.084-.034.135-.034.041 0 .078.007.111.023.032.015.059.037.079.065.02.027.031.059.034.096h-.078c-.005-.025-.014-.046-.028-.063s-.031-.03-.052-.039-.043-.013-.068-.013c-.036 0-.066.008-.092.025s-.045.041-.059.071c-.013.031-.02.066-.02.107 0 .042.007.078.021.108.015.03.034.053.06.069.025.016.055.024.089.024.028 0 .053-.006.075-.016.021-.01.039-.024.052-.043s.021-.04.024-.065h.079c-.003.039-.015.073-.035.102-.021.029-.048.051-.081.067s-.072.024-.114.024z" transform="matrix(3.826735 0 0 3.826735 54.0476906789 50.5876334266)"/><path d="m.076 0v-.729h.082v.472l.047-.05.216-.218h.102l-.205.203.214.322h-.095l-.143-.215-.032-.052-.104.101v.166z" transform="matrix(3.826735 0 0 3.826735 56.1370879889 50.5876334266)"/></g><path d="m58.3604210239 50.2432272766h.317619005v.34440615h-.317619005z" stroke-width="3.826735"/><path d="m.076 0v-.525h.077l.003.109h.006c.015-.039.04-.068.072-.088.033-.019.068-.029.108-.029s.075.009.106.029.053.052.066.097h.008c.016-.042.04-.073.075-.095.034-.021.072-.031.115-.031.035 0 .067.007.095.022.027.015.049.039.065.071.016.033.024.077.024.131v.309h-.08v-.293c0-.039-.005-.072-.015-.097-.009-.025-.023-.044-.043-.057-.019-.012-.044-.018-.074-.018-.032 0-.059.008-.083.024s-.042.038-.055.065-.019.058-.019.092v.284h-.082v-.293c0-.039-.005-.072-.014-.097s-.024-.044-.043-.057c-.019-.012-.043-.018-.073-.018-.032 0-.06.008-.084.024-.023.016-.042.038-.055.065s-.02.058-.02.092v.284z" fill-rule="nonzero" transform="matrix(3.826735 0 0 3.826735 58.7928420789 50.5876334266)"/><path d="m.289.009c-.052 0-.096-.012-.133-.034s-.066-.054-.086-.094c-.021-.04-.031-.088-.031-.142 0-.055.01-.103.03-.143.02-.041.048-.073.085-.096.037-.022.081-.033.131-.033.057 0 .103.012.14.037.036.025.063.059.079.102s.021.092.016.146h-.401c.001.041.009.075.023.104s.033.05.059.065c.025.015.054.023.088.023.04 0 .074-.01.1-.029.027-.018.044-.043.051-.074h.078c-.005.033-.018.063-.039.088s-.048.045-.081.059c-.032.014-.069.021-.109.021zm-.169-.305-.008-.008h.338l-.009.01c.001-.039-.005-.071-.018-.097s-.031-.045-.055-.058-.051-.02-.084-.02c-.032 0-.06.007-.084.021s-.043.034-.057.06c-.013.026-.021.056-.023.092z" fill-rule="nonzero" transform="matrix(3.826735 0 0 3.826735 62.4703344139 50.5876334266)"/></g></g></svg>