<svg height="100pt" viewBox="0 0 100 100" width="100pt" xmlns="http://www.w3.org/2000/svg"><path d="m77.227 37.273c.24609.75781.51953 1.5156.76953 2.2227.25.6875.64844 1.3125 1.3906 2.332.73828 1.0234 1.5195 1.9062 2.5117 2.5.96875.59375 1.9336.97266 2.8789 1.4062-.94531.50781-2.082.86719-2.8789 1.3984-.95703.64063-1.7695 1.4805-2.5117 2.5-.73828 1.0234-1.1172 1.6602-1.3906 2.3359-.23828.78516-.54297 1.4922-.76953 2.2227-.24219-.75781-.51562-1.5156-.76562-2.2227-.24609-.6875-.65234-1.3125-1.3867-2.3359-.74219-1.0195-1.5195-1.9062-2.5117-2.5-.96484-.58984-1.9336-.97266-2.8789-1.3984.94531-.50781 2.082-.87891 2.8789-1.4062.95703-.64453 1.7695-1.4766 2.5117-2.5.73438-1.0195 1.1484-1.6445 1.3867-2.332.26953-.78516.54687-1.5.76562-2.2227zm.11328-9.0391c-.69531 0-1.4219.82812-1.6016 2.4961-.039062.36328-.089843.73438-.13281 1.0977-.14453 1.4922-.64062 2.9375-1.2734 4.3203-.35938.78516-.77344 1.5586-1.2461 2.2852-.37109.58594-.79297 1.1406-1.2578 1.6602-2.7422 2.5977-5.625 3.793-8.9414 4.2578-1.7461 0-1.7148 2.7539 0 2.7539.24219 0 .48047.082031 2.5195.50781 2.0352.42969 4.5938 1.7031 6.4219 3.75.46094.51953.88672 1.0703 1.2578 1.6562.47266.73438.89062 1.4961 1.2461 2.2852.63281 1.3828 1.1289 2.8359 1.2734 4.3281.042969.36719.058593.73828.13281 1.0938.074219.38672.10938.65234.34766 2.0117.23047 1.3594 1.8828 1.1523 2.1328-.10156.24609-1.2578.42969-1.5234.50391-1.9102.074219-.35547.089844-.73047.125-1.0938.15234-1.4922.64844-2.9453 1.2773-4.3281.35938-.78906.77734-1.5508 1.2461-2.2852.375-.58594.79688-1.1328 1.2617-1.6562 1.8281-2.0469 4.3867-3.3203 7.0195-3.9336.34375-.078126.69531-.10938 1.0664-.20313.90625-.22656 1.3203-.46094 1.8242-1 .38672-.40625.21875-.65625 0-1-.46875-.74609-1.1172-.92969-1.8242-.99609-.375-.035157-.72266-.12109-1.0664-.20312-2.6328-.61328-5.1875-1.8906-7.0195-3.9336-.46484-.51953-.88672-1.0742-1.2617-1.6602-.46875-.73047-.88672-1.5-1.2461-2.2852-.62891-1.3828-1.125-2.8281-1.2773-4.3203-.035156-.36328-.12109-.73438-.125-1.0977-.027344-1.6602-.6875-2.4961-1.3828-2.4961z"/><path d="m30.047 31.586c.66016 1.707.9375 3.6992 1.5117 5.207.76172 2.0273 1.8281 3.918 3.1133 5.7148 1.2852 1.8008 2.3789 3.0195 3.6797 3.9805.6875.51562 1.5312.92188 2.2148 1.4375 1.2695.94922 2.918 1.5391 4.293 2.3281-1.375.78125-3.0273 1.3711-4.293 2.3281-.68359.51562-1.5273.91797-2.2148 1.4297-1.3008.96484-2.3945 2.1875-3.6797 3.9844-1.2852 1.8008-2.3945 3.6758-3.1133 5.7148-.64844 1.8359-.98047 3.5352-1.5117 5.207-.66797-1.707-.9375-3.6992-1.5039-5.207-.76953-2.0234-1.8359-3.9141-3.1211-5.7148-1.2852-1.8008-2.375-3.0195-3.6797-3.9844-.6875-.51172-1.5312-.91406-2.2148-1.4297-1.2656-.95703-2.9141-1.5469-4.293-2.3281 2.4219-1.1562 4.4727-2.3438 6.5078-3.7617 1.332-.92188 2.3945-2.1797 3.6797-3.9805s2.4023-3.6719 3.1211-5.7148c.63672-1.8438.98047-3.5391 1.5039-5.2109zm-.17188-9.8008c-1.0117.011719-1.9648 1.125-1.9648 3.3047 0 4.582-1.8672 8.9805-4.1836 12.801-.46875.78125-.97656 1.5312-1.5312 2.2617-.95703 1.2852-2.0664 2.4375-3.293 3.4414-1.8516 1.5234-3.9102 2.4414-6.2422 3.4883-1.1016.49609-2.2461 1.0547-3.2188 1.3125-3.2578.87109-2.8828 2.9375 0 3.707 1.1758.3125 2.0781.67578 3.2188 1.3203 2.0938 1.168 4.3906 1.9648 6.2422 3.4844 1.2266 1.0117 2.3359 2.1641 3.293 3.4492.55469.72266 1.0625 1.4805 1.5312 2.2617 2.3164 3.8203 3.5352 8.2617 4.1836 12.793.61719 4.3398 3.5 4.4453 4.2695 0 .78906-4.5078 1.875-8.9766 4.1836-12.793.46875-.78125.98047-1.5391 1.5352-2.2617.95312-1.2852 2.0664-2.4375 3.293-3.4492 1.8516-1.5156 3.9531-2.7734 6.2422-3.4844.55469-.17188 1.1406-.33594 1.6875-.53906 4.5664-1.6562 4.8672-4.0977 0-5.2656-.56641-.14063-1.1328-.36328-1.6875-.53906-2.293-.71484-4.3906-1.9688-6.2422-3.4883-1.2266-1.0039-2.3359-2.1562-3.293-3.4414-.55469-.73047-1.0664-1.4805-1.5391-2.2617-2.3086-3.8203-3.7148-8.2422-4.1797-12.801-.22656-2.2188-1.2891-3.3164-2.3047-3.3008z"/><path d="m53.785 21.473c.26562 1.1289.87109 2.1562 1.3945 2.9453.89844 1.3438 2.1641 1.9336 3.4844 2.5273-1.4883.50391-2.5742 1.4766-3.4844 2.5273-.73438.89844-1.043 1.9609-1.3945 2.9492-.27344-1.125-.88281-2.1641-1.3984-2.9492-.89453-1.3359-2.1641-1.9336-3.4844-2.5273 1.4805-.50781 2.5742-1.4805 3.4844-2.5273.74609-.89062 1.0547-1.9531 1.3984-2.9453zm-1.3477-6.0781c-.13672 1.2383-.53906 2.4414-1.0586 3.5938-.30078.65234-.64844 1.293-1.0352 1.8984-.3125.48438-.66016.94922-1.0469 1.3789-1.5156 1.6992-3.6289 2.8164-5.8281 3.2695-2.3398.47266-1.9219 2.4766.49219 2.9805 1.6875.35156 3.8203 1.418 5.3359 3.1133.39062.43359.73438.89062 1.0469 1.3789.39062.60938.73438 1.2461 1.0352 1.8984.51953 1.1484 1.0078 2.3477 1.0586 3.5938.12891 2.7656 2.4375 2.2812 2.6914 0 .14062-1.2383.53906-2.4453 1.0664-3.5938.29688-.65234.64063-1.2891 1.0352-1.8984.30469-.48828.66016-.94141 1.043-1.3789 1.5195-1.6953 3.6562-2.7188 5.832-3.2695 2.7148-.69141 2.4414-2.3086 0-2.8242-2.1992-.46484-4.3086-1.5703-5.832-3.2695-.38281-.42969-.73438-.89062-1.043-1.3789-.39453-.60547-.73828-1.2461-1.0352-1.8984-.52734-1.1484-.98437-2.3477-1.0664-3.5938-.16797-2.5859-2.4297-2.2969-2.6914 0z"/><path d="m60.297 61.227c1.5742 4.457 3.7539 6.7383 7.5391 8.457-3.9219 1.4062-6.2969 4.9961-7.5391 8.4609-1.5742-4.4492-3.7539-6.7422-7.5391-8.4609 3.8984-1.4141 6.3359-4.9844 7.5391-8.457zm.11328-8.1289c-1.3867 0-1.5586 1.1016-1.7344 2.6875-.16406 1.4922-.64844 2.9414-1.2812 4.3203-.35938.79297-.77344 1.5586-1.2422 2.2852-.375.58203-.80078 1.1367-1.2617 1.6602-2.7422 2.6055-5.6172 3.793-8.9336 4.2578-1.7539 0-1.7266 2.7539 0 2.7539.24219 0 .47656.085938 2.5117.50781 2.0391.42969 4.5938 1.707 6.4219 3.75.46094.51953.88672 1.0703 1.2617 1.6602.46875.73047.88672 1.4922 1.2422 2.2852 1.1875 2.5 1.2852 3.582 1.7539 6.2148.23828 1.3594 1.8477 1.1445 2.1367-.10547.60938-2.5039.92188-3.9219 1.9102-6.1094.35938-.79297.77344-1.5547 1.2422-2.2852.37891-.58984.80078-1.1406 1.2617-1.6602 1.8281-2.043 4.3828-3.3203 7.0117-3.9336.34766-.082031.69922-.10938 1.0664-.20312.91406-.22266 1.3164-.46094 1.8281-1 .38281-.40625.21484-.65625 0-.99609-.47656-.74609-1.1172-.9375-1.8281-1-.37891-.035156-.71875-.12109-1.0664-.20312-2.6289-.61328-5.1836-1.8906-7.0117-3.9375-.46484-.51953-.88672-1.0781-1.2617-1.6602-.46875-.73047-.88672-1.4961-1.2422-2.2852-.63281-1.3828-1.1992-2.8242-1.2773-4.3203-.085938-1.5312-.33203-2.6836-1.5078-2.6836z"/></svg>