<?xml version="1.0" encoding="UTF-8" standalone="no"?>
<!DOCTYPE svg PUBLIC "-//W3C//DTD SVG 1.1//EN" "http://www.w3.org/Graphics/SVG/1.1/DTD/svg11.dtd">
<svg width="100%" height="100%" viewBox="0 0 889 677" version="1.1" xmlns="http://www.w3.org/2000/svg" xmlns:xlink="http://www.w3.org/1999/xlink" xml:space="preserve" xmlns:serif="http://www.serif.com/" style="fill-rule:evenodd;clip-rule:evenodd;stroke-linejoin:round;stroke-miterlimit:2;">
    <g transform="matrix(0.46301,0,0,0.135297,-912,0)">
        <rect x="1970" y="0" width="1920" height="5000" style="fill:none;"/>
        <g transform="matrix(2.45853,0,0,8.41352,-2966,-1144)">
            <circle cx="2398.3" cy="433.1" r="295" style="fill:rgb(246,230,213);"/>
        </g>
        <g transform="matrix(2.15978,0,0,7.39115,1782.84,-1170.96)">
            <g>
                <g transform="matrix(0.47771,-0.878518,0.878518,0.47771,-155.908,1008.25)">
                    <g transform="matrix(43,0,0,43,770.006,635.245)">
                        <path d="M0.051,-0.277C0.051,-0.3 0.057,-0.32 0.067,-0.338C0.078,-0.356 0.092,-0.37 0.11,-0.381C0.128,-0.391 0.149,-0.396 0.172,-0.396C0.208,-0.396 0.237,-0.385 0.259,-0.362C0.281,-0.34 0.292,-0.311 0.292,-0.277C0.292,-0.255 0.287,-0.234 0.277,-0.216C0.267,-0.199 0.253,-0.184 0.235,-0.174C0.217,-0.164 0.196,-0.159 0.172,-0.159C0.149,-0.159 0.128,-0.164 0.11,-0.174C0.092,-0.184 0.078,-0.199 0.067,-0.216C0.057,-0.234 0.051,-0.255 0.051,-0.277Z" style="fill:rgb(0,53,255);fill-rule:nonzero;"/>
                    </g>
                </g>
                <g transform="matrix(0.37189,-0.928277,0.928277,0.37189,-78.4398,1110.94)">
                    <g transform="matrix(43,0,0,43,781.701,613.431)">
                        <path d="M0.271,-0L0.005,-0.729L0.127,-0.729L0.303,-0.222L0.341,-0.103L0.348,-0.103L0.387,-0.221L0.564,-0.729L0.684,-0.729L0.419,-0L0.271,-0Z" style="fill:rgb(0,53,255);fill-rule:nonzero;"/>
                    </g>
                </g>
                <g transform="matrix(0.277924,-0.960603,0.960603,0.277924,6.88033,1185.44)">
                    <g transform="matrix(43,0,0,43,791.957,588.144)">
                        <path d="M0.088,-0L0.088,-0.729L0.599,-0.729L0.599,-0.635L0.173,-0.635L0.197,-0.659L0.197,-0.392L0.173,-0.416L0.55,-0.416L0.55,-0.328L0.173,-0.328L0.197,-0.352L0.197,-0.071L0.173,-0.095L0.6,-0.095L0.6,-0L0.088,-0Z" style="fill:rgb(0,53,255);fill-rule:nonzero;"/>
                    </g>
                </g>
                <g transform="matrix(0.176809,-0.984245,0.984245,0.176809,104.195,1250.31)">
                    <g transform="matrix(43,0,0,43,799.56,562.863)">
                        <path d="M0.396,0.009C0.341,0.009 0.292,-0 0.248,-0.018C0.204,-0.036 0.166,-0.061 0.135,-0.094C0.104,-0.127 0.08,-0.166 0.064,-0.212C0.048,-0.258 0.04,-0.309 0.04,-0.364C0.04,-0.422 0.048,-0.474 0.066,-0.52C0.083,-0.566 0.107,-0.605 0.139,-0.637C0.171,-0.67 0.209,-0.695 0.253,-0.712C0.298,-0.729 0.347,-0.737 0.4,-0.737C0.462,-0.737 0.517,-0.727 0.564,-0.706C0.612,-0.685 0.65,-0.656 0.679,-0.619C0.708,-0.582 0.726,-0.538 0.732,-0.487L0.62,-0.487C0.614,-0.521 0.601,-0.549 0.58,-0.572C0.56,-0.595 0.534,-0.612 0.503,-0.624C0.473,-0.636 0.438,-0.642 0.4,-0.642C0.35,-0.642 0.306,-0.632 0.269,-0.61C0.231,-0.588 0.202,-0.557 0.182,-0.516C0.161,-0.474 0.151,-0.424 0.151,-0.365C0.151,-0.321 0.157,-0.281 0.168,-0.246C0.18,-0.211 0.196,-0.182 0.218,-0.158C0.24,-0.133 0.266,-0.115 0.296,-0.103C0.326,-0.09 0.36,-0.084 0.398,-0.084C0.446,-0.084 0.488,-0.093 0.524,-0.111C0.56,-0.129 0.588,-0.156 0.607,-0.191C0.627,-0.225 0.637,-0.267 0.637,-0.315L0.637,-0.339L0.673,-0.299L0.405,-0.299L0.405,-0.38L0.748,-0.38L0.748,-0.327C0.748,-0.276 0.739,-0.229 0.723,-0.188C0.706,-0.146 0.682,-0.111 0.651,-0.082C0.62,-0.053 0.583,-0.03 0.54,-0.015C0.497,0.001 0.449,0.009 0.396,0.009Z" style="fill:rgb(0,53,255);fill-rule:nonzero;"/>
                    </g>
                </g>
                <g transform="matrix(0.0668954,-0.99776,0.99776,0.0668954,222.265,1298.39)">
                    <g transform="matrix(43,0,0,43,805.309,530.361)">
                        <path d="M0.003,-0L0.262,-0.729L0.415,-0.729L0.674,-0L0.56,-0L0.5,-0.17L0.177,-0.17L0.117,-0L0.003,-0ZM0.203,-0.255L0.473,-0.255L0.393,-0.48L0.342,-0.629L0.336,-0.629L0.285,-0.48L0.203,-0.255Z" style="fill:rgb(0,53,255);fill-rule:nonzero;"/>
                    </g>
                </g>
                <g transform="matrix(-0.0384309,-0.999261,0.999261,-0.0384309,335.344,1329.52)">
                    <g transform="matrix(43,0,0,43,807.357,503.412)">
                        <path d="M0.088,-0L0.088,-0.729L0.222,-0.729L0.599,-0.145L0.606,-0.145L0.6,-0.389L0.6,-0.729L0.706,-0.729L0.706,-0L0.578,-0L0.201,-0.577L0.195,-0.577L0.199,-0.35L0.199,-0L0.088,-0Z" style="fill:rgb(0,53,255);fill-rule:nonzero;"/>
                    </g>
                </g>
                <g transform="matrix(-0.119994,-0.992775,0.992775,-0.119994,435.899,1326)">
                    <g transform="matrix(43,0,0,43,805.638,469.805)">
                        <rect x="0.088" y="-0.729" width="0.109" height="0.729" style="fill:rgb(0,53,255);fill-rule:nonzero;"/>
                    </g>
                </g>
                <g transform="matrix(-0.188383,-0.982096,0.982096,-0.188383,505.198,1336.24)">
                    <g transform="matrix(43,0,0,43,804.741,459.367)">
                        <path d="M0.088,-0L0.088,-0.729L0.597,-0.729L0.597,-0.635L0.177,-0.635L0.197,-0.655L0.197,-0.381L0.177,-0.401L0.557,-0.401L0.557,-0.311L0.177,-0.311L0.197,-0.331L0.197,-0L0.088,-0Z" style="fill:rgb(0,53,255);fill-rule:nonzero;"/>
                    </g>
                </g>
                <g transform="matrix(-0.280161,-0.959953,0.959953,-0.280161,608.013,1322.47)">
                    <g transform="matrix(43,0,0,43,799.846,433.27)">
                        <path d="M0.273,-0L0.273,-0.287L0.003,-0.729L0.127,-0.729L0.325,-0.393L0.33,-0.393L0.53,-0.729L0.653,-0.729L0.382,-0.287L0.382,-0L0.273,-0Z" style="fill:rgb(0,53,255);fill-rule:nonzero;"/>
                    </g>
                </g>
                <g transform="matrix(-0.411854,-0.91125,0.91125,-0.411854,751.039,1282.85)">
                    <g transform="matrix(43,0,0,43,789.514,399.056)">
                        <path d="M0.396,0.009C0.341,0.009 0.292,-0 0.248,-0.018C0.204,-0.036 0.166,-0.061 0.135,-0.094C0.104,-0.127 0.08,-0.166 0.064,-0.212C0.048,-0.258 0.04,-0.309 0.04,-0.364C0.04,-0.422 0.048,-0.474 0.066,-0.52C0.083,-0.566 0.107,-0.605 0.139,-0.637C0.171,-0.67 0.209,-0.695 0.253,-0.712C0.298,-0.729 0.347,-0.737 0.4,-0.737C0.462,-0.737 0.517,-0.727 0.564,-0.706C0.612,-0.685 0.65,-0.656 0.679,-0.619C0.708,-0.582 0.726,-0.538 0.732,-0.487L0.62,-0.487C0.614,-0.521 0.601,-0.549 0.58,-0.572C0.56,-0.595 0.534,-0.612 0.503,-0.624C0.473,-0.636 0.438,-0.642 0.4,-0.642C0.35,-0.642 0.306,-0.632 0.269,-0.61C0.231,-0.588 0.202,-0.557 0.182,-0.516C0.161,-0.474 0.151,-0.424 0.151,-0.365C0.151,-0.321 0.157,-0.281 0.168,-0.246C0.18,-0.211 0.196,-0.182 0.218,-0.158C0.24,-0.133 0.266,-0.115 0.296,-0.103C0.326,-0.09 0.36,-0.084 0.398,-0.084C0.446,-0.084 0.488,-0.093 0.524,-0.111C0.56,-0.129 0.588,-0.156 0.607,-0.191C0.627,-0.225 0.637,-0.267 0.637,-0.315L0.637,-0.339L0.673,-0.299L0.405,-0.299L0.405,-0.38L0.748,-0.38L0.748,-0.327C0.748,-0.276 0.739,-0.229 0.723,-0.188C0.706,-0.146 0.682,-0.111 0.651,-0.082C0.62,-0.053 0.583,-0.03 0.54,-0.015C0.497,0.001 0.449,0.009 0.396,0.009Z" style="fill:rgb(0,53,255);fill-rule:nonzero;"/>
                    </g>
                </g>
                <g transform="matrix(-0.518152,-0.855288,0.855288,-0.518152,862.44,1222.44)">
                    <g transform="matrix(43,0,0,43,775.566,368.282)">
                        <path d="M0.088,-0L0.088,-0.729L0.428,-0.729C0.468,-0.729 0.503,-0.725 0.533,-0.716C0.563,-0.707 0.589,-0.694 0.609,-0.677C0.629,-0.659 0.644,-0.638 0.654,-0.614C0.664,-0.589 0.67,-0.56 0.67,-0.528C0.67,-0.484 0.658,-0.447 0.636,-0.415C0.614,-0.384 0.582,-0.363 0.541,-0.352L0.541,-0.345C0.581,-0.338 0.609,-0.323 0.627,-0.299C0.644,-0.275 0.653,-0.243 0.653,-0.201L0.653,-0.079C0.653,-0.067 0.653,-0.054 0.654,-0.041C0.655,-0.028 0.659,-0.014 0.665,-0L0.555,-0C0.551,-0.01 0.548,-0.022 0.546,-0.035C0.544,-0.049 0.544,-0.064 0.544,-0.081L0.544,-0.182C0.544,-0.207 0.54,-0.228 0.533,-0.245C0.525,-0.261 0.513,-0.274 0.494,-0.282C0.475,-0.291 0.449,-0.295 0.414,-0.295L0.197,-0.295L0.197,-0L0.088,-0ZM0.197,-0.383L0.413,-0.383C0.465,-0.383 0.503,-0.396 0.525,-0.42C0.547,-0.444 0.558,-0.476 0.558,-0.514C0.558,-0.543 0.552,-0.567 0.54,-0.585C0.528,-0.603 0.511,-0.616 0.489,-0.625C0.468,-0.633 0.442,-0.637 0.413,-0.637L0.197,-0.637L0.197,-0.383Z" style="fill:rgb(0,53,255);fill-rule:nonzero;"/>
                    </g>
                </g>
                <g transform="matrix(-0.602737,-0.79794,0.79794,-0.602737,944.776,1155.42)">
                    <g transform="matrix(43,0,0,43,760.008,342.528)">
                        <path d="M0.003,-0L0.262,-0.729L0.415,-0.729L0.674,-0L0.56,-0L0.5,-0.17L0.177,-0.17L0.117,-0L0.003,-0ZM0.203,-0.255L0.473,-0.255L0.393,-0.48L0.342,-0.629L0.336,-0.629L0.285,-0.48L0.203,-0.255Z" style="fill:rgb(0,53,255);fill-rule:nonzero;"/>
                    </g>
                </g>
                <g transform="matrix(-0.684384,-0.729122,0.729122,-0.684384,1019.12,1082.73)">
                    <g transform="matrix(43,0,0,43,743.904,320.79)">
                        <path d="M0.088,-0L0.088,-0.729L0.383,-0.729C0.453,-0.729 0.513,-0.714 0.562,-0.684C0.611,-0.653 0.648,-0.611 0.674,-0.556C0.7,-0.501 0.713,-0.437 0.713,-0.364C0.713,-0.31 0.706,-0.26 0.691,-0.215C0.676,-0.17 0.655,-0.132 0.627,-0.1C0.598,-0.068 0.564,-0.043 0.523,-0.026C0.482,-0.009 0.435,-0 0.383,-0L0.088,-0ZM0.197,-0.094L0.367,-0.094C0.402,-0.094 0.434,-0.1 0.463,-0.111C0.492,-0.122 0.516,-0.138 0.537,-0.161C0.558,-0.183 0.574,-0.212 0.585,-0.246C0.596,-0.28 0.601,-0.32 0.601,-0.366C0.601,-0.428 0.591,-0.479 0.572,-0.518C0.552,-0.558 0.525,-0.587 0.49,-0.606C0.455,-0.626 0.414,-0.635 0.367,-0.635L0.197,-0.635L0.197,-0.094Z" style="fill:rgb(0,53,255);fill-rule:nonzero;"/>
                    </g>
                </g>
                <g transform="matrix(-0.757514,-0.652819,0.652819,-0.757514,1074.86,994.359)">
                    <g transform="matrix(43,0,0,43,722.106,297.554)">
                        <path d="M0.088,-0L0.088,-0.729L0.599,-0.729L0.599,-0.635L0.173,-0.635L0.197,-0.659L0.197,-0.392L0.173,-0.416L0.55,-0.416L0.55,-0.328L0.173,-0.328L0.197,-0.352L0.197,-0.071L0.173,-0.095L0.6,-0.095L0.6,-0L0.088,-0Z" style="fill:rgb(0,53,255);fill-rule:nonzero;"/>
                    </g>
                </g>
                <g transform="matrix(-0.815946,-0.578129,0.578129,-0.815946,1112.48,913.882)">
                    <g transform="matrix(43,0,0,43,701.713,279.855)">
                        <path d="M0.332,0.009C0.267,0.009 0.214,-0.001 0.171,-0.021C0.128,-0.041 0.096,-0.069 0.075,-0.105C0.054,-0.141 0.043,-0.181 0.042,-0.228L0.154,-0.228C0.155,-0.197 0.161,-0.17 0.174,-0.148C0.187,-0.125 0.207,-0.107 0.233,-0.095C0.259,-0.083 0.293,-0.077 0.334,-0.077C0.385,-0.077 0.426,-0.086 0.457,-0.105C0.488,-0.124 0.504,-0.153 0.504,-0.191C0.504,-0.213 0.5,-0.231 0.494,-0.246C0.487,-0.26 0.476,-0.272 0.461,-0.282C0.446,-0.292 0.426,-0.3 0.402,-0.307C0.377,-0.314 0.347,-0.32 0.312,-0.326C0.27,-0.333 0.233,-0.342 0.202,-0.353C0.17,-0.363 0.144,-0.376 0.123,-0.392C0.101,-0.407 0.086,-0.426 0.075,-0.449C0.064,-0.471 0.059,-0.498 0.059,-0.529C0.059,-0.572 0.07,-0.609 0.091,-0.64C0.113,-0.671 0.143,-0.695 0.183,-0.712C0.223,-0.729 0.271,-0.737 0.327,-0.737C0.383,-0.737 0.431,-0.729 0.47,-0.711C0.509,-0.693 0.54,-0.668 0.561,-0.636C0.582,-0.605 0.593,-0.567 0.594,-0.524L0.483,-0.524C0.482,-0.553 0.475,-0.577 0.461,-0.597C0.447,-0.616 0.429,-0.63 0.405,-0.639C0.382,-0.649 0.354,-0.653 0.323,-0.653C0.291,-0.653 0.264,-0.649 0.241,-0.64C0.219,-0.631 0.202,-0.618 0.19,-0.602C0.178,-0.585 0.172,-0.566 0.172,-0.544C0.172,-0.517 0.178,-0.496 0.191,-0.482C0.204,-0.467 0.225,-0.456 0.254,-0.447C0.283,-0.439 0.321,-0.431 0.367,-0.422C0.4,-0.417 0.431,-0.41 0.46,-0.402C0.49,-0.394 0.517,-0.382 0.54,-0.366C0.564,-0.351 0.583,-0.33 0.596,-0.304C0.61,-0.277 0.617,-0.243 0.617,-0.201C0.617,-0.16 0.606,-0.123 0.584,-0.091C0.563,-0.06 0.531,-0.035 0.489,-0.018C0.446,0 0.394,0.009 0.332,0.009Z" style="fill:rgb(0,53,255);fill-rule:nonzero;"/>
                    </g>
                </g>
                <g transform="matrix(-0.8757,-0.482855,0.482855,-0.8757,1132.32,808.9)">
                    <g transform="matrix(43,0,0,43,670.276,258.706)">
                        <path d="M0.051,-0.277C0.051,-0.3 0.057,-0.32 0.067,-0.338C0.078,-0.356 0.092,-0.37 0.11,-0.381C0.128,-0.391 0.149,-0.396 0.172,-0.396C0.208,-0.396 0.237,-0.385 0.259,-0.362C0.281,-0.34 0.292,-0.311 0.292,-0.277C0.292,-0.255 0.287,-0.234 0.277,-0.216C0.267,-0.199 0.253,-0.184 0.235,-0.174C0.217,-0.164 0.196,-0.159 0.172,-0.159C0.149,-0.159 0.128,-0.164 0.11,-0.174C0.092,-0.184 0.078,-0.199 0.067,-0.216C0.057,-0.234 0.051,-0.255 0.051,-0.277Z" style="fill:rgb(0,53,255);fill-rule:nonzero;"/>
                    </g>
                </g>
                <g transform="matrix(-0.926121,-0.377226,0.377226,-0.926121,1155.96,720.124)">
                    <g transform="matrix(43,0,0,43,648.495,246.866)">
                        <path d="M0.271,-0L0.005,-0.729L0.127,-0.729L0.303,-0.222L0.341,-0.103L0.348,-0.103L0.387,-0.221L0.564,-0.729L0.684,-0.729L0.419,-0L0.271,-0Z" style="fill:rgb(0,53,255);fill-rule:nonzero;"/>
                    </g>
                </g>
                <g transform="matrix(-0.958968,-0.283513,0.283513,-0.958968,1153.95,639.946)">
                    <g transform="matrix(43,0,0,43,623.283,236.47)">
                        <path d="M0.088,-0L0.088,-0.729L0.599,-0.729L0.599,-0.635L0.173,-0.635L0.197,-0.659L0.197,-0.392L0.173,-0.416L0.55,-0.416L0.55,-0.328L0.173,-0.328L0.197,-0.352L0.197,-0.071L0.173,-0.095L0.6,-0.095L0.6,-0L0.088,-0Z" style="fill:rgb(0,53,255);fill-rule:nonzero;"/>
                    </g>
                </g>
                <g transform="matrix(-0.983187,-0.182601,0.182601,-0.983187,1144.32,562.813)">
                    <g transform="matrix(43,0,0,43,598.069,228.725)">
                        <path d="M0.396,0.009C0.341,0.009 0.292,-0 0.248,-0.018C0.204,-0.036 0.166,-0.061 0.135,-0.094C0.104,-0.127 0.08,-0.166 0.064,-0.212C0.048,-0.258 0.04,-0.309 0.04,-0.364C0.04,-0.422 0.048,-0.474 0.066,-0.52C0.083,-0.566 0.107,-0.605 0.139,-0.637C0.171,-0.67 0.209,-0.695 0.253,-0.712C0.298,-0.729 0.347,-0.737 0.4,-0.737C0.462,-0.737 0.517,-0.727 0.564,-0.706C0.612,-0.685 0.65,-0.656 0.679,-0.619C0.708,-0.582 0.726,-0.538 0.732,-0.487L0.62,-0.487C0.614,-0.521 0.601,-0.549 0.58,-0.572C0.56,-0.595 0.534,-0.612 0.503,-0.624C0.473,-0.636 0.438,-0.642 0.4,-0.642C0.35,-0.642 0.306,-0.632 0.269,-0.61C0.231,-0.588 0.202,-0.557 0.182,-0.516C0.161,-0.474 0.151,-0.424 0.151,-0.365C0.151,-0.321 0.157,-0.281 0.168,-0.246C0.18,-0.211 0.196,-0.182 0.218,-0.158C0.24,-0.133 0.266,-0.115 0.296,-0.103C0.326,-0.09 0.36,-0.084 0.398,-0.084C0.446,-0.084 0.488,-0.093 0.524,-0.111C0.56,-0.129 0.588,-0.156 0.607,-0.191C0.627,-0.225 0.637,-0.267 0.637,-0.315L0.637,-0.339L0.673,-0.299L0.405,-0.299L0.405,-0.38L0.748,-0.38L0.748,-0.327C0.748,-0.276 0.739,-0.229 0.723,-0.188C0.706,-0.146 0.682,-0.111 0.651,-0.082C0.62,-0.053 0.583,-0.03 0.54,-0.015C0.497,0.001 0.449,0.009 0.396,0.009Z" style="fill:rgb(0,53,255);fill-rule:nonzero;"/>
                    </g>
                </g>
                <g transform="matrix(-0.997345,-0.0728151,0.0728151,-0.997345,1113.54,486.173)">
                    <g transform="matrix(43,0,0,43,565.633,222.789)">
                        <path d="M0.003,-0L0.262,-0.729L0.415,-0.729L0.674,-0L0.56,-0L0.5,-0.17L0.177,-0.17L0.117,-0L0.003,-0ZM0.203,-0.255L0.473,-0.255L0.393,-0.48L0.342,-0.629L0.336,-0.629L0.285,-0.48L0.203,-0.255Z" style="fill:rgb(0,53,255);fill-rule:nonzero;"/>
                    </g>
                </g>
                <g transform="matrix(-0.999459,0.0328885,-0.0328885,-0.999459,1084.16,423.325)">
                    <g transform="matrix(43,0,0,43,538.598,220.579)">
                        <path d="M0.088,-0L0.088,-0.729L0.222,-0.729L0.599,-0.145L0.606,-0.145L0.6,-0.389L0.6,-0.729L0.706,-0.729L0.706,-0L0.578,-0L0.201,-0.577L0.195,-0.577L0.199,-0.35L0.199,-0L0.088,-0Z" style="fill:rgb(0,53,255);fill-rule:nonzero;"/>
                    </g>
                </g>
                <g transform="matrix(-0.993445,0.114313,-0.114313,-0.993445,1032.1,385.031)">
                    <g transform="matrix(43,0,0,43,505.011,222.108)">
                        <rect x="0.088" y="-0.729" width="0.109" height="0.729" style="fill:rgb(0,53,255);fill-rule:nonzero;"/>
                    </g>
                </g>
                <g transform="matrix(-0.983115,0.182987,-0.182987,-0.983115,1021.44,351.66)">
                    <g transform="matrix(43,0,0,43,494.497,222.955)">
                        <path d="M0.088,-0L0.088,-0.729L0.597,-0.729L0.597,-0.635L0.177,-0.635L0.197,-0.655L0.197,-0.381L0.177,-0.401L0.557,-0.401L0.557,-0.311L0.177,-0.311L0.197,-0.331L0.197,-0L0.088,-0Z" style="fill:rgb(0,53,255);fill-rule:nonzero;"/>
                    </g>
                </g>
                <g transform="matrix(-0.961569,0.274564,-0.274564,-0.961569,981.428,318.002)">
                    <g transform="matrix(43,0,0,43,468.458,227.687)">
                        <path d="M0.273,-0L0.273,-0.287L0.003,-0.729L0.127,-0.729L0.325,-0.393L0.33,-0.393L0.53,-0.729L0.653,-0.729L0.382,-0.287L0.382,-0L0.273,-0Z" style="fill:rgb(0,53,255);fill-rule:nonzero;"/>
                    </g>
                </g>
                <g transform="matrix(-0.913594,0.406627,-0.406627,-0.913594,927.521,278.562)">
                    <g transform="matrix(43,0,0,43,434.164,237.827)">
                        <path d="M0.396,0.009C0.341,0.009 0.292,-0 0.248,-0.018C0.204,-0.036 0.166,-0.061 0.135,-0.094C0.104,-0.127 0.08,-0.166 0.064,-0.212C0.048,-0.258 0.04,-0.309 0.04,-0.364C0.04,-0.422 0.048,-0.474 0.066,-0.52C0.083,-0.566 0.107,-0.605 0.139,-0.637C0.171,-0.67 0.209,-0.695 0.253,-0.712C0.298,-0.729 0.347,-0.737 0.4,-0.737C0.462,-0.737 0.517,-0.727 0.564,-0.706C0.612,-0.685 0.65,-0.656 0.679,-0.619C0.708,-0.582 0.726,-0.538 0.732,-0.487L0.62,-0.487C0.614,-0.521 0.601,-0.549 0.58,-0.572C0.56,-0.595 0.534,-0.612 0.503,-0.624C0.473,-0.636 0.438,-0.642 0.4,-0.642C0.35,-0.642 0.306,-0.632 0.269,-0.61C0.231,-0.588 0.202,-0.557 0.182,-0.516C0.161,-0.474 0.151,-0.424 0.151,-0.365C0.151,-0.321 0.157,-0.281 0.168,-0.246C0.18,-0.211 0.196,-0.182 0.218,-0.158C0.24,-0.133 0.266,-0.115 0.296,-0.103C0.326,-0.09 0.36,-0.084 0.398,-0.084C0.446,-0.084 0.488,-0.093 0.524,-0.111C0.56,-0.129 0.588,-0.156 0.607,-0.191C0.627,-0.225 0.637,-0.267 0.637,-0.315L0.637,-0.339L0.673,-0.299L0.405,-0.299L0.405,-0.38L0.748,-0.38L0.748,-0.327C0.748,-0.276 0.739,-0.229 0.723,-0.188C0.706,-0.146 0.682,-0.111 0.651,-0.082C0.62,-0.053 0.583,-0.03 0.54,-0.015C0.497,0.001 0.449,0.009 0.396,0.009Z" style="fill:rgb(0,53,255);fill-rule:nonzero;"/>
                    </g>
                </g>
                <g transform="matrix(-0.858204,0.513309,-0.513309,-0.858204,878.565,260.514)">
                    <g transform="matrix(43,0,0,43,403.3,251.604)">
                        <path d="M0.088,-0L0.088,-0.729L0.428,-0.729C0.468,-0.729 0.503,-0.725 0.533,-0.716C0.563,-0.707 0.589,-0.694 0.609,-0.677C0.629,-0.659 0.644,-0.638 0.654,-0.614C0.664,-0.589 0.67,-0.56 0.67,-0.528C0.67,-0.484 0.658,-0.447 0.636,-0.415C0.614,-0.384 0.582,-0.363 0.541,-0.352L0.541,-0.345C0.581,-0.338 0.609,-0.323 0.627,-0.299C0.644,-0.275 0.653,-0.243 0.653,-0.201L0.653,-0.079C0.653,-0.067 0.653,-0.054 0.654,-0.041C0.655,-0.028 0.659,-0.014 0.665,-0L0.555,-0C0.551,-0.01 0.548,-0.022 0.546,-0.035C0.544,-0.049 0.544,-0.064 0.544,-0.081L0.544,-0.182C0.544,-0.207 0.54,-0.228 0.533,-0.245C0.525,-0.261 0.513,-0.274 0.494,-0.282C0.475,-0.291 0.449,-0.295 0.414,-0.295L0.197,-0.295L0.197,-0L0.088,-0ZM0.197,-0.383L0.413,-0.383C0.465,-0.383 0.503,-0.396 0.525,-0.42C0.547,-0.444 0.558,-0.476 0.558,-0.514C0.558,-0.543 0.552,-0.567 0.54,-0.585C0.528,-0.603 0.511,-0.616 0.489,-0.625C0.468,-0.633 0.442,-0.637 0.413,-0.637L0.197,-0.637L0.197,-0.383Z" style="fill:rgb(0,53,255);fill-rule:nonzero;"/>
                    </g>
                </g>
                <g transform="matrix(-0.801419,0.598103,-0.598103,-0.801419,839.719,255.179)">
                    <g transform="matrix(43,0,0,43,377.497,266.99)">
                        <path d="M0.003,-0L0.262,-0.729L0.415,-0.729L0.674,-0L0.56,-0L0.5,-0.17L0.177,-0.17L0.117,-0L0.003,-0ZM0.203,-0.255L0.473,-0.255L0.393,-0.48L0.342,-0.629L0.336,-0.629L0.285,-0.48L0.203,-0.255Z" style="fill:rgb(0,53,255);fill-rule:nonzero;"/>
                    </g>
                </g>
                <g transform="matrix(-0.732932,0.680302,-0.680302,-0.732932,808.8,248.494)">
                    <g transform="matrix(43,0,0,43,355.624,283.003)">
                        <path d="M0.088,-0L0.088,-0.729L0.383,-0.729C0.453,-0.729 0.513,-0.714 0.562,-0.684C0.611,-0.653 0.648,-0.611 0.674,-0.556C0.7,-0.501 0.713,-0.437 0.713,-0.364C0.713,-0.31 0.706,-0.26 0.691,-0.215C0.676,-0.17 0.655,-0.132 0.627,-0.1C0.598,-0.068 0.564,-0.043 0.523,-0.026C0.482,-0.009 0.435,-0 0.383,-0L0.088,-0ZM0.197,-0.094L0.367,-0.094C0.402,-0.094 0.434,-0.1 0.463,-0.111C0.492,-0.122 0.516,-0.138 0.537,-0.161C0.558,-0.183 0.574,-0.212 0.585,-0.246C0.596,-0.28 0.601,-0.32 0.601,-0.366C0.601,-0.428 0.591,-0.479 0.572,-0.518C0.552,-0.558 0.525,-0.587 0.49,-0.606C0.455,-0.626 0.414,-0.635 0.367,-0.635L0.197,-0.635L0.197,-0.094Z" style="fill:rgb(0,53,255);fill-rule:nonzero;"/>
                    </g>
                </g>
                <g transform="matrix(-0.657042,0.753854,-0.753854,-0.657042,780.257,254.371)">
                    <g transform="matrix(43,0,0,43,332.267,304.67)">
                        <path d="M0.088,-0L0.088,-0.729L0.599,-0.729L0.599,-0.635L0.173,-0.635L0.197,-0.659L0.197,-0.392L0.173,-0.416L0.55,-0.416L0.55,-0.328L0.173,-0.328L0.197,-0.352L0.197,-0.071L0.173,-0.095L0.6,-0.095L0.6,-0L0.088,-0Z" style="fill:rgb(0,53,255);fill-rule:nonzero;"/>
                    </g>
                </g>
                <g transform="matrix(-0.583007,0.812467,-0.812467,-0.583007,761.844,258.749)">
                    <g transform="matrix(43,0,0,43,314.521,324.88)">
                        <path d="M0.332,0.009C0.267,0.009 0.214,-0.001 0.171,-0.021C0.128,-0.041 0.096,-0.069 0.075,-0.105C0.054,-0.141 0.043,-0.181 0.042,-0.228L0.154,-0.228C0.155,-0.197 0.161,-0.17 0.174,-0.148C0.187,-0.125 0.207,-0.107 0.233,-0.095C0.259,-0.083 0.293,-0.077 0.334,-0.077C0.385,-0.077 0.426,-0.086 0.457,-0.105C0.488,-0.124 0.504,-0.153 0.504,-0.191C0.504,-0.213 0.5,-0.231 0.494,-0.246C0.487,-0.26 0.476,-0.272 0.461,-0.282C0.446,-0.292 0.426,-0.3 0.402,-0.307C0.377,-0.314 0.347,-0.32 0.312,-0.326C0.27,-0.333 0.233,-0.342 0.202,-0.353C0.17,-0.363 0.144,-0.376 0.123,-0.392C0.101,-0.407 0.086,-0.426 0.075,-0.449C0.064,-0.471 0.059,-0.498 0.059,-0.529C0.059,-0.572 0.07,-0.609 0.091,-0.64C0.113,-0.671 0.143,-0.695 0.183,-0.712C0.223,-0.729 0.271,-0.737 0.327,-0.737C0.383,-0.737 0.431,-0.729 0.47,-0.711C0.509,-0.693 0.54,-0.668 0.561,-0.636C0.582,-0.605 0.593,-0.567 0.594,-0.524L0.483,-0.524C0.482,-0.553 0.475,-0.577 0.461,-0.597C0.447,-0.616 0.429,-0.63 0.405,-0.639C0.382,-0.649 0.354,-0.653 0.323,-0.653C0.291,-0.653 0.264,-0.649 0.241,-0.64C0.219,-0.631 0.202,-0.618 0.19,-0.602C0.178,-0.585 0.172,-0.566 0.172,-0.544C0.172,-0.517 0.178,-0.496 0.191,-0.482C0.204,-0.467 0.225,-0.456 0.254,-0.447C0.283,-0.439 0.321,-0.431 0.367,-0.422C0.4,-0.417 0.431,-0.41 0.46,-0.402C0.49,-0.394 0.517,-0.382 0.54,-0.366C0.564,-0.351 0.583,-0.33 0.596,-0.304C0.61,-0.277 0.617,-0.243 0.617,-0.201C0.617,-0.16 0.606,-0.123 0.584,-0.091C0.563,-0.06 0.531,-0.035 0.489,-0.018C0.446,0 0.394,0.009 0.332,0.009Z" style="fill:rgb(0,53,255);fill-rule:nonzero;"/>
                    </g>
                </g>
                <g transform="matrix(-0.487816,0.872947,-0.872947,-0.487816,747.137,274.178)">
                    <g transform="matrix(43,0,0,43,293.134,356.273)">
                        <path d="M0.051,-0.277C0.051,-0.3 0.057,-0.32 0.067,-0.338C0.078,-0.356 0.092,-0.37 0.11,-0.381C0.128,-0.391 0.149,-0.396 0.172,-0.396C0.208,-0.396 0.237,-0.385 0.259,-0.362C0.281,-0.34 0.292,-0.311 0.292,-0.277C0.292,-0.255 0.287,-0.234 0.277,-0.216C0.267,-0.199 0.253,-0.184 0.235,-0.174C0.217,-0.164 0.196,-0.159 0.172,-0.159C0.149,-0.159 0.128,-0.164 0.11,-0.174C0.092,-0.184 0.078,-0.199 0.067,-0.216C0.057,-0.234 0.051,-0.255 0.051,-0.277Z" style="fill:rgb(0,53,255);fill-rule:nonzero;"/>
                    </g>
                </g>
                <g transform="matrix(-0.382722,0.923863,-0.923863,-0.382722,737.975,262.778)">
                    <g transform="matrix(43,0,0,43,281.2,377.927)">
                        <path d="M0.271,-0L0.005,-0.729L0.127,-0.729L0.303,-0.222L0.341,-0.103L0.348,-0.103L0.387,-0.221L0.564,-0.729L0.684,-0.729L0.419,-0L0.271,-0Z" style="fill:rgb(0,53,255);fill-rule:nonzero;"/>
                    </g>
                </g>
                <g transform="matrix(-0.289089,0.957302,-0.957302,-0.289089,734.78,260.561)">
                    <g transform="matrix(43,0,0,43,270.641,403.111)">
                        <path d="M0.088,-0L0.088,-0.729L0.599,-0.729L0.599,-0.635L0.173,-0.635L0.197,-0.659L0.197,-0.392L0.173,-0.416L0.55,-0.416L0.55,-0.328L0.173,-0.328L0.197,-0.352L0.197,-0.071L0.173,-0.095L0.6,-0.095L0.6,-0L0.088,-0Z" style="fill:rgb(0,53,255);fill-rule:nonzero;"/>
                    </g>
                </g>
                <g transform="matrix(-0.187998,0.982169,-0.982169,-0.187998,732.847,250.85)">
                    <g transform="matrix(43,0,0,43,262.729,428.363)">
                        <path d="M0.396,0.009C0.341,0.009 0.292,-0 0.248,-0.018C0.204,-0.036 0.166,-0.061 0.135,-0.094C0.104,-0.127 0.08,-0.166 0.064,-0.212C0.048,-0.258 0.04,-0.309 0.04,-0.364C0.04,-0.422 0.048,-0.474 0.066,-0.52C0.083,-0.566 0.107,-0.605 0.139,-0.637C0.171,-0.67 0.209,-0.695 0.253,-0.712C0.298,-0.729 0.347,-0.737 0.4,-0.737C0.462,-0.737 0.517,-0.727 0.564,-0.706C0.612,-0.685 0.65,-0.656 0.679,-0.619C0.708,-0.582 0.726,-0.538 0.732,-0.487L0.62,-0.487C0.614,-0.521 0.601,-0.549 0.58,-0.572C0.56,-0.595 0.534,-0.612 0.503,-0.624C0.473,-0.636 0.438,-0.642 0.4,-0.642C0.35,-0.642 0.306,-0.632 0.269,-0.61C0.231,-0.588 0.202,-0.557 0.182,-0.516C0.161,-0.474 0.151,-0.424 0.151,-0.365C0.151,-0.321 0.157,-0.281 0.168,-0.246C0.18,-0.211 0.196,-0.182 0.218,-0.158C0.24,-0.133 0.266,-0.115 0.296,-0.103C0.326,-0.09 0.36,-0.084 0.398,-0.084C0.446,-0.084 0.488,-0.093 0.524,-0.111C0.56,-0.129 0.588,-0.156 0.607,-0.191C0.627,-0.225 0.637,-0.267 0.637,-0.315L0.637,-0.339L0.673,-0.299L0.405,-0.299L0.405,-0.38L0.748,-0.38L0.748,-0.327C0.748,-0.276 0.739,-0.229 0.723,-0.188C0.706,-0.146 0.682,-0.111 0.651,-0.082C0.62,-0.053 0.583,-0.03 0.54,-0.015C0.497,0.001 0.449,0.009 0.396,0.009Z" style="fill:rgb(0,53,255);fill-rule:nonzero;"/>
                    </g>
                </g>
                <g transform="matrix(-0.0783363,0.996927,-0.996927,-0.0783363,736.042,241)">
                    <g transform="matrix(43,0,0,43,256.618,460.737)">
                        <path d="M0.003,-0L0.262,-0.729L0.415,-0.729L0.674,-0L0.56,-0L0.5,-0.17L0.177,-0.17L0.117,-0L0.003,-0ZM0.203,-0.255L0.473,-0.255L0.393,-0.48L0.342,-0.629L0.336,-0.629L0.285,-0.48L0.203,-0.255Z" style="fill:rgb(0,53,255);fill-rule:nonzero;"/>
                    </g>
                </g>
                <g transform="matrix(0.0271461,0.999631,-0.999631,0.0271461,734.869,220.282)">
                    <g transform="matrix(43,0,0,43,254.262,487.689)">
                        <path d="M0.088,-0L0.088,-0.729L0.222,-0.729L0.599,-0.145L0.606,-0.145L0.6,-0.389L0.6,-0.729L0.706,-0.729L0.706,-0L0.578,-0L0.201,-0.577L0.195,-0.577L0.199,-0.35L0.199,-0L0.088,-0Z" style="fill:rgb(0,53,255);fill-rule:nonzero;"/>
                    </g>
                </g>
                <g transform="matrix(0.108626,0.994083,-0.994083,0.108626,746.059,210.595)">
                    <g transform="matrix(43,0,0,43,255.599,521.31)">
                        <rect x="0.088" y="-0.729" width="0.109" height="0.729" style="fill:rgb(0,53,255);fill-rule:nonzero;"/>
                    </g>
                </g>
                <g transform="matrix(0.177196,0.984176,-0.984176,0.177196,734.331,185.237)">
                    <g transform="matrix(43,0,0,43,256.382,531.794)">
                        <path d="M0.088,-0L0.088,-0.729L0.597,-0.729L0.597,-0.635L0.177,-0.635L0.197,-0.655L0.197,-0.381L0.177,-0.401L0.557,-0.401L0.557,-0.311L0.177,-0.311L0.197,-0.331L0.197,-0L0.088,-0Z" style="fill:rgb(0,53,255);fill-rule:nonzero;"/>
                    </g>
                </g>
                <g transform="matrix(0.268954,0.963153,-0.963153,0.268954,728.101,156.487)">
                    <g transform="matrix(43,0,0,43,260.965,557.88)">
                        <path d="M0.273,-0L0.273,-0.287L0.003,-0.729L0.127,-0.729L0.325,-0.393L0.33,-0.393L0.53,-0.729L0.653,-0.729L0.382,-0.287L0.382,-0L0.273,-0Z" style="fill:rgb(0,53,255);fill-rule:nonzero;"/>
                    </g>
                </g>
                <g transform="matrix(0.401383,0.91591,-0.91591,0.401383,704.623,106.401)">
                    <g transform="matrix(43,0,0,43,270.912,592.253)">
                        <path d="M0.396,0.009C0.341,0.009 0.292,-0 0.248,-0.018C0.204,-0.036 0.166,-0.061 0.135,-0.094C0.104,-0.127 0.08,-0.166 0.064,-0.212C0.048,-0.258 0.04,-0.309 0.04,-0.364C0.04,-0.422 0.048,-0.474 0.066,-0.52C0.083,-0.566 0.107,-0.605 0.139,-0.637C0.171,-0.67 0.209,-0.695 0.253,-0.712C0.298,-0.729 0.347,-0.737 0.4,-0.737C0.462,-0.737 0.517,-0.727 0.564,-0.706C0.612,-0.685 0.65,-0.656 0.679,-0.619C0.708,-0.582 0.726,-0.538 0.732,-0.487L0.62,-0.487C0.614,-0.521 0.601,-0.549 0.58,-0.572C0.56,-0.595 0.534,-0.612 0.503,-0.624C0.473,-0.636 0.438,-0.642 0.4,-0.642C0.35,-0.642 0.306,-0.632 0.269,-0.61C0.231,-0.588 0.202,-0.557 0.182,-0.516C0.161,-0.474 0.151,-0.424 0.151,-0.365C0.151,-0.321 0.157,-0.281 0.168,-0.246C0.18,-0.211 0.196,-0.182 0.218,-0.158C0.24,-0.133 0.266,-0.115 0.296,-0.103C0.326,-0.09 0.36,-0.084 0.398,-0.084C0.446,-0.084 0.488,-0.093 0.524,-0.111C0.56,-0.129 0.588,-0.156 0.607,-0.191C0.627,-0.225 0.637,-0.267 0.637,-0.315L0.637,-0.339L0.673,-0.299L0.405,-0.299L0.405,-0.38L0.748,-0.38L0.748,-0.327C0.748,-0.276 0.739,-0.229 0.723,-0.188C0.706,-0.146 0.682,-0.111 0.651,-0.082C0.62,-0.053 0.583,-0.03 0.54,-0.015C0.497,0.001 0.449,0.009 0.396,0.009Z" style="fill:rgb(0,53,255);fill-rule:nonzero;"/>
                    </g>
                </g>
                <g transform="matrix(0.508283,0.86119,-0.86119,0.508283,676.549,61.4148)">
                    <g transform="matrix(43,0,0,43,284.494,623.16)">
                        <path d="M0.088,-0L0.088,-0.729L0.428,-0.729C0.468,-0.729 0.503,-0.725 0.533,-0.716C0.563,-0.707 0.589,-0.694 0.609,-0.677C0.629,-0.659 0.644,-0.638 0.654,-0.614C0.664,-0.589 0.67,-0.56 0.67,-0.528C0.67,-0.484 0.658,-0.447 0.636,-0.415C0.614,-0.384 0.582,-0.363 0.541,-0.352L0.541,-0.345C0.581,-0.338 0.609,-0.323 0.627,-0.299C0.644,-0.275 0.653,-0.243 0.653,-0.201L0.653,-0.079C0.653,-0.067 0.653,-0.054 0.654,-0.041C0.655,-0.028 0.659,-0.014 0.665,-0L0.555,-0C0.551,-0.01 0.548,-0.022 0.546,-0.035C0.544,-0.049 0.544,-0.064 0.544,-0.081L0.544,-0.182C0.544,-0.207 0.54,-0.228 0.533,-0.245C0.525,-0.261 0.513,-0.274 0.494,-0.282C0.475,-0.291 0.449,-0.295 0.414,-0.295L0.197,-0.295L0.197,-0L0.088,-0ZM0.197,-0.383L0.413,-0.383C0.465,-0.383 0.503,-0.396 0.525,-0.42C0.547,-0.444 0.558,-0.476 0.558,-0.514C0.558,-0.543 0.552,-0.567 0.54,-0.585C0.528,-0.603 0.511,-0.616 0.489,-0.625C0.468,-0.633 0.442,-0.637 0.413,-0.637L0.197,-0.637L0.197,-0.383Z" style="fill:rgb(0,53,255);fill-rule:nonzero;"/>
                    </g>
                </g>
                <g transform="matrix(0.593598,0.804762,-0.804762,0.593598,644.195,22.5594)">
                    <g transform="matrix(43,0,0,43,299.761,649.101)">
                        <path d="M0.003,-0L0.262,-0.729L0.415,-0.729L0.674,-0L0.56,-0L0.5,-0.17L0.177,-0.17L0.117,-0L0.003,-0ZM0.203,-0.255L0.473,-0.255L0.393,-0.48L0.342,-0.629L0.336,-0.629L0.285,-0.48L0.203,-0.255Z" style="fill:rgb(0,53,255);fill-rule:nonzero;"/>
                    </g>
                </g>
                <g transform="matrix(0.676198,0.73672,-0.73672,0.676198,596.597,-15.2553)">
                    <g transform="matrix(43,0,0,43,315.653,671.066)">
                        <path d="M0.088,-0L0.088,-0.729L0.383,-0.729C0.453,-0.729 0.513,-0.714 0.562,-0.684C0.611,-0.653 0.648,-0.611 0.674,-0.556C0.7,-0.501 0.713,-0.437 0.713,-0.364C0.713,-0.31 0.706,-0.26 0.691,-0.215C0.676,-0.17 0.655,-0.132 0.627,-0.1C0.598,-0.068 0.564,-0.043 0.523,-0.026C0.482,-0.009 0.435,-0 0.383,-0L0.088,-0ZM0.197,-0.094L0.367,-0.094C0.402,-0.094 0.434,-0.1 0.463,-0.111C0.492,-0.122 0.516,-0.138 0.537,-0.161C0.558,-0.183 0.574,-0.212 0.585,-0.246C0.596,-0.28 0.601,-0.32 0.601,-0.366C0.601,-0.428 0.591,-0.479 0.572,-0.518C0.552,-0.558 0.525,-0.587 0.49,-0.606C0.455,-0.626 0.414,-0.635 0.367,-0.635L0.197,-0.635L0.197,-0.094Z" style="fill:rgb(0,53,255);fill-rule:nonzero;"/>
                    </g>
                </g>
                <g transform="matrix(0.750047,0.661385,-0.661385,0.750047,543.609,-49.393)">
                    <g transform="matrix(43,0,0,43,337.152,694.507)">
                        <path d="M0.088,-0L0.088,-0.729L0.599,-0.729L0.599,-0.635L0.173,-0.635L0.197,-0.659L0.197,-0.392L0.173,-0.416L0.55,-0.416L0.55,-0.328L0.173,-0.328L0.197,-0.352L0.197,-0.071L0.173,-0.095L0.6,-0.095L0.6,-0L0.088,-0Z" style="fill:rgb(0,53,255);fill-rule:nonzero;"/>
                    </g>
                </g>
                <g transform="matrix(0.809181,0.587559,-0.587559,0.809181,486.756,-73.9938)">
                    <g transform="matrix(43,0,0,43,357.297,712.4)">
                        <path d="M0.332,0.009C0.267,0.009 0.214,-0.001 0.171,-0.021C0.128,-0.041 0.096,-0.069 0.075,-0.105C0.054,-0.141 0.043,-0.181 0.042,-0.228L0.154,-0.228C0.155,-0.197 0.161,-0.17 0.174,-0.148C0.187,-0.125 0.207,-0.107 0.233,-0.095C0.259,-0.083 0.293,-0.077 0.334,-0.077C0.385,-0.077 0.426,-0.086 0.457,-0.105C0.488,-0.124 0.504,-0.153 0.504,-0.191C0.504,-0.213 0.5,-0.231 0.494,-0.246C0.487,-0.26 0.476,-0.272 0.461,-0.282C0.446,-0.292 0.426,-0.3 0.402,-0.307C0.377,-0.314 0.347,-0.32 0.312,-0.326C0.27,-0.333 0.233,-0.342 0.202,-0.353C0.17,-0.363 0.144,-0.376 0.123,-0.392C0.101,-0.407 0.086,-0.426 0.075,-0.449C0.064,-0.471 0.059,-0.498 0.059,-0.529C0.059,-0.572 0.07,-0.609 0.091,-0.64C0.113,-0.671 0.143,-0.695 0.183,-0.712C0.223,-0.729 0.271,-0.737 0.327,-0.737C0.383,-0.737 0.431,-0.729 0.47,-0.711C0.509,-0.693 0.54,-0.668 0.561,-0.636C0.582,-0.605 0.593,-0.567 0.594,-0.524L0.483,-0.524C0.482,-0.553 0.475,-0.577 0.461,-0.597C0.447,-0.616 0.429,-0.63 0.405,-0.639C0.382,-0.649 0.354,-0.653 0.323,-0.653C0.291,-0.653 0.264,-0.649 0.241,-0.64C0.219,-0.631 0.202,-0.618 0.19,-0.602C0.178,-0.585 0.172,-0.566 0.172,-0.544C0.172,-0.517 0.178,-0.496 0.191,-0.482C0.204,-0.467 0.225,-0.456 0.254,-0.447C0.283,-0.439 0.321,-0.431 0.367,-0.422C0.4,-0.417 0.431,-0.41 0.46,-0.402C0.49,-0.394 0.517,-0.382 0.54,-0.366C0.564,-0.351 0.583,-0.33 0.596,-0.304C0.61,-0.277 0.617,-0.243 0.617,-0.201C0.617,-0.16 0.606,-0.123 0.584,-0.091C0.563,-0.06 0.531,-0.035 0.489,-0.018C0.446,0 0.394,0.009 0.332,0.009Z" style="fill:rgb(0,53,255);fill-rule:nonzero;"/>
                    </g>
                </g>
                <g transform="matrix(0.870167,0.492758,-0.492758,0.870167,412.112,-96.1749)">
                    <g transform="matrix(43,0,0,43,388.563,733.959)">
                        <path d="M0.051,-0.277C0.051,-0.3 0.057,-0.32 0.067,-0.338C0.078,-0.356 0.092,-0.37 0.11,-0.381C0.128,-0.391 0.149,-0.396 0.172,-0.396C0.208,-0.396 0.237,-0.385 0.259,-0.362C0.281,-0.34 0.292,-0.311 0.292,-0.277C0.292,-0.255 0.287,-0.234 0.277,-0.216C0.267,-0.199 0.253,-0.184 0.235,-0.174C0.217,-0.164 0.196,-0.159 0.172,-0.159C0.149,-0.159 0.128,-0.164 0.11,-0.174C0.092,-0.184 0.078,-0.199 0.067,-0.216C0.057,-0.234 0.051,-0.255 0.051,-0.277Z" style="fill:rgb(0,53,255);fill-rule:nonzero;"/>
                    </g>
                </g>
                <g transform="matrix(0.921649,0.388025,-0.388025,0.921649,321.605,-100.693)">
                    <g transform="matrix(43,0,0,43,410.137,746.01)">
                        <path d="M0.271,-0L0.005,-0.729L0.127,-0.729L0.303,-0.222L0.341,-0.103L0.348,-0.103L0.387,-0.221L0.564,-0.729L0.684,-0.729L0.419,-0L0.271,-0Z" style="fill:rgb(0,53,255);fill-rule:nonzero;"/>
                    </g>
                </g>
                <g transform="matrix(0.955605,0.294651,-0.294651,0.955605,242.288,-94.6515)">
                    <g transform="matrix(43,0,0,43,435.246,756.708)">
                        <path d="M0.088,-0L0.088,-0.729L0.599,-0.729L0.599,-0.635L0.173,-0.635L0.197,-0.659L0.197,-0.392L0.173,-0.416L0.55,-0.416L0.55,-0.328L0.173,-0.328L0.197,-0.352L0.197,-0.071L0.173,-0.095L0.6,-0.095L0.6,-0L0.088,-0Z" style="fill:rgb(0,53,255);fill-rule:nonzero;"/>
                    </g>
                </g>
                <g transform="matrix(0.981047,0.193771,-0.193771,0.981047,156.915,-74.7234)">
                    <g transform="matrix(43,0,0,43,460.43,764.762)">
                        <path d="M0.396,0.009C0.341,0.009 0.292,-0 0.248,-0.018C0.204,-0.036 0.166,-0.061 0.135,-0.094C0.104,-0.127 0.08,-0.166 0.064,-0.212C0.048,-0.258 0.04,-0.309 0.04,-0.364C0.04,-0.422 0.048,-0.474 0.066,-0.52C0.083,-0.566 0.107,-0.605 0.139,-0.637C0.171,-0.67 0.209,-0.695 0.253,-0.712C0.298,-0.729 0.347,-0.737 0.4,-0.737C0.462,-0.737 0.517,-0.727 0.564,-0.706C0.612,-0.685 0.65,-0.656 0.679,-0.619C0.708,-0.582 0.726,-0.538 0.732,-0.487L0.62,-0.487C0.614,-0.521 0.601,-0.549 0.58,-0.572C0.56,-0.595 0.534,-0.612 0.503,-0.624C0.473,-0.636 0.438,-0.642 0.4,-0.642C0.35,-0.642 0.306,-0.632 0.269,-0.61C0.231,-0.588 0.202,-0.557 0.182,-0.516C0.161,-0.474 0.151,-0.424 0.151,-0.365C0.151,-0.321 0.157,-0.281 0.168,-0.246C0.18,-0.211 0.196,-0.182 0.218,-0.158C0.24,-0.133 0.266,-0.115 0.296,-0.103C0.326,-0.09 0.36,-0.084 0.398,-0.084C0.446,-0.084 0.488,-0.093 0.524,-0.111C0.56,-0.129 0.588,-0.156 0.607,-0.191C0.627,-0.225 0.637,-0.267 0.637,-0.315L0.637,-0.339L0.673,-0.299L0.405,-0.299L0.405,-0.38L0.748,-0.38L0.748,-0.327C0.748,-0.276 0.739,-0.229 0.723,-0.188C0.706,-0.146 0.682,-0.111 0.651,-0.082C0.62,-0.053 0.583,-0.03 0.54,-0.015C0.497,0.001 0.449,0.009 0.396,0.009Z" style="fill:rgb(0,53,255);fill-rule:nonzero;"/>
                    </g>
                </g>
                <g transform="matrix(0.996445,0.0842475,-0.0842475,0.996445,66.7115,-38.7706)">
                    <g transform="matrix(43,0,0,43,492.736,771.059)">
                        <path d="M0.003,-0L0.262,-0.729L0.415,-0.729L0.674,-0L0.56,-0L0.5,-0.17L0.177,-0.17L0.117,-0L0.003,-0ZM0.203,-0.255L0.473,-0.255L0.393,-0.48L0.342,-0.629L0.336,-0.629L0.285,-0.48L0.203,-0.255Z" style="fill:rgb(0,53,255);fill-rule:nonzero;"/>
                    </g>
                </g>
                <g transform="matrix(0.999771,-0.021402,0.021402,0.999771,-16.437,11.3)">
                    <g transform="matrix(43,0,0,43,519.71,773.576)">
                        <path d="M0.088,-0L0.088,-0.729L0.222,-0.729L0.599,-0.145L0.606,-0.145L0.6,-0.389L0.6,-0.729L0.706,-0.729L0.706,-0L0.578,-0L0.201,-0.577L0.195,-0.577L0.199,-0.35L0.199,-0L0.088,-0Z" style="fill:rgb(0,53,255);fill-rule:nonzero;"/>
                    </g>
                </g>
                <g transform="matrix(0.994709,-0.102736,0.102736,0.994709,-76.4293,60.9323)">
                    <g transform="matrix(43,0,0,43,553.31,772.434)">
                        <rect x="0.088" y="-0.729" width="0.109" height="0.729" style="fill:rgb(0,53,255);fill-rule:nonzero;"/>
                    </g>
                </g>
                <g transform="matrix(0.985202,-0.171395,0.171395,0.985202,-123.925,108.055)">
                    <g transform="matrix(43,0,0,43,563.817,771.711)">
                        <path d="M0.088,-0L0.088,-0.729L0.597,-0.729L0.597,-0.635L0.177,-0.635L0.197,-0.655L0.197,-0.381L0.177,-0.401L0.557,-0.401L0.557,-0.311L0.177,-0.311L0.197,-0.331L0.197,-0L0.088,-0Z" style="fill:rgb(0,53,255);fill-rule:nonzero;"/>
                    </g>
                </g>
                <g transform="matrix(0.964706,-0.263331,0.263331,0.964706,-181.226,182.433)">
                    <g transform="matrix(43,0,0,43,589.951,767.277)">
                        <path d="M0.273,-0L0.273,-0.287L0.003,-0.729L0.127,-0.729L0.325,-0.393L0.33,-0.393L0.53,-0.729L0.653,-0.729L0.382,-0.287L0.382,-0L0.273,-0Z" style="fill:rgb(0,53,255);fill-rule:nonzero;"/>
                    </g>
                </g>
                <g transform="matrix(0.918273,-0.395947,0.395947,0.918273,-248.92,309.122)">
                    <g transform="matrix(43,0,0,43,624.353,757.541)">
                        <path d="M0.396,0.009C0.341,0.009 0.292,-0 0.248,-0.018C0.204,-0.036 0.166,-0.061 0.135,-0.094C0.104,-0.127 0.08,-0.166 0.064,-0.212C0.048,-0.258 0.04,-0.309 0.04,-0.364C0.04,-0.422 0.048,-0.474 0.066,-0.52C0.083,-0.566 0.107,-0.605 0.139,-0.637C0.171,-0.67 0.209,-0.695 0.253,-0.712C0.298,-0.729 0.347,-0.737 0.4,-0.737C0.462,-0.737 0.517,-0.727 0.564,-0.706C0.612,-0.685 0.65,-0.656 0.679,-0.619C0.708,-0.582 0.726,-0.538 0.732,-0.487L0.62,-0.487C0.614,-0.521 0.601,-0.549 0.58,-0.572C0.56,-0.595 0.534,-0.612 0.503,-0.624C0.473,-0.636 0.438,-0.642 0.4,-0.642C0.35,-0.642 0.306,-0.632 0.269,-0.61C0.231,-0.588 0.202,-0.557 0.182,-0.516C0.161,-0.474 0.151,-0.424 0.151,-0.365C0.151,-0.321 0.157,-0.281 0.168,-0.246C0.18,-0.211 0.196,-0.182 0.218,-0.158C0.24,-0.133 0.266,-0.115 0.296,-0.103C0.326,-0.09 0.36,-0.084 0.398,-0.084C0.446,-0.084 0.488,-0.093 0.524,-0.111C0.56,-0.129 0.588,-0.156 0.607,-0.191C0.627,-0.225 0.637,-0.267 0.637,-0.315L0.637,-0.339L0.673,-0.299L0.405,-0.299L0.405,-0.38L0.748,-0.38L0.748,-0.327C0.748,-0.276 0.739,-0.229 0.723,-0.188C0.706,-0.146 0.682,-0.111 0.651,-0.082C0.62,-0.053 0.583,-0.03 0.54,-0.015C0.497,0.001 0.449,0.009 0.396,0.009Z" style="fill:rgb(0,53,255);fill-rule:nonzero;"/>
                    </g>
                </g>
                <g transform="matrix(0.864148,-0.503238,0.503238,0.864148,-285.447,430.89)">
                    <g transform="matrix(43,0,0,43,655.351,744.137)">
                        <path d="M0.088,-0L0.088,-0.729L0.428,-0.729C0.468,-0.729 0.503,-0.725 0.533,-0.716C0.563,-0.707 0.589,-0.694 0.609,-0.677C0.629,-0.659 0.644,-0.638 0.654,-0.614C0.664,-0.589 0.67,-0.56 0.67,-0.528C0.67,-0.484 0.658,-0.447 0.636,-0.415C0.614,-0.384 0.582,-0.363 0.541,-0.352L0.541,-0.345C0.581,-0.338 0.609,-0.323 0.627,-0.299C0.644,-0.275 0.653,-0.243 0.653,-0.201L0.653,-0.079C0.653,-0.067 0.653,-0.054 0.654,-0.041C0.655,-0.028 0.659,-0.014 0.665,-0L0.555,-0C0.551,-0.01 0.548,-0.022 0.546,-0.035C0.544,-0.049 0.544,-0.064 0.544,-0.081L0.544,-0.182C0.544,-0.207 0.54,-0.228 0.533,-0.245C0.525,-0.261 0.513,-0.274 0.494,-0.282C0.475,-0.291 0.449,-0.295 0.414,-0.295L0.197,-0.295L0.197,-0L0.088,-0ZM0.197,-0.383L0.413,-0.383C0.465,-0.383 0.503,-0.396 0.525,-0.42C0.547,-0.444 0.558,-0.476 0.558,-0.514C0.558,-0.543 0.552,-0.567 0.54,-0.585C0.528,-0.603 0.511,-0.616 0.489,-0.625C0.468,-0.633 0.442,-0.637 0.413,-0.637L0.197,-0.637L0.197,-0.383Z" style="fill:rgb(0,53,255);fill-rule:nonzero;"/>
                    </g>
                </g>
                <g transform="matrix(0.80819,-0.588921,0.588921,0.80819,-298.638,541.116)">
                    <g transform="matrix(43,0,0,43,681.386,729.018)">
                        <path d="M0.003,-0L0.262,-0.729L0.415,-0.729L0.674,-0L0.56,-0L0.5,-0.17L0.177,-0.17L0.117,-0L0.003,-0ZM0.203,-0.255L0.473,-0.255L0.393,-0.48L0.342,-0.629L0.336,-0.629L0.285,-0.48L0.203,-0.255Z" style="fill:rgb(0,53,255);fill-rule:nonzero;"/>
                    </g>
                </g>
                <g transform="matrix(0.740736,-0.671796,0.671796,0.740736,-296.814,657.474)">
                    <g transform="matrix(43,0,0,43,703.405,713.285)">
                        <path d="M0.088,-0L0.088,-0.729L0.383,-0.729C0.453,-0.729 0.513,-0.714 0.562,-0.684C0.611,-0.653 0.648,-0.611 0.674,-0.556C0.7,-0.501 0.713,-0.437 0.713,-0.364C0.713,-0.31 0.706,-0.26 0.691,-0.215C0.676,-0.17 0.655,-0.132 0.627,-0.1C0.598,-0.068 0.564,-0.043 0.523,-0.026C0.482,-0.009 0.435,-0 0.383,-0L0.088,-0ZM0.197,-0.094L0.367,-0.094C0.402,-0.094 0.434,-0.1 0.463,-0.111C0.492,-0.122 0.516,-0.138 0.537,-0.161C0.558,-0.183 0.574,-0.212 0.585,-0.246C0.596,-0.28 0.601,-0.32 0.601,-0.366C0.601,-0.428 0.591,-0.479 0.572,-0.518C0.552,-0.558 0.525,-0.587 0.49,-0.606C0.455,-0.626 0.414,-0.635 0.367,-0.635L0.197,-0.635L0.197,-0.094Z" style="fill:rgb(0,53,255);fill-rule:nonzero;"/>
                    </g>
                </g>
                <g transform="matrix(0.665704,-0.746216,0.746216,0.665704,-273.262,773.802)">
                    <g transform="matrix(43,0,0,43,727.01,691.889)">
                        <path d="M0.088,-0L0.088,-0.729L0.599,-0.729L0.599,-0.635L0.173,-0.635L0.197,-0.659L0.197,-0.392L0.173,-0.416L0.55,-0.416L0.55,-0.328L0.173,-0.328L0.197,-0.352L0.197,-0.071L0.173,-0.095L0.6,-0.095L0.6,-0L0.088,-0Z" style="fill:rgb(0,53,255);fill-rule:nonzero;"/>
                    </g>
                </g>
                <g transform="matrix(0.592092,-0.805871,0.805871,0.592092,-237.48,874.451)">
                    <g transform="matrix(43,0,0,43,745.05,671.81)">
                        <path d="M0.332,0.009C0.267,0.009 0.214,-0.001 0.171,-0.021C0.128,-0.041 0.096,-0.069 0.075,-0.105C0.054,-0.141 0.043,-0.181 0.042,-0.228L0.154,-0.228C0.155,-0.197 0.161,-0.17 0.174,-0.148C0.187,-0.125 0.207,-0.107 0.233,-0.095C0.259,-0.083 0.293,-0.077 0.334,-0.077C0.385,-0.077 0.426,-0.086 0.457,-0.105C0.488,-0.124 0.504,-0.153 0.504,-0.191C0.504,-0.213 0.5,-0.231 0.494,-0.246C0.487,-0.26 0.476,-0.272 0.461,-0.282C0.446,-0.292 0.426,-0.3 0.402,-0.307C0.377,-0.314 0.347,-0.32 0.312,-0.326C0.27,-0.333 0.233,-0.342 0.202,-0.353C0.17,-0.363 0.144,-0.376 0.123,-0.392C0.101,-0.407 0.086,-0.426 0.075,-0.449C0.064,-0.471 0.059,-0.498 0.059,-0.529C0.059,-0.572 0.07,-0.609 0.091,-0.64C0.113,-0.671 0.143,-0.695 0.183,-0.712C0.223,-0.729 0.271,-0.737 0.327,-0.737C0.383,-0.737 0.431,-0.729 0.47,-0.711C0.509,-0.693 0.54,-0.668 0.561,-0.636C0.582,-0.605 0.593,-0.567 0.594,-0.524L0.483,-0.524C0.482,-0.553 0.475,-0.577 0.461,-0.597C0.447,-0.616 0.429,-0.63 0.405,-0.639C0.382,-0.649 0.354,-0.653 0.323,-0.653C0.291,-0.653 0.264,-0.649 0.241,-0.64C0.219,-0.631 0.202,-0.618 0.19,-0.602C0.178,-0.585 0.172,-0.566 0.172,-0.544C0.172,-0.517 0.178,-0.496 0.191,-0.482C0.204,-0.467 0.225,-0.456 0.254,-0.447C0.283,-0.439 0.321,-0.431 0.367,-0.422C0.4,-0.417 0.431,-0.41 0.46,-0.402C0.49,-0.394 0.517,-0.382 0.54,-0.366C0.564,-0.351 0.583,-0.33 0.596,-0.304C0.61,-0.277 0.617,-0.243 0.617,-0.201C0.617,-0.16 0.606,-0.123 0.584,-0.091C0.563,-0.06 0.531,-0.035 0.489,-0.018C0.446,0 0.394,0.009 0.332,0.009Z" style="fill:rgb(0,53,255);fill-rule:nonzero;"/>
                    </g>
                </g>
            </g>
        </g>
        <g transform="matrix(2.15978,0,0,7.39115,1885.21,404.244)">
            <g transform="matrix(64,0,0,64,327.587,273.634)">
                <path d="M0.192,-0L0.091,-0.729L0.252,-0.729L0.303,-0.26L0.315,-0.15L0.322,-0.15L0.376,-0.262L0.616,-0.729L0.792,-0.729L0.387,-0L0.192,-0Z" style="fill:white;fill-rule:nonzero;"/>
            </g>
            <g transform="matrix(64,0,0,64,368.163,273.634)">
                <path d="M0.013,-0L0.164,-0.729L0.68,-0.729L0.652,-0.596L0.255,-0.596L0.298,-0.632L0.25,-0.397L0.221,-0.431L0.57,-0.431L0.545,-0.306L0.194,-0.306L0.238,-0.342L0.188,-0.098L0.16,-0.133L0.558,-0.133L0.531,-0L0.013,-0Z" style="fill:white;fill-rule:nonzero;"/>
            </g>
            <g transform="matrix(64,0,0,64,407.395,273.634)">
                <path d="M0.361,0.01C0.309,0.01 0.263,0.002 0.223,-0.014C0.183,-0.031 0.15,-0.054 0.123,-0.083C0.096,-0.113 0.076,-0.149 0.062,-0.19C0.049,-0.231 0.043,-0.277 0.045,-0.328C0.047,-0.391 0.058,-0.447 0.079,-0.498C0.099,-0.548 0.127,-0.591 0.163,-0.626C0.198,-0.662 0.24,-0.689 0.288,-0.709C0.336,-0.728 0.389,-0.738 0.447,-0.738C0.507,-0.738 0.56,-0.727 0.604,-0.706C0.649,-0.685 0.685,-0.655 0.71,-0.617C0.736,-0.579 0.749,-0.535 0.75,-0.485L0.593,-0.483C0.591,-0.508 0.584,-0.53 0.57,-0.549C0.557,-0.567 0.539,-0.581 0.518,-0.592C0.496,-0.602 0.47,-0.607 0.44,-0.607C0.393,-0.607 0.352,-0.596 0.317,-0.573C0.282,-0.549 0.255,-0.517 0.236,-0.475C0.216,-0.433 0.205,-0.384 0.203,-0.328C0.202,-0.293 0.205,-0.262 0.213,-0.236C0.22,-0.21 0.231,-0.188 0.247,-0.171C0.262,-0.154 0.28,-0.141 0.302,-0.133C0.323,-0.124 0.347,-0.12 0.373,-0.12C0.412,-0.12 0.445,-0.126 0.472,-0.139C0.499,-0.152 0.521,-0.171 0.537,-0.197C0.554,-0.223 0.565,-0.254 0.572,-0.291L0.576,-0.312L0.599,-0.285L0.388,-0.285L0.411,-0.389L0.752,-0.389L0.736,-0.306C0.726,-0.25 0.709,-0.202 0.686,-0.162C0.663,-0.122 0.635,-0.089 0.602,-0.064C0.57,-0.039 0.533,-0.02 0.492,-0.008C0.451,0.004 0.407,0.01 0.361,0.01Z" style="fill:white;fill-rule:nonzero;"/>
            </g>
            <g transform="matrix(64,0,0,64,456.419,273.634)">
                <path d="M-0.066,-0L0.325,-0.729L0.512,-0.729L0.607,-0L0.459,-0L0.441,-0.15L0.17,-0.15L0.09,-0L-0.066,-0ZM0.228,-0.269L0.43,-0.269L0.403,-0.487L0.392,-0.574L0.386,-0.574L0.344,-0.489L0.228,-0.269Z" style="fill:white;fill-rule:nonzero;"/>
            </g>
            <g transform="matrix(64,0,0,64,496.675,273.634)">
                <path d="M0.013,-0L0.164,-0.729L0.342,-0.729L0.533,-0.221L0.54,-0.221L0.576,-0.439L0.637,-0.729L0.79,-0.729L0.638,-0L0.461,-0L0.271,-0.504L0.264,-0.504L0.228,-0.293L0.167,-0L0.013,-0Z" style="fill:white;fill-rule:nonzero;"/>
            </g>
            <g transform="matrix(64,0,0,64,546.723,273.634)">
                <path d="M0.013,-0L0.164,-0.729L0.319,-0.729L0.167,-0L0.013,-0Z" style="fill:white;fill-rule:nonzero;"/>
            </g>
            <g transform="matrix(64,0,0,64,562.339,273.634)">
                <path d="M0.013,-0L0.164,-0.729L0.671,-0.729L0.644,-0.596L0.255,-0.596L0.298,-0.631L0.246,-0.379L0.218,-0.413L0.567,-0.413L0.541,-0.287L0.19,-0.287L0.234,-0.322L0.167,-0L0.013,-0Z" style="fill:white;fill-rule:nonzero;"/>
            </g>
            <g transform="matrix(64,0,0,64,601.763,273.634)">
                <path d="M0.198,-0L0.255,-0.278L0.088,-0.729L0.258,-0.729L0.353,-0.422L0.36,-0.422L0.588,-0.729L0.768,-0.729L0.409,-0.272L0.353,-0L0.198,-0Z" style="fill:white;fill-rule:nonzero;"/>
            </g>
            <g transform="matrix(64,0,0,64,351.651,337.634)">
                <path d="M0.361,0.01C0.309,0.01 0.263,0.002 0.223,-0.014C0.183,-0.031 0.15,-0.054 0.123,-0.083C0.096,-0.113 0.076,-0.149 0.062,-0.19C0.049,-0.231 0.043,-0.277 0.045,-0.328C0.047,-0.391 0.058,-0.447 0.079,-0.498C0.099,-0.548 0.127,-0.591 0.163,-0.626C0.198,-0.662 0.24,-0.689 0.288,-0.709C0.336,-0.728 0.389,-0.738 0.447,-0.738C0.507,-0.738 0.56,-0.727 0.604,-0.706C0.649,-0.685 0.685,-0.655 0.71,-0.617C0.736,-0.579 0.749,-0.535 0.75,-0.485L0.593,-0.483C0.591,-0.508 0.584,-0.53 0.57,-0.549C0.557,-0.567 0.539,-0.581 0.518,-0.592C0.496,-0.602 0.47,-0.607 0.44,-0.607C0.393,-0.607 0.352,-0.596 0.317,-0.573C0.282,-0.549 0.255,-0.517 0.236,-0.475C0.216,-0.433 0.205,-0.384 0.203,-0.328C0.202,-0.293 0.205,-0.262 0.213,-0.236C0.22,-0.21 0.231,-0.188 0.247,-0.171C0.262,-0.154 0.28,-0.141 0.302,-0.133C0.323,-0.124 0.347,-0.12 0.373,-0.12C0.412,-0.12 0.445,-0.126 0.472,-0.139C0.499,-0.152 0.521,-0.171 0.537,-0.197C0.554,-0.223 0.565,-0.254 0.572,-0.291L0.576,-0.312L0.599,-0.285L0.388,-0.285L0.411,-0.389L0.752,-0.389L0.736,-0.306C0.726,-0.25 0.709,-0.202 0.686,-0.162C0.663,-0.122 0.635,-0.089 0.602,-0.064C0.57,-0.039 0.533,-0.02 0.492,-0.008C0.451,0.004 0.407,0.01 0.361,0.01Z" style="fill:white;fill-rule:nonzero;"/>
            </g>
            <g transform="matrix(64,0,0,64,401.891,337.634)">
                <path d="M0.013,-0L0.164,-0.729L0.495,-0.729C0.534,-0.729 0.568,-0.724 0.597,-0.715C0.625,-0.706 0.648,-0.693 0.667,-0.677C0.685,-0.66 0.699,-0.64 0.708,-0.617C0.716,-0.593 0.72,-0.568 0.719,-0.539C0.717,-0.49 0.703,-0.447 0.677,-0.411C0.651,-0.376 0.613,-0.351 0.563,-0.337L0.561,-0.33C0.591,-0.323 0.612,-0.306 0.625,-0.281C0.637,-0.255 0.639,-0.224 0.631,-0.187L0.608,-0.071C0.605,-0.057 0.603,-0.044 0.602,-0.032C0.601,-0.02 0.601,-0.009 0.602,-0L0.447,-0C0.446,-0.009 0.446,-0.018 0.446,-0.029C0.447,-0.04 0.449,-0.052 0.452,-0.065L0.475,-0.174C0.481,-0.198 0.481,-0.217 0.477,-0.232C0.473,-0.246 0.465,-0.257 0.452,-0.264C0.439,-0.271 0.421,-0.274 0.399,-0.274L0.224,-0.274L0.167,-0L0.013,-0ZM0.247,-0.39L0.426,-0.39C0.466,-0.39 0.498,-0.401 0.522,-0.422C0.547,-0.444 0.559,-0.473 0.56,-0.51C0.561,-0.529 0.558,-0.546 0.551,-0.56C0.544,-0.574 0.533,-0.585 0.517,-0.593C0.501,-0.601 0.48,-0.604 0.454,-0.604L0.292,-0.604L0.247,-0.39Z" style="fill:white;fill-rule:nonzero;"/>
            </g>
            <g transform="matrix(64,0,0,64,446.627,337.634)">
                <path d="M-0.066,-0L0.325,-0.729L0.512,-0.729L0.607,-0L0.459,-0L0.441,-0.15L0.17,-0.15L0.09,-0L-0.066,-0ZM0.228,-0.269L0.43,-0.269L0.403,-0.487L0.392,-0.574L0.386,-0.574L0.344,-0.489L0.228,-0.269Z" style="fill:white;fill-rule:nonzero;"/>
            </g>
            <g transform="matrix(64,0,0,64,486.883,337.634)">
                <path d="M0.013,-0L0.164,-0.729L0.437,-0.729C0.499,-0.729 0.552,-0.716 0.596,-0.691C0.639,-0.666 0.672,-0.63 0.695,-0.585C0.717,-0.539 0.727,-0.486 0.725,-0.425C0.723,-0.361 0.712,-0.302 0.691,-0.25C0.671,-0.198 0.643,-0.153 0.607,-0.116C0.571,-0.079 0.529,-0.05 0.48,-0.03C0.431,-0.01 0.376,-0 0.316,-0L0.013,-0ZM0.194,-0.13L0.317,-0.13C0.355,-0.13 0.388,-0.137 0.418,-0.15C0.447,-0.162 0.473,-0.181 0.494,-0.206C0.516,-0.23 0.532,-0.26 0.544,-0.295C0.556,-0.33 0.563,-0.37 0.565,-0.415C0.566,-0.457 0.56,-0.491 0.547,-0.518C0.534,-0.545 0.515,-0.566 0.49,-0.579C0.466,-0.592 0.436,-0.599 0.403,-0.599L0.291,-0.599L0.194,-0.13Z" style="fill:white;fill-rule:nonzero;"/>
            </g>
            <g transform="matrix(64,0,0,64,534.243,337.634)">
                <path d="M0.013,-0L0.164,-0.729L0.68,-0.729L0.652,-0.596L0.255,-0.596L0.298,-0.632L0.25,-0.397L0.221,-0.431L0.57,-0.431L0.545,-0.306L0.194,-0.306L0.238,-0.342L0.188,-0.098L0.16,-0.133L0.558,-0.133L0.531,-0L0.013,-0Z" style="fill:white;fill-rule:nonzero;"/>
            </g>
            <g transform="matrix(64,0,0,64,574.307,337.634)">
                <path d="M0.293,0.01C0.232,0.01 0.18,0 0.138,-0.019C0.095,-0.039 0.064,-0.067 0.043,-0.103C0.022,-0.139 0.013,-0.182 0.016,-0.232L0.168,-0.232C0.167,-0.207 0.172,-0.186 0.182,-0.168C0.192,-0.15 0.208,-0.136 0.228,-0.126C0.248,-0.117 0.272,-0.112 0.299,-0.112C0.34,-0.112 0.372,-0.12 0.395,-0.137C0.418,-0.154 0.43,-0.178 0.431,-0.209C0.432,-0.222 0.43,-0.233 0.426,-0.242C0.423,-0.251 0.416,-0.26 0.407,-0.267C0.398,-0.274 0.387,-0.28 0.372,-0.286C0.357,-0.291 0.338,-0.297 0.316,-0.303C0.275,-0.314 0.24,-0.326 0.211,-0.339C0.182,-0.352 0.158,-0.366 0.14,-0.383C0.122,-0.399 0.109,-0.418 0.101,-0.439C0.093,-0.46 0.09,-0.484 0.09,-0.511C0.092,-0.56 0.106,-0.601 0.132,-0.635C0.157,-0.668 0.192,-0.694 0.235,-0.712C0.279,-0.729 0.328,-0.738 0.382,-0.738C0.436,-0.738 0.482,-0.729 0.52,-0.71C0.559,-0.691 0.588,-0.665 0.609,-0.632C0.629,-0.598 0.639,-0.559 0.637,-0.515L0.48,-0.515C0.481,-0.536 0.478,-0.555 0.469,-0.57C0.46,-0.585 0.448,-0.597 0.431,-0.605C0.414,-0.614 0.393,-0.618 0.369,-0.618C0.347,-0.618 0.328,-0.614 0.312,-0.607C0.295,-0.6 0.282,-0.591 0.273,-0.578C0.263,-0.566 0.258,-0.55 0.257,-0.532C0.257,-0.516 0.261,-0.503 0.269,-0.492C0.277,-0.481 0.291,-0.472 0.309,-0.464C0.327,-0.456 0.35,-0.449 0.378,-0.442C0.42,-0.432 0.455,-0.421 0.484,-0.409C0.512,-0.397 0.535,-0.382 0.552,-0.366C0.569,-0.349 0.582,-0.331 0.589,-0.309C0.596,-0.287 0.599,-0.263 0.598,-0.234C0.596,-0.184 0.583,-0.14 0.557,-0.104C0.532,-0.067 0.497,-0.039 0.452,-0.02C0.406,0 0.354,0.01 0.293,0.01Z" style="fill:white;fill-rule:nonzero;"/>
            </g>
        </g>
    </g>
</svg>
