<svg xmlns="http://www.w3.org/2000/svg" fill-rule="evenodd" stroke-linejoin="round" stroke-miterlimit="2" clip-rule="evenodd" viewBox="0 0 889 677">
  <g transform="matrix(.46301 0 0 .135297 -912 0)">
    <path fill="none" d="M1970 0h1920v5000H1970z"/>
    <circle cx="2398.3" cy="433.1" r="295" fill="#f6e6d5" transform="matrix(2.45853 0 0 8.41352 -2966 -1144)"/>
    <g fill-rule="nonzero">
      <path fill="#0035ff" d="m2590 988 64 134-9 25-44-95-10-23v1l4 39 17 167-9 25-24-243z"/>
      <path fill="#0035ff" d="m2557 1082 49 171-35 118-6-22 29-98v11l-18-63h3l-26 87-6-20 26-88v12l-19-66h3l-29 98-6-22zm-62 220c4-15 7-25 11-33s9-12 13-13 9 1 13 6 9 14 13 26 8 24 10 39a305 305 0 0 1 3 87 319 319 0 0 1-19 79c-5 8-9 11-14 11s-9-4-13-14l7-28c3 5 6 8 9 7 3 0 6-3 8-9 3-5 6-13 8-23a213 213 0 0 0 4-82 159 159 0 0 0-20-59c-3-4-6-6-9-5-4 0-6 3-9 8s-5 13-8 22a228 228 0 0 0-4 76c1 12 3 24 7 33l2 5-5 1 16-68 6 16-21 88-4-11a290 290 0 0 1-11-118l7-41zm-21 98 46 199-8 43-73-55 6-31 17 12 17-90-11-46zm10 100-13 76 22 16 15 12v-1l-9-41zm-46 100 63 102-5 40-67 31v2l22 33 29 47-4 32-64-102 6-38 65-32 1-2-20-30-31-49zm-41 332a227 227 0 0 1 17-71c4-7 8-11 13-12s9 2 14 8c6 5 10 13 14 23s7 21 9 34a319 319 0 0 1 1 92c-1 19-4 35-7 47s-7 22-11 28c-5 6-9 7-14 4l3-35c3 1 6 0 9-4s5-10 7-18a272 272 0 0 0 6-76c-1-14-3-25-7-36-3-10-7-18-13-24-4-5-8-6-11-6-4 0-7 2-10 6l-7 19-4 30a296 296 0 0 0 1 65c2 9 4 16 7 21l-3 34c-5-7-8-17-11-30s-4-28-5-45c0-17 0-35 2-54zm-11 143 69 40-2 36-31-19 2-4-7 143-2-6 32 18-2 36-69-41 1-35 32 18-1 5 7-143 1 6-32-19zm-12 256 70 11-2 168-9-1 2-141 2 9-25-4 2-8-2 124-8-1 1-124 3 8-27-4 2-7-2 140-9-1zm-1 304a440 440 0 0 1 8-87c3-11 7-20 11-27s9-10 15-12c5-1 10 1 15 5s8 12 12 22a413 413 0 0 1 2 176c-4 11-8 18-13 21l-1-36c3-3 6-8 8-15l5-26a296 296 0 0 0-3-77c-3-12-6-21-10-26-4-6-9-8-15-7-4 1-8 4-11 9-3 4-6 10-8 18l-5 26a299 299 0 0 0 8 92c2 6 5 10 8 11l1 36c-5 0-10-5-13-14-4-9-7-21-10-36l-4-53zm5 147 69-47 2 35-36 25 42 87 3 42-34-71-35 120-2-41 28-98-14-31-21 14zm29 383a415 415 0 0 1 0-92l8-35c3-10 8-19 13-25 6-7 11-11 15-10 5 0 9 3 13 9s8 15 11 26a430 430 0 0 1 6 142c-3 14-6 25-10 32l-4-34c3-6 5-13 6-22 2-9 2-19 2-30a298 298 0 0 0-9-71c-3-9-7-14-11-16-5-2-9 1-15 8-4 5-7 11-10 19a205 205 0 0 0-7 90c2 14 4 26 7 35s6 15 10 17 8 0 12-5l2-3-2 16-9-83 7-9 12 106-5 6c-5 6-9 8-14 8-4-1-8-4-12-10s-7-15-9-27c-3-11-6-25-7-42zm18 146 62-113 15 99a343 343 0 0 1 4 60l-3 23-7 18c-4 7-8 9-11 8-4-2-7-8-10-18v33c-2 9-4 17-8 23l-10 19-3 6-3 10-5-32 2-8 4-8 9-16 5-13 1-17-2-25-10-63-25 46zm37-28 10 63c2 15 5 24 8 27s6 1 10-5l5-16 1-21-2-24-10-63zm-10 206 72-66 9 42-44 206-6-31 10-48-18-87-16 15zm32 7 14 73 14-64 9-41-1-2-14 14zm8 187 53-159 18 73a272 272 0 0 1 6 110c-2 18-6 35-11 51-4 12-8 21-12 27s-8 9-13 9c-4 0-8-3-12-9s-7-16-10-29zm14 6 10 42c3 9 5 16 8 21s5 7 8 7 6-2 9-7l10-22a209 209 0 0 0 5-116l-11-42zm34 175 47-179 36 112-6 23-30-93 3-1-17 66v-12l27 83-6 22-27-83 3-1-18 69v-11l31 94-7 23zm64 185a182 182 0 0 1-14-80c0-13 2-26 4-39l9 22a151 151 0 0 0-1 50c1 9 3 17 7 25 4 10 7 15 11 16s6-4 8-14l3-16a102 102 0 0 0-4-35 469 469 0 0 0-13-50 204 204 0 0 1-5-51l4-24c2-12 5-19 8-24 4-4 8-4 12-1s8 10 12 21a190 190 0 0 1 9 109l-9-22a125 125 0 0 0 1-46c-1-7-3-13-6-19-2-6-5-11-7-13-2-1-4-1-6 1s-3 6-5 12a84 84 0 0 0 1 41 852 852 0 0 0 14 52 194 194 0 0 1 1 84c-3 11-6 19-9 23-4 5-7 5-12 1-4-3-9-11-13-23zm62 26 4-15c2-4 3-5 5-6 2 0 4 2 6 6 3 5 5 13 6 23a123 123 0 0 1-5 45c-2 4-4 6-6 6s-4-2-6-6c-2-3-3-8-4-14a132 132 0 0 1 0-39zm55 194 2-255 11 14-2 177-1 41 1 1 8-32 33-135 11 15-49 192z"/>
      <path fill="#0035ff" d="m2762 4321 18-232 48 44-2 30-40-37 3-5-7 85-1-10 35 32-3 28-35-32 3-6-7 90-1-10 39 37-2 30z"/>
      <path fill="#0035ff" d="M2849 4390c-6-2-10-8-14-16s-7-18-10-30-4-26-5-42a483 483 0 0 1 13-135c4-9 8-15 12-19 5-3 9-4 15-1 5 3 11 9 15 18s7 20 9 34 4 29 4 45l-11-5a139 139 0 0 0-9-50c-3-6-6-9-10-11-5-2-9-1-13 4-4 6-7 14-9 27a312 312 0 0 0-5 87 142 142 0 0 0 10 53c2 6 6 9 9 11 5 2 9 1 13-3s6-11 9-22c2-10 4-23 4-39l1-8 2 15-25-13 1-26 33 16-1 17-4 45c-3 12-5 23-9 31s-7 13-11 16c-5 3-9 4-14 1zm35 14 27-238 15 1 23 242h-11l-5-57-31-2-7 55zm20-82 26 2-7-75-4-49-1-1-5 49zm49 86-6-239 13-4 41 180h1l-3-80-3-112 10-3 7 239-13 4-41-177h-1l3 74 3 115zm104-48c-5 4-9 5-14 3s-8-8-12-16-7-19-9-32a557 557 0 0 1-3-143c2-13 5-24 9-32 4-9 8-15 13-19 6-5 11-6 16-2s9 9 13 19c3 10 6 23 8 39l-11 8-5-23c-2-6-5-10-8-13-4-2-7-1-11 2-4 4-8 10-11 20s-5 22-6 37a384 384 0 0 0 11 112c2 6 5 10 8 12 3 1 7 1 10-2 4-3 7-8 10-14l6-24c2-9 2-19 2-30l10-8c0 17 0 32-2 47-2 14-5 27-9 37s-9 18-15 22zm42-39-25-225 10-12 11 101-2-3 40-52-1 7-11-101 9-13 25 225-10 13-11-105 2 3-40 52 1-7 12 104zm71-96-33-213 43-79 4 28-36 66 1-11 12 78-3-4 32-58 4 26-32 58 1-11 13 82-4-3 37-66 4 27zm77-152c-5 10-9 17-13 21s-9 3-14 0c-4-3-8-9-12-18s-7-22-10-37a382 382 0 0 1-2-134c2-13 6-24 10-34 5-12 9-19 14-22s10-2 14 2c5 5 9 14 12 26l-9 21c-2-7-5-12-8-15s-5-3-9-1c-3 2-6 7-9 14-4 9-7 21-9 33a306 306 0 0 0 12 117c3 8 6 13 9 15 3 3 6 3 9 1 3-3 6-7 9-14l8-25a203 203 0 0 0 1-60l9-21a279 279 0 0 1-12 131zm34-88-47-179 8-24 24 93 1-170 9-29-1 137 48 41-9 29-39-35v59l14 53zm82-280c-3 14-7 25-11 32s-8 12-13 13-8-1-13-6-8-14-13-26l-10-39a306 306 0 0 1-3-88 317 317 0 0 1 20-78c4-8 9-11 13-11s9 5 13 14l-6 29c-3-6-6-9-9-8-3 0-6 3-9 9l-7 22a212 212 0 0 0-4 82c2 15 5 27 9 40 3 9 7 16 10 20s7 6 10 6c3-1 6-4 9-9 2-5 5-12 7-22a227 227 0 0 0 5-76c-1-12-4-23-8-33l-1-5 5-1-16 69-6-17 20-88 4 11a291 291 0 0 1 11 118c-1 15-4 29-7 42zm27-127-59-125 17-96 6-27c2-7 5-12 7-15 3-2 5-3 8-2 2 2 5 5 8 11 3 7 6 17 7 29 2 11 2 24 0 37l1 2c3-10 5-16 8-17 3 0 6 3 10 10l10 21 3 6c1 2 2 4 4 4l-6 31-3-3-4-8-8-17-6-8c-2 0-4 1-5 5-2 3-4 10-5 20l-11 61 24 51zm-25-96 10-61c3-15 4-28 3-38s-3-19-6-25c-2-5-5-8-7-8s-4 3-6 8l-4 19-11 61zm57-76-54-179 7-46 74 25-5 34-17-6-13 97 12 41zm-15-95 11-81-22-7-16-6v2l11 36zm43-119-66-75 8-92c3-22 6-39 10-52 4-12 9-19 15-22s12 0 19 8c5 5 9 13 13 22s6 20 8 32a282 282 0 0 1 2 87zm-5-44 5-53a293 293 0 0 0-1-60c-1-9-3-17-6-24s-7-13-11-17c-5-7-10-9-15-7-4 2-7 8-10 17s-5 21-6 35l-6 54zm27-189-69-47 9-165 9 6-8 137-2-9 26 17-3 7 7-122 8 5-7 122-2-9 27 18-3 6 8-138 9 7zm14-282-4 52c-2 14-6 23-9 29s-8 8-12 7l1-37c3 1 5-1 7-4 3-4 5-10 6-18l3-33c0-16 0-30-2-41 1-14-4-17-8-18-2 0-4 0-5 2-2 2-3 5-4 10l-3 18a916 916 0 0 0-6 64l-4 25-6 14c-3 3-5 4-8 3-4-1-8-6-11-14l-6-32c-2-13-1-30-1-48s2-34 4-46 5-22 8-28 7-8 11-7l-1 36c-3-1-5 1-7 5s-4 10-5 17a210 210 0 0 0 2 72c2 4 3 7 5 8 3 0 5-1 7-5l3-19a1614 1614 0 0 0 7-67l4-25c1-7 4-13 6-16 3-4 6-5 10-4s8 6 10 14c3 8 5 19 7 33l1 53zm-25-196c-2 0-4-1-6-4l-4-14a127 127 0 0 1 1-49c2-8 5-12 8-12 2 0 4 1 6 4s3 8 4 13l2 21-2 21c0 8-2 10-3 14-2 4-4 6-6 6zm20-264-65 125-2-40 46-84 10-18v-3l-12-6-51-31-1-39 73 48z"/>
      <path fill="#0035ff" d="m3474 2071-68 64-13-162 9-8 11 135-3-6 25-23-2 10-10-120 8-8 10 120-3-6 26-24-1 9-11-135 9-9zm-27-290a408 408 0 0 1 1 92c-2 14-5 26-8 37s-8 19-13 26-10 11-15 11c-5 1-9-2-13-7-4-6-8-15-11-26a423 423 0 0 1-7-142c2-13 5-24 10-32l4 34c-3 6-5 14-6 23-2 9-2 19-2 30a293 293 0 0 0 10 70c3 8 7 13 11 14 5 2 10-2 15-9 4-5 7-12 10-20l6-26a209 209 0 0 0 0-64c-2-15-4-27-7-35s-6-14-10-16-8 1-12 7l-3 2 3-15 9 81-7 10-12-104 5-7c4-6 9-9 13-10 4 0 8 3 12 9s7 15 10 26 5 25 7 41zm-14-113-74 43-7-44 49-192 5 33-11 44 15 93 17-10zm-31-16-13-78-15 59-10 39v1l15-9zm-3-189-57 141-8-35 24-214v-2l-19 49-26 66-6-28 57-142 7 34-24 213 1 1 17-45 27-68zm-65-282c3 13 6 26 7 41s3 29 3 44c0 14-2 29-4 44a250 250 0 0 1-21 70c-5 7-9 10-13 9-5 0-9-3-13-10a276 276 0 0 1-21-122c0-15 2-30 5-43l7 26a178 178 0 0 0-2 59l6 30c3 12 7 20 11 23 4 4 8 4 12-1 4-4 9-14 13-27a230 230 0 0 0 3-122c-3-9-5-16-8-20-3-5-6-7-9-6s-6 4-9 10l-7-26c4-11 8-16 13-18 4-2 9 1 14 7 4 7 9 17 13 32zm-31-103-44 187-9-22 20-84v7l-33-91 3-1-20 85-8-23 44-187 8 22-21 87v-7l33 91-2 1 20-87zm-60-159-37 205-42-89 5-26 35 73-4 3 14-75 1 11-31-65 4-25 31 65-3 3 14-79 1 11-35-74 5-27zm-77-151a198 198 0 0 1 18 66 348 348 0 0 1-3 95c-2 18-5 32-8 43s-7 20-11 25-9 8-13 7c-5-1-9-6-14-13a163 163 0 0 1-19-75c-1-15-1-31 1-47l9 15a212 212 0 0 0 5 58c2 8 4 15 8 21 4 7 9 9 13 8s7-7 11-17l9-40a389 389 0 0 0 2-71 110 110 0 0 0-12-47c-4-5-7-8-10-9-3 0-7 2-9 7s-5 10-7 19l-10-15c3-15 6-26 10-33 5-7 9-10 14-10s10 5 16 13zm-40-57-22 229-10-11 12-120-43 86-12-13 34-68-14-162 12 13 11 132 15-29 7-68zm-112-100c5 3 10 8 14 16s7 18 9 31l5 42a477 477 0 0 1-13 134c-3 10-7 16-12 19-4 4-9 4-14 1-6-3-11-9-15-18-5-9-8-21-10-34s-3-29-3-46l10 6a123 123 0 0 0 10 50c2 6 5 9 9 11 5 3 9 2 13-4 4-5 7-14 10-26a311 311 0 0 0 5-87l-4-32c-1-9-4-16-6-21-3-6-6-10-10-12s-8-1-12 3-7 11-9 22c-2 10-4 23-5 39v8l-3-15 26 13-2 27-32-17 1-18a287 287 0 0 1 12-75c3-8 8-13 12-16s9-3 14-1zm-46-16-1 240-33-2c-4 0-7-2-10-5s-5-8-7-13l-5-21a249 249 0 0 1 3-66c2-10 5-17 9-20v-2c-4-3-7-8-8-16-2-8-3-19-3-32v-53l-1-14 11 1a169 169 0 0 1 1 27v33l1 21 3 12c2 3 5 5 8 5l21 1 1-97zm-11 125-21-1c-5 0-9 4-11 12s-3 18-3 30c0 10 0 18 2 24l4 13c2 3 5 5 8 5l20 1zm-48-129-18 247-15 5-32-231 11-4 8 54 31-10 4-58zm-17 90-26 8 10 72 6 47h1l3-51zm-52-67 15 235-27 21c-7 5-13 4-18-2-5-7-10-17-13-33a480 480 0 0 1-5-151c2-12 4-22 8-31s8-14 13-18zm-8 38-16 12-9 12c-3 5-4 13-6 22l-2 31a601 601 0 0 0 6 86c3 12 6 19 10 23s8 4 12 1l16-12zm-61 18 23 227-47 55-3-29 39-46-1 10-9-83 3 4-34 41-3-27 34-41-1 10-9-87 3 5-39 46-3-30zm-79 101c6-9 11-14 16-14s8 4 12 12 5 18 7 32l-9 16c-2-9-3-17-5-21-2-5-5-8-8-8s-6 3-9 9c-5 7-8 16-10 26a97 97 0 0 0 3 47c1 3 2 5 4 6s4 0 6-1c3-1 6-4 9-7 4-4 7-6 11-7 3-2 6-2 8 0 3 2 5 5 7 11a207 207 0 0 1 1 94l-11 27c-4 8-10 12-14 12s-8-3-11-9c-3-7-6-16-8-29l10-16c1 9 3 15 5 19s4 5 7 5c2-1 5-3 7-8 3-4 5-9 7-15a94 94 0 0 0 2-38c-1-9-2-14-4-16-2-3-4-3-7-2l-11 9-9 7c-3 1-6 2-8 0-3-1-6-5-8-11l-6-27a204 204 0 0 1 4-73c3-11 7-21 12-30zm-36 173a120 120 0 0 1 1 40l-5 15c-3 6-6 8-9 6s-5-9-7-18a120 120 0 0 1 0-39l4-15c2-4 4-6 6-7s4 2 5 4c2 4 4 8 5 14z"/>
      <path fill="#fff" d="m2694 2125-16-388h25l8 249 2 59h1l8-60 38-248h27l-63 388zm70 0 24-388h80l-4 71h-62l7-20-8 126-4-19h54l-4 67h-54l6-19-7 130-5-19h62l-4 71zm150 5c-8 0-15-4-22-13-6-9-11-21-15-36-4-16-7-35-10-57a712 712 0 0 1 3-164c3-27 7-50 13-68 5-19 12-34 19-44 8-11 16-16 25-16 10 0 18 6 25 17s12 27 16 47c4 21 6 44 6 71l-24 1c0-14-1-25-4-35-2-10-4-17-8-23-3-6-7-8-12-8-7 0-14 6-19 18-5 13-10 30-13 52a622 622 0 0 0 2 162c2 9 5 16 9 20 3 5 7 7 11 7 6 0 11-3 15-10s8-17 10-31c3-14 5-30 6-50v-11l4 14h-33l4-55h53l-3 44a522 522 0 0 1-21 129c-5 13-10 23-17 30s-13 9-20 9zm53-5 60-388h29l15 388h-23l-3-80h-42l-12 80zm45-143h32l-5-116-1-47h-1l-7 46zm65 143 23-388h28l30 270h1l5-116 10-154h23l-23 388h-28l-29-268h-1l-6 112-9 156zm-367 537c-8 0-15-4-22-13-6-9-12-21-16-37s-7-34-10-57a668 668 0 0 1 3-163c3-26 7-49 12-68s12-34 19-44c8-10 16-16 25-16s18 7 25 18 13 29 17 49c4 21 6 45 7 73h-24l-4-37c-2-11-5-19-9-25s-8-8-13-8c-7 0-13 6-18 19-6 12-10 30-13 52a721 721 0 0 0-3 126c1 14 3 25 5 34s5 16 8 20c3 5 6 7 10 8 5 0 10-3 14-8 4-6 7-13 10-24 3-10 5-23 6-37h24c-1 28-5 53-9 73-5 21-12 37-19 48s-16 17-25 17zm62-5 24-388h24l-11 174-4-18h62l-7 18 11-174h24l-24 388h-24l11-179 5 18h-63l7-18-11 179zm123 0 23-388h80l-4 71h-62l7-19-7 125-5-18h54l-4 66h-54l7-19-8 130-4-19h61l-4 71zm151 5c-9 0-16-4-22-13-7-9-12-21-17-37a668 668 0 0 1-7-220c3-26 7-49 13-68s12-34 19-44 15-16 24-16c10 0 18 7 25 18s14 29 18 49c4 21 6 45 6 73h-24c0-14-2-26-4-37s-5-19-9-25-8-8-12-8c-8 0-14 6-19 19-5 12-9 30-12 52a721 721 0 0 0-4 126c1 14 3 25 5 34s5 16 8 20c3 5 7 7 11 8 5 0 9-3 13-8 4-6 8-13 10-24 3-10 5-23 6-37h25c-2 28-5 53-10 73-5 21-11 37-18 48-8 11-16 17-25 17zm62-5 23-388h24l-10 172 52-172h30l-51 163 29 225h-26l-21-169-20 59-6 110zm-442 537c-9 0-16-4-22-12-6-9-11-22-15-37-5-16-8-35-10-57a712 712 0 0 1 3-164c3-26 7-49 13-68 5-19 12-34 19-44 8-10 16-16 25-16s18 6 24 17c7 12 13 28 17 48s6 43 6 70l-24 1-4-35c-2-10-5-17-8-23-3-5-7-8-12-8-7 0-14 6-19 18-6 13-10 30-13 52a622 622 0 0 0 2 162c2 9 5 16 8 20 4 5 7 7 11 7 6 0 12-3 16-10s7-17 10-31 4-30 5-50l1-11 4 14h-33l3-55h53l-2 44a680 680 0 0 1-21 129c-5 13-11 23-17 30s-13 9-20 9zm68-5 23-388h51c7 0 12 3 16 8 5 4 8 11 11 20s5 20 7 32a381 381 0 0 1-5 109c-4 19-10 32-18 40v4c4 3 8 12 10 26 2 13 2 30 1 50l-4 61a546 546 0 0 0-1 38h-24v-15l1-19 3-58 1-31c-1-8-2-14-4-17s-5-6-8-6h-28l-9 146zm36-207h28c6 0 11-6 15-17 4-12 5-28 6-47l-2-27c-1-8-3-13-5-17s-6-6-10-6h-25zm60 207 61-388h29l15 388h-23l-3-80h-42l-13 80zm46-143h31l-4-116-2-46h-1l-6 45zm64 143 24-388h42c10 0 18 7 25 20 6 14 12 33 15 57a874 874 0 0 1-14 250c-5 19-12 35-19 45s-17 16-26 16zm28-69h19c6 0 11-4 16-11 5-6 9-16 12-29s6-29 8-48 3-40 3-64c0-22-1-40-3-55s-5-25-9-32-8-11-13-11h-18zm87 69 24-388h80l-5 71h-61l6-19-7 125-5-18h55l-4 66h-55l7-19-8 130-4-19h62l-4 71zm141 5c-9 0-18-5-24-15-7-11-12-26-15-45s-5-42-4-68h24a122 122 0 0 0 9 56c3 5 7 8 11 8 6 0 11-5 15-14s5-22 5-38a117 117 0 0 0-3-31c-2-4-3-7-6-10l-8-9a100 100 0 0 1-28-43c-3-8-5-18-6-29a425 425 0 0 1 5-105c4-17 9-31 16-41 7-9 14-14 23-14s15 5 21 15 11 24 14 42 5 39 4 62h-24c0-11 0-21-2-29s-3-15-6-19c-2-5-5-7-9-7s-7 2-9 6c-3 4-5 9-6 16a117 117 0 0 0-1 45l6 15c2 4 7 8 11 12 7 5 12 11 17 17a131 131 0 0 1 16 54 416 416 0 0 1-5 109c-4 19-9 34-16 44-7 11-16 16-25 16z"/>
    </g>
  </g>
</svg>
