<svg clip-rule="evenodd" fill-rule="evenodd" stroke-linejoin="round" stroke-miterlimit="2" viewBox="0 0 889 677" xmlns="http://www.w3.org/2000/svg"><g transform="matrix(.46301 0 0 .135297 -912.13 0)"><path d="m1970 0h1920v5000h-1920z" fill="none"/><circle cx="2398.35" cy="433.076" fill="#f6e6d5" r="295.024" transform="matrix(2.45853 0 0 8.41352 -2966.4 -1143.69)"/><g fill-rule="nonzero"><path d="m.271 0-.266-.729h.122l.176.507.038.119h.007l.039-.118.177-.508h.12l-.265.729z" fill="#0035ff" transform="matrix(-75.57550425485 204.38963951341 -59.72503001945 -258.63277198291 2610.88763962097 932.32894539235)"/><path d="m.088 0v-.729h.511v.094h-.426l.024-.024v.267l-.024-.024h.377v.088h-.377l.024-.024v.281l-.024-.024h.427v.095z" fill="#0035ff" transform="matrix(-68.64319748306 231.26529036182 -67.5784078009 -234.90918939748 2562.73156729685 1061.36307340988)"/><path d="m.396.009c-.055 0-.104-.009-.148-.027s-.082-.043-.113-.076-.055-.072-.071-.118-.024-.097-.024-.152c0-.058.008-.11.026-.156.017-.046.041-.085.073-.117.032-.033.07-.058.114-.075.045-.017.094-.025.147-.025.062 0 .117.01.164.031.048.021.086.05.115.087s.047.081.053.132h-.112c-.006-.034-.019-.062-.04-.085-.02-.023-.046-.04-.077-.052-.03-.012-.065-.018-.103-.018-.05 0-.094.01-.131.032-.038.022-.067.053-.087.094-.021.042-.031.092-.031.151 0 .044.006.084.017.119.012.035.028.064.05.088.022.025.048.043.078.055.03.013.064.019.102.019.048 0 .09-.009.126-.027s.064-.045.083-.08c.02-.034.03-.076.03-.124v-.024l.036.04h-.268v-.081h.343v.053c0 .051-.009.098-.025.139-.017.042-.041.077-.072.106s-.068.052-.111.067c-.043.016-.091.024-.144.024z" fill="#0035ff" transform="matrix(-60.52559696792 256.44392725731 -74.93589836653 -207.1293215186 2520.04600976695 1201.88765310299)"/><path d="m.003 0 .259-.729h.153l.259.729h-.114l-.06-.17h-.323l-.06.17zm.2-.255h.27l-.08-.225-.051-.149h-.006l-.051.149z" fill="#0035ff" transform="matrix(-50.93160496931 279.79731818207 -81.7600308292 -174.29698027989 2473.82002161959 1398.86733784562)"/><path d="m.088 0v-.729h.134l.377.584h.007l-.006-.244v-.34h.106v.729h-.128l-.377-.577h-.006l.004.227v.35z" fill="#0035ff" transform="matrix(-40.85733059733 298.52314852581 -87.23193626473 -139.82102762524 2441.19915299303 1574.15780839996)"/><path d="m.397.009c-.054 0-.102-.009-.146-.026s-.082-.042-.113-.075c-.032-.032-.056-.071-.073-.117s-.025-.098-.025-.155c0-.058.008-.11.025-.156s.041-.085.073-.117c.032-.033.07-.058.113-.075.044-.017.092-.025.146-.025.06 0 .114.01.161.031s.085.05.115.088c.03.037.048.082.055.133h-.11c-.007-.031-.02-.058-.04-.082s-.045-.042-.075-.056c-.031-.013-.066-.02-.106-.02-.05 0-.094.011-.13.033-.037.022-.065.053-.085.095-.02.041-.03.092-.03.151 0 .044.006.083.017.118.012.035.028.064.049.088.021.023.047.041.077.054.03.012.064.019.102.019.039 0 .074-.007.105-.02.031-.014.057-.033.077-.057s.033-.052.039-.085l.11.001c-.006.051-.024.096-.053.134-.03.039-.069.068-.116.089-.048.021-.102.032-.162.032z" fill="#0035ff" transform="matrix(-28.84593658467 314.51753799661 -91.90568290649 -98.71590818869 2409.18005596307 1808.10360900134)"/><path d="m.088 0v-.729h.109v.328l-.016-.016h.44l-.016.016v-.328h.109v.729h-.109v-.338l.016.016h-.44l.016-.016v.338z" fill="#0035ff" transform="matrix(-16.24887934897 324.9214729943 -94.94583372596 -55.60654538894 2387.17324824759 2046.12254470038)"/><path d="m.088 0v-.729h.511v.094h-.426l.024-.024v.267l-.024-.024h.377v.088h-.377l.024-.024v.281l-.024-.024h.427v.095z" fill="#0035ff" transform="matrix(-4.19746180519 329.3321269745 -96.2346781214 -14.3644583344 2374.6280850524 2302.2183441067)"/><path d="m.397.009c-.054 0-.102-.009-.146-.026s-.082-.042-.113-.075c-.032-.032-.056-.071-.073-.117s-.025-.098-.025-.155c0-.058.008-.11.025-.156s.041-.085.073-.117c.032-.033.07-.058.113-.075.044-.017.092-.025.146-.025.06 0 .114.01.161.031s.085.05.115.088c.03.037.048.082.055.133h-.11c-.007-.031-.02-.058-.04-.082s-.045-.042-.075-.056c-.031-.013-.066-.02-.106-.02-.05 0-.094.011-.13.033-.037.022-.065.053-.085.095-.02.041-.03.092-.03.151 0 .044.006.083.017.118.012.035.028.064.049.088.021.023.047.041.077.054.03.012.064.019.102.019.039 0 .074-.007.105-.02.031-.014.057-.033.077-.057s.033-.052.039-.085l.11.001c-.006.051-.024.096-.053.134-.03.039-.069.068-.116.089-.048.021-.102.032-.162.032z" fill="#0035ff" transform="matrix(6.51982840216 328.88941335003 -96.10531205092 22.31200848912 2371.43828570238 2504.46486670968)"/><path d="m.088 0v-.729h.109v.382l.346-.382h.132l-.281.303.286.426h-.129l-.231-.347-.123.13v.217z" fill="#0035ff" transform="matrix(18.99841405924 323.17006756853 -94.43405268912 65.0159405467 2376.30734555895 2753.47610279483)"/><path d="m.396.009c-.055 0-.104-.009-.148-.027s-.082-.043-.113-.076-.055-.072-.071-.118-.024-.097-.024-.152c0-.058.008-.11.026-.156.017-.046.041-.085.073-.117.032-.033.07-.058.114-.075.045-.017.094-.025.147-.025.062 0 .117.01.164.031.048.021.086.05.115.087s.047.081.053.132h-.112c-.006-.034-.019-.062-.04-.085-.02-.023-.046-.04-.077-.052-.03-.012-.065-.018-.103-.018-.05 0-.094.01-.131.032-.038.022-.067.053-.087.094-.021.042-.031.092-.031.151 0 .044.006.084.017.119.012.035.028.064.05.088.022.025.048.043.078.055.03.013.064.019.102.019.048 0 .09-.009.126-.027s.064-.045.083-.08c.02-.034.03-.076.03-.124v-.024l.036.04h-.268v-.081h.343v.053c0 .051-.009.098-.025.139-.017.042-.041.077-.072.106s-.068.052-.111.067c-.043.016-.091.024-.144.024z" fill="#0035ff" transform="matrix(33.56062185633 308.99103470976 -90.29077436467 114.85039690774 2394.15679276323 3042.07432896418)"/><path d="m.088 0v-.729h.34c.04 0 .075.004.105.013s.056.022.076.039c.02.018.035.039.045.063.01.025.016.054.016.086 0 .044-.012.081-.034.113-.022.031-.054.052-.095.063v.007c.04.007.068.022.086.046.017.024.026.056.026.098v.122c0 .012 0 .025.001.038s.005.027.011.041h-.11c-.004-.01-.007-.022-.009-.035-.002-.014-.002-.029-.002-.046v-.101c0-.025-.004-.046-.011-.063-.008-.016-.02-.029-.039-.037-.019-.009-.045-.013-.08-.013h-.217v.295zm.109-.383h.216c.052 0 .09-.013.112-.037s.033-.056.033-.094c0-.029-.006-.053-.018-.071s-.029-.031-.051-.04c-.021-.008-.047-.012-.076-.012h-.216z" fill="#0035ff" transform="matrix(45.32532450152 290.87208134491 -84.99620544125 155.1112947566 2420.68003390715 3285.26543745339)"/><path d="m.003 0 .259-.729h.153l.259.729h-.114l-.06-.17h-.323l-.06.17zm.2-.255h.27l-.08-.225-.051-.149h-.006l-.051.149z" fill="#0035ff" transform="matrix(54.65335989506 271.44905121282 -79.3205701181 187.03348534962 2452.23849343235 3488.48001370584)"/><path d="m.088 0v-.729h.295c.07 0 .13.015.179.045.049.031.086.073.112.128s.039.119.039.192c0 .054-.007.104-.022.149s-.036.083-.064.115c-.029.032-.063.057-.104.074s-.088.026-.14.026zm.109-.094h.17c.035 0 .067-.006.096-.017s.053-.027.074-.05c.021-.022.037-.051.048-.085s.016-.074.016-.12c0-.062-.01-.113-.029-.152-.02-.04-.047-.069-.082-.088-.035-.02-.076-.029-.123-.029h-.17z" fill="#0035ff" transform="matrix(63.69521018406 247.2900071993 -72.26101645196 217.97629978605 2486.27861411546 3661.23407924261)"/><path d="m.088 0v-.729h.511v.094h-.426l.024-.024v.267l-.024-.024h.377v.088h-.377l.024-.024v.281l-.024-.024h.427v.095z" fill="#0035ff" transform="matrix(71.71263146368 220.08701857792 -64.31198676582 245.41333656333 2533.43127868125 3844.43861541833)"/><path d="m.332.009c-.065 0-.118-.01-.161-.03s-.075-.048-.096-.084-.032-.076-.033-.123h.112c.001.031.007.058.02.08.013.023.033.041.059.053s.06.018.101.018c.051 0 .092-.009.123-.028s.047-.048.047-.086c0-.022-.004-.04-.01-.055-.007-.014-.018-.026-.033-.036s-.035-.018-.059-.025c-.025-.007-.055-.013-.09-.019-.042-.007-.079-.016-.11-.027-.032-.01-.058-.023-.079-.039-.022-.015-.037-.034-.048-.057-.011-.022-.016-.049-.016-.08 0-.043.011-.08.032-.111.022-.031.052-.055.092-.072s.088-.025.144-.025.104.008.143.026.07.043.091.075c.021.031.032.069.033.112h-.111c-.001-.029-.008-.053-.022-.073-.014-.019-.032-.033-.056-.042-.023-.01-.051-.014-.082-.014-.032 0-.059.004-.082.013-.022.009-.039.022-.051.038-.012.017-.018.036-.018.058 0 .027.006.048.019.062.013.015.034.026.063.035.029.008.067.016.113.025.033.005.064.012.093.02.03.008.057.02.08.036.024.015.043.036.056.062.014.027.021.061.021.103 0 .041-.011.078-.033.11-.021.031-.053.056-.095.073-.043.018-.095.027-.157.027z" fill="#0035ff" transform="matrix(78.05108728645 193.18664433276 -56.45138452027 267.10465593591 2578.14835651173 3982.79036755483)"/><path d="m.051-.277c0-.023.006-.043.016-.061.011-.018.025-.032.043-.043.018-.01.039-.015.062-.015.036 0 .065.011.087.034.022.022.033.051.033.085 0 .022-.005.043-.015.061-.01.017-.024.032-.042.042s-.039.015-.063.015c-.023 0-.044-.005-.062-.015s-.032-.025-.043-.042c-.01-.018-.016-.039-.016-.061z" fill="#0035ff" transform="matrix(84.4932864137 158.29632754858 -46.25602812998 289.15100328582 2648.44686290614 4147.05570986678)"/><path d="m.271 0-.266-.729h.122l.176.507.038.119h.007l.039-.118.177-.508h.12l-.265.729z" fill="#0035ff" transform="matrix(89.76387011631 119.58970724207 -34.9455034612 307.18787497346 2697.132512269 4236.87717329106)"/><path d="m.088 0v-.729h.511v.094h-.426l.024-.024v.267l-.024-.024h.377v.088h-.377l.024-.024v.281l-.024-.024h.427v.095z" fill="#0035ff" transform="matrix(93.07286732649 84.94794300655 -24.82277701666 318.51184997554 2754.14710047737 4313.87554132256)"/><path d="m.396.009c-.055 0-.104-.009-.148-.027s-.082-.043-.113-.076-.055-.072-.071-.118-.024-.097-.024-.152c0-.058.008-.11.026-.156.017-.046.041-.085.073-.117.032-.033.07-.058.114-.075.045-.017.094-.025.147-.025.062 0 .117.01.164.031.048.021.086.05.115.087s.047.081.053.132h-.112c-.006-.034-.019-.062-.04-.085-.02-.023-.046-.04-.077-.052-.03-.012-.065-.018-.103-.018-.05 0-.094.01-.131.032-.038.022-.067.053-.087.094-.021.042-.031.092-.031.151 0 .044.006.084.017.119.012.035.028.064.05.088.022.025.048.043.078.055.03.013.064.019.102.019.048 0 .09-.009.126-.027s.064-.045.083-.08c.02-.034.03-.076.03-.124v-.024l.036.04h-.268v-.081h.343v.053c0 .051-.009.098-.025.139-.017.042-.041.077-.072.106s-.068.052-.111.067c-.043.016-.091.024-.144.024z" fill="#0035ff" transform="matrix(95.3083091714 47.79592988768 -13.9665266505 326.16192822057 2811.1018085995 4368.28715261723)"/><path d="m.003 0 .259-.729h.153l.259.729h-.114l-.06-.17h-.323l-.06.17zm.2-.255h.27l-.08-.225-.051-.149h-.006l-.051.149z" fill="#0035ff" transform="matrix(96.29989095068 7.70806285154 -2.25238562139 329.55529683583 2884.16740119566 4404.19720718688)"/><path d="m.088 0v-.729h.134l.377.584h.007l-.006-.244v-.34h.106v.729h-.128l-.377-.577h-.006l.004.227v.35z" fill="#0035ff" transform="matrix(95.89888503003 -31.01586383269 9.06319617226 328.18298349356 2944.92137064986 4411.11087836449)"/><path d="m.397.009c-.054 0-.102-.009-.146-.026s-.082-.042-.113-.075c-.032-.032-.056-.071-.073-.117s-.025-.098-.025-.155c0-.058.008-.11.025-.156s.041-.085.073-.117c.032-.033.07-.058.113-.075.044-.017.092-.025.146-.025.06 0 .114.01.161.031s.085.05.115.088c.03.037.048.082.055.133h-.11c-.007-.031-.02-.058-.04-.082s-.045-.042-.075-.056c-.031-.013-.066-.02-.106-.02-.05 0-.094.011-.13.033-.037.022-.065.053-.085.095-.02.041-.03.092-.03.151 0 .044.006.083.017.118.012.035.028.064.049.088.021.023.047.041.077.054.03.012.064.019.102.019.039 0 .074-.007.105-.02.031-.014.057-.033.077-.057s.033-.052.039-.085l.11.001c-.006.051-.024.096-.053.134-.03.039-.069.068-.116.089-.048.021-.102.032-.162.032z" fill="#0035ff" transform="matrix(93.84444009237 -74.34457260841 21.72434885345 321.15230874844 3019.97115325297 4386.83393313568)"/><path d="m.088 0v-.729h.109v.328l-.016-.016h.44l-.016.016v-.328h.109v.729h-.109v-.338l.016.016h-.44l.016-.016v.338z" fill="#0035ff" transform="matrix(90.08242082003 -116.7504723593 34.11584600396 308.27801194749 3090.98755002954 4331.24825986653)"/><path d="m.088 0v-.729h.511v.094h-.426l.024-.024v.267l-.024-.024h.377v.088h-.377l.024-.024v.281l-.024-.024h.427v.095z" fill="#0035ff" transform="matrix(85.03049756418 -154.89076205759 45.26088228175 290.98943506815 3162.02105191166 4238.16787611237)"/><path d="m.397.009c-.054 0-.102-.009-.146-.026s-.082-.042-.113-.075c-.032-.032-.056-.071-.073-.117s-.025-.098-.025-.155c0-.058.008-.11.025-.156s.041-.085.073-.117c.032-.033.07-.058.113-.075.044-.017.092-.025.146-.025.06 0 .114.01.161.031s.085.05.115.088c.03.037.048.082.055.133h-.11c-.007-.031-.02-.058-.04-.082s-.045-.042-.075-.056c-.031-.013-.066-.02-.106-.02-.05 0-.094.011-.13.033-.037.022-.065.053-.085.095-.02.041-.03.092-.03.151 0 .044.006.083.017.118.012.035.028.064.049.088.021.023.047.041.077.054.03.012.064.019.102.019.039 0 .074-.007.105-.02.031-.014.057-.033.077-.057s.033-.052.039-.085l.11.001c-.006.051-.024.096-.053.134-.03.039-.069.068-.116.089-.048.021-.102.032-.162.032z" fill="#0035ff" transform="matrix(79.4024473779 -186.62604377118 54.5343007267 271.72924970932 3214.50400185336 4144.97446384726)"/><path d="m.088 0v-.729h.109v.382l.346-.382h.132l-.281.303.286.426h-.129l-.231-.347-.123.13v.217z" fill="#0035ff" transform="matrix(71.66475734824 -220.26964206858 64.36535147398 245.2495028542 3274.65201567586 4003.88667518335)"/><path d="m.396.009c-.055 0-.104-.009-.148-.027s-.082-.043-.113-.076-.055-.072-.071-.118-.024-.097-.024-.152c0-.058.008-.11.026-.156.017-.046.041-.085.073-.117.032-.033.07-.058.114-.075.045-.017.094-.025.147-.025.062 0 .117.01.164.031.048.021.086.05.115.087s.047.081.053.132h-.112c-.006-.034-.019-.062-.04-.085-.02-.023-.046-.04-.077-.052-.03-.012-.065-.018-.103-.018-.05 0-.094.01-.131.032-.038.022-.067.053-.087.094-.021.042-.031.092-.031.151 0 .044.006.084.017.119.012.035.028.064.05.088.022.025.048.043.078.055.03.013.064.019.102.019.048 0 .09-.009.126-.027s.064-.045.083-.08c.02-.034.03-.076.03-.124v-.024l.036.04h-.268v-.081h.343v.053c0 .051-.009.098-.025.139-.017.042-.041.077-.072.106s-.068.052-.111.067c-.043.016-.091.024-.144.024z" fill="#0035ff" transform="matrix(60.8605231236 -255.51399789422 74.66416219018 208.27549819193 3338.2365764386 3804.37395991181)"/><path d="m.088 0v-.729h.34c.04 0 .075.004.105.013s.056.022.076.039c.02.018.035.039.045.063.01.025.016.054.016.086 0 .044-.012.081-.034.113-.022.031-.054.052-.095.063v.007c.04.007.068.022.086.046.017.024.026.056.026.098v.122c0 .012 0 .025.001.038s.005.027.011.041h-.11c-.004-.01-.007-.022-.009-.035-.002-.014-.002-.029-.002-.046v-.101c0-.025-.004-.046-.011-.063-.008-.016-.02-.029-.039-.037-.019-.009-.045-.013-.08-.013h-.217v.295zm.109-.383h.216c.052 0 .09-.013.112-.037s.033-.056.033-.094c0-.029-.006-.053-.018-.071s-.029-.031-.051-.04c-.021-.008-.047-.012-.076-.012h-.216z" fill="#0035ff" transform="matrix(50.43822223437 -280.84229375137 82.06538484516 172.60853710451 3386.06064941131 3603.11457227784)"/><path d="m.003 0 .259-.729h.153l.259.729h-.114l-.06-.17h-.323l-.06.17zm.2-.255h.27l-.08-.225-.051-.149h-.006l-.051.149z" fill="#0035ff" transform="matrix(40.79076920142 -298.62962395448 87.26304962346 139.59324272985 3421.39521658554 3407.10569499117)"/><path d="m.088 0v-.729h.295c.07 0 .13.015.179.045.049.031.086.073.112.128s.039.119.039.192c0 .054-.007.104-.022.149s-.036.083-.064.115c-.029.032-.063.057-.104.074s-.088.026-.14.026zm.109-.094h.17c.035 0 .067-.006.096-.017s.053-.027.074-.05c.021-.022.037-.051.048-.085s.016-.074.016-.12c0-.062-.01-.113-.029-.152-.02-.04-.047-.069-.082-.088-.035-.02-.076-.029-.123-.029h-.17z" fill="#0035ff" transform="matrix(30.01735935694 -313.23093242974 91.52972179473 102.72472456038 3447.69970820473 3219.59341925221)"/><path d="m.088 0v-.729h.511v.094h-.426l.024-.024v.267l-.024-.024h.377v.088h-.377l.024-.024v.281l-.024-.024h.427v.095z" fill="#0035ff" transform="matrix(18.92443554686 -323.22083294319 94.44888692207 64.76277296398 3469.96561868375 2987.46958139143)"/><path d="m.332.009c-.065 0-.118-.01-.161-.03s-.075-.048-.096-.084-.032-.076-.033-.123h.112c.001.031.007.058.02.08.013.023.033.041.059.053s.06.018.101.018c.051 0 .092-.009.123-.028s.047-.048.047-.086c0-.022-.004-.04-.01-.055-.007-.014-.018-.026-.033-.036s-.035-.018-.059-.025c-.025-.007-.055-.013-.09-.019-.042-.007-.079-.016-.11-.027-.032-.01-.058-.023-.079-.039-.022-.015-.037-.034-.048-.057-.011-.022-.016-.049-.016-.08 0-.043.011-.08.032-.111.022-.031.052-.055.092-.072s.088-.025.144-.025.104.008.143.026.07.043.091.075c.021.031.032.069.033.112h-.111c-.001-.029-.008-.053-.022-.073-.014-.019-.032-.033-.056-.042-.023-.01-.051-.014-.082-.014-.032 0-.059.004-.082.013-.022.009-.039.022-.051.038-.012.017-.018.036-.018.058 0 .027.006.048.019.062.013.015.034.026.063.035.029.008.067.016.113.025.033.005.064.012.093.02.03.008.057.02.08.036.024.015.043.036.056.062.014.027.021.061.021.103 0 .041-.011.078-.033.11-.021.031-.053.056-.095.073-.043.018-.095.027-.157.027z" fill="#0035ff" transform="matrix(8.85476556666 -328.24957184214 95.91834292001 30.30257735419 3482.04523815529 2785.44605202495)"/><path d="m.051-.277c0-.023.006-.043.016-.061.011-.018.025-.032.043-.043.018-.01.039-.015.062-.015.036 0 .065.011.087.034.022.022.033.051.033.085 0 .022-.005.043-.015.061-.01.017-.024.032-.042.042s-.039.015-.063.015c-.023 0-.044-.005-.062-.015s-.032-.025-.043-.042c-.01-.018-.016-.039-.016-.061z" fill="#0035ff" transform="matrix(-3.05358832269 -329.47947841913 96.27773592744 -10.44992051564 3487.58220573873 2495.10145482962)"/><path d="m.271 0-.266-.729h.122l.176.507.038.119h.007l.039-.118.177-.508h.12l-.265.729z" fill="#0035ff" transform="matrix(-15.40852968486 -325.40044760067 95.08579567712 -52.73071987898 3485.45569409138 2305.23976198238)"/><path d="m.088 0v-.729h.511v.094h-.426l.024-.024v.267l-.024-.024h.377v.088h-.377l.024-.024v.281l-.024-.024h.427v.095z" fill="#0035ff" transform="matrix(-25.76292061154 -317.6363120853 92.81702497116 -88.16528103695 3475.97854973064 2098.81711155999)"/><path d="m.396.009c-.055 0-.104-.009-.148-.027s-.082-.043-.113-.076-.055-.072-.071-.118-.024-.097-.024-.152c0-.058.008-.11.026-.156.017-.046.041-.085.073-.117.032-.033.07-.058.114-.075.045-.017.094-.025.147-.025.062 0 .117.01.164.031.048.021.086.05.115.087s.047.081.053.132h-.112c-.006-.034-.019-.062-.04-.085-.02-.023-.046-.04-.077-.052-.03-.012-.065-.018-.103-.018-.05 0-.094.01-.131.032-.038.022-.067.053-.087.094-.021.042-.031.092-.031.151 0 .044.006.084.017.119.012.035.028.064.05.088.022.025.048.043.078.055.03.013.064.019.102.019.048 0 .09-.009.126-.027s.064-.045.083-.08c.02-.034.03-.076.03-.124v-.024l.036.04h-.268v-.081h.343v.053c0 .051-.009.098-.025.139-.017.042-.041.077-.072.106s-.068.052-.111.067c-.043.016-.091.024-.144.024z" fill="#0035ff" transform="matrix(-36.28540073628 -305.36295864802 89.23060833954 -124.17507322597 3460.82017411078 1902.91572259997)"/><path d="m.003 0 .259-.729h.153l.259.729h-.114l-.06-.17h-.323l-.06.17zm.2-.255h.27l-.08-.225-.051-.149h-.006l-.051.149z" fill="#0035ff" transform="matrix(-46.98945572541 -287.76286696963 84.08765683604 -160.80624678664 3432.77555131354 1668.95619457091)"/><path d="m.088 0v-.729h.134l.377.584h.007l-.006-.244v-.34h.106v.729h-.128l-.377-.577h-.006l.004.227v.35z" fill="#0035ff" transform="matrix(-56.61196027567 -266.70644442559 77.93472525135 -193.73616303119 3403.69536243506 1486.57192859915)"/><path d="m.397.009c-.054 0-.102-.009-.146-.026s-.082-.042-.113-.075c-.032-.032-.056-.071-.073-.117s-.025-.098-.025-.155c0-.058.008-.11.025-.156s.041-.085.073-.117c.032-.033.07-.058.113-.075.044-.017.092-.025.146-.025.06 0 .114.01.161.031s.085.05.115.088c.03.037.048.082.055.133h-.11c-.007-.031-.02-.058-.04-.082s-.045-.042-.075-.056c-.031-.013-.066-.02-.106-.02-.05 0-.094.011-.13.033-.037.022-.065.053-.085.095-.02.041-.03.092-.03.151 0 .044.006.083.017.118.012.035.028.064.049.088.021.023.047.041.077.054.03.012.064.019.102.019.039 0 .074-.007.105-.02.031-.014.057-.033.077-.057s.033-.052.039-.085l.11.001c-.006.051-.024.096-.053.134-.03.039-.069.068-.116.089-.048.021-.102.032-.162.032z" fill="#0035ff" transform="matrix(-66.39321038375 -238.83427586551 69.79015340357 -227.20933471366 3359.30189234029 1277.60342460129)"/><path d="m.088 0v-.729h.109v.328l-.016-.016h.44l-.016.016v-.328h.109v.729h-.109v-.338l.016.016h-.44l.016-.016v.338z" fill="#0035ff" transform="matrix(-75.03742616868 -206.69847512457 60.3996986402 -256.79137339297 3309.20121909411 1096.46871870305)"/><path d="m.088 0v-.729h.511v.094h-.426l.024-.024v.267l-.024-.024h.377v.088h-.377l.024-.024v.281l-.024-.024h.427v.095z" fill="#0035ff" transform="matrix(-82.0273360009 -172.8198397354 50.49996732088 -280.71208386182 3249.84836371412 934.08529461792)"/><path d="m.397.009c-.054 0-.102-.009-.146-.026s-.082-.042-.113-.075c-.032-.032-.056-.071-.073-.117s-.025-.098-.025-.155c0-.058.008-.11.025-.156s.041-.085.073-.117c.032-.033.07-.058.113-.075.044-.017.092-.025.146-.025.06 0 .114.01.161.031s.085.05.115.088c.03.037.048.082.055.133h-.11c-.007-.031-.02-.058-.04-.082s-.045-.042-.075-.056c-.031-.013-.066-.02-.106-.02-.05 0-.094.011-.13.033-.037.022-.065.053-.085.095-.02.041-.03.092-.03.151 0 .044.006.083.017.118.012.035.028.064.049.088.021.023.047.041.077.054.03.012.064.019.102.019.039 0 .074-.007.105-.02.031-.014.057-.033.077-.057s.033-.052.039-.085l.11.001c-.006.051-.024.096-.053.134-.03.039-.069.068-.116.089-.048.021-.102.032-.162.032z" fill="#0035ff" transform="matrix(-87.19302048478 -140.10518186522 40.94036377138 -298.38997182865 3199.86838968684 826.3260357357)"/><path d="m.088 0v-.729h.109v.382l.346-.382h.132l-.281.303.286.426h-.129l-.231-.347-.123.13v.217z" fill="#0035ff" transform="matrix(-91.81581057309 -99.68968037535 29.13048414402 -314.20997894104 3133.79839183146 719.86449816301)"/><path d="m.396.009c-.055 0-.104-.009-.148-.027s-.082-.043-.113-.076-.055-.072-.071-.118-.024-.097-.024-.152c0-.058.008-.11.026-.156.017-.046.041-.085.073-.117.032-.033.07-.058.114-.075.045-.017.094-.025.147-.025.062 0 .117.01.164.031.048.021.086.05.115.087s.047.081.053.132h-.112c-.006-.034-.019-.062-.04-.085-.02-.023-.046-.04-.077-.052-.03-.012-.065-.018-.103-.018-.05 0-.094.01-.131.032-.038.022-.067.053-.087.094-.021.042-.031.092-.031.151 0 .044.006.084.017.119.012.035.028.064.05.088.022.025.048.043.078.055.03.013.064.019.102.019.048 0 .09-.009.126-.027s.064-.045.083-.08c.02-.034.03-.076.03-.124v-.024l.036.04h-.268v-.081h.343v.053c0 .051-.009.098-.025.139-.017.042-.041.077-.072.106s-.068.052-.111.067c-.043.016-.091.024-.144.024z" fill="#0035ff" transform="matrix(-95.24126614456 -49.33570303727 14.41646627464 -325.93249509873 3051.46676535722 633.64453205507)"/><path d="m.088 0v-.729h.34c.04 0 .075.004.105.013s.056.022.076.039c.02.018.035.039.045.063.01.025.016.054.016.086 0 .044-.012.081-.034.113-.022.031-.054.052-.095.063v.007c.04.007.068.022.086.046.017.024.026.056.026.098v.122c0 .012 0 .025.001.038s.005.027.011.041h-.11c-.004-.01-.007-.022-.009-.035-.002-.014-.002-.029-.002-.046v-.101c0-.025-.004-.046-.011-.063-.008-.016-.02-.029-.039-.037-.019-.009-.045-.013-.08-.013h-.217v.295zm.109-.383h.216c.052 0 .09-.013.112-.037s.033-.056.033-.094c0-.029-.006-.053-.018-.071s-.029-.031-.051-.04c-.021-.008-.047-.012-.076-.012h-.216z" fill="#0035ff" transform="matrix(-96.31116111467 -5.81421769596 1.69898203871 -329.59386533476 2976.5111242482 595.17723844944)"/><path d="m.003 0 .259-.729h.153l.259.729h-.114l-.06-.17h-.323l-.06.17zm.2-.255h.27l-.08-.225-.051-.149h-.006l-.051.149z" fill="#0035ff" transform="matrix(-95.89166056593 31.27516281781 -9.13896635174 -328.15826009681 2909.00880954714 590.7507785541)"/><path d="m.088 0v-.729h.295c.07 0 .13.015.179.045.049.031.086.073.112.128s.039.119.039.192c0 .054-.007.104-.022.149s-.036.083-.064.115c-.029.032-.063.057-.104.074s-.088.026-.14.026zm.109-.094h.17c.035 0 .067-.006.096-.017s.053-.027.074-.05c.021-.022.037-.051.048-.085s.016-.074.016-.12c0-.062-.01-.113-.029-.152-.02-.04-.047-.069-.082-.088-.035-.02-.076-.029-.123-.029h-.17z" fill="#0035ff" transform="matrix(-94.11694687822 70.19532734318 -20.5118911251 -322.08487527385 2848.64687453756 608.24237997633)"/><path d="m.088 0v-.729h.511v.094h-.426l.024-.024v.267l-.024-.024h.377v.088h-.377l.024-.024v.281l-.024-.024h.427v.095z" fill="#0035ff" transform="matrix(-91.00628528914 108.0346508917 -31.56898159324 -311.43963992388 2778.83711743727 660.24885691344)"/><path d="m.332.009c-.065 0-.118-.01-.161-.03s-.075-.048-.096-.084-.032-.076-.033-.123h.112c.001.031.007.058.02.08.013.023.033.041.059.053s.06.018.101.018c.051 0 .092-.009.123-.028s.047-.048.047-.086c0-.022-.004-.04-.01-.055-.007-.014-.018-.026-.033-.036s-.035-.018-.059-.025c-.025-.007-.055-.013-.09-.019-.042-.007-.079-.016-.11-.027-.032-.01-.058-.023-.079-.039-.022-.015-.037-.034-.048-.057-.011-.022-.016-.049-.016-.08 0-.043.011-.08.032-.111.022-.031.052-.055.092-.072s.088-.025.144-.025.104.008.143.026.07.043.091.075c.021.031.032.069.033.112h-.111c-.001-.029-.008-.053-.022-.073-.014-.019-.032-.033-.056-.042-.023-.01-.051-.014-.082-.014-.032 0-.059.004-.082.013-.022.009-.039.022-.051.038-.012.017-.018.036-.018.058 0 .027.006.048.019.062.013.015.034.026.063.035.029.008.067.016.113.025.033.005.064.012.093.02.03.008.057.02.08.036.024.015.043.036.056.062.014.027.021.061.021.103 0 .041-.011.078-.033.11-.021.031-.053.056-.095.073-.043.018-.095.027-.157.027z" fill="#0035ff" transform="matrix(-87.14610963122 140.44636474037 -41.04006137596 -298.22943457242 2721.75219290471 727.13101137795)"/><path d="m.051-.277c0-.023.006-.043.016-.061.011-.018.025-.032.043-.043.018-.01.039-.015.062-.015.036 0 .065.011.087.034.022.022.033.051.033.085 0 .022-.005.043-.015.061-.01.017-.024.032-.042.042s-.039.015-.063.015c-.023 0-.044-.005-.062-.015s-.032-.025-.043-.042c-.01-.018-.016-.039-.016-.061z" fill="#0035ff" transform="matrix(-81.31625608109 176.71163202914 -51.63719429641 -278.27864233104 2645.77402422983 858.33979990554)"/><path d="m.192 0-.101-.729h.161l.051.469.012.11h.007l.054-.112.24-.467h.176l-.405.729z" fill="#fff" transform="matrix(155.50416 0 0 532.1628 2663.77689218 2124.8149305)"/><path d="m.013 0 .151-.729h.516l-.028.133h-.397l.043-.036-.048.235-.029-.034h.349l-.025.125h-.351l.044-.036-.05.244-.028-.035h.398l-.027.133z" fill="#fff" transform="matrix(155.50416 0 0 532.1628 2762.36652962 2124.8149305)"/><path d="m.361.01c-.052 0-.098-.008-.138-.024-.04-.017-.073-.04-.1-.069-.027-.03-.047-.066-.061-.107-.013-.041-.019-.087-.017-.138.002-.063.013-.119.034-.17.02-.05.048-.093.084-.128.035-.036.077-.063.125-.083.048-.019.101-.029.159-.029.06 0 .113.011.157.032.045.021.081.051.106.089.026.038.039.082.04.132l-.157.002c-.002-.025-.009-.047-.023-.066-.013-.018-.031-.032-.052-.043-.022-.01-.048-.015-.078-.015-.047 0-.088.011-.123.034-.035.024-.062.056-.081.098-.02.042-.031.091-.033.147-.001.035.002.066.01.092.007.026.018.048.034.065.015.017.033.03.055.038.021.009.045.013.071.013.039 0 .072-.006.099-.019s.049-.032.065-.058c.017-.026.028-.057.035-.094l.004-.021.023.027h-.211l.023-.104h.341l-.016.083c-.01.056-.027.104-.05.144s-.051.073-.084.098c-.032.025-.069.044-.11.056s-.085.018-.131.018z" fill="#fff" transform="matrix(155.50416 0 0 532.1628 2857.6905797 2124.8149305)"/><path d="m-.066 0 .391-.729h.187l.095.729h-.148l-.018-.15h-.271l-.08.15zm.294-.269h.202l-.027-.218-.011-.087h-.006l-.042.085z" fill="#fff" transform="matrix(155.50416 0 0 532.1628 2976.80676626 2124.8149305)"/><path d="m.013 0 .151-.729h.178l.191.508h.007l.036-.218.061-.29h.153l-.152.729h-.177l-.19-.504h-.007l-.036.211-.061.293z" fill="#fff" transform="matrix(155.50416 0 0 532.1628 3074.6188829 2124.8149305)"/><path d="m.371.009c-.054 0-.101-.008-.142-.024-.042-.016-.076-.039-.104-.069-.027-.03-.048-.065-.062-.107-.014-.041-.02-.087-.018-.138.002-.062.013-.118.033-.168s.047-.093.082-.129.075-.063.122-.083c.047-.019.099-.029.156-.029.062 0 .116.012.163.034s.084.053.11.092c.027.039.04.084.041.136h-.154c-.002-.026-.01-.049-.024-.069s-.033-.035-.057-.046-.051-.016-.082-.016c-.046 0-.085.012-.119.035-.034.024-.061.057-.08.099-.019.043-.029.093-.032.15 0 .033.003.062.01.087s.018.046.032.063.031.03.052.038c.02.009.042.013.067.014.033 0 .062-.005.087-.015.026-.01.047-.024.065-.044.017-.02.03-.043.038-.07h.156c-.01.053-.03.099-.062.138-.031.039-.071.069-.118.09-.048.021-.101.031-.16.031z" fill="#fff" transform="matrix(155.50416 0 0 532.1628 2652.58059266 2656.9777305)"/><path d="m.013 0 .151-.729h.154l-.066.327-.028-.034h.398l-.042.034.068-.327h.154l-.151.729h-.154l.071-.337.028.034h-.402l.043-.034-.07.337z" fill="#fff" transform="matrix(155.50416 0 0 532.1628 2770.14173762 2656.9777305)"/><path d="m.013 0 .151-.729h.516l-.028.133h-.397l.043-.036-.048.235-.029-.034h.349l-.025.125h-.351l.044-.036-.05.244-.028-.035h.398l-.027.133z" fill="#fff" transform="matrix(155.50416 0 0 532.1628 2892.6790157 2656.9777305)"/><path d="m.371.009c-.054 0-.101-.008-.142-.024-.042-.016-.076-.039-.104-.069-.027-.03-.048-.065-.062-.107-.014-.041-.02-.087-.018-.138.002-.062.013-.118.033-.168s.047-.093.082-.129.075-.063.122-.083c.047-.019.099-.029.156-.029.062 0 .116.012.163.034s.084.053.11.092c.027.039.04.084.041.136h-.154c-.002-.026-.01-.049-.024-.069s-.033-.035-.057-.046-.051-.016-.082-.016c-.046 0-.085.012-.119.035-.034.024-.061.057-.08.099-.019.043-.029.093-.032.15 0 .033.003.062.01.087s.018.046.032.063.031.03.052.038c.02.009.042.013.067.014.033 0 .062-.005.087-.015.026-.01.047-.024.065-.044.017-.02.03-.043.038-.07h.156c-.01.053-.03.099-.062.138-.031.039-.071.069-.118.09-.048.021-.101.031-.16.031z" fill="#fff" transform="matrix(155.50416 0 0 532.1628 2988.00306578 2656.9777305)"/><path d="m.013 0 .152-.729h.154l-.068.324.34-.324h.192l-.332.307.19.422h-.17l-.137-.317-.124.111-.043.206z" fill="#fff" transform="matrix(155.50416 0 0 532.1628 3105.56421074 2656.9777305)"/><path d="m.361.01c-.052 0-.098-.008-.138-.024-.04-.017-.073-.04-.1-.069-.027-.03-.047-.066-.061-.107-.013-.041-.019-.087-.017-.138.002-.063.013-.119.034-.17.02-.05.048-.093.084-.128.035-.036.077-.063.125-.083.048-.019.101-.029.159-.029.06 0 .113.011.157.032.045.021.081.051.106.089.026.038.039.082.04.132l-.157.002c-.002-.025-.009-.047-.023-.066-.013-.018-.031-.032-.052-.043-.022-.01-.048-.015-.078-.015-.047 0-.088.011-.123.034-.035.024-.062.056-.081.098-.02.042-.031.091-.033.147-.001.035.002.066.01.092.007.026.018.048.034.065.015.017.033.03.055.038.021.009.045.013.071.013.039 0 .072-.006.099-.019s.049-.032.065-.058c.017-.026.028-.057.035-.094l.004-.021.023.027h-.211l.023-.104h.341l-.016.083c-.01.056-.027.104-.05.144s-.051.073-.084.098c-.032.025-.069.044-.11.056s-.085.018-.131.018z" fill="#fff" transform="matrix(155.50416 0 0 532.1628 2609.42818826 3189.1405305)"/><path d="m.013 0 .151-.729h.331c.039 0 .073.005.102.014.028.009.051.022.07.038.018.017.032.037.041.06.008.024.012.049.011.078-.002.049-.016.092-.042.128-.026.035-.064.06-.114.074l-.002.007c.03.007.051.024.064.049.012.026.014.057.006.094l-.023.116c-.003.014-.005.027-.006.039s-.001.023 0 .032h-.155c-.001-.009-.001-.018-.001-.029.001-.011.003-.023.006-.036l.023-.109c.006-.024.006-.043.002-.058-.004-.014-.012-.025-.025-.032s-.031-.01-.053-.01h-.175l-.057.274zm.234-.39h.179c.04 0 .072-.011.096-.032.025-.022.037-.051.038-.088.001-.019-.002-.036-.009-.05s-.018-.025-.034-.033-.037-.011-.063-.011h-.162z" fill="#fff" transform="matrix(155.50416 0 0 532.1628 2731.49895386 3189.1405305)"/><path d="m-.066 0 .391-.729h.187l.095.729h-.148l-.018-.15h-.271l-.08.15zm.294-.269h.202l-.027-.218-.011-.087h-.006l-.042.085z" fill="#fff" transform="matrix(155.50416 0 0 532.1628 2840.1963617 3189.1405305)"/><path d="m.013 0 .151-.729h.273c.062 0 .115.013.159.038.043.025.076.061.099.106.022.046.032.099.03.16-.002.064-.013.123-.034.175-.02.052-.048.097-.084.134s-.078.066-.127.086-.104.03-.164.03zm.181-.13h.123c.038 0 .071-.007.101-.02.029-.012.055-.031.076-.056.022-.024.038-.054.05-.089s.019-.075.021-.12c.001-.042-.005-.076-.018-.103s-.032-.048-.057-.061c-.024-.013-.054-.02-.087-.02h-.112z" fill="#fff" transform="matrix(155.50416 0 0 532.1628 2938.00847834 3189.1405305)"/><path d="m.013 0 .151-.729h.516l-.028.133h-.397l.043-.036-.048.235-.029-.034h.349l-.025.125h-.351l.044-.036-.05.244-.028-.035h.398l-.027.133z" fill="#fff" transform="matrix(155.50416 0 0 532.1628 3053.08155674 3189.1405305)"/><path d="m.293.01c-.061 0-.113-.01-.155-.029-.043-.02-.074-.048-.095-.084s-.03-.079-.027-.129h.152c-.001.025.004.046.014.064s.026.032.046.042c.02.009.044.014.071.014.041 0 .073-.008.096-.025s.035-.041.036-.072c.001-.013-.001-.024-.005-.033-.003-.009-.01-.018-.019-.025s-.02-.013-.035-.019c-.015-.005-.034-.011-.056-.017-.041-.011-.076-.023-.105-.036s-.053-.027-.071-.044c-.018-.016-.031-.035-.039-.056s-.011-.045-.011-.072c.002-.049.016-.09.042-.124.025-.033.06-.059.103-.077.044-.017.093-.026.147-.026s.1.009.138.028c.039.019.068.045.089.078.02.034.03.073.028.117h-.157c.001-.021-.002-.04-.011-.055s-.021-.027-.038-.035c-.017-.009-.038-.013-.062-.013-.022 0-.041.004-.057.011-.017.007-.03.016-.039.029-.01.012-.015.028-.016.046 0 .016.004.029.012.04s.022.02.04.028.041.015.069.022c.042.01.077.021.106.033.028.012.051.027.068.043.017.017.03.035.037.057s.01.046.009.075c-.002.05-.015.094-.041.13-.025.037-.06.065-.105.084-.046.02-.098.03-.159.03z" fill="#fff" transform="matrix(155.50416 0 0 532.1628 3150.4271609 3189.1405305)"/></g></g></svg>