<?xml version="1.0" encoding="UTF-8" standalone="no"?>
<!DOCTYPE svg PUBLIC "-//W3C//DTD SVG 1.1//EN" "http://www.w3.org/Graphics/SVG/1.1/DTD/svg11.dtd">
<svg width="100%" height="100%" viewBox="0 0 500 500" version="1.1" xmlns="http://www.w3.org/2000/svg" xmlns:xlink="http://www.w3.org/1999/xlink" xml:space="preserve" xmlns:serif="http://www.serif.com/" style="fill-rule:evenodd;clip-rule:evenodd;stroke-linejoin:round;stroke-miterlimit:2;">
    <rect id="ArtBoard1" x="0" y="0" width="500" height="500" style="fill:none;"/>
    <g id="ArtBoard11" serif:id="ArtBoard1">
        <g transform="matrix(1.02839,0,0,1.04179,-15.1471,-24.4365)">
            <path d="M498.29,263.511C498.29,132.681 390.687,26.463 258.152,26.463L256.763,26.463C124.227,26.463 16.625,132.681 16.625,263.511C16.625,394.342 124.227,500.56 256.763,500.56L258.152,500.56C390.687,500.56 498.29,394.342 498.29,263.511Z" style="fill:rgb(116,221,255);"/>
        </g>
        <g transform="matrix(1,0,0,1,27.3638,23.3233)">
            <g transform="matrix(0.802381,-0.596812,0.596812,0.802381,-26.314,67.3285)">
                <g transform="matrix(32.7083,0,0,32.7083,88.5096,73.3985)">
                    <path d="M0.271,-0L0.005,-0.729L0.127,-0.729L0.303,-0.222L0.341,-0.103L0.348,-0.103L0.387,-0.221L0.564,-0.729L0.684,-0.729L0.419,-0L0.271,-0Z" style="fill:white;fill-rule:nonzero;"/>
                </g>
            </g>
            <g transform="matrix(0.848823,-0.528678,0.528678,0.848823,-17.192,64.1317)">
                <g transform="matrix(32.7083,0,0,32.7083,103.541,62.1266)">
                    <path d="M0.292,0.009C0.239,0.009 0.194,-0.002 0.156,-0.025C0.117,-0.047 0.088,-0.079 0.067,-0.12C0.047,-0.16 0.036,-0.208 0.036,-0.262C0.036,-0.318 0.047,-0.366 0.067,-0.408C0.087,-0.449 0.116,-0.481 0.154,-0.504C0.192,-0.526 0.236,-0.537 0.288,-0.537C0.346,-0.537 0.394,-0.525 0.432,-0.499C0.469,-0.474 0.496,-0.439 0.513,-0.394C0.53,-0.35 0.535,-0.3 0.53,-0.244L0.138,-0.244C0.139,-0.207 0.145,-0.176 0.158,-0.15C0.171,-0.125 0.189,-0.105 0.212,-0.092C0.235,-0.078 0.261,-0.071 0.292,-0.071C0.328,-0.071 0.359,-0.08 0.383,-0.097C0.407,-0.113 0.422,-0.135 0.429,-0.163L0.527,-0.163C0.523,-0.128 0.51,-0.098 0.488,-0.073C0.467,-0.047 0.439,-0.027 0.405,-0.013C0.372,0.002 0.334,0.009 0.292,0.009ZM0.139,-0.302L0.129,-0.311L0.439,-0.311L0.429,-0.3C0.43,-0.335 0.425,-0.364 0.413,-0.388C0.401,-0.411 0.384,-0.428 0.363,-0.44C0.342,-0.452 0.316,-0.458 0.287,-0.458C0.258,-0.458 0.232,-0.451 0.21,-0.439C0.188,-0.426 0.171,-0.408 0.159,-0.385C0.147,-0.361 0.14,-0.334 0.139,-0.302Z" style="fill:white;fill-rule:nonzero;"/>
                </g>
            </g>
            <g transform="matrix(0.892777,-0.450499,0.450499,0.892777,-10.8688,59.251)">
                <g transform="matrix(32.7083,0,0,32.7083,119.037,52.4581)">
                    <path d="M0.281,0.177C0.239,0.177 0.202,0.171 0.171,0.158C0.139,0.146 0.114,0.129 0.096,0.106C0.077,0.083 0.066,0.056 0.062,0.025L0.162,0.025C0.165,0.041 0.171,0.054 0.182,0.066C0.193,0.077 0.207,0.086 0.224,0.092C0.241,0.098 0.26,0.101 0.283,0.101C0.315,0.101 0.341,0.097 0.363,0.088C0.384,0.078 0.401,0.064 0.412,0.044C0.423,0.024 0.429,-0.002 0.429,-0.035L0.429,-0.138L0.422,-0.138C0.41,-0.106 0.389,-0.08 0.358,-0.06C0.327,-0.041 0.291,-0.031 0.249,-0.031C0.217,-0.031 0.188,-0.036 0.162,-0.047C0.135,-0.059 0.113,-0.075 0.094,-0.097C0.076,-0.119 0.061,-0.145 0.051,-0.177C0.041,-0.208 0.036,-0.244 0.036,-0.284C0.036,-0.338 0.045,-0.384 0.063,-0.422C0.081,-0.46 0.106,-0.488 0.138,-0.508C0.17,-0.528 0.208,-0.538 0.25,-0.538C0.292,-0.538 0.328,-0.528 0.359,-0.509C0.389,-0.489 0.41,-0.463 0.422,-0.431L0.429,-0.431L0.431,-0.529L0.531,-0.529L0.531,-0.049C0.531,-0.007 0.525,0.028 0.513,0.056C0.501,0.085 0.484,0.108 0.462,0.126C0.44,0.144 0.413,0.157 0.383,0.165C0.352,0.173 0.318,0.177 0.281,0.177ZM0.284,-0.111C0.315,-0.111 0.341,-0.118 0.362,-0.132C0.383,-0.146 0.4,-0.164 0.411,-0.186C0.422,-0.207 0.428,-0.23 0.429,-0.253L0.428,-0.317C0.428,-0.34 0.422,-0.362 0.411,-0.383C0.4,-0.405 0.384,-0.422 0.363,-0.436C0.342,-0.45 0.316,-0.457 0.285,-0.457C0.256,-0.457 0.231,-0.45 0.209,-0.437C0.188,-0.423 0.171,-0.404 0.159,-0.378C0.148,-0.352 0.142,-0.321 0.142,-0.284C0.142,-0.247 0.148,-0.215 0.16,-0.189C0.171,-0.164 0.188,-0.144 0.209,-0.131C0.231,-0.118 0.256,-0.111 0.284,-0.111Z" style="fill:white;fill-rule:nonzero;"/>
                </g>
            </g>
            <g transform="matrix(0.930659,-0.365887,0.365887,0.930659,-6.70409,52.7086)">
                <g transform="matrix(32.7083,0,0,32.7083,135.71,44.0419)">
                    <path d="M0.252,0.009C0.22,0.009 0.191,0.003 0.164,-0.009C0.138,-0.021 0.115,-0.038 0.096,-0.062C0.077,-0.085 0.062,-0.113 0.052,-0.147C0.042,-0.181 0.036,-0.22 0.036,-0.265C0.036,-0.324 0.045,-0.373 0.064,-0.414C0.082,-0.455 0.107,-0.486 0.139,-0.507C0.172,-0.528 0.209,-0.538 0.252,-0.538C0.282,-0.538 0.308,-0.533 0.333,-0.524C0.357,-0.515 0.377,-0.501 0.394,-0.485C0.411,-0.468 0.424,-0.448 0.432,-0.425L0.438,-0.425L0.442,-0.529L0.541,-0.529L0.541,-0L0.438,-0L0.438,-0.105L0.432,-0.105C0.42,-0.071 0.397,-0.043 0.366,-0.022C0.335,-0.002 0.296,0.009 0.252,0.009ZM0.288,-0.076C0.321,-0.076 0.348,-0.084 0.37,-0.099C0.392,-0.114 0.409,-0.134 0.42,-0.158C0.431,-0.182 0.437,-0.208 0.437,-0.235L0.437,-0.295C0.437,-0.322 0.431,-0.348 0.42,-0.372C0.409,-0.396 0.392,-0.416 0.37,-0.431C0.348,-0.446 0.321,-0.454 0.288,-0.454C0.259,-0.454 0.233,-0.446 0.211,-0.432C0.189,-0.418 0.172,-0.397 0.16,-0.369C0.148,-0.341 0.142,-0.307 0.142,-0.265C0.142,-0.224 0.148,-0.189 0.16,-0.161C0.172,-0.133 0.189,-0.112 0.211,-0.097C0.233,-0.083 0.259,-0.076 0.288,-0.076Z" style="fill:white;fill-rule:nonzero;"/>
                </g>
            </g>
            <g transform="matrix(0.961799,-0.273757,0.273757,0.961799,-4.27789,43.4237)">
                <g transform="matrix(32.7083,0,0,32.7083,153.453,37.04)">
                    <path d="M0.072,-0L0.072,-0.529L0.17,-0.529L0.174,-0.424L0.18,-0.424C0.195,-0.461 0.219,-0.49 0.252,-0.509C0.284,-0.528 0.32,-0.537 0.359,-0.537C0.386,-0.537 0.411,-0.533 0.434,-0.525C0.457,-0.517 0.477,-0.504 0.494,-0.486C0.511,-0.469 0.524,-0.446 0.534,-0.417C0.543,-0.389 0.548,-0.355 0.548,-0.314L0.548,-0L0.445,-0L0.445,-0.293C0.445,-0.329 0.441,-0.359 0.432,-0.382C0.423,-0.406 0.41,-0.423 0.392,-0.435C0.374,-0.446 0.35,-0.452 0.322,-0.452C0.292,-0.452 0.266,-0.445 0.243,-0.43C0.221,-0.415 0.204,-0.396 0.192,-0.371C0.18,-0.347 0.174,-0.319 0.174,-0.289L0.174,-0L0.072,-0Z" style="fill:white;fill-rule:nonzero;"/>
                </g>
            </g>
            <g transform="matrix(0.985368,-0.170441,0.170441,0.985368,-2.87321,29.7529)">
                <g transform="matrix(32.7083,0,0,32.7083,171.851,31.6106)">
                    <path d="M0.397,0.009C0.343,0.009 0.295,0 0.251,-0.017C0.207,-0.034 0.169,-0.059 0.138,-0.092C0.106,-0.124 0.082,-0.163 0.065,-0.209C0.048,-0.255 0.04,-0.307 0.04,-0.364C0.04,-0.422 0.048,-0.474 0.065,-0.52C0.082,-0.566 0.106,-0.605 0.138,-0.637C0.17,-0.67 0.208,-0.695 0.251,-0.712C0.295,-0.729 0.343,-0.737 0.397,-0.737C0.457,-0.737 0.511,-0.727 0.558,-0.706C0.605,-0.685 0.643,-0.656 0.673,-0.618C0.703,-0.581 0.721,-0.536 0.728,-0.485L0.618,-0.485C0.611,-0.516 0.598,-0.543 0.578,-0.567C0.558,-0.591 0.533,-0.609 0.503,-0.623C0.472,-0.636 0.437,-0.643 0.397,-0.643C0.347,-0.643 0.303,-0.632 0.267,-0.61C0.23,-0.588 0.202,-0.557 0.182,-0.515C0.162,-0.474 0.152,-0.423 0.152,-0.364C0.152,-0.32 0.158,-0.281 0.169,-0.246C0.181,-0.211 0.197,-0.182 0.218,-0.158C0.239,-0.135 0.265,-0.117 0.295,-0.104C0.325,-0.092 0.359,-0.085 0.397,-0.085C0.436,-0.085 0.471,-0.092 0.502,-0.105C0.533,-0.119 0.559,-0.138 0.579,-0.162C0.599,-0.186 0.612,-0.214 0.618,-0.247L0.728,-0.246C0.722,-0.195 0.704,-0.15 0.675,-0.112C0.645,-0.073 0.606,-0.044 0.559,-0.023C0.511,-0.002 0.457,0.009 0.397,0.009Z" style="fill:white;fill-rule:nonzero;"/>
                </g>
            </g>
            <g transform="matrix(0.998042,-0.0625448,0.0625448,0.998042,-1.33594,12.3295)">
                <g transform="matrix(32.7083,0,0,32.7083,196.27,27.5036)">
                    <path d="M0.072,-0L0.072,-0.729L0.174,-0.729L0.174,-0.424L0.18,-0.424C0.195,-0.461 0.219,-0.49 0.252,-0.509C0.284,-0.528 0.32,-0.537 0.359,-0.537C0.386,-0.537 0.411,-0.533 0.434,-0.525C0.457,-0.517 0.477,-0.504 0.494,-0.486C0.511,-0.469 0.524,-0.446 0.534,-0.417C0.543,-0.389 0.548,-0.355 0.548,-0.314L0.548,-0L0.445,-0L0.445,-0.293C0.445,-0.329 0.441,-0.359 0.432,-0.382C0.423,-0.406 0.41,-0.423 0.392,-0.435C0.374,-0.446 0.35,-0.452 0.322,-0.452C0.292,-0.452 0.266,-0.445 0.243,-0.43C0.221,-0.415 0.204,-0.396 0.192,-0.371C0.18,-0.347 0.174,-0.319 0.174,-0.289L0.174,-0L0.072,-0Z" style="fill:white;fill-rule:nonzero;"/>
                </g>
            </g>
            <g transform="matrix(32.7083,0,0,32.7083,215.393,26.4631)">
                <path d="M0.292,0.009C0.239,0.009 0.194,-0.002 0.156,-0.025C0.117,-0.047 0.088,-0.079 0.067,-0.12C0.047,-0.16 0.036,-0.208 0.036,-0.262C0.036,-0.318 0.047,-0.366 0.067,-0.408C0.087,-0.449 0.116,-0.481 0.154,-0.504C0.192,-0.526 0.236,-0.537 0.288,-0.537C0.346,-0.537 0.394,-0.525 0.432,-0.499C0.469,-0.474 0.496,-0.439 0.513,-0.394C0.53,-0.35 0.535,-0.3 0.53,-0.244L0.138,-0.244C0.139,-0.207 0.145,-0.176 0.158,-0.15C0.171,-0.125 0.189,-0.105 0.212,-0.092C0.235,-0.078 0.261,-0.071 0.292,-0.071C0.328,-0.071 0.359,-0.08 0.383,-0.097C0.407,-0.113 0.422,-0.135 0.429,-0.163L0.527,-0.163C0.523,-0.128 0.51,-0.098 0.488,-0.073C0.467,-0.047 0.439,-0.027 0.405,-0.013C0.372,0.002 0.334,0.009 0.292,0.009ZM0.139,-0.302L0.129,-0.311L0.439,-0.311L0.429,-0.3C0.43,-0.335 0.425,-0.364 0.413,-0.388C0.401,-0.411 0.384,-0.428 0.363,-0.44C0.342,-0.452 0.316,-0.458 0.287,-0.458C0.258,-0.458 0.232,-0.451 0.21,-0.439C0.188,-0.426 0.171,-0.408 0.159,-0.385C0.147,-0.361 0.14,-0.334 0.139,-0.302Z" style="fill:white;fill-rule:nonzero;"/>
            </g>
            <g transform="matrix(0.99663,0.0820238,-0.0820238,0.99663,2.95308,-19.0792)">
                <g transform="matrix(32.7083,0,0,32.7083,233.69,26.4024)">
                    <path d="M0.293,0.009C0.254,0.009 0.219,0.002 0.188,-0.011C0.156,-0.024 0.129,-0.042 0.107,-0.066C0.084,-0.09 0.067,-0.119 0.055,-0.152C0.042,-0.185 0.036,-0.223 0.036,-0.264C0.036,-0.319 0.047,-0.367 0.068,-0.408C0.09,-0.449 0.12,-0.48 0.159,-0.503C0.198,-0.526 0.244,-0.537 0.297,-0.537C0.34,-0.537 0.378,-0.529 0.411,-0.513C0.445,-0.497 0.472,-0.475 0.493,-0.446C0.513,-0.418 0.525,-0.384 0.527,-0.346L0.427,-0.346C0.423,-0.369 0.415,-0.389 0.402,-0.404C0.39,-0.419 0.374,-0.431 0.356,-0.439C0.337,-0.447 0.316,-0.451 0.294,-0.451C0.262,-0.451 0.234,-0.444 0.211,-0.428C0.188,-0.412 0.171,-0.39 0.159,-0.362C0.147,-0.334 0.141,-0.301 0.141,-0.263C0.141,-0.224 0.147,-0.19 0.16,-0.162C0.173,-0.135 0.19,-0.113 0.213,-0.099C0.236,-0.084 0.262,-0.077 0.293,-0.077C0.319,-0.077 0.341,-0.082 0.361,-0.091C0.38,-0.1 0.396,-0.113 0.408,-0.13C0.419,-0.147 0.426,-0.167 0.429,-0.189L0.529,-0.189C0.526,-0.149 0.515,-0.114 0.494,-0.084C0.473,-0.055 0.445,-0.032 0.411,-0.016C0.377,0.001 0.337,0.009 0.293,0.009Z" style="fill:white;fill-rule:nonzero;"/>
                </g>
            </g>
            <g transform="matrix(0.984901,0.173117,-0.173117,0.984901,8.60864,-43.1199)">
                <g transform="matrix(32.7083,0,0,32.7083,251.504,27.792)">
                    <path d="M0.072,-0L0.072,-0.729L0.176,-0.729L0.176,-0.276L0.222,-0.326L0.419,-0.529L0.547,-0.529L0.342,-0.323L0.555,-0L0.434,-0L0.302,-0.2L0.27,-0.253L0.176,-0.162L0.176,-0L0.072,-0Z" style="fill:white;fill-rule:nonzero;"/>
                </g>
            </g>
            <g transform="matrix(0.952539,0.304418,-0.304418,0.952539,22.9106,-82.4988)">
                <g transform="matrix(32.7083,0,0,32.7083,276.029,32.2251)">
                    <path d="M0.396,0.009C0.341,0.009 0.292,-0 0.248,-0.018C0.204,-0.036 0.166,-0.061 0.135,-0.094C0.104,-0.127 0.08,-0.166 0.064,-0.212C0.048,-0.258 0.04,-0.309 0.04,-0.364C0.04,-0.422 0.048,-0.474 0.066,-0.52C0.083,-0.566 0.107,-0.605 0.139,-0.637C0.171,-0.67 0.209,-0.695 0.253,-0.712C0.298,-0.729 0.347,-0.737 0.4,-0.737C0.462,-0.737 0.517,-0.727 0.564,-0.706C0.612,-0.685 0.65,-0.656 0.679,-0.619C0.708,-0.582 0.726,-0.538 0.732,-0.487L0.62,-0.487C0.614,-0.521 0.601,-0.549 0.58,-0.572C0.56,-0.595 0.534,-0.612 0.503,-0.624C0.473,-0.636 0.438,-0.642 0.4,-0.642C0.35,-0.642 0.306,-0.632 0.269,-0.61C0.231,-0.588 0.202,-0.557 0.182,-0.516C0.161,-0.474 0.151,-0.424 0.151,-0.365C0.151,-0.321 0.157,-0.281 0.168,-0.246C0.18,-0.211 0.196,-0.182 0.218,-0.158C0.24,-0.133 0.266,-0.115 0.296,-0.103C0.326,-0.09 0.36,-0.084 0.398,-0.084C0.446,-0.084 0.488,-0.093 0.524,-0.111C0.56,-0.129 0.588,-0.156 0.607,-0.191C0.627,-0.225 0.637,-0.267 0.637,-0.315L0.637,-0.339L0.673,-0.299L0.405,-0.299L0.405,-0.38L0.748,-0.38L0.748,-0.327C0.748,-0.276 0.739,-0.229 0.723,-0.188C0.706,-0.146 0.682,-0.111 0.651,-0.082C0.62,-0.053 0.583,-0.03 0.54,-0.015C0.497,0.001 0.449,0.009 0.396,0.009Z" style="fill:white;fill-rule:nonzero;"/>
                </g>
            </g>
            <g transform="matrix(0.918218,0.396074,-0.396074,0.918218,40.5419,-115.698)">
                <g transform="matrix(32.7083,0,0,32.7083,300.439,40.3246)">
                    <path d="M0.072,-0L0.072,-0.529L0.164,-0.529L0.169,-0.435L0.174,-0.435C0.185,-0.469 0.205,-0.494 0.233,-0.511C0.261,-0.527 0.292,-0.536 0.327,-0.536C0.333,-0.536 0.339,-0.535 0.344,-0.535C0.349,-0.535 0.354,-0.535 0.358,-0.534L0.358,-0.437C0.354,-0.438 0.349,-0.438 0.344,-0.438C0.338,-0.438 0.332,-0.438 0.326,-0.438C0.295,-0.438 0.268,-0.433 0.246,-0.422C0.224,-0.411 0.207,-0.396 0.195,-0.376C0.183,-0.356 0.176,-0.331 0.174,-0.302L0.174,-0L0.072,-0Z" style="fill:white;fill-rule:nonzero;"/>
                </g>
            </g>
            <g transform="matrix(0.891586,0.452852,-0.452852,0.891586,53.643,-135.589)">
                <g transform="matrix(32.7083,0,0,32.7083,310.003,44.2401)">
                    <path d="M0.252,0.009C0.22,0.009 0.191,0.003 0.164,-0.009C0.138,-0.021 0.115,-0.038 0.096,-0.062C0.077,-0.085 0.062,-0.113 0.052,-0.147C0.042,-0.181 0.036,-0.22 0.036,-0.265C0.036,-0.324 0.045,-0.373 0.064,-0.414C0.082,-0.455 0.107,-0.486 0.139,-0.507C0.172,-0.528 0.209,-0.538 0.252,-0.538C0.282,-0.538 0.308,-0.533 0.333,-0.524C0.357,-0.515 0.377,-0.501 0.394,-0.485C0.411,-0.468 0.424,-0.448 0.432,-0.425L0.438,-0.425L0.442,-0.529L0.541,-0.529L0.541,-0L0.438,-0L0.438,-0.105L0.432,-0.105C0.42,-0.071 0.397,-0.043 0.366,-0.022C0.335,-0.002 0.296,0.009 0.252,0.009ZM0.288,-0.076C0.321,-0.076 0.348,-0.084 0.37,-0.099C0.392,-0.114 0.409,-0.134 0.42,-0.158C0.431,-0.182 0.437,-0.208 0.437,-0.235L0.437,-0.295C0.437,-0.322 0.431,-0.348 0.42,-0.372C0.409,-0.396 0.392,-0.416 0.37,-0.431C0.348,-0.446 0.321,-0.454 0.288,-0.454C0.259,-0.454 0.233,-0.446 0.211,-0.432C0.189,-0.418 0.172,-0.397 0.16,-0.369C0.148,-0.341 0.142,-0.307 0.142,-0.265C0.142,-0.224 0.148,-0.189 0.16,-0.161C0.172,-0.133 0.189,-0.112 0.211,-0.097C0.233,-0.083 0.259,-0.076 0.288,-0.076Z" style="fill:white;fill-rule:nonzero;"/>
                </g>
            </g>
            <g transform="matrix(0.845244,0.53438,-0.53438,0.845244,78.8731,-166.567)">
                <g transform="matrix(32.7083,0,0,32.7083,327.019,52.8933)">
                    <path d="M0.252,0.009C0.22,0.009 0.191,0.003 0.164,-0.009C0.138,-0.021 0.115,-0.038 0.096,-0.062C0.077,-0.085 0.062,-0.113 0.052,-0.147C0.042,-0.181 0.036,-0.22 0.036,-0.265C0.036,-0.324 0.045,-0.373 0.064,-0.414C0.082,-0.455 0.107,-0.486 0.139,-0.507C0.172,-0.528 0.209,-0.538 0.252,-0.538C0.282,-0.538 0.308,-0.533 0.333,-0.524C0.357,-0.515 0.377,-0.501 0.394,-0.485C0.411,-0.468 0.424,-0.448 0.432,-0.425L0.438,-0.425L0.438,-0.729L0.541,-0.729L0.541,-0L0.442,-0L0.438,-0.105L0.432,-0.105C0.42,-0.071 0.397,-0.043 0.366,-0.022C0.335,-0.002 0.296,0.009 0.252,0.009ZM0.288,-0.076C0.321,-0.076 0.348,-0.084 0.37,-0.099C0.392,-0.114 0.409,-0.134 0.42,-0.158C0.431,-0.182 0.437,-0.208 0.437,-0.235L0.437,-0.295C0.437,-0.315 0.434,-0.335 0.427,-0.354C0.421,-0.373 0.412,-0.39 0.399,-0.405C0.387,-0.42 0.372,-0.431 0.353,-0.44C0.334,-0.449 0.313,-0.454 0.288,-0.454C0.259,-0.454 0.233,-0.446 0.211,-0.432C0.189,-0.418 0.172,-0.397 0.16,-0.369C0.148,-0.341 0.142,-0.307 0.142,-0.265C0.142,-0.224 0.148,-0.189 0.16,-0.161C0.172,-0.133 0.189,-0.112 0.211,-0.097C0.233,-0.083 0.259,-0.076 0.288,-0.076Z" style="fill:white;fill-rule:nonzero;"/>
                </g>
            </g>
            <g transform="matrix(0.792041,0.610468,-0.610468,0.792041,109.877,-196.349)">
                <g transform="matrix(32.7083,0,0,32.7083,343.132,63.0987)">
                    <path d="M0.292,0.009C0.239,0.009 0.194,-0.002 0.156,-0.025C0.117,-0.047 0.088,-0.079 0.067,-0.12C0.047,-0.16 0.036,-0.208 0.036,-0.262C0.036,-0.318 0.047,-0.366 0.067,-0.408C0.087,-0.449 0.116,-0.481 0.154,-0.504C0.192,-0.526 0.236,-0.537 0.288,-0.537C0.346,-0.537 0.394,-0.525 0.432,-0.499C0.469,-0.474 0.496,-0.439 0.513,-0.394C0.53,-0.35 0.535,-0.3 0.53,-0.244L0.138,-0.244C0.139,-0.207 0.145,-0.176 0.158,-0.15C0.171,-0.125 0.189,-0.105 0.212,-0.092C0.235,-0.078 0.261,-0.071 0.292,-0.071C0.328,-0.071 0.359,-0.08 0.383,-0.097C0.407,-0.113 0.422,-0.135 0.429,-0.163L0.527,-0.163C0.523,-0.128 0.51,-0.098 0.488,-0.073C0.467,-0.047 0.439,-0.027 0.405,-0.013C0.372,0.002 0.334,0.009 0.292,0.009ZM0.139,-0.302L0.129,-0.311L0.439,-0.311L0.429,-0.3C0.43,-0.335 0.425,-0.364 0.413,-0.388C0.401,-0.411 0.384,-0.428 0.363,-0.44C0.342,-0.452 0.316,-0.458 0.287,-0.458C0.258,-0.458 0.232,-0.451 0.21,-0.439C0.188,-0.426 0.171,-0.408 0.159,-0.385C0.147,-0.361 0.14,-0.334 0.139,-0.302Z" style="fill:white;fill-rule:nonzero;"/>
                </g>
            </g>
            <g transform="matrix(0.721191,0.692736,-0.692736,0.721191,156.184,-229.477)">
                <g transform="matrix(32.7083,0,0,32.7083,363.174,79.2908)">
                    <path d="M0.051,-0.277C0.051,-0.3 0.057,-0.32 0.067,-0.338C0.078,-0.356 0.092,-0.37 0.11,-0.381C0.128,-0.391 0.149,-0.396 0.172,-0.396C0.208,-0.396 0.237,-0.385 0.259,-0.362C0.281,-0.34 0.292,-0.311 0.292,-0.277C0.292,-0.255 0.287,-0.234 0.277,-0.216C0.267,-0.199 0.253,-0.184 0.235,-0.174C0.217,-0.164 0.196,-0.159 0.172,-0.159C0.149,-0.159 0.128,-0.164 0.11,-0.174C0.092,-0.184 0.078,-0.199 0.067,-0.216C0.057,-0.234 0.051,-0.255 0.051,-0.277Z" style="fill:white;fill-rule:nonzero;"/>
                </g>
            </g>
            <g transform="matrix(0.632443,0.774607,-0.774607,0.632443,210.04,-257.807)">
                <g transform="matrix(32.7083,0,0,32.7083,376.677,92.4207)">
                    <path d="M0.271,-0L0.005,-0.729L0.127,-0.729L0.303,-0.222L0.341,-0.103L0.348,-0.103L0.387,-0.221L0.564,-0.729L0.684,-0.729L0.419,-0L0.271,-0Z" style="fill:white;fill-rule:nonzero;"/>
                </g>
            </g>
            <g transform="matrix(0.565762,0.824568,-0.824568,0.565762,256.911,-274.008)">
                <g transform="matrix(32.7083,0,0,32.7083,388.611,106.918)">
                    <path d="M0.292,0.009C0.239,0.009 0.194,-0.002 0.156,-0.025C0.117,-0.047 0.088,-0.079 0.067,-0.12C0.047,-0.16 0.036,-0.208 0.036,-0.262C0.036,-0.318 0.047,-0.366 0.067,-0.408C0.087,-0.449 0.116,-0.481 0.154,-0.504C0.192,-0.526 0.236,-0.537 0.288,-0.537C0.346,-0.537 0.394,-0.525 0.432,-0.499C0.469,-0.474 0.496,-0.439 0.513,-0.394C0.53,-0.35 0.535,-0.3 0.53,-0.244L0.138,-0.244C0.139,-0.207 0.145,-0.176 0.158,-0.15C0.171,-0.125 0.189,-0.105 0.212,-0.092C0.235,-0.078 0.261,-0.071 0.292,-0.071C0.328,-0.071 0.359,-0.08 0.383,-0.097C0.407,-0.113 0.422,-0.135 0.429,-0.163L0.527,-0.163C0.523,-0.128 0.51,-0.098 0.488,-0.073C0.467,-0.047 0.439,-0.027 0.405,-0.013C0.372,0.002 0.334,0.009 0.292,0.009ZM0.139,-0.302L0.129,-0.311L0.439,-0.311L0.429,-0.3C0.43,-0.335 0.425,-0.364 0.413,-0.388C0.401,-0.411 0.384,-0.428 0.363,-0.44C0.342,-0.452 0.316,-0.458 0.287,-0.458C0.258,-0.458 0.232,-0.451 0.21,-0.439C0.188,-0.426 0.171,-0.408 0.159,-0.385C0.147,-0.361 0.14,-0.334 0.139,-0.302Z" style="fill:white;fill-rule:nonzero;"/>
                </g>
            </g>
            <g transform="matrix(0.488235,0.872712,-0.872712,0.488235,310.63,-285.755)">
                <g transform="matrix(32.7083,0,0,32.7083,398.964,121.981)">
                    <path d="M0.281,0.177C0.239,0.177 0.202,0.171 0.171,0.158C0.139,0.146 0.114,0.129 0.096,0.106C0.077,0.083 0.066,0.056 0.062,0.025L0.162,0.025C0.165,0.041 0.171,0.054 0.182,0.066C0.193,0.077 0.207,0.086 0.224,0.092C0.241,0.098 0.26,0.101 0.283,0.101C0.315,0.101 0.341,0.097 0.363,0.088C0.384,0.078 0.401,0.064 0.412,0.044C0.423,0.024 0.429,-0.002 0.429,-0.035L0.429,-0.138L0.422,-0.138C0.41,-0.106 0.389,-0.08 0.358,-0.06C0.327,-0.041 0.291,-0.031 0.249,-0.031C0.217,-0.031 0.188,-0.036 0.162,-0.047C0.135,-0.059 0.113,-0.075 0.094,-0.097C0.076,-0.119 0.061,-0.145 0.051,-0.177C0.041,-0.208 0.036,-0.244 0.036,-0.284C0.036,-0.338 0.045,-0.384 0.063,-0.422C0.081,-0.46 0.106,-0.488 0.138,-0.508C0.17,-0.528 0.208,-0.538 0.25,-0.538C0.292,-0.538 0.328,-0.528 0.359,-0.509C0.389,-0.489 0.41,-0.463 0.422,-0.431L0.429,-0.431L0.431,-0.529L0.531,-0.529L0.531,-0.049C0.531,-0.007 0.525,0.028 0.513,0.056C0.501,0.085 0.484,0.108 0.462,0.126C0.44,0.144 0.413,0.157 0.383,0.165C0.352,0.173 0.318,0.177 0.281,0.177ZM0.284,-0.111C0.315,-0.111 0.341,-0.118 0.362,-0.132C0.383,-0.146 0.4,-0.164 0.411,-0.186C0.422,-0.207 0.428,-0.23 0.429,-0.253L0.428,-0.317C0.428,-0.34 0.422,-0.362 0.411,-0.383C0.4,-0.405 0.384,-0.422 0.363,-0.436C0.342,-0.45 0.316,-0.457 0.285,-0.457C0.256,-0.457 0.231,-0.45 0.209,-0.437C0.188,-0.423 0.171,-0.404 0.159,-0.378C0.148,-0.352 0.142,-0.321 0.142,-0.284C0.142,-0.247 0.148,-0.215 0.16,-0.189C0.171,-0.164 0.188,-0.144 0.209,-0.131C0.231,-0.118 0.256,-0.111 0.284,-0.111Z" style="fill:white;fill-rule:nonzero;"/>
                </g>
            </g>
            <g transform="matrix(0.403561,0.914953,-0.914953,0.403561,369.872,-290.909)">
                <g transform="matrix(32.7083,0,0,32.7083,408.067,138.242)">
                    <path d="M0.252,0.009C0.22,0.009 0.191,0.003 0.164,-0.009C0.138,-0.021 0.115,-0.038 0.096,-0.062C0.077,-0.085 0.062,-0.113 0.052,-0.147C0.042,-0.181 0.036,-0.22 0.036,-0.265C0.036,-0.324 0.045,-0.373 0.064,-0.414C0.082,-0.455 0.107,-0.486 0.139,-0.507C0.172,-0.528 0.209,-0.538 0.252,-0.538C0.282,-0.538 0.308,-0.533 0.333,-0.524C0.357,-0.515 0.377,-0.501 0.394,-0.485C0.411,-0.468 0.424,-0.448 0.432,-0.425L0.438,-0.425L0.442,-0.529L0.541,-0.529L0.541,-0L0.438,-0L0.438,-0.105L0.432,-0.105C0.42,-0.071 0.397,-0.043 0.366,-0.022C0.335,-0.002 0.296,0.009 0.252,0.009ZM0.288,-0.076C0.321,-0.076 0.348,-0.084 0.37,-0.099C0.392,-0.114 0.409,-0.134 0.42,-0.158C0.431,-0.182 0.437,-0.208 0.437,-0.235L0.437,-0.295C0.437,-0.322 0.431,-0.348 0.42,-0.372C0.409,-0.396 0.392,-0.416 0.37,-0.431C0.348,-0.446 0.321,-0.454 0.288,-0.454C0.259,-0.454 0.233,-0.446 0.211,-0.432C0.189,-0.418 0.172,-0.397 0.16,-0.369C0.148,-0.341 0.142,-0.307 0.142,-0.265C0.142,-0.224 0.148,-0.189 0.16,-0.161C0.172,-0.133 0.189,-0.112 0.211,-0.097C0.233,-0.083 0.259,-0.076 0.288,-0.076Z" style="fill:white;fill-rule:nonzero;"/>
                </g>
            </g>
            <g transform="matrix(0.310016,0.950731,-0.950731,0.310016,434.919,-287.88)">
                <g transform="matrix(32.7083,0,0,32.7083,415.795,155.699)">
                    <path d="M0.072,-0L0.072,-0.529L0.17,-0.529L0.174,-0.424L0.18,-0.424C0.195,-0.461 0.219,-0.49 0.252,-0.509C0.284,-0.528 0.32,-0.537 0.359,-0.537C0.386,-0.537 0.411,-0.533 0.434,-0.525C0.457,-0.517 0.477,-0.504 0.494,-0.486C0.511,-0.469 0.524,-0.446 0.534,-0.417C0.543,-0.389 0.548,-0.355 0.548,-0.314L0.548,-0L0.445,-0L0.445,-0.293C0.445,-0.329 0.441,-0.359 0.432,-0.382C0.423,-0.406 0.41,-0.423 0.392,-0.435C0.374,-0.446 0.35,-0.452 0.322,-0.452C0.292,-0.452 0.266,-0.445 0.243,-0.43C0.221,-0.415 0.204,-0.396 0.192,-0.371C0.18,-0.347 0.174,-0.319 0.174,-0.289L0.174,-0L0.072,-0Z" style="fill:white;fill-rule:nonzero;"/>
                </g>
            </g>
            <g transform="matrix(0.203923,0.978987,-0.978987,0.203923,506.135,-274.628)">
                <g transform="matrix(32.7083,0,0,32.7083,421.931,173.899)">
                    <path d="M0.397,0.009C0.343,0.009 0.295,0 0.251,-0.017C0.207,-0.034 0.169,-0.059 0.138,-0.092C0.106,-0.124 0.082,-0.163 0.065,-0.209C0.048,-0.255 0.04,-0.307 0.04,-0.364C0.04,-0.422 0.048,-0.474 0.065,-0.52C0.082,-0.566 0.106,-0.605 0.138,-0.637C0.17,-0.67 0.208,-0.695 0.251,-0.712C0.295,-0.729 0.343,-0.737 0.397,-0.737C0.457,-0.737 0.511,-0.727 0.558,-0.706C0.605,-0.685 0.643,-0.656 0.673,-0.618C0.703,-0.581 0.721,-0.536 0.728,-0.485L0.618,-0.485C0.611,-0.516 0.598,-0.543 0.578,-0.567C0.558,-0.591 0.533,-0.609 0.503,-0.623C0.472,-0.636 0.437,-0.643 0.397,-0.643C0.347,-0.643 0.303,-0.632 0.267,-0.61C0.23,-0.588 0.202,-0.557 0.182,-0.515C0.162,-0.474 0.152,-0.423 0.152,-0.364C0.152,-0.32 0.158,-0.281 0.169,-0.246C0.181,-0.211 0.197,-0.182 0.218,-0.158C0.239,-0.135 0.265,-0.117 0.295,-0.104C0.325,-0.092 0.359,-0.085 0.397,-0.085C0.436,-0.085 0.471,-0.092 0.502,-0.105C0.533,-0.119 0.559,-0.138 0.579,-0.162C0.599,-0.186 0.612,-0.214 0.618,-0.247L0.728,-0.246C0.722,-0.195 0.704,-0.15 0.675,-0.112C0.645,-0.073 0.606,-0.044 0.559,-0.023C0.511,-0.002 0.457,0.009 0.397,0.009Z" style="fill:white;fill-rule:nonzero;"/>
                </g>
            </g>
            <g transform="matrix(0.0924928,0.995713,-0.995713,0.0924928,584.625,-245.248)">
                <g transform="matrix(32.7083,0,0,32.7083,426.855,198.1)">
                    <path d="M0.072,-0L0.072,-0.729L0.174,-0.729L0.174,-0.424L0.18,-0.424C0.195,-0.461 0.219,-0.49 0.252,-0.509C0.284,-0.528 0.32,-0.537 0.359,-0.537C0.386,-0.537 0.411,-0.533 0.434,-0.525C0.457,-0.517 0.477,-0.504 0.494,-0.486C0.511,-0.469 0.524,-0.446 0.534,-0.417C0.543,-0.389 0.548,-0.355 0.548,-0.314L0.548,-0L0.445,-0L0.445,-0.293C0.445,-0.329 0.441,-0.359 0.432,-0.382C0.423,-0.406 0.41,-0.423 0.392,-0.435C0.374,-0.446 0.35,-0.452 0.322,-0.452C0.292,-0.452 0.266,-0.445 0.243,-0.43C0.221,-0.415 0.204,-0.396 0.192,-0.371C0.18,-0.347 0.174,-0.319 0.174,-0.289L0.174,-0L0.072,-0Z" style="fill:white;fill-rule:nonzero;"/>
                </g>
            </g>
            <g transform="matrix(0.000802982,1,-1,0.000802982,645.518,-211.592)">
                <g transform="matrix(32.7083,0,0,32.7083,428.64,217.222)">
                    <path d="M0.292,0.009C0.239,0.009 0.194,-0.002 0.156,-0.025C0.117,-0.047 0.088,-0.079 0.067,-0.12C0.047,-0.16 0.036,-0.208 0.036,-0.262C0.036,-0.318 0.047,-0.366 0.067,-0.408C0.087,-0.449 0.116,-0.481 0.154,-0.504C0.192,-0.526 0.236,-0.537 0.288,-0.537C0.346,-0.537 0.394,-0.525 0.432,-0.499C0.469,-0.474 0.496,-0.439 0.513,-0.394C0.53,-0.35 0.535,-0.3 0.53,-0.244L0.138,-0.244C0.139,-0.207 0.145,-0.176 0.158,-0.15C0.171,-0.125 0.189,-0.105 0.212,-0.092C0.235,-0.078 0.261,-0.071 0.292,-0.071C0.328,-0.071 0.359,-0.08 0.383,-0.097C0.407,-0.113 0.422,-0.135 0.429,-0.163L0.527,-0.163C0.523,-0.128 0.51,-0.098 0.488,-0.073C0.467,-0.047 0.439,-0.027 0.405,-0.013C0.372,0.002 0.334,0.009 0.292,0.009ZM0.139,-0.302L0.129,-0.311L0.439,-0.311L0.429,-0.3C0.43,-0.335 0.425,-0.364 0.413,-0.388C0.401,-0.411 0.384,-0.428 0.363,-0.44C0.342,-0.452 0.316,-0.458 0.287,-0.458C0.258,-0.458 0.232,-0.451 0.21,-0.439C0.188,-0.426 0.171,-0.408 0.159,-0.385C0.147,-0.361 0.14,-0.334 0.139,-0.302Z" style="fill:white;fill-rule:nonzero;"/>
                </g>
            </g>
            <g transform="matrix(-0.0901018,0.995933,-0.995933,-0.0901018,701.809,-170.237)">
                <g transform="matrix(32.7083,0,0,32.7083,428.67,235.473)">
                    <path d="M0.293,0.009C0.254,0.009 0.219,0.002 0.188,-0.011C0.156,-0.024 0.129,-0.042 0.107,-0.066C0.084,-0.09 0.067,-0.119 0.055,-0.152C0.042,-0.185 0.036,-0.223 0.036,-0.264C0.036,-0.319 0.047,-0.367 0.068,-0.408C0.09,-0.449 0.12,-0.48 0.159,-0.503C0.198,-0.526 0.244,-0.537 0.297,-0.537C0.34,-0.537 0.378,-0.529 0.411,-0.513C0.445,-0.497 0.472,-0.475 0.493,-0.446C0.513,-0.418 0.525,-0.384 0.527,-0.346L0.427,-0.346C0.423,-0.369 0.415,-0.389 0.402,-0.404C0.39,-0.419 0.374,-0.431 0.356,-0.439C0.337,-0.447 0.316,-0.451 0.294,-0.451C0.262,-0.451 0.234,-0.444 0.211,-0.428C0.188,-0.412 0.171,-0.39 0.159,-0.362C0.147,-0.334 0.141,-0.301 0.141,-0.263C0.141,-0.224 0.147,-0.19 0.16,-0.162C0.173,-0.135 0.19,-0.113 0.213,-0.099C0.236,-0.084 0.262,-0.077 0.293,-0.077C0.319,-0.077 0.341,-0.082 0.361,-0.091C0.38,-0.1 0.396,-0.113 0.408,-0.13C0.419,-0.147 0.426,-0.167 0.429,-0.189L0.529,-0.189C0.526,-0.149 0.515,-0.114 0.494,-0.084C0.473,-0.055 0.445,-0.032 0.411,-0.016C0.377,0.001 0.337,0.009 0.293,0.009Z" style="fill:white;fill-rule:nonzero;"/>
                </g>
            </g>
            <g transform="matrix(-0.184662,0.982802,-0.982802,-0.184662,754.956,-119.713)">
                <g transform="matrix(32.7083,0,0,32.7083,427.135,253.301)">
                    <path d="M0.072,-0L0.072,-0.729L0.176,-0.729L0.176,-0.276L0.222,-0.326L0.419,-0.529L0.547,-0.529L0.342,-0.323L0.555,-0L0.434,-0L0.302,-0.2L0.27,-0.253L0.176,-0.162L0.176,-0L0.072,-0Z" style="fill:white;fill-rule:nonzero;"/>
                </g>
            </g>
            <g transform="matrix(-0.320029,0.947408,-0.947408,-0.320029,820.765,-33.4996)">
                <g transform="matrix(32.7083,0,0,32.7083,422.404,277.789)">
                    <path d="M0.396,0.009C0.341,0.009 0.292,-0 0.248,-0.018C0.204,-0.036 0.166,-0.061 0.135,-0.094C0.104,-0.127 0.08,-0.166 0.064,-0.212C0.048,-0.258 0.04,-0.309 0.04,-0.364C0.04,-0.422 0.048,-0.474 0.066,-0.52C0.083,-0.566 0.107,-0.605 0.139,-0.637C0.171,-0.67 0.209,-0.695 0.253,-0.712C0.298,-0.729 0.347,-0.737 0.4,-0.737C0.462,-0.737 0.517,-0.727 0.564,-0.706C0.612,-0.685 0.65,-0.656 0.679,-0.619C0.708,-0.582 0.726,-0.538 0.732,-0.487L0.62,-0.487C0.614,-0.521 0.601,-0.549 0.58,-0.572C0.56,-0.595 0.534,-0.612 0.503,-0.624C0.473,-0.636 0.438,-0.642 0.4,-0.642C0.35,-0.642 0.306,-0.632 0.269,-0.61C0.231,-0.588 0.202,-0.557 0.182,-0.516C0.161,-0.474 0.151,-0.424 0.151,-0.365C0.151,-0.321 0.157,-0.281 0.168,-0.246C0.18,-0.211 0.196,-0.182 0.218,-0.158C0.24,-0.133 0.266,-0.115 0.296,-0.103C0.326,-0.09 0.36,-0.084 0.398,-0.084C0.446,-0.084 0.488,-0.093 0.524,-0.111C0.56,-0.129 0.588,-0.156 0.607,-0.191C0.627,-0.225 0.637,-0.267 0.637,-0.315L0.637,-0.339L0.673,-0.299L0.405,-0.299L0.405,-0.38L0.748,-0.38L0.748,-0.327C0.748,-0.276 0.739,-0.229 0.723,-0.188C0.706,-0.146 0.682,-0.111 0.651,-0.082C0.62,-0.053 0.583,-0.03 0.54,-0.015C0.497,0.001 0.449,0.009 0.396,0.009Z" style="fill:white;fill-rule:nonzero;"/>
                </g>
            </g>
            <g transform="matrix(-0.413411,0.910545,-0.910545,-0.413411,860.028,49.98)">
                <g transform="matrix(32.7083,0,0,32.7083,413.915,302.013)">
                    <path d="M0.072,-0L0.072,-0.529L0.164,-0.529L0.169,-0.435L0.174,-0.435C0.185,-0.469 0.205,-0.494 0.233,-0.511C0.261,-0.527 0.292,-0.536 0.327,-0.536C0.333,-0.536 0.339,-0.535 0.344,-0.535C0.349,-0.535 0.354,-0.535 0.358,-0.534L0.358,-0.437C0.354,-0.438 0.349,-0.438 0.344,-0.438C0.338,-0.438 0.332,-0.438 0.326,-0.438C0.295,-0.438 0.268,-0.433 0.246,-0.422C0.224,-0.411 0.207,-0.396 0.195,-0.376C0.183,-0.356 0.176,-0.331 0.174,-0.302L0.174,-0L0.072,-0Z" style="fill:white;fill-rule:nonzero;"/>
                </g>
            </g>
            <g transform="matrix(-0.47117,0.882042,-0.882042,-0.47117,877.685,96.8665)">
                <g transform="matrix(32.7083,0,0,32.7083,409.804,311.542)">
                    <path d="M0.252,0.009C0.22,0.009 0.191,0.003 0.164,-0.009C0.138,-0.021 0.115,-0.038 0.096,-0.062C0.077,-0.085 0.062,-0.113 0.052,-0.147C0.042,-0.181 0.036,-0.22 0.036,-0.265C0.036,-0.324 0.045,-0.373 0.064,-0.414C0.082,-0.455 0.107,-0.486 0.139,-0.507C0.172,-0.528 0.209,-0.538 0.252,-0.538C0.282,-0.538 0.308,-0.533 0.333,-0.524C0.357,-0.515 0.377,-0.501 0.394,-0.485C0.411,-0.468 0.424,-0.448 0.432,-0.425L0.438,-0.425L0.442,-0.529L0.541,-0.529L0.541,-0L0.438,-0L0.438,-0.105L0.432,-0.105C0.42,-0.071 0.397,-0.043 0.366,-0.022C0.335,-0.002 0.296,0.009 0.252,0.009ZM0.288,-0.076C0.321,-0.076 0.348,-0.084 0.37,-0.099C0.392,-0.114 0.409,-0.134 0.42,-0.158C0.431,-0.182 0.437,-0.208 0.437,-0.235L0.437,-0.295C0.437,-0.322 0.431,-0.348 0.42,-0.372C0.409,-0.396 0.392,-0.416 0.37,-0.431C0.348,-0.446 0.321,-0.454 0.288,-0.454C0.259,-0.454 0.233,-0.446 0.211,-0.432C0.189,-0.418 0.172,-0.397 0.16,-0.369C0.148,-0.341 0.142,-0.307 0.142,-0.265C0.142,-0.224 0.148,-0.189 0.16,-0.161C0.172,-0.133 0.189,-0.112 0.211,-0.097C0.233,-0.083 0.259,-0.076 0.288,-0.076Z" style="fill:white;fill-rule:nonzero;"/>
                </g>
            </g>
            <g transform="matrix(-0.553258,0.83301,-0.83301,-0.553258,896.084,176.22)">
                <g transform="matrix(32.7083,0,0,32.7083,400.789,328.395)">
                    <path d="M0.252,0.009C0.22,0.009 0.191,0.003 0.164,-0.009C0.138,-0.021 0.115,-0.038 0.096,-0.062C0.077,-0.085 0.062,-0.113 0.052,-0.147C0.042,-0.181 0.036,-0.22 0.036,-0.265C0.036,-0.324 0.045,-0.373 0.064,-0.414C0.082,-0.455 0.107,-0.486 0.139,-0.507C0.172,-0.528 0.209,-0.538 0.252,-0.538C0.282,-0.538 0.308,-0.533 0.333,-0.524C0.357,-0.515 0.377,-0.501 0.394,-0.485C0.411,-0.468 0.424,-0.448 0.432,-0.425L0.438,-0.425L0.438,-0.729L0.541,-0.729L0.541,-0L0.442,-0L0.438,-0.105L0.432,-0.105C0.42,-0.071 0.397,-0.043 0.366,-0.022C0.335,-0.002 0.296,0.009 0.252,0.009ZM0.288,-0.076C0.321,-0.076 0.348,-0.084 0.37,-0.099C0.392,-0.114 0.409,-0.134 0.42,-0.158C0.431,-0.182 0.437,-0.208 0.437,-0.235L0.437,-0.295C0.437,-0.315 0.434,-0.335 0.427,-0.354C0.421,-0.373 0.412,-0.39 0.399,-0.405C0.387,-0.42 0.372,-0.431 0.353,-0.44C0.334,-0.449 0.313,-0.454 0.288,-0.454C0.259,-0.454 0.233,-0.446 0.211,-0.432C0.189,-0.418 0.172,-0.397 0.16,-0.369C0.148,-0.341 0.142,-0.307 0.142,-0.265C0.142,-0.224 0.148,-0.189 0.16,-0.161C0.172,-0.133 0.189,-0.112 0.211,-0.097C0.233,-0.083 0.259,-0.076 0.288,-0.076Z" style="fill:white;fill-rule:nonzero;"/>
                </g>
            </g>
            <g transform="matrix(-0.628958,0.777439,-0.777439,-0.628958,903.31,257.419)">
                <g transform="matrix(32.7083,0,0,32.7083,390.227,344.267)">
                    <path d="M0.292,0.009C0.239,0.009 0.194,-0.002 0.156,-0.025C0.117,-0.047 0.088,-0.079 0.067,-0.12C0.047,-0.16 0.036,-0.208 0.036,-0.262C0.036,-0.318 0.047,-0.366 0.067,-0.408C0.087,-0.449 0.116,-0.481 0.154,-0.504C0.192,-0.526 0.236,-0.537 0.288,-0.537C0.346,-0.537 0.394,-0.525 0.432,-0.499C0.469,-0.474 0.496,-0.439 0.513,-0.394C0.53,-0.35 0.535,-0.3 0.53,-0.244L0.138,-0.244C0.139,-0.207 0.145,-0.176 0.158,-0.15C0.171,-0.125 0.189,-0.105 0.212,-0.092C0.235,-0.078 0.261,-0.071 0.292,-0.071C0.328,-0.071 0.359,-0.08 0.383,-0.097C0.407,-0.113 0.422,-0.135 0.429,-0.163L0.527,-0.163C0.523,-0.128 0.51,-0.098 0.488,-0.073C0.467,-0.047 0.439,-0.027 0.405,-0.013C0.372,0.002 0.334,0.009 0.292,0.009ZM0.139,-0.302L0.129,-0.311L0.439,-0.311L0.429,-0.3C0.43,-0.335 0.425,-0.364 0.413,-0.388C0.401,-0.411 0.384,-0.428 0.363,-0.44C0.342,-0.452 0.316,-0.458 0.287,-0.458C0.258,-0.458 0.232,-0.451 0.21,-0.439C0.188,-0.426 0.171,-0.408 0.159,-0.385C0.147,-0.361 0.14,-0.334 0.139,-0.302Z" style="fill:white;fill-rule:nonzero;"/>
                </g>
            </g>
            <g transform="matrix(-0.709753,0.704451,-0.704451,-0.709753,895.091,358.991)">
                <g transform="matrix(32.7083,0,0,32.7083,373.59,363.893)">
                    <path d="M0.051,-0.277C0.051,-0.3 0.057,-0.32 0.067,-0.338C0.078,-0.356 0.092,-0.37 0.11,-0.381C0.128,-0.391 0.149,-0.396 0.172,-0.396C0.208,-0.396 0.237,-0.385 0.259,-0.362C0.281,-0.34 0.292,-0.311 0.292,-0.277C0.292,-0.255 0.287,-0.234 0.277,-0.216C0.267,-0.199 0.253,-0.184 0.235,-0.174C0.217,-0.164 0.196,-0.159 0.172,-0.159C0.149,-0.159 0.128,-0.164 0.11,-0.174C0.092,-0.184 0.078,-0.199 0.067,-0.216C0.057,-0.234 0.051,-0.255 0.051,-0.277Z" style="fill:white;fill-rule:nonzero;"/>
                </g>
            </g>
            <g transform="matrix(-0.789192,0.614147,-0.614147,-0.789192,875.943,453.478)">
                <g transform="matrix(32.7083,0,0,32.7083,360.143,377.074)">
                    <path d="M0.271,-0L0.005,-0.729L0.127,-0.729L0.303,-0.222L0.341,-0.103L0.348,-0.103L0.387,-0.221L0.564,-0.729L0.684,-0.729L0.419,-0L0.271,-0Z" style="fill:white;fill-rule:nonzero;"/>
                </g>
            </g>
            <g transform="matrix(-0.837161,0.546956,-0.546956,-0.837161,847.044,525.187)">
                <g transform="matrix(32.7083,0,0,32.7083,345.343,388.684)">
                    <path d="M0.292,0.009C0.239,0.009 0.194,-0.002 0.156,-0.025C0.117,-0.047 0.088,-0.079 0.067,-0.12C0.047,-0.16 0.036,-0.208 0.036,-0.262C0.036,-0.318 0.047,-0.366 0.067,-0.408C0.087,-0.449 0.116,-0.481 0.154,-0.504C0.192,-0.526 0.236,-0.537 0.288,-0.537C0.346,-0.537 0.394,-0.525 0.432,-0.499C0.469,-0.474 0.496,-0.439 0.513,-0.394C0.53,-0.35 0.535,-0.3 0.53,-0.244L0.138,-0.244C0.139,-0.207 0.145,-0.176 0.158,-0.15C0.171,-0.125 0.189,-0.105 0.212,-0.092C0.235,-0.078 0.261,-0.071 0.292,-0.071C0.328,-0.071 0.359,-0.08 0.383,-0.097C0.407,-0.113 0.422,-0.135 0.429,-0.163L0.527,-0.163C0.523,-0.128 0.51,-0.098 0.488,-0.073C0.467,-0.047 0.439,-0.027 0.405,-0.013C0.372,0.002 0.334,0.009 0.292,0.009ZM0.139,-0.302L0.129,-0.311L0.439,-0.311L0.429,-0.3C0.43,-0.335 0.425,-0.364 0.413,-0.388C0.401,-0.411 0.384,-0.428 0.363,-0.44C0.342,-0.452 0.316,-0.458 0.287,-0.458C0.258,-0.458 0.232,-0.451 0.21,-0.439C0.188,-0.426 0.171,-0.408 0.159,-0.385C0.147,-0.361 0.14,-0.334 0.139,-0.302Z" style="fill:white;fill-rule:nonzero;"/>
                </g>
            </g>
            <g transform="matrix(-0.882729,0.469883,-0.469883,-0.882729,808.782,595.494)">
                <g transform="matrix(32.7083,0,0,32.7083,330.081,398.673)">
                    <path d="M0.281,0.177C0.239,0.177 0.202,0.171 0.171,0.158C0.139,0.146 0.114,0.129 0.096,0.106C0.077,0.083 0.066,0.056 0.062,0.025L0.162,0.025C0.165,0.041 0.171,0.054 0.182,0.066C0.193,0.077 0.207,0.086 0.224,0.092C0.241,0.098 0.26,0.101 0.283,0.101C0.315,0.101 0.341,0.097 0.363,0.088C0.384,0.078 0.401,0.064 0.412,0.044C0.423,0.024 0.429,-0.002 0.429,-0.035L0.429,-0.138L0.422,-0.138C0.41,-0.106 0.389,-0.08 0.358,-0.06C0.327,-0.041 0.291,-0.031 0.249,-0.031C0.217,-0.031 0.188,-0.036 0.162,-0.047C0.135,-0.059 0.113,-0.075 0.094,-0.097C0.076,-0.119 0.061,-0.145 0.051,-0.177C0.041,-0.208 0.036,-0.244 0.036,-0.284C0.036,-0.338 0.045,-0.384 0.063,-0.422C0.081,-0.46 0.106,-0.488 0.138,-0.508C0.17,-0.528 0.208,-0.538 0.25,-0.538C0.292,-0.538 0.328,-0.528 0.359,-0.509C0.389,-0.489 0.41,-0.463 0.422,-0.431L0.429,-0.431L0.431,-0.529L0.531,-0.529L0.531,-0.049C0.531,-0.007 0.525,0.028 0.513,0.056C0.501,0.085 0.484,0.108 0.462,0.126C0.44,0.144 0.413,0.157 0.383,0.165C0.352,0.173 0.318,0.177 0.281,0.177ZM0.284,-0.111C0.315,-0.111 0.341,-0.118 0.362,-0.132C0.383,-0.146 0.4,-0.164 0.411,-0.186C0.422,-0.207 0.428,-0.23 0.429,-0.253L0.428,-0.317C0.428,-0.34 0.422,-0.362 0.411,-0.383C0.4,-0.405 0.384,-0.422 0.363,-0.436C0.342,-0.45 0.316,-0.457 0.285,-0.457C0.256,-0.457 0.231,-0.45 0.209,-0.437C0.188,-0.423 0.171,-0.404 0.159,-0.378C0.148,-0.352 0.142,-0.321 0.142,-0.284C0.142,-0.247 0.148,-0.215 0.16,-0.189C0.171,-0.164 0.188,-0.144 0.209,-0.131C0.231,-0.118 0.256,-0.111 0.284,-0.111Z" style="fill:white;fill-rule:nonzero;"/>
                </g>
            </g>
            <g transform="matrix(-0.922372,0.386302,-0.386302,-0.922372,760.301,662.091)">
                <g transform="matrix(32.7083,0,0,32.7083,313.627,407.437)">
                    <path d="M0.252,0.009C0.22,0.009 0.191,0.003 0.164,-0.009C0.138,-0.021 0.115,-0.038 0.096,-0.062C0.077,-0.085 0.062,-0.113 0.052,-0.147C0.042,-0.181 0.036,-0.22 0.036,-0.265C0.036,-0.324 0.045,-0.373 0.064,-0.414C0.082,-0.455 0.107,-0.486 0.139,-0.507C0.172,-0.528 0.209,-0.538 0.252,-0.538C0.282,-0.538 0.308,-0.533 0.333,-0.524C0.357,-0.515 0.377,-0.501 0.394,-0.485C0.411,-0.468 0.424,-0.448 0.432,-0.425L0.438,-0.425L0.442,-0.529L0.541,-0.529L0.541,-0L0.438,-0L0.438,-0.105L0.432,-0.105C0.42,-0.071 0.397,-0.043 0.366,-0.022C0.335,-0.002 0.296,0.009 0.252,0.009ZM0.288,-0.076C0.321,-0.076 0.348,-0.084 0.37,-0.099C0.392,-0.114 0.409,-0.134 0.42,-0.158C0.431,-0.182 0.437,-0.208 0.437,-0.235L0.437,-0.295C0.437,-0.322 0.431,-0.348 0.42,-0.372C0.409,-0.396 0.392,-0.416 0.37,-0.431C0.348,-0.446 0.321,-0.454 0.288,-0.454C0.259,-0.454 0.233,-0.446 0.211,-0.432C0.189,-0.418 0.172,-0.397 0.16,-0.369C0.148,-0.341 0.142,-0.307 0.142,-0.265C0.142,-0.224 0.148,-0.189 0.16,-0.161C0.172,-0.133 0.189,-0.112 0.211,-0.097C0.233,-0.083 0.259,-0.076 0.288,-0.076Z" style="fill:white;fill-rule:nonzero;"/>
                </g>
            </g>
            <g transform="matrix(-0.95558,0.29473,-0.29473,-0.95558,701.146,724.005)">
                <g transform="matrix(32.7083,0,0,32.7083,296.015,414.838)">
                    <path d="M0.072,-0L0.072,-0.529L0.17,-0.529L0.174,-0.424L0.18,-0.424C0.195,-0.461 0.219,-0.49 0.252,-0.509C0.284,-0.528 0.32,-0.537 0.359,-0.537C0.386,-0.537 0.411,-0.533 0.434,-0.525C0.457,-0.517 0.477,-0.504 0.494,-0.486C0.511,-0.469 0.524,-0.446 0.534,-0.417C0.543,-0.389 0.548,-0.355 0.548,-0.314L0.548,-0L0.445,-0L0.445,-0.293C0.445,-0.329 0.441,-0.359 0.432,-0.382C0.423,-0.406 0.41,-0.423 0.392,-0.435C0.374,-0.446 0.35,-0.452 0.322,-0.452C0.292,-0.452 0.266,-0.445 0.243,-0.43C0.221,-0.415 0.204,-0.396 0.192,-0.371C0.18,-0.347 0.174,-0.319 0.174,-0.289L0.174,-0L0.072,-0Z" style="fill:white;fill-rule:nonzero;"/>
                </g>
            </g>
            <g transform="matrix(-0.981435,0.191795,-0.191795,-0.981435,630.983,780.268)">
                <g transform="matrix(32.7083,0,0,32.7083,277.728,420.672)">
                    <path d="M0.397,0.009C0.343,0.009 0.295,0 0.251,-0.017C0.207,-0.034 0.169,-0.059 0.138,-0.092C0.106,-0.124 0.082,-0.163 0.065,-0.209C0.048,-0.255 0.04,-0.307 0.04,-0.364C0.04,-0.422 0.048,-0.474 0.065,-0.52C0.082,-0.566 0.106,-0.605 0.138,-0.637C0.17,-0.67 0.208,-0.695 0.251,-0.712C0.295,-0.729 0.343,-0.737 0.397,-0.737C0.457,-0.737 0.511,-0.727 0.558,-0.706C0.605,-0.685 0.643,-0.656 0.673,-0.618C0.703,-0.581 0.721,-0.536 0.728,-0.485L0.618,-0.485C0.611,-0.516 0.598,-0.543 0.578,-0.567C0.558,-0.591 0.533,-0.609 0.503,-0.623C0.472,-0.636 0.437,-0.643 0.397,-0.643C0.347,-0.643 0.303,-0.632 0.267,-0.61C0.23,-0.588 0.202,-0.557 0.182,-0.515C0.162,-0.474 0.152,-0.423 0.152,-0.364C0.152,-0.32 0.158,-0.281 0.169,-0.246C0.181,-0.211 0.197,-0.182 0.218,-0.158C0.239,-0.135 0.265,-0.117 0.295,-0.104C0.325,-0.092 0.359,-0.085 0.397,-0.085C0.436,-0.085 0.471,-0.092 0.502,-0.105C0.533,-0.119 0.559,-0.138 0.579,-0.162C0.599,-0.186 0.612,-0.214 0.618,-0.247L0.728,-0.246C0.722,-0.195 0.704,-0.15 0.675,-0.112C0.645,-0.073 0.606,-0.044 0.559,-0.023C0.511,-0.002 0.457,0.009 0.397,0.009Z" style="fill:white;fill-rule:nonzero;"/>
                </g>
            </g>
            <g transform="matrix(-0.996468,0.0839691,-0.0839691,-0.996468,541.64,827.834)">
                <g transform="matrix(32.7083,0,0,32.7083,253.411,425.308)">
                    <path d="M0.072,-0L0.072,-0.729L0.174,-0.729L0.174,-0.424L0.18,-0.424C0.195,-0.461 0.219,-0.49 0.252,-0.509C0.284,-0.528 0.32,-0.537 0.359,-0.537C0.386,-0.537 0.411,-0.533 0.434,-0.525C0.457,-0.517 0.477,-0.504 0.494,-0.486C0.511,-0.469 0.524,-0.446 0.534,-0.417C0.543,-0.389 0.548,-0.355 0.548,-0.314L0.548,-0L0.445,-0L0.445,-0.293C0.445,-0.329 0.441,-0.359 0.432,-0.382C0.423,-0.406 0.41,-0.423 0.392,-0.435C0.374,-0.446 0.35,-0.452 0.322,-0.452C0.292,-0.452 0.266,-0.445 0.243,-0.43C0.221,-0.415 0.204,-0.396 0.192,-0.371C0.18,-0.347 0.174,-0.319 0.174,-0.289L0.174,-0L0.072,-0Z" style="fill:white;fill-rule:nonzero;"/>
                </g>
            </g>
            <g transform="matrix(-1,0,-0,-1,468.638,853.78)">
                <g transform="matrix(32.7083,0,0,32.7083,234.319,426.89)">
                    <path d="M0.292,0.009C0.239,0.009 0.194,-0.002 0.156,-0.025C0.117,-0.047 0.088,-0.079 0.067,-0.12C0.047,-0.16 0.036,-0.208 0.036,-0.262C0.036,-0.318 0.047,-0.366 0.067,-0.408C0.087,-0.449 0.116,-0.481 0.154,-0.504C0.192,-0.526 0.236,-0.537 0.288,-0.537C0.346,-0.537 0.394,-0.525 0.432,-0.499C0.469,-0.474 0.496,-0.439 0.513,-0.394C0.53,-0.35 0.535,-0.3 0.53,-0.244L0.138,-0.244C0.139,-0.207 0.145,-0.176 0.158,-0.15C0.171,-0.125 0.189,-0.105 0.212,-0.092C0.235,-0.078 0.261,-0.071 0.292,-0.071C0.328,-0.071 0.359,-0.08 0.383,-0.097C0.407,-0.113 0.422,-0.135 0.429,-0.163L0.527,-0.163C0.523,-0.128 0.51,-0.098 0.488,-0.073C0.467,-0.047 0.439,-0.027 0.405,-0.013C0.372,0.002 0.334,0.009 0.292,0.009ZM0.139,-0.302L0.129,-0.311L0.439,-0.311L0.429,-0.3C0.43,-0.335 0.425,-0.364 0.413,-0.388C0.401,-0.411 0.384,-0.428 0.363,-0.44C0.342,-0.452 0.316,-0.458 0.287,-0.458C0.258,-0.458 0.232,-0.451 0.21,-0.439C0.188,-0.426 0.171,-0.408 0.159,-0.385C0.147,-0.361 0.14,-0.334 0.139,-0.302Z" style="fill:white;fill-rule:nonzero;"/>
                </g>
            </g>
            <g transform="matrix(-0.998162,-0.0605946,0.0605946,-0.998162,405.771,866.443)">
                <g transform="matrix(32.7083,0,0,32.7083,216.023,427.069)">
                    <path d="M0.293,0.009C0.254,0.009 0.219,0.002 0.188,-0.011C0.156,-0.024 0.129,-0.042 0.107,-0.066C0.084,-0.09 0.067,-0.119 0.055,-0.152C0.042,-0.185 0.036,-0.223 0.036,-0.264C0.036,-0.319 0.047,-0.367 0.068,-0.408C0.09,-0.449 0.12,-0.48 0.159,-0.503C0.198,-0.526 0.244,-0.537 0.297,-0.537C0.34,-0.537 0.378,-0.529 0.411,-0.513C0.445,-0.497 0.472,-0.475 0.493,-0.446C0.513,-0.418 0.525,-0.384 0.527,-0.346L0.427,-0.346C0.423,-0.369 0.415,-0.389 0.402,-0.404C0.39,-0.419 0.374,-0.431 0.356,-0.439C0.337,-0.447 0.316,-0.451 0.294,-0.451C0.262,-0.451 0.234,-0.444 0.211,-0.428C0.188,-0.412 0.171,-0.39 0.159,-0.362C0.147,-0.334 0.141,-0.301 0.141,-0.263C0.141,-0.224 0.147,-0.19 0.16,-0.162C0.173,-0.135 0.19,-0.113 0.213,-0.099C0.236,-0.084 0.262,-0.077 0.293,-0.077C0.319,-0.077 0.341,-0.082 0.361,-0.091C0.38,-0.1 0.396,-0.113 0.408,-0.13C0.419,-0.147 0.426,-0.167 0.429,-0.189L0.529,-0.189C0.526,-0.149 0.515,-0.114 0.494,-0.084C0.473,-0.055 0.445,-0.032 0.411,-0.016C0.377,0.001 0.337,0.009 0.293,0.009Z" style="fill:white;fill-rule:nonzero;"/>
                </g>
            </g>
            <g transform="matrix(-0.988433,-0.151659,0.151659,-0.988433,329.469,877.255)">
                <g transform="matrix(32.7083,0,0,32.7083,198.189,426.063)">
                    <path d="M0.072,-0L0.072,-0.729L0.176,-0.729L0.176,-0.276L0.222,-0.326L0.419,-0.529L0.547,-0.529L0.342,-0.323L0.555,-0L0.434,-0L0.302,-0.2L0.27,-0.253L0.176,-0.162L0.176,-0L0.072,-0Z" style="fill:white;fill-rule:nonzero;"/>
                </g>
            </g>
            <g transform="matrix(-0.958963,-0.28353,0.28353,-0.958963,220.312,876.214)">
                <g transform="matrix(32.7083,0,0,32.7083,173.565,422.163)">
                    <path d="M0.396,0.009C0.341,0.009 0.292,-0 0.248,-0.018C0.204,-0.036 0.166,-0.061 0.135,-0.094C0.104,-0.127 0.08,-0.166 0.064,-0.212C0.048,-0.258 0.04,-0.309 0.04,-0.364C0.04,-0.422 0.048,-0.474 0.066,-0.52C0.083,-0.566 0.107,-0.605 0.139,-0.637C0.171,-0.67 0.209,-0.695 0.253,-0.712C0.298,-0.729 0.347,-0.737 0.4,-0.737C0.462,-0.737 0.517,-0.727 0.564,-0.706C0.612,-0.685 0.65,-0.656 0.679,-0.619C0.708,-0.582 0.726,-0.538 0.732,-0.487L0.62,-0.487C0.614,-0.521 0.601,-0.549 0.58,-0.572C0.56,-0.595 0.534,-0.612 0.503,-0.624C0.473,-0.636 0.438,-0.642 0.4,-0.642C0.35,-0.642 0.306,-0.632 0.269,-0.61C0.231,-0.588 0.202,-0.557 0.182,-0.516C0.161,-0.474 0.151,-0.424 0.151,-0.365C0.151,-0.321 0.157,-0.281 0.168,-0.246C0.18,-0.211 0.196,-0.182 0.218,-0.158C0.24,-0.133 0.266,-0.115 0.296,-0.103C0.326,-0.09 0.36,-0.084 0.398,-0.084C0.446,-0.084 0.488,-0.093 0.524,-0.111C0.56,-0.129 0.588,-0.156 0.607,-0.191C0.627,-0.225 0.637,-0.267 0.637,-0.315L0.637,-0.339L0.673,-0.299L0.405,-0.299L0.405,-0.38L0.748,-0.38L0.748,-0.327C0.748,-0.276 0.739,-0.229 0.723,-0.188C0.706,-0.146 0.682,-0.111 0.651,-0.082C0.62,-0.053 0.583,-0.03 0.54,-0.015C0.497,0.001 0.449,0.009 0.396,0.009Z" style="fill:white;fill-rule:nonzero;"/>
                </g>
            </g>
            <g transform="matrix(-0.926712,-0.375771,0.375771,-0.926712,131.309,854.829)">
                <g transform="matrix(32.7083,0,0,32.7083,149.014,414.61)">
                    <path d="M0.072,-0L0.072,-0.529L0.164,-0.529L0.169,-0.435L0.174,-0.435C0.185,-0.469 0.205,-0.494 0.233,-0.511C0.261,-0.527 0.292,-0.536 0.327,-0.536C0.333,-0.536 0.339,-0.535 0.344,-0.535C0.349,-0.535 0.354,-0.535 0.358,-0.534L0.358,-0.437C0.354,-0.438 0.349,-0.438 0.344,-0.438C0.338,-0.438 0.332,-0.438 0.326,-0.438C0.295,-0.438 0.268,-0.433 0.246,-0.422C0.224,-0.411 0.207,-0.396 0.195,-0.376C0.183,-0.356 0.176,-0.331 0.174,-0.302L0.174,-0L0.072,-0Z" style="fill:white;fill-rule:nonzero;"/>
                </g>
            </g>
            <g transform="matrix(-0.901276,-0.433244,0.433244,-0.901276,86.9136,841.598)">
                <g transform="matrix(32.7083,0,0,32.7083,139.344,410.897)">
                    <path d="M0.252,0.009C0.22,0.009 0.191,0.003 0.164,-0.009C0.138,-0.021 0.115,-0.038 0.096,-0.062C0.077,-0.085 0.062,-0.113 0.052,-0.147C0.042,-0.181 0.036,-0.22 0.036,-0.265C0.036,-0.324 0.045,-0.373 0.064,-0.414C0.082,-0.455 0.107,-0.486 0.139,-0.507C0.172,-0.528 0.209,-0.538 0.252,-0.538C0.282,-0.538 0.308,-0.533 0.333,-0.524C0.357,-0.515 0.377,-0.501 0.394,-0.485C0.411,-0.468 0.424,-0.448 0.432,-0.425L0.438,-0.425L0.442,-0.529L0.541,-0.529L0.541,-0L0.438,-0L0.438,-0.105L0.432,-0.105C0.42,-0.071 0.397,-0.043 0.366,-0.022C0.335,-0.002 0.296,0.009 0.252,0.009ZM0.288,-0.076C0.321,-0.076 0.348,-0.084 0.37,-0.099C0.392,-0.114 0.409,-0.134 0.42,-0.158C0.431,-0.182 0.437,-0.208 0.437,-0.235L0.437,-0.295C0.437,-0.322 0.431,-0.348 0.42,-0.372C0.409,-0.396 0.392,-0.416 0.37,-0.431C0.348,-0.446 0.321,-0.454 0.288,-0.454C0.259,-0.454 0.233,-0.446 0.211,-0.432C0.189,-0.418 0.172,-0.397 0.16,-0.369C0.148,-0.341 0.142,-0.307 0.142,-0.265C0.142,-0.224 0.148,-0.189 0.16,-0.161C0.172,-0.133 0.189,-0.112 0.211,-0.097C0.233,-0.083 0.259,-0.076 0.288,-0.076Z" style="fill:white;fill-rule:nonzero;"/>
                </g>
            </g>
            <g transform="matrix(-0.856739,-0.51575,0.51575,-0.856739,19.153,810.566)">
                <g transform="matrix(32.7083,0,0,32.7083,122.153,402.623)">
                    <path d="M0.252,0.009C0.22,0.009 0.191,0.003 0.164,-0.009C0.138,-0.021 0.115,-0.038 0.096,-0.062C0.077,-0.085 0.062,-0.113 0.052,-0.147C0.042,-0.181 0.036,-0.22 0.036,-0.265C0.036,-0.324 0.045,-0.373 0.064,-0.414C0.082,-0.455 0.107,-0.486 0.139,-0.507C0.172,-0.528 0.209,-0.538 0.252,-0.538C0.282,-0.538 0.308,-0.533 0.333,-0.524C0.357,-0.515 0.377,-0.501 0.394,-0.485C0.411,-0.468 0.424,-0.448 0.432,-0.425L0.438,-0.425L0.438,-0.729L0.541,-0.729L0.541,-0L0.442,-0L0.438,-0.105L0.432,-0.105C0.42,-0.071 0.397,-0.043 0.366,-0.022C0.335,-0.002 0.296,0.009 0.252,0.009ZM0.288,-0.076C0.321,-0.076 0.348,-0.084 0.37,-0.099C0.392,-0.114 0.409,-0.134 0.42,-0.158C0.431,-0.182 0.437,-0.208 0.437,-0.235L0.437,-0.295C0.437,-0.315 0.434,-0.335 0.427,-0.354C0.421,-0.373 0.412,-0.39 0.399,-0.405C0.387,-0.42 0.372,-0.431 0.353,-0.44C0.334,-0.449 0.313,-0.454 0.288,-0.454C0.259,-0.454 0.233,-0.446 0.211,-0.432C0.189,-0.418 0.172,-0.397 0.16,-0.369C0.148,-0.341 0.142,-0.307 0.142,-0.265C0.142,-0.224 0.148,-0.189 0.16,-0.161C0.172,-0.133 0.189,-0.112 0.211,-0.097C0.233,-0.083 0.259,-0.076 0.288,-0.076Z" style="fill:white;fill-rule:nonzero;"/>
                </g>
            </g>
            <g transform="matrix(-0.805262,-0.592919,0.592919,-0.805262,-41.8274,771.828)">
                <g transform="matrix(32.7083,0,0,32.7083,105.836,392.783)">
                    <path d="M0.292,0.009C0.239,0.009 0.194,-0.002 0.156,-0.025C0.117,-0.047 0.088,-0.079 0.067,-0.12C0.047,-0.16 0.036,-0.208 0.036,-0.262C0.036,-0.318 0.047,-0.366 0.067,-0.408C0.087,-0.449 0.116,-0.481 0.154,-0.504C0.192,-0.526 0.236,-0.537 0.288,-0.537C0.346,-0.537 0.394,-0.525 0.432,-0.499C0.469,-0.474 0.496,-0.439 0.513,-0.394C0.53,-0.35 0.535,-0.3 0.53,-0.244L0.138,-0.244C0.139,-0.207 0.145,-0.176 0.158,-0.15C0.171,-0.125 0.189,-0.105 0.212,-0.092C0.235,-0.078 0.261,-0.071 0.292,-0.071C0.328,-0.071 0.359,-0.08 0.383,-0.097C0.407,-0.113 0.422,-0.135 0.429,-0.163L0.527,-0.163C0.523,-0.128 0.51,-0.098 0.488,-0.073C0.467,-0.047 0.439,-0.027 0.405,-0.013C0.372,0.002 0.334,0.009 0.292,0.009ZM0.139,-0.302L0.129,-0.311L0.439,-0.311L0.429,-0.3C0.43,-0.335 0.425,-0.364 0.413,-0.388C0.401,-0.411 0.384,-0.428 0.363,-0.44C0.342,-0.452 0.316,-0.458 0.287,-0.458C0.258,-0.458 0.232,-0.451 0.21,-0.439C0.188,-0.426 0.171,-0.408 0.159,-0.385C0.147,-0.361 0.14,-0.334 0.139,-0.302Z" style="fill:white;fill-rule:nonzero;"/>
                </g>
            </g>
            <g transform="matrix(-0.73622,-0.676742,0.676742,-0.73622,-106.82,712.417)">
                <g transform="matrix(32.7083,0,0,32.7083,85.4322,377.026)">
                    <path d="M0.051,-0.277C0.051,-0.3 0.057,-0.32 0.067,-0.338C0.078,-0.356 0.092,-0.37 0.11,-0.381C0.128,-0.391 0.149,-0.396 0.172,-0.396C0.208,-0.396 0.237,-0.385 0.259,-0.362C0.281,-0.34 0.292,-0.311 0.292,-0.277C0.292,-0.255 0.287,-0.234 0.277,-0.216C0.267,-0.199 0.253,-0.184 0.235,-0.174C0.217,-0.164 0.196,-0.159 0.172,-0.159C0.149,-0.159 0.128,-0.164 0.11,-0.174C0.092,-0.184 0.078,-0.199 0.067,-0.216C0.057,-0.234 0.051,-0.255 0.051,-0.277Z" style="fill:white;fill-rule:nonzero;"/>
                </g>
            </g>
            <g transform="matrix(-0.649373,-0.76047,0.76047,-0.649373,-158.793,655.173)">
                <g transform="matrix(32.7083,0,0,32.7083,71.6428,364.194)">
                    <path d="M0.271,-0L0.005,-0.729L0.127,-0.729L0.303,-0.222L0.341,-0.103L0.348,-0.103L0.387,-0.221L0.564,-0.729L0.684,-0.729L0.419,-0L0.271,-0Z" style="fill:white;fill-rule:nonzero;"/>
                </g>
            </g>
            <g transform="matrix(-0.583936,-0.8118,0.8118,-0.583936,-190.025,602.541)">
                <g transform="matrix(32.7083,0,0,32.7083,59.3948,349.967)">
                    <path d="M0.292,0.009C0.239,0.009 0.194,-0.002 0.156,-0.025C0.117,-0.047 0.088,-0.079 0.067,-0.12C0.047,-0.16 0.036,-0.208 0.036,-0.262C0.036,-0.318 0.047,-0.366 0.067,-0.408C0.087,-0.449 0.116,-0.481 0.154,-0.504C0.192,-0.526 0.236,-0.537 0.288,-0.537C0.346,-0.537 0.394,-0.525 0.432,-0.499C0.469,-0.474 0.496,-0.439 0.513,-0.394C0.53,-0.35 0.535,-0.3 0.53,-0.244L0.138,-0.244C0.139,-0.207 0.145,-0.176 0.158,-0.15C0.171,-0.125 0.189,-0.105 0.212,-0.092C0.235,-0.078 0.261,-0.071 0.292,-0.071C0.328,-0.071 0.359,-0.08 0.383,-0.097C0.407,-0.113 0.422,-0.135 0.429,-0.163L0.527,-0.163C0.523,-0.128 0.51,-0.098 0.488,-0.073C0.467,-0.047 0.439,-0.027 0.405,-0.013C0.372,0.002 0.334,0.009 0.292,0.009ZM0.139,-0.302L0.129,-0.311L0.439,-0.311L0.429,-0.3C0.43,-0.335 0.425,-0.364 0.413,-0.388C0.401,-0.411 0.384,-0.428 0.363,-0.44C0.342,-0.452 0.316,-0.458 0.287,-0.458C0.258,-0.458 0.232,-0.451 0.21,-0.439C0.188,-0.426 0.171,-0.408 0.159,-0.385C0.147,-0.361 0.14,-0.334 0.139,-0.302Z" style="fill:white;fill-rule:nonzero;"/>
                </g>
            </g>
            <g transform="matrix(-0.507694,-0.861538,0.861538,-0.507694,-215.292,547.273)">
                <g transform="matrix(32.7083,0,0,32.7083,48.7173,335.149)">
                    <path d="M0.281,0.177C0.239,0.177 0.202,0.171 0.171,0.158C0.139,0.146 0.114,0.129 0.096,0.106C0.077,0.083 0.066,0.056 0.062,0.025L0.162,0.025C0.165,0.041 0.171,0.054 0.182,0.066C0.193,0.077 0.207,0.086 0.224,0.092C0.241,0.098 0.26,0.101 0.283,0.101C0.315,0.101 0.341,0.097 0.363,0.088C0.384,0.078 0.401,0.064 0.412,0.044C0.423,0.024 0.429,-0.002 0.429,-0.035L0.429,-0.138L0.422,-0.138C0.41,-0.106 0.389,-0.08 0.358,-0.06C0.327,-0.041 0.291,-0.031 0.249,-0.031C0.217,-0.031 0.188,-0.036 0.162,-0.047C0.135,-0.059 0.113,-0.075 0.094,-0.097C0.076,-0.119 0.061,-0.145 0.051,-0.177C0.041,-0.208 0.036,-0.244 0.036,-0.284C0.036,-0.338 0.045,-0.384 0.063,-0.422C0.081,-0.46 0.106,-0.488 0.138,-0.508C0.17,-0.528 0.208,-0.538 0.25,-0.538C0.292,-0.538 0.328,-0.528 0.359,-0.509C0.389,-0.489 0.41,-0.463 0.422,-0.431L0.429,-0.431L0.431,-0.529L0.531,-0.529L0.531,-0.049C0.531,-0.007 0.525,0.028 0.513,0.056C0.501,0.085 0.484,0.108 0.462,0.126C0.44,0.144 0.413,0.157 0.383,0.165C0.352,0.173 0.318,0.177 0.281,0.177ZM0.284,-0.111C0.315,-0.111 0.341,-0.118 0.362,-0.132C0.383,-0.146 0.4,-0.164 0.411,-0.186C0.422,-0.207 0.428,-0.23 0.429,-0.253L0.428,-0.317C0.428,-0.34 0.422,-0.362 0.411,-0.383C0.4,-0.405 0.384,-0.422 0.363,-0.436C0.342,-0.45 0.316,-0.457 0.285,-0.457C0.256,-0.457 0.231,-0.45 0.209,-0.437C0.188,-0.423 0.171,-0.404 0.159,-0.378C0.148,-0.352 0.142,-0.321 0.142,-0.284C0.142,-0.247 0.148,-0.215 0.16,-0.189C0.171,-0.164 0.188,-0.144 0.209,-0.131C0.231,-0.118 0.256,-0.111 0.284,-0.111Z" style="fill:white;fill-rule:nonzero;"/>
                </g>
            </g>
            <g transform="matrix(-0.424069,-0.90563,0.90563,-0.424069,-233.084,489.937)">
                <g transform="matrix(32.7083,0,0,32.7083,39.2443,319.083)">
                    <path d="M0.252,0.009C0.22,0.009 0.191,0.003 0.164,-0.009C0.138,-0.021 0.115,-0.038 0.096,-0.062C0.077,-0.085 0.062,-0.113 0.052,-0.147C0.042,-0.181 0.036,-0.22 0.036,-0.265C0.036,-0.324 0.045,-0.373 0.064,-0.414C0.082,-0.455 0.107,-0.486 0.139,-0.507C0.172,-0.528 0.209,-0.538 0.252,-0.538C0.282,-0.538 0.308,-0.533 0.333,-0.524C0.357,-0.515 0.377,-0.501 0.394,-0.485C0.411,-0.468 0.424,-0.448 0.432,-0.425L0.438,-0.425L0.442,-0.529L0.541,-0.529L0.541,-0L0.438,-0L0.438,-0.105L0.432,-0.105C0.42,-0.071 0.397,-0.043 0.366,-0.022C0.335,-0.002 0.296,0.009 0.252,0.009ZM0.288,-0.076C0.321,-0.076 0.348,-0.084 0.37,-0.099C0.392,-0.114 0.409,-0.134 0.42,-0.158C0.431,-0.182 0.437,-0.208 0.437,-0.235L0.437,-0.295C0.437,-0.322 0.431,-0.348 0.42,-0.372C0.409,-0.396 0.392,-0.416 0.37,-0.431C0.348,-0.446 0.321,-0.454 0.288,-0.454C0.259,-0.454 0.233,-0.446 0.211,-0.432C0.189,-0.418 0.172,-0.397 0.16,-0.369C0.148,-0.341 0.142,-0.307 0.142,-0.265C0.142,-0.224 0.148,-0.189 0.16,-0.161C0.172,-0.133 0.189,-0.112 0.211,-0.097C0.233,-0.083 0.259,-0.076 0.288,-0.076Z" style="fill:white;fill-rule:nonzero;"/>
                </g>
            </g>
            <g transform="matrix(-0.331463,-0.943468,0.943468,-0.331463,-243.3,431.204)">
                <g transform="matrix(32.7083,0,0,32.7083,31.1246,301.803)">
                    <path d="M0.072,-0L0.072,-0.529L0.17,-0.529L0.174,-0.424L0.18,-0.424C0.195,-0.461 0.219,-0.49 0.252,-0.509C0.284,-0.528 0.32,-0.537 0.359,-0.537C0.386,-0.537 0.411,-0.533 0.434,-0.525C0.457,-0.517 0.477,-0.504 0.494,-0.486C0.511,-0.469 0.524,-0.446 0.534,-0.417C0.543,-0.389 0.548,-0.355 0.548,-0.314L0.548,-0L0.445,-0L0.445,-0.293C0.445,-0.329 0.441,-0.359 0.432,-0.382C0.423,-0.406 0.41,-0.423 0.392,-0.435C0.374,-0.446 0.35,-0.452 0.322,-0.452C0.292,-0.452 0.266,-0.445 0.243,-0.43C0.221,-0.415 0.204,-0.396 0.192,-0.371C0.18,-0.347 0.174,-0.319 0.174,-0.289L0.174,-0L0.072,-0Z" style="fill:white;fill-rule:nonzero;"/>
                </g>
            </g>
            <g transform="matrix(-0.226147,-0.974093,0.974093,-0.226147,-246.27,371.881)">
                <g transform="matrix(32.7083,0,0,32.7083,24.5824,283.763)">
                    <path d="M0.397,0.009C0.343,0.009 0.295,0 0.251,-0.017C0.207,-0.034 0.169,-0.059 0.138,-0.092C0.106,-0.124 0.082,-0.163 0.065,-0.209C0.048,-0.255 0.04,-0.307 0.04,-0.364C0.04,-0.422 0.048,-0.474 0.065,-0.52C0.082,-0.566 0.106,-0.605 0.138,-0.637C0.17,-0.67 0.208,-0.695 0.251,-0.712C0.295,-0.729 0.343,-0.737 0.397,-0.737C0.457,-0.737 0.511,-0.727 0.558,-0.706C0.605,-0.685 0.643,-0.656 0.673,-0.618C0.703,-0.581 0.721,-0.536 0.728,-0.485L0.618,-0.485C0.611,-0.516 0.598,-0.543 0.578,-0.567C0.558,-0.591 0.533,-0.609 0.503,-0.623C0.472,-0.636 0.437,-0.643 0.397,-0.643C0.347,-0.643 0.303,-0.632 0.267,-0.61C0.23,-0.588 0.202,-0.557 0.182,-0.515C0.162,-0.474 0.152,-0.423 0.152,-0.364C0.152,-0.32 0.158,-0.281 0.169,-0.246C0.181,-0.211 0.197,-0.182 0.218,-0.158C0.239,-0.135 0.265,-0.117 0.295,-0.104C0.325,-0.092 0.359,-0.085 0.397,-0.085C0.436,-0.085 0.471,-0.092 0.502,-0.105C0.533,-0.119 0.559,-0.138 0.579,-0.162C0.599,-0.186 0.612,-0.214 0.618,-0.247L0.728,-0.246C0.722,-0.195 0.704,-0.15 0.675,-0.112C0.645,-0.073 0.606,-0.044 0.559,-0.023C0.511,-0.002 0.457,0.009 0.397,0.009Z" style="fill:white;fill-rule:nonzero;"/>
                </g>
            </g>
            <g transform="matrix(-0.114763,-0.993393,0.993393,-0.114763,-236.632,308.416)">
                <g transform="matrix(32.7083,0,0,32.7083,19.1025,259.643)">
                    <path d="M0.072,-0L0.072,-0.729L0.174,-0.729L0.174,-0.424L0.18,-0.424C0.195,-0.461 0.219,-0.49 0.252,-0.509C0.284,-0.528 0.32,-0.537 0.359,-0.537C0.386,-0.537 0.411,-0.533 0.434,-0.525C0.457,-0.517 0.477,-0.504 0.494,-0.486C0.511,-0.469 0.524,-0.446 0.534,-0.417C0.543,-0.389 0.548,-0.355 0.548,-0.314L0.548,-0L0.445,-0L0.445,-0.293C0.445,-0.329 0.441,-0.359 0.432,-0.382C0.423,-0.406 0.41,-0.423 0.392,-0.435C0.374,-0.446 0.35,-0.452 0.322,-0.452C0.292,-0.452 0.266,-0.445 0.243,-0.43C0.221,-0.415 0.204,-0.396 0.192,-0.371C0.18,-0.347 0.174,-0.319 0.174,-0.289L0.174,-0L0.072,-0Z" style="fill:white;fill-rule:nonzero;"/>
                </g>
            </g>
            <g transform="matrix(-0.0228793,-0.999738,0.999738,-0.0228793,-223.228,262.958)">
                <g transform="matrix(32.7083,0,0,32.7083,16.8904,240.568)">
                    <path d="M0.292,0.009C0.239,0.009 0.194,-0.002 0.156,-0.025C0.117,-0.047 0.088,-0.079 0.067,-0.12C0.047,-0.16 0.036,-0.208 0.036,-0.262C0.036,-0.318 0.047,-0.366 0.067,-0.408C0.087,-0.449 0.116,-0.481 0.154,-0.504C0.192,-0.526 0.236,-0.537 0.288,-0.537C0.346,-0.537 0.394,-0.525 0.432,-0.499C0.469,-0.474 0.496,-0.439 0.513,-0.394C0.53,-0.35 0.535,-0.3 0.53,-0.244L0.138,-0.244C0.139,-0.207 0.145,-0.176 0.158,-0.15C0.171,-0.125 0.189,-0.105 0.212,-0.092C0.235,-0.078 0.261,-0.071 0.292,-0.071C0.328,-0.071 0.359,-0.08 0.383,-0.097C0.407,-0.113 0.422,-0.135 0.429,-0.163L0.527,-0.163C0.523,-0.128 0.51,-0.098 0.488,-0.073C0.467,-0.047 0.439,-0.027 0.405,-0.013C0.372,0.002 0.334,0.009 0.292,0.009ZM0.139,-0.302L0.129,-0.311L0.439,-0.311L0.429,-0.3C0.43,-0.335 0.425,-0.364 0.413,-0.388C0.401,-0.411 0.384,-0.428 0.363,-0.44C0.342,-0.452 0.316,-0.458 0.287,-0.458C0.258,-0.458 0.232,-0.451 0.21,-0.439C0.188,-0.426 0.171,-0.408 0.159,-0.385C0.147,-0.361 0.14,-0.334 0.139,-0.302Z" style="fill:white;fill-rule:nonzero;"/>
                </g>
            </g>
            <g transform="matrix(0.0677471,-0.997703,0.997703,0.0677471,-206.487,223.697)">
                <g transform="matrix(32.7083,0,0,32.7083,16.4575,222.34)">
                    <path d="M0.293,0.009C0.254,0.009 0.219,0.002 0.188,-0.011C0.156,-0.024 0.129,-0.042 0.107,-0.066C0.084,-0.09 0.067,-0.119 0.055,-0.152C0.042,-0.185 0.036,-0.223 0.036,-0.264C0.036,-0.319 0.047,-0.367 0.068,-0.408C0.09,-0.449 0.12,-0.48 0.159,-0.503C0.198,-0.526 0.244,-0.537 0.297,-0.537C0.34,-0.537 0.378,-0.529 0.411,-0.513C0.445,-0.497 0.472,-0.475 0.493,-0.446C0.513,-0.418 0.525,-0.384 0.527,-0.346L0.427,-0.346C0.423,-0.369 0.415,-0.389 0.402,-0.404C0.39,-0.419 0.374,-0.431 0.356,-0.439C0.337,-0.447 0.316,-0.451 0.294,-0.451C0.262,-0.451 0.234,-0.444 0.211,-0.428C0.188,-0.412 0.171,-0.39 0.159,-0.362C0.147,-0.334 0.141,-0.301 0.141,-0.263C0.141,-0.224 0.147,-0.19 0.16,-0.162C0.173,-0.135 0.19,-0.113 0.213,-0.099C0.236,-0.084 0.262,-0.077 0.293,-0.077C0.319,-0.077 0.341,-0.082 0.361,-0.091C0.38,-0.1 0.396,-0.113 0.408,-0.13C0.419,-0.147 0.426,-0.167 0.429,-0.189L0.529,-0.189C0.526,-0.149 0.515,-0.114 0.494,-0.084C0.473,-0.055 0.445,-0.032 0.411,-0.016C0.377,0.001 0.337,0.009 0.293,0.009Z" style="fill:white;fill-rule:nonzero;"/>
                </g>
            </g>
            <g transform="matrix(0.162544,-0.986701,0.986701,0.162544,-186.994,188.579)">
                <g transform="matrix(32.7083,0,0,32.7083,17.5959,204.449)">
                    <path d="M0.072,-0L0.072,-0.729L0.176,-0.729L0.176,-0.276L0.222,-0.326L0.419,-0.529L0.547,-0.529L0.342,-0.323L0.555,-0L0.434,-0L0.302,-0.2L0.27,-0.253L0.176,-0.162L0.176,-0L0.072,-0Z" style="fill:white;fill-rule:nonzero;"/>
                </g>
            </g>
            <g transform="matrix(0.336239,-0.941777,0.941777,0.336239,-146.492,136.751)">
                <g transform="matrix(32.7083,0,0,32.7083,23.7683,172.3)">
                    <path d="M0.396,0.009C0.341,0.009 0.292,-0 0.248,-0.018C0.204,-0.036 0.166,-0.061 0.135,-0.094C0.104,-0.127 0.08,-0.166 0.064,-0.212C0.048,-0.258 0.04,-0.309 0.04,-0.364C0.04,-0.422 0.048,-0.474 0.066,-0.52C0.083,-0.566 0.107,-0.605 0.139,-0.637C0.171,-0.67 0.209,-0.695 0.253,-0.712C0.298,-0.729 0.347,-0.737 0.4,-0.737C0.462,-0.737 0.517,-0.727 0.564,-0.706C0.612,-0.685 0.65,-0.656 0.679,-0.619C0.708,-0.582 0.726,-0.538 0.732,-0.487L0.62,-0.487C0.614,-0.521 0.601,-0.549 0.58,-0.572C0.56,-0.595 0.534,-0.612 0.503,-0.624C0.473,-0.636 0.438,-0.642 0.4,-0.642C0.35,-0.642 0.306,-0.632 0.269,-0.61C0.231,-0.588 0.202,-0.557 0.182,-0.516C0.161,-0.474 0.151,-0.424 0.151,-0.365C0.151,-0.321 0.157,-0.281 0.168,-0.246C0.18,-0.211 0.196,-0.182 0.218,-0.158C0.24,-0.133 0.266,-0.115 0.296,-0.103C0.326,-0.09 0.36,-0.084 0.398,-0.084C0.446,-0.084 0.488,-0.093 0.524,-0.111C0.56,-0.129 0.588,-0.156 0.607,-0.191C0.627,-0.225 0.637,-0.267 0.637,-0.315L0.637,-0.339L0.673,-0.299L0.405,-0.299L0.405,-0.38L0.748,-0.38L0.748,-0.327C0.748,-0.276 0.739,-0.229 0.723,-0.188C0.706,-0.146 0.682,-0.111 0.651,-0.082C0.62,-0.053 0.583,-0.03 0.54,-0.015C0.497,0.001 0.449,0.009 0.396,0.009Z" style="fill:white;fill-rule:nonzero;"/>
                </g>
            </g>
            <g transform="matrix(0.42911,-0.903252,0.903252,0.42911,-115.181,114.123)">
                <g transform="matrix(32.7083,0,0,32.7083,32.6912,148.18)">
                    <path d="M0.072,-0L0.072,-0.529L0.164,-0.529L0.169,-0.435L0.174,-0.435C0.185,-0.469 0.205,-0.494 0.233,-0.511C0.261,-0.527 0.292,-0.536 0.327,-0.536C0.333,-0.536 0.339,-0.535 0.344,-0.535C0.349,-0.535 0.354,-0.535 0.358,-0.534L0.358,-0.437C0.354,-0.438 0.349,-0.438 0.344,-0.438C0.338,-0.438 0.332,-0.438 0.326,-0.438C0.295,-0.438 0.268,-0.433 0.246,-0.422C0.224,-0.411 0.207,-0.396 0.195,-0.376C0.183,-0.356 0.176,-0.331 0.174,-0.302L0.174,-0L0.072,-0Z" style="fill:white;fill-rule:nonzero;"/>
                </g>
            </g>
            <g transform="matrix(0.485906,-0.874011,0.874011,0.485906,-102.331,103.633)">
                <g transform="matrix(32.7083,0,0,32.7083,36.9273,138.803)">
                    <path d="M0.252,0.009C0.22,0.009 0.191,0.003 0.164,-0.009C0.138,-0.021 0.115,-0.038 0.096,-0.062C0.077,-0.085 0.062,-0.113 0.052,-0.147C0.042,-0.181 0.036,-0.22 0.036,-0.265C0.036,-0.324 0.045,-0.373 0.064,-0.414C0.082,-0.455 0.107,-0.486 0.139,-0.507C0.172,-0.528 0.209,-0.538 0.252,-0.538C0.282,-0.538 0.308,-0.533 0.333,-0.524C0.357,-0.515 0.377,-0.501 0.394,-0.485C0.411,-0.468 0.424,-0.448 0.432,-0.425L0.438,-0.425L0.442,-0.529L0.541,-0.529L0.541,-0L0.438,-0L0.438,-0.105L0.432,-0.105C0.42,-0.071 0.397,-0.043 0.366,-0.022C0.335,-0.002 0.296,0.009 0.252,0.009ZM0.288,-0.076C0.321,-0.076 0.348,-0.084 0.37,-0.099C0.392,-0.114 0.409,-0.134 0.42,-0.158C0.431,-0.182 0.437,-0.208 0.437,-0.235L0.437,-0.295C0.437,-0.322 0.431,-0.348 0.42,-0.372C0.409,-0.396 0.392,-0.416 0.37,-0.431C0.348,-0.446 0.321,-0.454 0.288,-0.454C0.259,-0.454 0.233,-0.446 0.211,-0.432C0.189,-0.418 0.172,-0.397 0.16,-0.369C0.148,-0.341 0.142,-0.307 0.142,-0.265C0.142,-0.224 0.148,-0.189 0.16,-0.161C0.172,-0.133 0.189,-0.112 0.211,-0.097C0.233,-0.083 0.259,-0.076 0.288,-0.076Z" style="fill:white;fill-rule:nonzero;"/>
                </g>
            </g>
            <g transform="matrix(0.567005,-0.823715,0.823715,0.567005,-80.5746,90.9453)">
                <g transform="matrix(32.7083,0,0,32.7083,46.2182,122.114)">
                    <path d="M0.252,0.009C0.22,0.009 0.191,0.003 0.164,-0.009C0.138,-0.021 0.115,-0.038 0.096,-0.062C0.077,-0.085 0.062,-0.113 0.052,-0.147C0.042,-0.181 0.036,-0.22 0.036,-0.265C0.036,-0.324 0.045,-0.373 0.064,-0.414C0.082,-0.455 0.107,-0.486 0.139,-0.507C0.172,-0.528 0.209,-0.538 0.252,-0.538C0.282,-0.538 0.308,-0.533 0.333,-0.524C0.357,-0.515 0.377,-0.501 0.394,-0.485C0.411,-0.468 0.424,-0.448 0.432,-0.425L0.438,-0.425L0.438,-0.729L0.541,-0.729L0.541,-0L0.442,-0L0.438,-0.105L0.432,-0.105C0.42,-0.071 0.397,-0.043 0.366,-0.022C0.335,-0.002 0.296,0.009 0.252,0.009ZM0.288,-0.076C0.321,-0.076 0.348,-0.084 0.37,-0.099C0.392,-0.114 0.409,-0.134 0.42,-0.158C0.431,-0.182 0.437,-0.208 0.437,-0.235L0.437,-0.295C0.437,-0.315 0.434,-0.335 0.427,-0.354C0.421,-0.373 0.412,-0.39 0.399,-0.405C0.387,-0.42 0.372,-0.431 0.353,-0.44C0.334,-0.449 0.313,-0.454 0.288,-0.454C0.259,-0.454 0.233,-0.446 0.211,-0.432C0.189,-0.418 0.172,-0.397 0.16,-0.369C0.148,-0.341 0.142,-0.307 0.142,-0.265C0.142,-0.224 0.148,-0.189 0.16,-0.161C0.172,-0.133 0.189,-0.112 0.211,-0.097C0.233,-0.083 0.259,-0.076 0.288,-0.076Z" style="fill:white;fill-rule:nonzero;"/>
                </g>
            </g>
            <g transform="matrix(0.641667,-0.766983,0.766983,0.641667,-61.1852,81.8825)">
                <g transform="matrix(32.7083,0,0,32.7083,57.0389,106.422)">
                    <path d="M0.292,0.009C0.239,0.009 0.194,-0.002 0.156,-0.025C0.117,-0.047 0.088,-0.079 0.067,-0.12C0.047,-0.16 0.036,-0.208 0.036,-0.262C0.036,-0.318 0.047,-0.366 0.067,-0.408C0.087,-0.449 0.116,-0.481 0.154,-0.504C0.192,-0.526 0.236,-0.537 0.288,-0.537C0.346,-0.537 0.394,-0.525 0.432,-0.499C0.469,-0.474 0.496,-0.439 0.513,-0.394C0.53,-0.35 0.535,-0.3 0.53,-0.244L0.138,-0.244C0.139,-0.207 0.145,-0.176 0.158,-0.15C0.171,-0.125 0.189,-0.105 0.212,-0.092C0.235,-0.078 0.261,-0.071 0.292,-0.071C0.328,-0.071 0.359,-0.08 0.383,-0.097C0.407,-0.113 0.422,-0.135 0.429,-0.163L0.527,-0.163C0.523,-0.128 0.51,-0.098 0.488,-0.073C0.467,-0.047 0.439,-0.027 0.405,-0.013C0.372,0.002 0.334,0.009 0.292,0.009ZM0.139,-0.302L0.129,-0.311L0.439,-0.311L0.429,-0.3C0.43,-0.335 0.425,-0.364 0.413,-0.388C0.401,-0.411 0.384,-0.428 0.363,-0.44C0.342,-0.452 0.316,-0.458 0.287,-0.458C0.258,-0.458 0.232,-0.451 0.21,-0.439C0.188,-0.426 0.171,-0.408 0.159,-0.385C0.147,-0.361 0.14,-0.334 0.139,-0.302Z" style="fill:white;fill-rule:nonzero;"/>
                </g>
            </g>
            <g transform="matrix(0.72132,-0.692602,0.692602,0.72132,-39.6588,75.5265)">
                <g transform="matrix(32.7083,0,0,32.7083,74.0235,87.0452)">
                    <path d="M0.051,-0.277C0.051,-0.3 0.057,-0.32 0.067,-0.338C0.078,-0.356 0.092,-0.37 0.11,-0.381C0.128,-0.391 0.149,-0.396 0.172,-0.396C0.208,-0.396 0.237,-0.385 0.259,-0.362C0.281,-0.34 0.292,-0.311 0.292,-0.277C0.292,-0.255 0.287,-0.234 0.277,-0.216C0.267,-0.199 0.253,-0.184 0.235,-0.174C0.217,-0.164 0.196,-0.159 0.172,-0.159C0.149,-0.159 0.128,-0.164 0.11,-0.174C0.092,-0.184 0.078,-0.199 0.067,-0.216C0.057,-0.234 0.051,-0.255 0.051,-0.277Z" style="fill:white;fill-rule:nonzero;"/>
                </g>
            </g>
        </g>
        <g id="A-" serif:id="A+" transform="matrix(1,0,0,1,0.413939,62.236)">
            <g transform="matrix(1,0,0,1,26.2203,-7.70095)">
                <g transform="matrix(300,0,0,300,109.966,303.282)">
                    <path d="M0.371,0.009C0.317,0.009 0.27,0.001 0.229,-0.015C0.187,-0.031 0.153,-0.054 0.125,-0.084C0.098,-0.114 0.077,-0.149 0.063,-0.191C0.049,-0.232 0.043,-0.278 0.045,-0.329C0.047,-0.391 0.058,-0.447 0.078,-0.497C0.098,-0.547 0.125,-0.59 0.16,-0.626C0.195,-0.662 0.235,-0.689 0.282,-0.709C0.329,-0.728 0.381,-0.738 0.438,-0.738C0.5,-0.738 0.554,-0.726 0.601,-0.704C0.648,-0.682 0.685,-0.651 0.711,-0.612C0.738,-0.573 0.751,-0.528 0.752,-0.476L0.598,-0.476C0.596,-0.502 0.588,-0.525 0.574,-0.545C0.56,-0.565 0.541,-0.58 0.517,-0.591C0.493,-0.602 0.466,-0.607 0.435,-0.607C0.389,-0.607 0.35,-0.595 0.316,-0.572C0.282,-0.548 0.255,-0.515 0.236,-0.473C0.217,-0.43 0.207,-0.38 0.204,-0.323C0.204,-0.29 0.207,-0.261 0.214,-0.236C0.221,-0.211 0.232,-0.19 0.246,-0.173C0.26,-0.156 0.277,-0.143 0.298,-0.135C0.318,-0.126 0.34,-0.122 0.365,-0.121C0.398,-0.121 0.427,-0.126 0.452,-0.136C0.478,-0.146 0.499,-0.16 0.517,-0.18C0.534,-0.2 0.547,-0.223 0.555,-0.25L0.711,-0.25C0.701,-0.197 0.681,-0.151 0.649,-0.112C0.618,-0.073 0.578,-0.043 0.531,-0.022C0.483,-0.001 0.43,0.009 0.371,0.009Z" style="fill:white;fill-rule:nonzero;"/>
                </g>
            </g>
        </g>
    </g>
</svg>
