<?xml version="1.0" encoding="UTF-8"?>
<svg width="100pt" height="100pt" version="1.1" viewBox="0 0 100 100" xmlns="http://www.w3.org/2000/svg">
 <g>
  <path d="m90.164 79.199h-6.3828v-4.0703c0-0.55078-0.44531-1-1-1h-2.6992c-0.59766-14.867-12.078-27.02-26.633-28.695 3.9062-2.6641 3.9375-5.4492 3.9336-5.5273 0.19141-2.9648-2.3984-4.2969-2.4609-4.3242-0.78125-0.44922-1.5859-0.67578-2.3867-0.67578-1.0977 0-1.9648 0.42969-2.5352 0.83203-0.57031-0.39844-1.4375-0.83203-2.5352-0.83203-0.80078 0-1.6016 0.22656-2.3359 0.64844-0.10938 0.054687-2.7031 1.3867-2.5117 4.2734-0.003907 0.14062 0.027343 2.9336 3.9414 5.6055-3.8594 0.44531-7.6133 1.6211-11.012 3.4844-0.48438 0.26562-0.66016 0.875-0.39453 1.3594s0.87109 0.66016 1.3555 0.39453c4.0859-2.2422 8.7227-3.4297 13.414-3.4414l0.078125 0.035156 0.082031-0.035156c15.016 0.042969 27.363 12.004 28.004 26.898h-56.172c0.14063-3.3516 0.86719-6.6016 2.1641-9.6797 0.21484-0.50781-0.023437-1.0938-0.53516-1.3086-0.50781-0.21094-1.0938 0.023437-1.3086 0.53516-1.3984 3.3242-2.1719 6.8398-2.3125 10.457h-2.6992c-0.55469 0-1 0.44922-1 1v4.0664h-6.2461c-0.55469 0-1 0.44922-1 1s0.44531 1 1 1h80.188c0.55469 0 1-0.44922 1-1 0-0.55469-0.44531-1-1-1zm-45.551-39.422c-0.10547-1.625 1.3555-2.4062 1.457-2.4609 0.47656-0.27344 0.94531-0.41016 1.3945-0.41016 1.0625 0 1.7734 0.79297 1.7734 0.79297l0.75391 0.875 0.76562-0.86719c0.007813-0.007812 0.71875-0.80078 1.7773-0.80078 0.44531 0 0.91406 0.13672 1.4375 0.43359 0.0625 0.03125 1.5195 0.8125 1.4141 2.4922 0 0.027344-0.14844 2.8438-5.3867 5.2461-5.2344-2.4023-5.3867-5.2148-5.3867-5.3008zm36.168 39.422h-62.562v-3.0703h63.559v3.0664z"/>
  <path d="m73.16 50.645c0.17578 0.21484 0.42969 0.34766 0.70703 0.36719 0.49219 0.035156 0.96094 0.050781 1.4023 0.050781 6.0078 0 7.5859-2.9961 7.6133-3.0547 1.4688-2.4297-0.14453-4.6992-0.18359-4.7461-0.86328-1.3398-2.1523-2.0781-3.6328-2.0781-0.19922 0-0.39062 0.015625-0.5625 0.035156-0.57031-1.0625-1.7695-2.2617-3.8633-2.2617l-0.19531 0.003907c-0.29687 0-2.9141 0.070312-3.9883 2.5156-0.070312 0.14063-1.832 3.5938 2.7031 9.168zm-0.90234-8.2969c0.60156-1.3711 2.125-1.3906 2.2383-1.3906l0.14844-0.003906c1.8125 0 2.2344 1.4922 2.2773 1.6523 0.0625 0.28125 0.25391 0.52344 0.51172 0.66016 0.25781 0.13672 0.56641 0.15234 0.83594 0.046875 0.003907 0 0.34375-0.12891 0.80469-0.12891 0.80859 0 1.4453 0.37891 1.9805 1.207 0.007812 0.011719 0.90625 1.2773 0.09375 2.6328-0.050782 0.089843-1.3867 2.2812-6.7031 2.0195-3.293-4.2344-2.2188-6.6211-2.1875-6.6953z"/>
  <path d="m26.293 59.441c0.3125 0 0.62109-0.14453 0.8125-0.41797 1.5938-2.2344 3.5039-4.2188 5.6758-5.9023 0.4375-0.33984 0.51562-0.96875 0.17578-1.4023-0.33984-0.4375-0.96484-0.51562-1.4023-0.17578-2.3242 1.8047-4.3672 3.9297-6.0742 6.3203-0.32031 0.44922-0.21875 1.0742 0.23047 1.3945 0.17969 0.125 0.38281 0.18359 0.58203 0.18359z"/>
  <path d="m64.824 68.344c0.035156 0.52734 0.47656 0.92969 0.99609 0.92969 0.023438 0 0.046876 0 0.070313-0.003907 0.55078-0.039062 0.96484-0.51562 0.92578-1.0664-0.88281-12.473-9.7617-15.27-10.141-15.383-0.53125-0.16016-1.0859 0.14063-1.2461 0.67188-0.15625 0.52734 0.14453 1.0859 0.67187 1.2461 0.085938 0.019531 7.9375 2.4961 8.7227 13.605z"/>
  <path d="m65.941 16.254c0.039063 0.003906 0.082032 0.007813 0.12109 0.007813 0.5 0 0.93359-0.37109 0.99219-0.88281l0.30078-2.5234c0.066406-0.54688-0.32422-1.0469-0.875-1.1133-0.55859-0.054688-1.0469 0.32812-1.1133 0.875l-0.30078 2.5234c-0.066406 0.55078 0.32812 1.0469 0.875 1.1133z"/>
  <path d="m64.293 21.633c-0.066407 0.54688 0.32422 1.0469 0.875 1.1133 0.039062 0.003906 0.082031 0.007812 0.12109 0.007812 0.5 0 0.93359-0.37109 0.99219-0.88281l0.30078-2.5234c0.066407-0.54688-0.32422-1.0469-0.875-1.1133-0.56641-0.054687-1.0469 0.32812-1.1133 0.875z"/>
  <path d="m61.199 17.699 2.5234 0.30078c0.039063 0.003906 0.078125 0.007812 0.11719 0.007812 0.5 0 0.93359-0.375 0.99219-0.88281 0.066407-0.54688-0.32422-1.0469-0.875-1.1133l-2.5234-0.30078c-0.55469-0.058594-1.0469 0.32812-1.1094 0.875-0.066407 0.55078 0.32422 1.0508 0.875 1.1133z"/>
  <path d="m66.812 17.363c-0.066406 0.54688 0.32422 1.0469 0.875 1.1094l2.5234 0.30078c0.039062 0.003906 0.078124 0.007812 0.11719 0.007812 0.5 0 0.93359-0.375 0.99219-0.88281 0.066407-0.54688-0.32422-1.0469-0.875-1.1094l-2.5234-0.30078c-0.55078-0.058593-1.043 0.32812-1.1094 0.875z"/>
  <path d="m87.406 36.195c0.039062 0.003907 0.078125 0.007813 0.11719 0.007813 0.5 0 0.93359-0.375 0.99219-0.88281l0.30078-2.5234c0.066406-0.54688-0.32422-1.0469-0.875-1.1094-0.55469-0.058594-1.0469 0.32812-1.1094 0.875l-0.30078 2.5234c-0.066406 0.54687 0.32422 1.043 0.875 1.1094z"/>
  <path d="m85.758 41.574c-0.066406 0.54688 0.32422 1.0469 0.875 1.1094 0.039063 0.003906 0.078126 0.007812 0.11719 0.007812 0.5 0 0.93359-0.375 0.99219-0.88281l0.30078-2.5234c0.066406-0.54688-0.32422-1.0469-0.875-1.1094-0.55469-0.0625-1.0469 0.32812-1.1094 0.875z"/>
  <path d="m82.66 37.641 2.5234 0.30078c0.039062 0.003906 0.078125 0.007813 0.11719 0.007813 0.5 0 0.93359-0.375 0.99219-0.88281 0.066406-0.54688-0.32422-1.0469-0.875-1.1133l-2.5234-0.30078c-0.55469-0.058594-1.0469 0.32812-1.1094 0.875s0.32812 1.0469 0.875 1.1133z"/>
  <path d="m91.914 36.73-2.5234-0.30078c-0.55859-0.058594-1.0469 0.32812-1.1094 0.875-0.066406 0.54687 0.32422 1.0469 0.875 1.1133l2.5234 0.30078c0.039062 0.003906 0.078124 0.007812 0.11719 0.007812 0.5 0 0.93359-0.375 0.99219-0.88281 0.066407-0.55078-0.32812-1.0469-0.875-1.1133z"/>
  <path d="m19.645 41.695c-0.25781-0.48828-0.86328-0.67578-1.3516-0.41406-0.48828 0.25781-0.67578 0.86328-0.41406 1.3516l1.1914 2.2461c0.17969 0.33984 0.52734 0.53125 0.88672 0.53125 0.15625 0 0.31641-0.035156 0.46875-0.11719 0.48828-0.25781 0.67578-0.86328 0.41406-1.3516z"/>
  <path d="m22.133 50.656c0.17969 0.33984 0.52734 0.53125 0.88672 0.53125 0.15625 0 0.31641-0.035156 0.46875-0.11719 0.48828-0.25781 0.67578-0.86328 0.41406-1.3516l-1.1914-2.2461c-0.25781-0.48828-0.86328-0.67578-1.3516-0.41406-0.48828 0.25781-0.67578 0.86328-0.41406 1.3516z"/>
  <path d="m16.879 49.301c0.15625 0 0.31641-0.035156 0.46875-0.11719l2.2461-1.1914c0.48828-0.25781 0.67578-0.86328 0.41406-1.3516-0.25781-0.48828-0.86328-0.67578-1.3516-0.41406l-2.2461 1.1914c-0.48828 0.25781-0.67578 0.86328-0.41406 1.3516 0.17969 0.33984 0.52344 0.53125 0.88281 0.53125z"/>
  <path d="m25.781 43.582c-0.26172-0.48828-0.86328-0.67578-1.3516-0.41406l-2.2461 1.1914c-0.48828 0.25781-0.67578 0.86328-0.41406 1.3516 0.17969 0.33984 0.52734 0.53125 0.88672 0.53125 0.15625 0 0.31641-0.035157 0.46875-0.11719l2.2461-1.1914c0.48438-0.25781 0.67188-0.86328 0.41016-1.3516z"/>
  <path d="m28.555 32.305c0.046874 0.007812 0.089843 0.007812 0.13672 0.007812 0.23047 0 0.44922-0.078125 0.63281-0.22266 0.85156-0.69141 1.6094-1.3984 2.3125-2.1094 0.91016 0.27344 2.043 0.46875 3.4453 0.46875 1.3125 0 2.7539-0.17188 4.2852-0.50781 0.26953-0.058594 0.50391-0.22656 0.64453-0.46484 1.9844-3.3477 2.4844-5.9141 2.4492-7.7266h8.2148c0.55469 0 1-0.44922 1-1s-0.44531-1-1-1h-8.5c-0.23438-0.77734-0.51953-1.1875-0.54297-1.2188-0.91406-1.4531-2.4883-2.2852-4.3164-2.2852-0.38281 0-0.63281 0.039062-0.63281 0.039062-0.92969 0.10156-1.6758 0.38672-2.2773 0.76562-1.3867-1.3789-3.1016-1.7344-3.1406-1.7383-3.2344-0.8125-5.3945 0.76172-6.4453 2.1836-1.6406-0.66406-4.293-0.89453-6.6016 1.4492-0.12109 0.10938-2.9648 2.7461-1.6758 6.4023 0.054687 0.22266 1.5859 5.5312 12.012 6.957zm8.3945-14.039c0.027343-0.003906 0.16406-0.019531 0.36328-0.019531 0.66016 0 1.8828 0.17578 2.6562 1.3984 0.019531 0.027344 1.7812 2.7266-1.4609 8.4336-1.2305 0.24609-2.3828 0.37109-3.4297 0.37109-3.75 0-4.9844-1.5586-5.0703-1.6719-1.207-1.4609-0.36328-3.1836-0.30469-3.3008 0.55469-1.2188 1.4609-1.8398 2.6953-1.8398 0.32422 0 0.54687 0.046875 0.55078 0.046875 0.28125 0.070312 0.58203 0.007812 0.82031-0.16016 0.23828-0.16797 0.39062-0.4375 0.41797-0.72656 0.019531-0.22656 0.28125-2.2617 2.7617-2.5312zm-17.352 2.1211c2.3555-2.3906 4.7656-0.92188 5.0273-0.74609 0.24219 0.16406 0.54688 0.21094 0.82422 0.13281 0.28125-0.078126 0.51562-0.27344 0.64062-0.53906 0.13672-0.28906 1.4297-2.8008 4.7383-1.9688 0.015625 0.003906 1.207 0.26562 2.1484 1.1875-0.26172 0.39453-0.45312 0.80469-0.57812 1.1875-2.0039 0-3.6484 1.0977-4.4922 2.9609-0.0625 0.11719-1.5039 2.9492 0.51562 5.3867 0.078125 0.10938 0.45312 0.60547 1.2617 1.1211-0.40625 0.38672-0.83203 0.77344-1.2891 1.1523-8.5977-1.3047-9.918-5.4062-9.9492-5.5078-0.86328-2.457 1.0352-4.2578 1.1523-4.3672z"/>
 </g>
</svg>
