<svg clip-rule="evenodd" fill-rule="evenodd" stroke-linejoin="round" stroke-miterlimit="2" viewBox="0 0 500 500" xmlns="http://www.w3.org/2000/svg"><path d="m0 0h500v500h-500z" fill="none"/><path d="m498.29 263.511c0-130.83-107.603-237.048-240.138-237.048h-1.389c-132.536 0-240.138 106.218-240.138 237.048 0 130.831 107.602 237.049 240.138 237.049h1.389c132.535 0 240.138-106.218 240.138-237.049z" fill="#74ddff" transform="matrix(1.02839 0 0 1.04179 -15.1471 -24.4365)"/><g fill="#fff" fill-rule="nonzero"><path d="m.271 0-.266-.729h.122l.176.507.038.119h.007l.039-.118.177-.508h.12l-.265.729z" transform="matrix(26.2445184623 -19.5207059396 19.5207059396 26.2445184623 115.8733269396 96.7217704333)"/><path d="m.292.009c-.053 0-.098-.011-.136-.034-.039-.022-.068-.054-.089-.095-.02-.04-.031-.088-.031-.142 0-.056.011-.104.031-.146.02-.041.049-.073.087-.096.038-.022.082-.033.134-.033.058 0 .106.012.144.038.037.025.064.06.081.105.017.044.022.094.017.15h-.392c.001.037.007.068.02.094.013.025.031.045.054.058.023.014.049.021.08.021.036 0 .067-.009.091-.026.024-.016.039-.038.046-.066h.098c-.004.035-.017.065-.039.09-.021.026-.049.046-.083.06-.033.015-.071.022-.113.022zm-.153-.311-.01-.009h.31l-.01.011c.001-.035-.004-.064-.016-.088-.012-.023-.029-.04-.05-.052s-.047-.018-.076-.018-.055.007-.077.019c-.022.013-.039.031-.051.054-.012.024-.019.051-.02.083z" transform="matrix(27.7635573309 -17.2921586274 17.2921586274 27.7635573309 130.9047488778 85.4496381938)"/><path d="m.281.177c-.042 0-.079-.006-.11-.019-.032-.012-.057-.029-.075-.052-.019-.023-.03-.05-.034-.081h.1c.003.016.009.029.02.041.011.011.025.02.042.026s.036.009.059.009c.032 0 .058-.004.08-.013.021-.01.038-.024.049-.044s.017-.046.017-.079v-.103h-.007c-.012.032-.033.058-.064.078-.031.019-.067.029-.109.029-.032 0-.061-.005-.087-.016-.027-.012-.049-.028-.068-.05-.018-.022-.033-.048-.043-.08-.01-.031-.015-.067-.015-.107 0-.054.009-.1.027-.138s.043-.066.075-.086.07-.03.112-.03.078.01.109.029c.03.02.051.046.063.078h.007l.002-.098h.1v.48c0 .042-.006.077-.018.105-.012.029-.029.052-.051.07s-.049.031-.079.039c-.031.008-.065.012-.102.012zm.003-.288c.031 0 .057-.007.078-.021s.038-.032.049-.054c.011-.021.017-.044.018-.067l-.001-.064c0-.023-.006-.045-.017-.066-.011-.022-.027-.039-.048-.053s-.047-.021-.078-.021c-.029 0-.054.007-.076.02-.021.014-.038.033-.05.059-.011.026-.017.057-.017.094s.006.069.018.095c.011.025.028.045.049.058.022.013.047.02.075.02z" transform="matrix(29.2012179491 -14.7350564417 14.7350564417 29.2012179491 146.4008173409 75.7816356807)"/><path d="m.252.009c-.032 0-.061-.006-.088-.018-.026-.012-.049-.029-.068-.053-.019-.023-.034-.051-.044-.085s-.016-.073-.016-.118c0-.059.009-.108.028-.149.018-.041.043-.072.075-.093.033-.021.07-.031.113-.031.03 0 .056.005.081.014.024.009.044.023.061.039.017.017.03.037.038.06h.006l.004-.104h.099v.529h-.103v-.105h-.006c-.012.034-.035.062-.066.083-.031.02-.07.031-.114.031zm.036-.085c.033 0 .06-.008.082-.023s.039-.035.05-.059.017-.05.017-.077v-.06c0-.027-.006-.053-.017-.077s-.028-.044-.05-.059-.049-.023-.082-.023c-.029 0-.055.008-.077.022s-.039.035-.051.063-.018.062-.018.104c0 .041.006.076.018.104s.029.049.051.064c.022.014.048.021.077.021z" transform="matrix(30.4402737697 -11.9675417621 11.9675417621 30.4402737697 163.0738015553 67.3653658421)"/><path d="m.072 0v-.529h.098l.004.105h.006c.015-.037.039-.066.072-.085.032-.019.068-.028.107-.028.027 0 .052.004.075.012s.043.021.06.039c.017.017.03.04.04.069.009.028.014.062.014.103v.314h-.103v-.293c0-.036-.004-.066-.013-.089-.009-.024-.022-.041-.04-.053-.018-.011-.042-.017-.07-.017-.03 0-.056.007-.079.022-.022.015-.039.034-.051.059-.012.024-.018.052-.018.082v.289z" transform="matrix(31.4588102317 -8.9541260831 8.9541260831 31.4588102317 180.816811227 60.363202039)"/><path d="m.397.009c-.054 0-.102-.009-.146-.026s-.082-.042-.113-.075c-.032-.032-.056-.071-.073-.117s-.025-.098-.025-.155c0-.058.008-.11.025-.156s.041-.085.073-.117c.032-.033.07-.058.113-.075.044-.017.092-.025.146-.025.06 0 .114.01.161.031s.085.05.115.088c.03.037.048.082.055.133h-.11c-.007-.031-.02-.058-.04-.082s-.045-.042-.075-.056c-.031-.013-.066-.02-.106-.02-.05 0-.094.011-.13.033-.037.022-.065.053-.085.095-.02.041-.03.092-.03.151 0 .044.006.083.017.118.012.035.028.064.049.088.021.023.047.041.077.054.03.012.064.019.102.019.039 0 .074-.007.105-.02.031-.014.057-.033.077-.057s.033-.052.039-.085l.11.001c-.006.051-.024.096-.053.134-.03.039-.069.068-.116.089-.048.021-.102.032-.162.032z" transform="matrix(32.2297121544 -5.5748353603 5.5748353603 32.2297121544 199.2148084426 54.9338174098)"/><path d="m.072 0v-.729h.102v.305h.006c.015-.037.039-.066.072-.085.032-.019.068-.028.107-.028.027 0 .052.004.075.012s.043.021.06.039c.017.017.03.04.04.069.009.028.014.062.014.103v.314h-.103v-.293c0-.036-.004-.066-.013-.089-.009-.024-.022-.041-.04-.053-.018-.011-.042-.017-.07-.017-.03 0-.056.007-.079.022-.022.015-.039.034-.051.059-.012.024-.018.052-.018.082v.289z" transform="matrix(32.6442571486 -2.04573408184 2.04573408184 32.6442571486 223.63377050128 50.8268800552)"/><path d="m.292.009c-.053 0-.098-.011-.136-.034-.039-.022-.068-.054-.089-.095-.02-.04-.031-.088-.031-.142 0-.056.011-.104.031-.146.02-.041.049-.073.087-.096.038-.022.082-.033.134-.033.058 0 .106.012.144.038.037.025.064.06.081.105.017.044.022.094.017.15h-.392c.001.037.007.068.02.094.013.025.031.045.054.058.023.014.049.021.08.021.036 0 .067-.009.091-.026.024-.016.039-.038.046-.066h.098c-.004.035-.017.065-.039.09-.021.026-.049.046-.083.06-.033.015-.071.022-.113.022zm-.153-.311-.01-.009h.31l-.01.011c.001-.035-.004-.064-.016-.088-.012-.023-.029-.04-.05-.052s-.047-.018-.076-.018-.055.007-.077.019c-.022.013-.039.031-.051.054-.012.024-.019.051-.02.083z" transform="matrix(32.7083 0 0 32.7083 242.7568 49.7864)"/><path d="m.293.009c-.039 0-.074-.007-.105-.02-.032-.013-.059-.031-.081-.055-.023-.024-.04-.053-.052-.086-.013-.033-.019-.071-.019-.112 0-.055.011-.103.032-.144.022-.041.052-.072.091-.095s.085-.034.138-.034c.043 0 .081.008.114.024.034.016.061.038.082.067.02.028.032.062.034.1h-.1c-.004-.023-.012-.043-.025-.058-.012-.015-.028-.027-.046-.035-.019-.008-.04-.012-.062-.012-.032 0-.06.007-.083.023s-.04.038-.052.066-.018.061-.018.099c0 .039.006.073.019.101.013.027.03.049.053.063.023.015.049.022.08.022.026 0 .048-.005.068-.014.019-.009.035-.022.047-.039.011-.017.018-.037.021-.059h.1c-.003.04-.014.075-.035.105-.021.029-.049.052-.083.068-.034.017-.074.025-.118.025z" transform="matrix(32.598073029 2.68285905754 -2.68285905754 32.598073029 261.05371952288 49.725665734)"/><path d="m.072 0v-.729h.104v.453l.046-.05.197-.203h.128l-.205.206.213.323h-.121l-.132-.2-.032-.053-.094.091v.162z" transform="matrix(32.2144373783 5.6623627711 -5.6623627711 32.2144373783 278.86771344 51.11538656)"/><path d="m.396.009c-.055 0-.104-.009-.148-.027s-.082-.043-.113-.076-.055-.072-.071-.118-.024-.097-.024-.152c0-.058.008-.11.026-.156.017-.046.041-.085.073-.117.032-.033.07-.058.114-.075.045-.017.094-.025.147-.025.062 0 .117.01.164.031.048.021.086.05.115.087s.047.081.053.132h-.112c-.006-.034-.019-.062-.04-.085-.02-.023-.046-.04-.077-.052-.03-.012-.065-.018-.103-.018-.05 0-.094.01-.131.032-.038.022-.067.053-.087.094-.021.042-.031.092-.031.151 0 .044.006.084.017.119.012.035.028.064.05.088.022.025.048.043.078.055.03.013.064.019.102.019.048 0 .09-.009.126-.027s.064-.045.083-.08c.02-.034.03-.076.03-.124v-.024l.036.04h-.268v-.081h.343v.053c0 .051-.009.098-.025.139-.017.042-.041.077-.072.106s-.068.052-.111.067c-.043.016-.091.024-.144.024z" transform="matrix(31.1559313737 9.9569952694 -9.9569952694 31.1559313737 303.3928871392 55.5483606509)"/><path d="m.072 0v-.529h.092l.005.094h.005c.011-.034.031-.059.059-.076.028-.016.059-.025.094-.025.006 0 .012.001.017.001s.01 0 .014.001v.097c-.004-.001-.009-.001-.014-.001-.006 0-.012 0-.018 0-.031 0-.058.005-.08.016s-.039.026-.051.046-.019.045-.021.074v.302z" transform="matrix(30.0333498094 12.9549072142 -12.9549072142 30.0333498094 327.8026720816 63.6481500488)"/><path d="m.252.009c-.032 0-.061-.006-.088-.018-.026-.012-.049-.029-.068-.053-.019-.023-.034-.051-.044-.085s-.016-.073-.016-.118c0-.059.009-.108.028-.149.018-.041.043-.072.075-.093.033-.021.07-.031.113-.031.03 0 .056.005.081.014.024.009.044.023.061.039.017.017.03.037.038.06h.006l.004-.104h.099v.529h-.103v-.105h-.006c-.012.034-.035.062-.066.083-.031.02-.07.031-.114.031zm.036-.085c.033 0 .06-.008.082-.023s.039-.035.05-.059.017-.05.017-.077v-.06c0-.027-.006-.053-.017-.077s-.028-.044-.05-.059-.049-.023-.082-.023c-.029 0-.055.008-.077.022s-.039.035-.051.063-.018.062-.018.104c0 .041.006.076.018.104s.029.049.051.064c.022.014.048.021.077.021z" transform="matrix(29.1622623638 14.8120190716 -14.8120190716 29.1622623638 337.3669169928 67.5636323546)"/><path d="m.252.009c-.032 0-.061-.006-.088-.018-.026-.012-.049-.029-.068-.053-.019-.023-.034-.051-.044-.085s-.016-.073-.016-.118c0-.059.009-.108.028-.149.018-.041.043-.072.075-.093.033-.021.07-.031.113-.031.03 0 .056.005.081.014.024.009.044.023.061.039.017.017.03.037.038.06h.006v-.304h.103v.729h-.099l-.004-.105h-.006c-.012.034-.035.062-.066.083-.031.02-.07.031-.114.031zm.036-.085c.033 0 .06-.008.082-.023s.039-.035.05-.059.017-.05.017-.077v-.06c0-.02-.003-.04-.01-.059-.006-.019-.015-.036-.028-.051-.012-.015-.027-.026-.046-.035s-.04-.014-.065-.014c-.029 0-.055.008-.077.022s-.039.035-.051.063-.018.062-.018.104c0 .041.006.076.018.104s.029.049.051.064c.022.014.048.021.077.021z" transform="matrix(27.6464943252 17.478661354 -17.478661354 27.6464943252 354.382625982 76.2164576852)"/><path d="m.292.009c-.053 0-.098-.011-.136-.034-.039-.022-.068-.054-.089-.095-.02-.04-.031-.088-.031-.142 0-.056.011-.104.031-.146.02-.041.049-.073.087-.096.038-.022.082-.033.134-.033.058 0 .106.012.144.038.037.025.064.06.081.105.017.044.022.094.017.15h-.392c.001.037.007.068.02.094.013.025.031.045.054.058.023.014.049.021.08.021.036 0 .067-.009.091-.026.024-.016.039-.038.046-.066h.098c-.004.035-.017.065-.039.09-.021.026-.049.046-.083.06-.033.015-.071.022-.113.022zm-.153-.311-.01-.009h.31l-.01.011c.001-.035-.004-.064-.016-.088-.012-.023-.029-.04-.05-.052s-.047-.018-.076-.018-.055.007-.077.019c-.022.013-.039.031-.051.054-.012.024-.019.051-.02.083z" transform="matrix(25.9063146403 19.9673704844 -19.9673704844 25.9063146403 370.4956752204 86.4221632227)"/><path d="m.051-.277c0-.023.006-.043.016-.061.011-.018.025-.032.043-.043.018-.01.039-.015.062-.015.036 0 .065.011.087.034.022.022.033.051.033.085 0 .022-.005.043-.015.061-.01.017-.024.032-.042.042s-.039.015-.063.015c-.023 0-.044-.005-.062-.015s-.032-.025-.043-.042c-.01-.018-.016-.039-.016-.061z" transform="matrix(23.5889315853 22.6582169088 -22.6582169088 23.5889315853 390.5380286052 102.6138154068)"/><path d="m.271 0-.266-.729h.122l.176.507.038.119h.007l.039-.118.177-.508h.12l-.265.729z" transform="matrix(20.6861353769 25.3360781381 -25.3360781381 20.6861353769 404.0408107461 115.7437657091)"/><path d="m.292.009c-.053 0-.098-.011-.136-.034-.039-.022-.068-.054-.089-.095-.02-.04-.031-.088-.031-.142 0-.056.011-.104.031-.146.02-.041.049-.073.087-.096.038-.022.082-.033.134-.033.058 0 .106.012.144.038.037.025.064.06.081.105.017.044.022.094.017.15h-.392c.001.037.007.068.02.094.013.025.031.045.054.058.023.014.049.021.08.021.036 0 .067-.009.091-.026.024-.016.039-.038.046-.066h.098c-.004.035-.017.065-.039.09-.021.026-.049.046-.083.06-.033.015-.071.022-.113.022zm-.153-.311-.01-.009h.31l-.01.011c.001-.035-.004-.064-.016-.088-.012-.023-.029-.04-.05-.052s-.047-.018-.076-.018-.055.007-.077.019c-.022.013-.039.031-.051.054-.012.024-.019.051-.02.083z" transform="matrix(18.5051132246 26.9702175144 -26.9702175144 18.5051132246 415.974975158 130.241636564)"/><path d="m.281.177c-.042 0-.079-.006-.11-.019-.032-.012-.057-.029-.075-.052-.019-.023-.03-.05-.034-.081h.1c.003.016.009.029.02.041.011.011.025.02.042.026s.036.009.059.009c.032 0 .058-.004.08-.013.021-.01.038-.024.049-.044s.017-.046.017-.079v-.103h-.007c-.012.032-.033.058-.064.078-.031.019-.067.029-.109.029-.032 0-.061-.005-.087-.016-.027-.012-.049-.028-.068-.05-.018-.022-.033-.048-.043-.08-.01-.031-.015-.067-.015-.107 0-.054.009-.1.027-.138s.043-.066.075-.086.07-.03.112-.03.078.01.109.029c.03.02.051.046.063.078h.007l.002-.098h.1v.48c0 .042-.006.077-.018.105-.012.029-.029.052-.051.07s-.049.031-.079.039c-.031.008-.065.012-.102.012zm.003-.288c.031 0 .057-.007.078-.021s.038-.032.049-.054c.011-.021.017-.044.018-.067l-.001-.064c0-.023-.006-.045-.017-.066-.011-.022-.027-.039-.048-.053s-.047-.021-.078-.021c-.029 0-.054.007-.076.02-.021.014-.038.033-.05.059-.011.026-.017.057-.017.094s.006.069.018.095c.011.025.028.045.049.058.022.013.047.02.075.02z" transform="matrix(15.9693368505 28.5449259096 -28.5449259096 15.9693368505 426.327706068 145.304363903)"/><path d="m.252.009c-.032 0-.061-.006-.088-.018-.026-.012-.049-.029-.068-.053-.019-.023-.034-.051-.044-.085s-.016-.073-.016-.118c0-.059.009-.108.028-.149.018-.041.043-.072.075-.093.033-.021.07-.031.113-.031.03 0 .056.005.081.014.024.009.044.023.061.039.017.017.03.037.038.06h.006l.004-.104h.099v.529h-.103v-.105h-.006c-.012.034-.035.062-.066.083-.031.02-.07.031-.114.031zm.036-.085c.033 0 .06-.008.082-.023s.039-.035.05-.059.017-.05.017-.077v-.06c0-.027-.006-.053-.017-.077s-.028-.044-.05-.059-.049-.023-.082-.023c-.029 0-.055.008-.077.022s-.039.035-.051.063-.018.062-.018.104c0 .041.006.076.018.104s.029.049.051.064c.022.014.048.021.077.021z" transform="matrix(13.1997942563 29.9265572099 -29.9265572099 13.1997942563 435.430793961 161.565505613)"/><path d="m.072 0v-.529h.098l.004.105h.006c.015-.037.039-.066.072-.085.032-.019.068-.028.107-.028.027 0 .052.004.075.012s.043.021.06.039c.017.017.03.04.04.069.009.028.014.062.014.103v.314h-.103v-.293c0-.036-.004-.066-.013-.089-.009-.024-.022-.041-.04-.053-.018-.011-.042-.017-.07-.017-.03 0-.056.007-.079.022-.022.015-.039.034-.051.059-.012.024-.018.052-.018.082v.289z" transform="matrix(10.1400963328 31.0967947673 -31.0967947673 10.1400963328 443.158036751 179.021677329)"/><path d="m.397.009c-.054 0-.102-.009-.146-.026s-.082-.042-.113-.075c-.032-.032-.056-.071-.073-.117s-.025-.098-.025-.155c0-.058.008-.11.025-.156s.041-.085.073-.117c.032-.033.07-.058.113-.075.044-.017.092-.025.146-.025.06 0 .114.01.161.031s.085.05.115.088c.03.037.048.082.055.133h-.11c-.007-.031-.02-.058-.04-.082s-.045-.042-.075-.056c-.031-.013-.066-.02-.106-.02-.05 0-.094.011-.13.033-.037.022-.065.053-.085.095-.02.041-.03.092-.03.151 0 .044.006.083.017.118.012.035.028.064.049.088.021.023.047.041.077.054.03.012.064.019.102.019.039 0 .074-.007.105-.02.031-.014.057-.033.077-.057s.033-.052.039-.085l.11.001c-.006.051-.024.096-.053.134-.03.039-.069.068-.116.089-.048.021-.102.032-.162.032z" transform="matrix(6.6699746609 32.0210004921 -32.0210004921 6.6699746609 449.295375 197.222269674)"/><path d="m.072 0v-.729h.102v.305h.006c.015-.037.039-.066.072-.085.032-.019.068-.028.107-.028.027 0 .052.004.075.012s.043.021.06.039c.017.017.03.04.04.069.009.028.014.062.014.103v.314h-.103v-.293c0-.036-.004-.066-.013-.089-.009-.024-.022-.041-.04-.053-.018-.011-.042-.017-.07-.017-.03 0-.056.007-.079.022-.022.015-.039.034-.051.059-.012.024-.018.052-.018.082v.289z" transform="matrix(3.02528225024 32.5680795179 -32.5680795179 3.02528225024 454.219068844 221.423196295)"/><path d="m.292.009c-.053 0-.098-.011-.136-.034-.039-.022-.068-.054-.089-.095-.02-.04-.031-.088-.031-.142 0-.056.011-.104.031-.146.02-.041.049-.073.087-.096.038-.022.082-.033.134-.033.058 0 .106.012.144.038.037.025.064.06.081.105.017.044.022.094.017.15h-.392c.001.037.007.068.02.094.013.025.031.045.054.058.023.014.049.021.08.021.036 0 .067-.009.091-.026.024-.016.039-.038.046-.066h.098c-.004.035-.017.065-.039.09-.021.026-.049.046-.083.06-.033.015-.071.022-.113.022zm-.153-.311-.01-.009h.31l-.01.011c.001-.035-.004-.064-.016-.088-.012-.023-.029-.04-.05-.052s-.047-.018-.076-.018-.055.007-.077.019c-.022.013-.039.031-.051.054-.012.024-.019.051-.02.083z" transform="matrix(.02626411073 32.7083 -32.7083 .02626411073 456.0039893472 240.54572492156)"/><path d="m.293.009c-.039 0-.074-.007-.105-.02-.032-.013-.059-.031-.081-.055-.023-.024-.04-.053-.052-.086-.013-.033-.019-.071-.019-.112 0-.055.011-.103.032-.144.022-.041.052-.072.091-.095s.085-.034.138-.034c.043 0 .081.008.114.024.034.016.061.038.082.067.02.028.032.062.034.1h-.1c-.004-.023-.012-.043-.025-.058-.012-.015-.028-.027-.046-.035-.019-.008-.04-.012-.062-.012-.032 0-.06.007-.083.023s-.04.038-.052.066-.018.061-.018.099c0 .039.006.073.019.101.013.027.03.049.053.063.023.015.049.022.08.022.026 0 .048-.005.068-.014.019-.009.035-.022.047-.039.011-.017.018-.037.021-.059h.1c-.003.04-.014.075-.035.105-.021.029-.049.052-.083.068-.034.017-.074.025-.118.025z" transform="matrix(-2.94707670494 32.5752753439 -32.5752753439 -2.94707670494 456.033530085 258.7963579586)"/><path d="m.072 0v-.729h.104v.453l.046-.05.197-.203h.128l-.205.206.213.323h-.121l-.132-.2-.032-.053-.094.091v.162z" transform="matrix(-6.0399800946 32.1457826566 -32.1457826566 -6.0399800946 454.499467228 276.624363008)"/><path d="m.396.009c-.055 0-.104-.009-.148-.027s-.082-.043-.113-.076-.055-.072-.071-.118-.024-.097-.024-.152c0-.058.008-.11.026-.156.017-.046.041-.085.073-.117.032-.033.07-.058.114-.075.045-.017.094-.025.147-.025.062 0 .117.01.164.031.048.021.086.05.115.087s.047.081.053.132h-.112c-.006-.034-.019-.062-.04-.085-.02-.023-.046-.04-.077-.052-.03-.012-.065-.018-.103-.018-.05 0-.094.01-.131.032-.038.022-.067.053-.087.094-.021.042-.031.092-.031.151 0 .044.006.084.017.119.012.035.028.064.05.088.022.025.048.043.078.055.03.013.064.019.102.019.048 0 .09-.009.126-.027s.064-.045.083-.08c.02-.034.03-.076.03-.124v-.024l.036.04h-.268v-.081h.343v.053c0 .051-.009.098-.025.139-.017.042-.041.077-.072.106s-.068.052-.111.067c-.043.016-.091.024-.144.024z" transform="matrix(-10.4676045407 30.9881050864 -30.9881050864 -10.4676045407 449.767749372 301.112092951)"/><path d="m.072 0v-.529h.092l.005.094h.005c.011-.034.031-.059.059-.076.028-.016.059-.025.094-.025.006 0 .012.001.017.001s.01 0 .014.001v.097c-.004-.001-.009-.001-.014-.001-.006 0-.012 0-.018 0-.031 0-.058.005-.08.016s-.039.026-.051.046-.019.045-.021.074v.302z" transform="matrix(-13.5219710113 29.7823790235 -29.7823790235 -13.5219710113 441.27835885 325.336037332)"/><path d="m.252.009c-.032 0-.061-.006-.088-.018-.026-.012-.049-.029-.068-.053-.019-.023-.034-.051-.044-.085s-.016-.073-.016-.118c0-.059.009-.108.028-.149.018-.041.043-.072.075-.093.033-.021.07-.031.113-.031.03 0 .056.005.081.014.024.009.044.023.061.039.017.017.03.037.038.06h.006l.004-.104h.099v.529h-.103v-.105h-.006c-.012.034-.035.062-.066.083-.031.02-.07.031-.114.031zm.036-.085c.033 0 .06-.008.082-.023s.039-.035.05-.059.017-.05.017-.077v-.06c0-.027-.006-.053-.017-.077s-.028-.044-.05-.059-.049-.023-.082-.023c-.029 0-.055.008-.077.022s-.039.035-.051.063-.018.062-.018.104c0 .041.006.076.018.104s.029.049.051.064c.022.014.048.021.077.021z" transform="matrix(-15.411169711 28.8500943486 -28.8500943486 -15.411169711 437.168320556 334.864895628)"/><path d="m.252.009c-.032 0-.061-.006-.088-.018-.026-.012-.049-.029-.068-.053-.019-.023-.034-.051-.044-.085s-.016-.073-.016-.118c0-.059.009-.108.028-.149.018-.041.043-.072.075-.093.033-.021.07-.031.113-.031.03 0 .056.005.081.014.024.009.044.023.061.039.017.017.03.037.038.06h.006v-.304h.103v.729h-.099l-.004-.105h-.006c-.012.034-.035.062-.066.083-.031.02-.07.031-.114.031zm.036-.085c.033 0 .06-.008.082-.023s.039-.035.05-.059.017-.05.017-.077v-.06c0-.02-.003-.04-.01-.059-.006-.019-.015-.036-.028-.051-.012-.015-.027-.026-.046-.035s-.04-.014-.065-.014c-.029 0-.055.008-.077.022s-.039.035-.051.063-.018.062-.018.104c0 .041.006.076.018.104s.029.049.051.064c.022.014.048.021.077.021z" transform="matrix(-18.0961286414 27.246340983 -27.246340983 -18.0961286414 428.151760488 351.71738398)"/><path d="m.292.009c-.053 0-.098-.011-.136-.034-.039-.022-.068-.054-.089-.095-.02-.04-.031-.088-.031-.142 0-.056.011-.104.031-.146.02-.041.049-.073.087-.096.038-.022.082-.033.134-.033.058 0 .106.012.144.038.037.025.064.06.081.105.017.044.022.094.017.15h-.392c.001.037.007.068.02.094.013.025.031.045.054.058.023.014.049.021.08.021.036 0 .067-.009.091-.026.024-.016.039-.038.046-.066h.098c-.004.035-.017.065-.039.09-.021.026-.049.046-.083.06-.033.015-.071.022-.113.022zm-.153-.311-.01-.009h.31l-.01.011c.001-.035-.004-.064-.016-.088-.012-.023-.029-.04-.05-.052s-.047-.018-.076-.018-.055.007-.077.019c-.022.013-.039.031-.051.054-.012.024-.019.051-.02.083z" transform="matrix(-20.5721469514 25.4287080437 -25.4287080437 -20.5721469514 417.590814321 367.590504867)"/><path d="m.051-.277c0-.023.006-.043.016-.061.011-.018.025-.032.043-.043.018-.01.039-.015.062-.015.036 0 .065.011.087.034.022.022.033.051.033.085 0 .022-.005.043-.015.061-.01.017-.024.032-.042.042s-.039.015-.063.015c-.023 0-.044-.005-.062-.015s-.032-.025-.043-.042c-.01-.018-.016-.039-.016-.061z" transform="matrix(-23.2148140499 23.0413946433 -23.0413946433 -23.2148140499 400.953388987 387.216000661)"/><path d="m.271 0-.266-.729h.122l.176.507.038.119h.007l.039-.118.177-.508h.12l-.265.729z" transform="matrix(-25.8131286936 20.0877043201 -20.0877043201 -25.8131286936 387.505959666 400.398258813)"/><path d="m.292.009c-.053 0-.098-.011-.136-.034-.039-.022-.068-.054-.089-.095-.02-.04-.031-.088-.031-.142 0-.056.011-.104.031-.146.02-.041.049-.073.087-.096.038-.022.082-.033.134-.033.058 0 .106.012.144.038.037.025.064.06.081.105.017.044.022.094.017.15h-.392c.001.037.007.068.02.094.013.025.031.045.054.058.023.014.049.021.08.021.036 0 .067-.009.091-.026.024-.016.039-.038.046-.066h.098c-.004.035-.017.065-.039.09-.021.026-.049.046-.083.06-.033.015-.071.022-.113.022zm-.153-.311-.01-.009h.31l-.01.011c.001-.035-.004-.064-.016-.088-.012-.023-.029-.04-.05-.052s-.047-.018-.076-.018-.055.007-.077.019c-.022.013-.039.031-.051.054-.012.024-.019.051-.02.083z" transform="matrix(-27.3821131363 17.8900009348 -17.8900009348 -27.3821131363 372.707062873 412.006639784)"/><path d="m.281.177c-.042 0-.079-.006-.11-.019-.032-.012-.057-.029-.075-.052-.019-.023-.03-.05-.034-.081h.1c.003.016.009.029.02.041.011.011.025.02.042.026s.036.009.059.009c.032 0 .058-.004.08-.013.021-.01.038-.024.049-.044s.017-.046.017-.079v-.103h-.007c-.012.032-.033.058-.064.078-.031.019-.067.029-.109.029-.032 0-.061-.005-.087-.016-.027-.012-.049-.028-.068-.05-.018-.022-.033-.048-.043-.08-.01-.031-.015-.067-.015-.107 0-.054.009-.1.027-.138s.043-.066.075-.086.07-.03.112-.03.078.01.109.029c.03.02.051.046.063.078h.007l.002-.098h.1v.48c0 .042-.006.077-.018.105-.012.029-.029.052-.051.07s-.049.031-.079.039c-.031.008-.065.012-.102.012zm.003-.288c.031 0 .057-.007.078-.021s.038-.032.049-.054c.011-.021.017-.044.018-.067l-.001-.064c0-.023-.006-.045-.017-.066-.011-.022-.027-.039-.048-.053s-.047-.021-.078-.021c-.029 0-.054.007-.076.02-.021.014-.038.033-.05.059-.011.026-.017.057-.017.094s.006.069.018.095c.011.025.028.045.049.058.022.013.047.02.075.02z" transform="matrix(-28.8725649507 15.3690741289 -15.3690741289 -28.8725649507 357.444063692 421.996531906)"/><path d="m.252.009c-.032 0-.061-.006-.088-.018-.026-.012-.049-.029-.068-.053-.019-.023-.034-.051-.044-.085s-.016-.073-.016-.118c0-.059.009-.108.028-.149.018-.041.043-.072.075-.093.033-.021.07-.031.113-.031.03 0 .056.005.081.014.024.009.044.023.061.039.017.017.03.037.038.06h.006l.004-.104h.099v.529h-.103v-.105h-.006c-.012.034-.035.062-.066.083-.031.02-.07.031-.114.031zm.036-.085c.033 0 .06-.008.082-.023s.039-.035.05-.059.017-.05.017-.077v-.06c0-.027-.006-.053-.017-.077s-.028-.044-.05-.059-.049-.023-.082-.023c-.029 0-.055.008-.077.022s-.039.035-.051.063-.018.062-.018.104c0 .041.006.076.018.104s.029.049.051.064c.022.014.048.021.077.021z" transform="matrix(-30.1692200876 12.6352817066 -12.6352817066 -30.1692200876 340.990308782 430.76055679)"/><path d="m.072 0v-.529h.098l.004.105h.006c.015-.037.039-.066.072-.085.032-.019.068-.028.107-.028.027 0 .052.004.075.012s.043.021.06.039c.017.017.03.04.04.069.009.028.014.062.014.103v.314h-.103v-.293c0-.036-.004-.066-.013-.089-.009-.024-.022-.041-.04-.053-.018-.011-.042-.017-.07-.017-.03 0-.056.007-.079.022-.022.015-.039.034-.051.059-.012.024-.018.052-.018.082v.289z" transform="matrix(-31.255397314 9.640117259 -9.640117259 -31.255397314 323.37858256 438.16190491)"/><path d="m.397.009c-.054 0-.102-.009-.146-.026s-.082-.042-.113-.075c-.032-.032-.056-.071-.073-.117s-.025-.098-.025-.155c0-.058.008-.11.025-.156s.041-.085.073-.117c.032-.033.07-.058.113-.075.044-.017.092-.025.146-.025.06 0 .114.01.161.031s.085.05.115.088c.03.037.048.082.055.133h-.11c-.007-.031-.02-.058-.04-.082s-.045-.042-.075-.056c-.031-.013-.066-.02-.106-.02-.05 0-.094.011-.13.033-.037.022-.065.053-.085.095-.02.041-.03.092-.03.151 0 .044.006.083.017.118.012.035.028.064.049.088.021.023.047.041.077.054.03.012.064.019.102.019.039 0 .074-.007.105-.02.031-.014.057-.033.077-.057s.033-.052.039-.085l.11.001c-.006.051-.024.096-.053.134-.03.039-.069.068-.116.089-.048.021-.102.032-.162.032z" transform="matrix(-32.1010704105 6.2732883985 -6.2732883985 -32.1010704105 305.09203408 443.99591744)"/><path d="m.072 0v-.729h.102v.305h.006c.015-.037.039-.066.072-.085.032-.019.068-.028.107-.028.027 0 .052.004.075.012s.043.021.06.039c.017.017.03.04.04.069.009.028.014.062.014.103v.314h-.103v-.293c0-.036-.004-.066-.013-.089-.009-.024-.022-.041-.04-.053-.018-.011-.042-.017-.07-.017-.03 0-.056.007-.079.022-.022.015-.039.034-.051.059-.012.024-.018.052-.018.082v.289z" transform="matrix(-32.5927742844 2.74648651353 -2.74648651353 -32.5927742844 280.7751176692 448.6301814561)"/><path d="m.292.009c-.053 0-.098-.011-.136-.034-.039-.022-.068-.054-.089-.095-.02-.04-.031-.088-.031-.142 0-.056.011-.104.031-.146.02-.041.049-.073.087-.096.038-.022.082-.033.134-.033.058 0 .106.012.144.038.037.025.064.06.081.105.017.044.022.094.017.15h-.392c.001.037.007.068.02.094.013.025.031.045.054.058.023.014.049.021.08.021.036 0 .067-.009.091-.026.024-.016.039-.038.046-.066h.098c-.004.035-.017.065-.039.09-.021.026-.049.046-.083.06-.033.015-.071.022-.113.022zm-.153-.311-.01-.009h.31l-.01.011c.001-.035-.004-.064-.016-.088-.012-.023-.029-.04-.05-.052s-.047-.018-.076-.018-.055.007-.077.019c-.022.013-.039.031-.051.054-.012.024-.019.051-.02.083z" transform="matrix(-32.7083 0 0 -32.7083 261.6828 450.2133)"/><path d="m.293.009c-.039 0-.074-.007-.105-.02-.032-.013-.059-.031-.081-.055-.023-.024-.04-.053-.052-.086-.013-.033-.019-.071-.019-.112 0-.055.011-.103.032-.144.022-.041.052-.072.091-.095s.085-.034.138-.034c.043 0 .081.008.114.024.034.016.061.038.082.067.02.028.032.062.034.1h-.1c-.004-.023-.012-.043-.025-.058-.012-.015-.028-.027-.046-.035-.019-.008-.04-.012-.062-.012-.032 0-.06.007-.083.023s-.04.038-.052.066-.018.061-.018.099c0 .039.006.073.019.101.013.027.03.049.053.063.023.015.049.022.08.022.026 0 .048-.005.068-.014.019-.009.035-.022.047-.039.011-.017.018-.037.021-.059h.1c-.003.04-.014.075-.035.105-.021.029-.049.052-.083.068-.034.017-.074.025-.118.025z" transform="matrix(-32.6481821446 -1.98194635518 1.98194635518 -32.6481821446 243.3869255014 450.3924255462)"/><path d="m.072 0v-.729h.104v.453l.046-.05.197-.203h.128l-.205.206.213.323h-.121l-.132-.2-.032-.053-.094.091v.162z" transform="matrix(-32.3299630939 -4.9605080697 4.9605080697 -32.3299630939 225.55254068 449.38642517)"/><path d="m.396.009c-.055 0-.104-.009-.148-.027s-.082-.043-.113-.076-.055-.072-.071-.118-.024-.097-.024-.152c0-.058.008-.11.026-.156.017-.046.041-.085.073-.117.032-.033.07-.058.114-.075.045-.017.094-.025.147-.025.062 0 .117.01.164.031.048.021.086.05.115.087s.047.081.053.132h-.112c-.006-.034-.019-.062-.04-.085-.02-.023-.046-.04-.077-.052-.03-.012-.065-.018-.103-.018-.05 0-.094.01-.131.032-.038.022-.067.053-.087.094-.021.042-.031.092-.031.151 0 .044.006.084.017.119.012.035.028.064.05.088.022.025.048.043.078.055.03.013.064.019.102.019.048 0 .09-.009.126-.027s.064-.045.083-.08c.02-.034.03-.076.03-.124v-.024l.036.04h-.268v-.081h.343v.053c0 .051-.009.098-.025.139-.017.042-.041.077-.072.106s-.068.052-.111.067c-.043.016-.091.024-.144.024z" transform="matrix(-31.3660494929 -9.273784299 9.273784299 -31.3660494929 200.929262295 445.487718581)"/><path d="m.072 0v-.529h.092l.005.094h.005c.011-.034.031-.059.059-.076.028-.016.059-.025.094-.025.006 0 .012.001.017.001s.01 0 .014.001v.097c-.004-.001-.009-.001-.014-.001-.006 0-.012 0-.018 0-.031 0-.058.005-.08.016s-.039.026-.051.046-.019.045-.021.074v.302z" transform="matrix(-30.3111741096 -12.2908305993 12.2908305993 -30.3111741096 176.378152342 437.933097886)"/><path d="m.252.009c-.032 0-.061-.006-.088-.018-.026-.012-.049-.029-.068-.053-.019-.023-.034-.051-.044-.085s-.016-.073-.016-.118c0-.059.009-.108.028-.149.018-.041.043-.072.075-.093.033-.021.07-.031.113-.031.03 0 .056.005.081.014.024.009.044.023.061.039.017.017.03.037.038.06h.006l.004-.104h.099v.529h-.103v-.105h-.006c-.012.034-.035.062-.066.083-.031.02-.07.031-.114.031zm.036-.085c.033 0 .06-.008.082-.023s.039-.035.05-.059.017-.05.017-.077v-.06c0-.027-.006-.053-.017-.077s-.028-.044-.05-.059-.049-.023-.082-.023c-.029 0-.055.008-.077.022s-.039.035-.051.063-.018.062-.018.104c0 .041.006.076.018.104s.029.049.051.064c.022.014.048.021.077.021z" transform="matrix(-29.4792057908 -14.1706747252 14.1706747252 -29.4792057908 166.708656924 434.219743492)"/><path d="m.252.009c-.032 0-.061-.006-.088-.018-.026-.012-.049-.029-.068-.053-.019-.023-.034-.051-.044-.085s-.016-.073-.016-.118c0-.059.009-.108.028-.149.018-.041.043-.072.075-.093.033-.021.07-.031.113-.031.03 0 .056.005.081.014.024.009.044.023.061.039.017.017.03.037.038.06h.006v-.304h.103v.729h-.099l-.004-.105h-.006c-.012.034-.035.062-.066.083-.031.02-.07.031-.114.031zm.036-.085c.033 0 .06-.008.082-.023s.039-.035.05-.059.017-.05.017-.077v-.06c0-.02-.003-.04-.01-.059-.006-.019-.015-.036-.028-.051-.012-.015-.027-.026-.046-.035s-.04-.014-.065-.014c-.029 0-.055.008-.077.022s-.039.035-.051.063-.018.062-.018.104c0 .041.006.076.018.104s.029.049.051.064c.022.014.048.021.077.021z" transform="matrix(-28.0224762337 -16.869305725 16.869305725 -28.0224762337 149.516373183 425.946063853)"/><path d="m.292.009c-.053 0-.098-.011-.136-.034-.039-.022-.068-.054-.089-.095-.02-.04-.031-.088-.031-.142 0-.056.011-.104.031-.146.02-.041.049-.073.087-.096.038-.022.082-.033.134-.033.058 0 .106.012.144.038.037.025.064.06.081.105.017.044.022.094.017.15h-.392c.001.037.007.068.02.094.013.025.031.045.054.058.023.014.049.021.08.021.036 0 .067-.009.091-.026.024-.016.039-.038.046-.066h.098c-.004.035-.017.065-.039.09-.021.026-.049.046-.083.06-.033.015-.071.022-.113.022zm-.153-.311-.01-.009h.31l-.01.011c.001-.035-.004-.064-.016-.088-.012-.023-.029-.04-.05-.052s-.047-.018-.076-.018-.055.007-.077.019c-.022.013-.039.031-.051.054-.012.024-.019.051-.02.083z" transform="matrix(-26.3387510746 -19.3933725277 19.3933725277 -26.3387510746 133.199194545 416.10590057)"/><path d="m.051-.277c0-.023.006-.043.016-.061.011-.018.025-.032.043-.043.018-.01.039-.015.062-.015.036 0 .065.011.087.034.022.022.033.051.033.085 0 .022-.005.043-.015.061-.01.017-.024.032-.042.042s-.039.015-.063.015c-.023 0-.044-.005-.062-.015s-.032-.025-.043-.042c-.01-.018-.016-.039-.016-.061z" transform="matrix(-24.080504626 -22.1350803586 22.1350803586 -24.080504626 112.796235008 400.3506603876)"/><path d="m.271 0-.266-.729h.122l.176.507.038.119h.007l.039-.118.177-.508h.12l-.265.729z" transform="matrix(-21.2398868959 -24.873680901 24.873680901 -21.2398868959 99.0065112156 387.516349522)"/><path d="m.292.009c-.053 0-.098-.011-.136-.034-.039-.022-.068-.054-.089-.095-.02-.04-.031-.088-.031-.142 0-.056.011-.104.031-.146.02-.041.049-.073.087-.096.038-.022.082-.033.134-.033.058 0 .106.012.144.038.037.025.064.06.081.105.017.044.022.094.017.15h-.392c.001.037.007.068.02.094.013.025.031.045.054.058.023.014.049.021.08.021.036 0 .067-.009.091-.026.024-.016.039-.038.046-.066h.098c-.004.035-.017.065-.039.09-.021.026-.049.046-.083.06-.033.015-.071.022-.113.022zm-.153-.311-.01-.009h.31l-.01.011c.001-.035-.004-.064-.016-.088-.012-.023-.029-.04-.05-.052s-.047-.018-.076-.018-.055.007-.077.019c-.022.013-.039.031-.051.054-.012.024-.019.051-.02.083z" transform="matrix(-19.0995538688 -26.55259794 26.55259794 -19.0995538688 86.7592486672 373.289271248)"/><path d="m.281.177c-.042 0-.079-.006-.11-.019-.032-.012-.057-.029-.075-.052-.019-.023-.03-.05-.034-.081h.1c.003.016.009.029.02.041.011.011.025.02.042.026s.036.009.059.009c.032 0 .058-.004.08-.013.021-.01.038-.024.049-.044s.017-.046.017-.079v-.103h-.007c-.012.032-.033.058-.064.078-.031.019-.067.029-.109.029-.032 0-.061-.005-.087-.016-.027-.012-.049-.028-.068-.05-.018-.022-.033-.048-.043-.08-.01-.031-.015-.067-.015-.107 0-.054.009-.1.027-.138s.043-.066.075-.086.07-.03.112-.03.078.01.109.029c.03.02.051.046.063.078h.007l.002-.098h.1v.48c0 .042-.006.077-.018.105-.012.029-.029.052-.051.07s-.049.031-.079.039c-.031.008-.065.012-.102.012zm.003-.288c.031 0 .057-.007.078-.021s.038-.032.049-.054c.011-.021.017-.044.018-.067l-.001-.064c0-.023-.006-.045-.017-.066-.011-.022-.027-.039-.048-.053s-.047-.021-.078-.021c-.029 0-.054.007-.076.02-.021.014-.038.033-.05.059-.011.026-.017.057-.017.094s.006.069.018.095c.011.025.028.045.049.058.022.013.047.02.075.02z" transform="matrix(-16.6058076602 -28.1794433654 28.1794433654 -16.6058076602 76.0819182558 358.4713583866)"/><path d="m.252.009c-.032 0-.061-.006-.088-.018-.026-.012-.049-.029-.068-.053-.019-.023-.034-.051-.044-.085s-.016-.073-.016-.118c0-.059.009-.108.028-.149.018-.041.043-.072.075-.093.033-.021.07-.031.113-.031.03 0 .056.005.081.014.024.009.044.023.061.039.017.017.03.037.038.06h.006l.004-.104h.099v.529h-.103v-.105h-.006c-.012.034-.035.062-.066.083-.031.02-.07.031-.114.031zm.036-.085c.033 0 .06-.008.082-.023s.039-.035.05-.059.017-.05.017-.077v-.06c0-.027-.006-.053-.017-.077s-.028-.044-.05-.059-.049-.023-.082-.023c-.029 0-.055.008-.077.022s-.039.035-.051.063-.018.062-.018.104c0 .041.006.076.018.104s.029.049.051.064c.022.014.048.021.077.021z" transform="matrix(-13.8705760727 -29.621617729 29.621617729 -13.8705760727 66.6086462333 342.406275864)"/><path d="m.072 0v-.529h.098l.004.105h.006c.015-.037.039-.066.072-.085.032-.019.068-.028.107-.028.027 0 .052.004.075.012s.043.021.06.039c.017.017.03.04.04.069.009.028.014.062.014.103v.314h-.103v-.293c0-.036-.004-.066-.013-.089-.009-.024-.022-.041-.04-.053-.018-.011-.042-.017-.07-.017-.03 0-.056.007-.079.022-.022.015-.039.034-.051.059-.012.024-.018.052-.018.082v.289z" transform="matrix(-10.8415912429 -30.8592343844 30.8592343844 -10.8415912429 58.4886195142 325.1257080982)"/><path d="m.397.009c-.054 0-.102-.009-.146-.026s-.082-.042-.113-.075c-.032-.032-.056-.071-.073-.117s-.025-.098-.025-.155c0-.058.008-.11.025-.156s.041-.085.073-.117c.032-.033.07-.058.113-.075.044-.017.092-.025.146-.025.06 0 .114.01.161.031s.085.05.115.088c.03.037.048.082.055.133h-.11c-.007-.031-.02-.058-.04-.082s-.045-.042-.075-.056c-.031-.013-.066-.02-.106-.02-.05 0-.094.011-.13.033-.037.022-.065.053-.085.095-.02.041-.03.092-.03.151 0 .044.006.083.017.118.012.035.028.064.049.088.021.023.047.041.077.054.03.012.064.019.102.019.039 0 .074-.007.105-.02.031-.014.057-.033.077-.057s.033-.052.039-.085l.11.001c-.006.051-.024.096-.053.134-.03.039-.069.068-.116.089-.048.021-.102.032-.162.032z" transform="matrix(-7.3968839201 -31.8609260719 31.8609260719 -7.3968839201 51.9461159462 307.0866050758)"/><path d="m.072 0v-.729h.102v.305h.006c.015-.037.039-.066.072-.085.032-.019.068-.028.107-.028.027 0 .052.004.075.012s.043.021.06.039c.017.017.03.04.04.069.009.028.014.062.014.103v.314h-.103v-.293c0-.036-.004-.066-.013-.089-.009-.024-.022-.041-.04-.053-.018-.011-.042-.017-.07-.017-.03 0-.056.007-.079.022-.022.015-.039.034-.051.059-.012.024-.018.052-.018.082v.289z" transform="matrix(-3.7537026329 -32.4921962619 32.4921962619 -3.7537026329 46.4670784915 282.9656006085)"/><path d="m.292.009c-.053 0-.098-.011-.136-.034-.039-.022-.068-.054-.089-.095-.02-.04-.031-.088-.031-.142 0-.056.011-.104.031-.146.02-.041.049-.073.087-.096.038-.022.082-.033.134-.033.058 0 .106.012.144.038.037.025.064.06.081.105.017.044.022.094.017.15h-.392c.001.037.007.068.02.094.013.025.031.045.054.058.023.014.049.021.08.021.036 0 .067-.009.091-.026.024-.016.039-.038.046-.066h.098c-.004.035-.017.065-.039.09-.021.026-.049.046-.083.06-.033.015-.071.022-.113.022zm-.153-.311-.01-.009h.31l-.01.011c.001-.035-.004-.064-.016-.088-.012-.023-.029-.04-.05-.052s-.047-.018-.076-.018-.055.007-.077.019c-.022.013-.039.031-.051.054-.012.024-.019.051-.02.083z" transform="matrix(-.74834300819 -32.6997304254 32.6997304254 -.74834300819 44.25433065528 263.8912978424)"/><path d="m.293.009c-.039 0-.074-.007-.105-.02-.032-.013-.059-.031-.081-.055-.023-.024-.04-.053-.052-.086-.013-.033-.019-.071-.019-.112 0-.055.011-.103.032-.144.022-.041.052-.072.091-.095s.085-.034.138-.034c.043 0 .081.008.114.024.034.016.061.038.082.067.02.028.032.062.034.1h-.1c-.004-.023-.012-.043-.025-.058-.012-.015-.028-.027-.046-.035-.019-.008-.04-.012-.062-.012-.032 0-.06.007-.083.023s-.04.038-.052.066-.018.061-.018.099c0 .039.006.073.019.101.013.027.03.049.053.063.023.015.049.022.08.022.026 0 .048-.005.068-.014.019-.009.035-.022.047-.039.011-.017.018-.037.021-.059h.1c-.003.04-.014.075-.035.105-.021.029-.049.052-.083.068-.034.017-.074.025-.118.025z" transform="matrix(2.21589247093 -32.6331690349 32.6331690349 2.21589247093 43.82103291825 245.6634930915)"/><path d="m.072 0v-.729h.104v.453l.046-.05.197-.203h.128l-.205.206.213.323h-.121l-.132-.2-.032-.053-.094.091v.162z" transform="matrix(5.3165379152 -32.2733123183 32.2733123183 5.3165379152 44.9599407186 227.7723661301)"/><path d="m.396.009c-.055 0-.104-.009-.148-.027s-.082-.043-.113-.076-.055-.072-.071-.118-.024-.097-.024-.152c0-.058.008-.11.026-.156.017-.046.041-.085.073-.117.032-.033.07-.058.114-.075.045-.017.094-.025.147-.025.062 0 .117.01.164.031.048.021.086.05.115.087s.047.081.053.132h-.112c-.006-.034-.019-.062-.04-.085-.02-.023-.046-.04-.077-.052-.03-.012-.065-.018-.103-.018-.05 0-.094.01-.131.032-.038.022-.067.053-.087.094-.021.042-.031.092-.031.151 0 .044.006.084.017.119.012.035.028.064.05.088.022.025.048.043.078.055.03.013.064.019.102.019.048 0 .09-.009.126-.027s.064-.045.083-.08c.02-.034.03-.076.03-.124v-.024l.036.04h-.268v-.081h.343v.053c0 .051-.009.098-.025.139-.017.042-.041.077-.072.106s-.068.052-.111.067c-.043.016-.091.024-.144.024z" transform="matrix(10.9978060837 -30.8039246491 30.8039246491 10.9978060837 51.1318065237 195.6238414309)"/><path d="m.072 0v-.529h.092l.005.094h.005c.011-.034.031-.059.059-.076.028-.016.059-.025.094-.025.006 0 .012.001.017.001s.01 0 .014.001v.097c-.004-.001-.009-.001-.014-.001-.006 0-.012 0-.018 0-.031 0-.058.005-.08.016s-.039.026-.051.046-.019.045-.021.074v.302z" transform="matrix(14.035458613 -29.5438373916 29.5438373916 14.035458613 60.054802192 171.5034280176)"/><path d="m.252.009c-.032 0-.061-.006-.088-.018-.026-.012-.049-.029-.068-.053-.019-.023-.034-.051-.044-.085s-.016-.073-.016-.118c0-.059.009-.108.028-.149.018-.041.043-.072.075-.093.033-.021.07-.031.113-.031.03 0 .056.005.081.014.024.009.044.023.061.039.017.017.03.037.038.06h.006l.004-.104h.099v.529h-.103v-.105h-.006c-.012.034-.035.062-.066.083-.031.02-.07.031-.114.031zm.036-.085c.033 0 .06-.008.082-.023s.039-.035.05-.059.017-.05.017-.077v-.06c0-.027-.006-.053-.017-.077s-.028-.044-.05-.059-.049-.023-.082-.023c-.029 0-.055.008-.077.022s-.039.035-.051.063-.018.062-.018.104c0 .041.006.076.018.104s.029.049.051.064c.022.014.048.021.077.021z" transform="matrix(15.8931592198 -28.5874139913 28.5874139913 15.8931592198 64.2913454668 162.1266441177)"/><path d="m.252.009c-.032 0-.061-.006-.088-.018-.026-.012-.049-.029-.068-.053-.019-.023-.034-.051-.044-.085s-.016-.073-.016-.118c0-.059.009-.108.028-.149.018-.041.043-.072.075-.093.033-.021.07-.031.113-.031.03 0 .056.005.081.014.024.009.044.023.061.039.017.017.03.037.038.06h.006v-.304h.103v.729h-.099l-.004-.105h-.006c-.012.034-.035.062-.066.083-.031.02-.07.031-.114.031zm.036-.085c.033 0 .06-.008.082-.023s.039-.035.05-.059.017-.05.017-.077v-.06c0-.02-.003-.04-.01-.059-.006-.019-.015-.036-.028-.051-.012-.015-.027-.026-.046-.035s-.04-.014-.065-.014c-.029 0-.055.008-.077.022s-.039.035-.051.063-.018.062-.018.104c0 .041.006.076.018.104s.029.049.051.064c.022.014.048.021.077.021z" transform="matrix(18.5457696415 -26.9423173345 26.9423173345 18.5457696415 73.582284001 145.437223957)"/><path d="m.292.009c-.053 0-.098-.011-.136-.034-.039-.022-.068-.054-.089-.095-.02-.04-.031-.088-.031-.142 0-.056.011-.104.031-.146.02-.041.049-.073.087-.096.038-.022.082-.033.134-.033.058 0 .106.012.144.038.037.025.064.06.081.105.017.044.022.094.017.15h-.392c.001.037.007.068.02.094.013.025.031.045.054.058.023.014.049.021.08.021.036 0 .067-.009.091-.026.024-.016.039-.038.046-.066h.098c-.004.035-.017.065-.039.09-.021.026-.049.046-.083.06-.033.015-.071.022-.113.022zm-.153-.311-.01-.009h.31l-.01.011c.001-.035-.004-.064-.016-.088-.012-.023-.029-.04-.05-.052s-.047-.018-.076-.018-.055.007-.077.019c-.022.013-.039.031-.051.054-.012.024-.019.051-.02.083z" transform="matrix(20.9878367361 -25.0867100589 25.0867100589 20.9878367361 84.4024446723 129.7454188353)"/><path d="m.051-.277c0-.023.006-.043.016-.061.011-.018.025-.032.043-.043.018-.01.039-.015.062-.015.036 0 .065.011.087.034.022.022.033.051.033.085 0 .022-.005.043-.015.061-.01.017-.024.032-.042.042s-.039.015-.063.015c-.023 0-.044-.005-.062-.015s-.032-.025-.043-.042c-.01-.018-.016-.039-.016-.061z" transform="matrix(23.593150956 -22.6538339966 22.6538339966 23.593150956 101.3873106304 110.368419517)"/><path d="m.371.009c-.054 0-.101-.008-.142-.024-.042-.016-.076-.039-.104-.069-.027-.03-.048-.065-.062-.107-.014-.041-.02-.087-.018-.138.002-.062.013-.118.033-.168s.047-.093.082-.129.075-.063.122-.083c.047-.019.099-.029.156-.029.062 0 .116.012.163.034s.084.053.11.092c.027.039.04.084.041.136h-.154c-.002-.026-.01-.049-.024-.069s-.033-.035-.057-.046-.051-.016-.082-.016c-.046 0-.085.012-.119.035-.034.024-.061.057-.08.099-.019.043-.029.093-.032.15 0 .033.003.062.01.087s.018.046.032.063.031.03.052.038c.02.009.042.013.067.014.033 0 .062-.005.087-.015.026-.01.047-.024.065-.044.017-.02.03-.043.038-.07h.156c-.01.053-.03.099-.062.138-.031.039-.071.069-.118.09-.048.021-.101.031-.16.031z" transform="matrix(300 0 0 300 136.600239 357.81705)"/></g></svg>