<svg height="100pt" viewBox="0 0 100 100" width="100pt" xmlns="http://www.w3.org/2000/svg"><path d="m90.164 79.199h-6.3828v-4.0703c0-.55078-.44531-1-1-1h-2.6992c-.59766-14.867-12.078-27.02-26.633-28.695 3.9062-2.6641 3.9375-5.4492 3.9336-5.5273.19141-2.9648-2.3984-4.2969-2.4609-4.3242-.78125-.44922-1.5859-.67578-2.3867-.67578-1.0977 0-1.9648.42969-2.5352.83203-.57031-.39844-1.4375-.83203-2.5352-.83203-.80078 0-1.6016.22656-2.3359.64844-.10938.054687-2.7031 1.3867-2.5117 4.2734-.003907.14062.027343 2.9336 3.9414 5.6055-3.8594.44531-7.6133 1.6211-11.012 3.4844-.48438.26562-.66016.875-.39453 1.3594s.87109.66016 1.3555.39453c4.0859-2.2422 8.7227-3.4297 13.414-3.4414l.078125.035156.082031-.035156c15.016.042969 27.363 12.004 28.004 26.898h-56.172c.14063-3.3516.86719-6.6016 2.1641-9.6797.21484-.50781-.023437-1.0938-.53516-1.3086-.50781-.21094-1.0938.023437-1.3086.53516-1.3984 3.3242-2.1719 6.8398-2.3125 10.457h-2.6992c-.55469 0-1 .44922-1 1v4.0664h-6.2461c-.55469 0-1 .44922-1 1s.44531 1 1 1h80.188c.55469 0 1-.44922 1-1 0-.55469-.44531-1-1-1zm-45.551-39.422c-.10547-1.625 1.3555-2.4062 1.457-2.4609.47656-.27344.94531-.41016 1.3945-.41016 1.0625 0 1.7734.79297 1.7734.79297l.75391.875.76562-.86719c.007813-.007812.71875-.80078 1.7773-.80078.44531 0 .91406.13672 1.4375.43359.0625.03125 1.5195.8125 1.4141 2.4922 0 .027344-.14844 2.8438-5.3867 5.2461-5.2344-2.4023-5.3867-5.2148-5.3867-5.3008zm36.168 39.422h-62.562v-3.0703h63.559v3.0664z"/><path d="m73.16 50.645c.17578.21484.42969.34766.70703.36719.49219.035156.96094.050781 1.4023.050781 6.0078 0 7.5859-2.9961 7.6133-3.0547 1.4688-2.4297-.14453-4.6992-.18359-4.7461-.86328-1.3398-2.1523-2.0781-3.6328-2.0781-.19922 0-.39062.015625-.5625.035156-.57031-1.0625-1.7695-2.2617-3.8633-2.2617l-.19531.003907c-.29687 0-2.9141.070312-3.9883 2.5156-.070312.14063-1.832 3.5938 2.7031 9.168zm-.90234-8.2969c.60156-1.3711 2.125-1.3906 2.2383-1.3906l.14844-.003906c1.8125 0 2.2344 1.4922 2.2773 1.6523.0625.28125.25391.52344.51172.66016s.56641.15234.83594.046875c.003907 0 .34375-.12891.80469-.12891.80859 0 1.4453.37891 1.9805 1.207.007812.011719.90625 1.2773.09375 2.6328-.050782.089843-1.3867 2.2812-6.7031 2.0195-3.293-4.2344-2.2188-6.6211-2.1875-6.6953z"/><path d="m26.293 59.441c.3125 0 .62109-.14453.8125-.41797 1.5938-2.2344 3.5039-4.2188 5.6758-5.9023.4375-.33984.51562-.96875.17578-1.4023-.33984-.4375-.96484-.51562-1.4023-.17578-2.3242 1.8047-4.3672 3.9297-6.0742 6.3203-.32031.44922-.21875 1.0742.23047 1.3945.17969.125.38281.18359.58203.18359z"/><path d="m64.824 68.344c.035156.52734.47656.92969.99609.92969.023438 0 .046876 0 .070313-.003907.55078-.039062.96484-.51562.92578-1.0664-.88281-12.473-9.7617-15.27-10.141-15.383-.53125-.16016-1.0859.14063-1.2461.67188-.15625.52734.14453 1.0859.67187 1.2461.085938.019531 7.9375 2.4961 8.7227 13.605z"/><path d="m65.941 16.254c.039063.003906.082032.007813.12109.007813.5 0 .93359-.37109.99219-.88281l.30078-2.5234c.066406-.54688-.32422-1.0469-.875-1.1133-.55859-.054688-1.0469.32812-1.1133.875l-.30078 2.5234c-.066406.55078.32812 1.0469.875 1.1133z"/><path d="m64.293 21.633c-.066407.54688.32422 1.0469.875 1.1133.039062.003906.082031.007812.12109.007812.5 0 .93359-.37109.99219-.88281l.30078-2.5234c.066407-.54688-.32422-1.0469-.875-1.1133-.56641-.054687-1.0469.32812-1.1133.875z"/><path d="m61.199 17.699 2.5234.30078c.039063.003906.078125.007812.11719.007812.5 0 .93359-.375.99219-.88281.066407-.54688-.32422-1.0469-.875-1.1133l-2.5234-.30078c-.55469-.058594-1.0469.32812-1.1094.875-.066407.55078.32422 1.0508.875 1.1133z"/><path d="m66.812 17.363c-.066406.54688.32422 1.0469.875 1.1094l2.5234.30078c.039062.003906.078124.007812.11719.007812.5 0 .93359-.375.99219-.88281.066407-.54688-.32422-1.0469-.875-1.1094l-2.5234-.30078c-.55078-.058593-1.043.32812-1.1094.875z"/><path d="m87.406 36.195c.039062.003907.078125.007813.11719.007813.5 0 .93359-.375.99219-.88281l.30078-2.5234c.066406-.54688-.32422-1.0469-.875-1.1094-.55469-.058594-1.0469.32812-1.1094.875l-.30078 2.5234c-.066406.54687.32422 1.043.875 1.1094z"/><path d="m85.758 41.574c-.066406.54688.32422 1.0469.875 1.1094.039063.003906.078126.007812.11719.007812.5 0 .93359-.375.99219-.88281l.30078-2.5234c.066406-.54688-.32422-1.0469-.875-1.1094-.55469-.0625-1.0469.32812-1.1094.875z"/><path d="m82.66 37.641 2.5234.30078c.039062.003906.078125.007813.11719.007813.5 0 .93359-.375.99219-.88281.066406-.54688-.32422-1.0469-.875-1.1133l-2.5234-.30078c-.55469-.058594-1.0469.32812-1.1094.875s.32812 1.0469.875 1.1133z"/><path d="m91.914 36.73-2.5234-.30078c-.55859-.058594-1.0469.32812-1.1094.875-.066406.54687.32422 1.0469.875 1.1133l2.5234.30078c.039062.003906.078124.007812.11719.007812.5 0 .93359-.375.99219-.88281.066407-.55078-.32812-1.0469-.875-1.1133z"/><path d="m19.645 41.695c-.25781-.48828-.86328-.67578-1.3516-.41406-.48828.25781-.67578.86328-.41406 1.3516l1.1914 2.2461c.17969.33984.52734.53125.88672.53125.15625 0 .31641-.035156.46875-.11719.48828-.25781.67578-.86328.41406-1.3516z"/><path d="m22.133 50.656c.17969.33984.52734.53125.88672.53125.15625 0 .31641-.035156.46875-.11719.48828-.25781.67578-.86328.41406-1.3516l-1.1914-2.2461c-.25781-.48828-.86328-.67578-1.3516-.41406-.48828.25781-.67578.86328-.41406 1.3516z"/><path d="m16.879 49.301c.15625 0 .31641-.035156.46875-.11719l2.2461-1.1914c.48828-.25781.67578-.86328.41406-1.3516-.25781-.48828-.86328-.67578-1.3516-.41406l-2.2461 1.1914c-.48828.25781-.67578.86328-.41406 1.3516.17969.33984.52344.53125.88281.53125z"/><path d="m25.781 43.582c-.26172-.48828-.86328-.67578-1.3516-.41406l-2.2461 1.1914c-.48828.25781-.67578.86328-.41406 1.3516.17969.33984.52734.53125.88672.53125.15625 0 .31641-.035157.46875-.11719l2.2461-1.1914c.48438-.25781.67188-.86328.41016-1.3516z"/><path d="m28.555 32.305c.046874.007812.089843.007812.13672.007812.23047 0 .44922-.078125.63281-.22266.85156-.69141 1.6094-1.3984 2.3125-2.1094.91016.27344 2.043.46875 3.4453.46875 1.3125 0 2.7539-.17188 4.2852-.50781.26953-.058594.50391-.22656.64453-.46484 1.9844-3.3477 2.4844-5.9141 2.4492-7.7266h8.2148c.55469 0 1-.44922 1-1s-.44531-1-1-1h-8.5c-.23438-.77734-.51953-1.1875-.54297-1.2188-.91406-1.4531-2.4883-2.2852-4.3164-2.2852-.38281 0-.63281.039062-.63281.039062-.92969.10156-1.6758.38672-2.2773.76562-1.3867-1.3789-3.1016-1.7344-3.1406-1.7383-3.2344-.8125-5.3945.76172-6.4453 2.1836-1.6406-.66406-4.293-.89453-6.6016 1.4492-.12109.10938-2.9648 2.7461-1.6758 6.4023.054687.22266 1.5859 5.5312 12.012 6.957zm8.3945-14.039c.027343-.003906.16406-.019531.36328-.019531.66016 0 1.8828.17578 2.6562 1.3984.019531.027344 1.7812 2.7266-1.4609 8.4336-1.2305.24609-2.3828.37109-3.4297.37109-3.75 0-4.9844-1.5586-5.0703-1.6719-1.207-1.4609-.36328-3.1836-.30469-3.3008.55469-1.2188 1.4609-1.8398 2.6953-1.8398.32422 0 .54687.046875.55078.046875.28125.070312.58203.007812.82031-.16016.23828-.16797.39062-.4375.41797-.72656.019531-.22656.28125-2.2617 2.7617-2.5312zm-17.352 2.1211c2.3555-2.3906 4.7656-.92188 5.0273-.74609.24219.16406.54688.21094.82422.13281.28125-.078126.51562-.27344.64062-.53906.13672-.28906 1.4297-2.8008 4.7383-1.9688.015625.003906 1.207.26562 2.1484 1.1875-.26172.39453-.45312.80469-.57812 1.1875-2.0039 0-3.6484 1.0977-4.4922 2.9609-.0625.11719-1.5039 2.9492.51562 5.3867.078125.10938.45312.60547 1.2617 1.1211-.40625.38672-.83203.77344-1.2891 1.1523-8.5977-1.3047-9.918-5.4062-9.9492-5.5078-.86328-2.457 1.0352-4.2578 1.1523-4.3672z"/></svg>