<?xml version="1.0" encoding="UTF-8"?>
<svg width="100pt" height="100pt" version="1.1" viewBox="0 0 100 100" xmlns="http://www.w3.org/2000/svg">
 <g>
  <path d="m77.227 37.273c0.24609 0.75781 0.51953 1.5156 0.76953 2.2227 0.25 0.6875 0.64844 1.3125 1.3906 2.332 0.73828 1.0234 1.5195 1.9062 2.5117 2.5 0.96875 0.59375 1.9336 0.97266 2.8789 1.4062-0.94531 0.50781-2.082 0.86719-2.8789 1.3984-0.95703 0.64063-1.7695 1.4805-2.5117 2.5-0.73828 1.0234-1.1172 1.6602-1.3906 2.3359-0.23828 0.78516-0.54297 1.4922-0.76953 2.2227-0.24219-0.75781-0.51562-1.5156-0.76562-2.2227-0.24609-0.6875-0.65234-1.3125-1.3867-2.3359-0.74219-1.0195-1.5195-1.9062-2.5117-2.5-0.96484-0.58984-1.9336-0.97266-2.8789-1.3984 0.94531-0.50781 2.082-0.87891 2.8789-1.4062 0.95703-0.64453 1.7695-1.4766 2.5117-2.5 0.73438-1.0195 1.1484-1.6445 1.3867-2.332 0.26953-0.78516 0.54687-1.5 0.76562-2.2227zm0.11328-9.0391c-0.69531 0-1.4219 0.82812-1.6016 2.4961-0.039062 0.36328-0.089843 0.73438-0.13281 1.0977-0.14453 1.4922-0.64062 2.9375-1.2734 4.3203-0.35938 0.78516-0.77344 1.5586-1.2461 2.2852-0.37109 0.58594-0.79297 1.1406-1.2578 1.6602-2.7422 2.5977-5.625 3.793-8.9414 4.2578-1.7461 0-1.7148 2.7539 0 2.7539 0.24219 0 0.48047 0.082031 2.5195 0.50781 2.0352 0.42969 4.5938 1.7031 6.4219 3.75 0.46094 0.51953 0.88672 1.0703 1.2578 1.6562 0.47266 0.73438 0.89062 1.4961 1.2461 2.2852 0.63281 1.3828 1.1289 2.8359 1.2734 4.3281 0.042969 0.36719 0.058593 0.73828 0.13281 1.0938 0.074219 0.38672 0.10938 0.65234 0.34766 2.0117 0.23047 1.3594 1.8828 1.1523 2.1328-0.10156 0.24609-1.2578 0.42969-1.5234 0.50391-1.9102 0.074219-0.35547 0.089844-0.73047 0.125-1.0938 0.15234-1.4922 0.64844-2.9453 1.2773-4.3281 0.35938-0.78906 0.77734-1.5508 1.2461-2.2852 0.375-0.58594 0.79688-1.1328 1.2617-1.6562 1.8281-2.0469 4.3867-3.3203 7.0195-3.9336 0.34375-0.078126 0.69531-0.10938 1.0664-0.20313 0.90625-0.22656 1.3203-0.46094 1.8242-1 0.38672-0.40625 0.21875-0.65625 0-1-0.46875-0.74609-1.1172-0.92969-1.8242-0.99609-0.375-0.035157-0.72266-0.12109-1.0664-0.20312-2.6328-0.61328-5.1875-1.8906-7.0195-3.9336-0.46484-0.51953-0.88672-1.0742-1.2617-1.6602-0.46875-0.73047-0.88672-1.5-1.2461-2.2852-0.62891-1.3828-1.125-2.8281-1.2773-4.3203-0.035156-0.36328-0.12109-0.73438-0.125-1.0977-0.027344-1.6602-0.6875-2.4961-1.3828-2.4961z"/>
  <path d="m30.047 31.586c0.66016 1.707 0.9375 3.6992 1.5117 5.207 0.76172 2.0273 1.8281 3.918 3.1133 5.7148 1.2852 1.8008 2.3789 3.0195 3.6797 3.9805 0.6875 0.51562 1.5312 0.92188 2.2148 1.4375 1.2695 0.94922 2.918 1.5391 4.293 2.3281-1.375 0.78125-3.0273 1.3711-4.293 2.3281-0.68359 0.51562-1.5273 0.91797-2.2148 1.4297-1.3008 0.96484-2.3945 2.1875-3.6797 3.9844-1.2852 1.8008-2.3945 3.6758-3.1133 5.7148-0.64844 1.8359-0.98047 3.5352-1.5117 5.207-0.66797-1.707-0.9375-3.6992-1.5039-5.207-0.76953-2.0234-1.8359-3.9141-3.1211-5.7148-1.2852-1.8008-2.375-3.0195-3.6797-3.9844-0.6875-0.51172-1.5312-0.91406-2.2148-1.4297-1.2656-0.95703-2.9141-1.5469-4.293-2.3281 2.4219-1.1562 4.4727-2.3438 6.5078-3.7617 1.332-0.92188 2.3945-2.1797 3.6797-3.9805s2.4023-3.6719 3.1211-5.7148c0.63672-1.8438 0.98047-3.5391 1.5039-5.2109zm-0.17188-9.8008c-1.0117 0.011719-1.9648 1.125-1.9648 3.3047 0 4.582-1.8672 8.9805-4.1836 12.801-0.46875 0.78125-0.97656 1.5312-1.5312 2.2617-0.95703 1.2852-2.0664 2.4375-3.293 3.4414-1.8516 1.5234-3.9102 2.4414-6.2422 3.4883-1.1016 0.49609-2.2461 1.0547-3.2188 1.3125-3.2578 0.87109-2.8828 2.9375 0 3.707 1.1758 0.3125 2.0781 0.67578 3.2188 1.3203 2.0938 1.168 4.3906 1.9648 6.2422 3.4844 1.2266 1.0117 2.3359 2.1641 3.293 3.4492 0.55469 0.72266 1.0625 1.4805 1.5312 2.2617 2.3164 3.8203 3.5352 8.2617 4.1836 12.793 0.61719 4.3398 3.5 4.4453 4.2695 0 0.78906-4.5078 1.875-8.9766 4.1836-12.793 0.46875-0.78125 0.98047-1.5391 1.5352-2.2617 0.95312-1.2852 2.0664-2.4375 3.293-3.4492 1.8516-1.5156 3.9531-2.7734 6.2422-3.4844 0.55469-0.17188 1.1406-0.33594 1.6875-0.53906 4.5664-1.6562 4.8672-4.0977 0-5.2656-0.56641-0.14063-1.1328-0.36328-1.6875-0.53906-2.293-0.71484-4.3906-1.9688-6.2422-3.4883-1.2266-1.0039-2.3359-2.1562-3.293-3.4414-0.55469-0.73047-1.0664-1.4805-1.5391-2.2617-2.3086-3.8203-3.7148-8.2422-4.1797-12.801-0.22656-2.2188-1.2891-3.3164-2.3047-3.3008z"/>
  <path d="m53.785 21.473c0.26562 1.1289 0.87109 2.1562 1.3945 2.9453 0.89844 1.3438 2.1641 1.9336 3.4844 2.5273-1.4883 0.50391-2.5742 1.4766-3.4844 2.5273-0.73438 0.89844-1.043 1.9609-1.3945 2.9492-0.27344-1.125-0.88281-2.1641-1.3984-2.9492-0.89453-1.3359-2.1641-1.9336-3.4844-2.5273 1.4805-0.50781 2.5742-1.4805 3.4844-2.5273 0.74609-0.89062 1.0547-1.9531 1.3984-2.9453zm-1.3477-6.0781c-0.13672 1.2383-0.53906 2.4414-1.0586 3.5938-0.30078 0.65234-0.64844 1.293-1.0352 1.8984-0.3125 0.48438-0.66016 0.94922-1.0469 1.3789-1.5156 1.6992-3.6289 2.8164-5.8281 3.2695-2.3398 0.47266-1.9219 2.4766 0.49219 2.9805 1.6875 0.35156 3.8203 1.418 5.3359 3.1133 0.39062 0.43359 0.73438 0.89062 1.0469 1.3789 0.39062 0.60938 0.73438 1.2461 1.0352 1.8984 0.51953 1.1484 1.0078 2.3477 1.0586 3.5938 0.12891 2.7656 2.4375 2.2812 2.6914 0 0.14062-1.2383 0.53906-2.4453 1.0664-3.5938 0.29688-0.65234 0.64063-1.2891 1.0352-1.8984 0.30469-0.48828 0.66016-0.94141 1.043-1.3789 1.5195-1.6953 3.6562-2.7188 5.832-3.2695 2.7148-0.69141 2.4414-2.3086 0-2.8242-2.1992-0.46484-4.3086-1.5703-5.832-3.2695-0.38281-0.42969-0.73438-0.89062-1.043-1.3789-0.39453-0.60547-0.73828-1.2461-1.0352-1.8984-0.52734-1.1484-0.98437-2.3477-1.0664-3.5938-0.16797-2.5859-2.4297-2.2969-2.6914 0z"/>
  <path d="m60.297 61.227c1.5742 4.457 3.7539 6.7383 7.5391 8.457-3.9219 1.4062-6.2969 4.9961-7.5391 8.4609-1.5742-4.4492-3.7539-6.7422-7.5391-8.4609 3.8984-1.4141 6.3359-4.9844 7.5391-8.457zm0.11328-8.1289c-1.3867 0-1.5586 1.1016-1.7344 2.6875-0.16406 1.4922-0.64844 2.9414-1.2812 4.3203-0.35938 0.79297-0.77344 1.5586-1.2422 2.2852-0.375 0.58203-0.80078 1.1367-1.2617 1.6602-2.7422 2.6055-5.6172 3.793-8.9336 4.2578-1.7539 0-1.7266 2.7539 0 2.7539 0.24219 0 0.47656 0.085938 2.5117 0.50781 2.0391 0.42969 4.5938 1.707 6.4219 3.75 0.46094 0.51953 0.88672 1.0703 1.2617 1.6602 0.46875 0.73047 0.88672 1.4922 1.2422 2.2852 1.1875 2.5 1.2852 3.582 1.7539 6.2148 0.23828 1.3594 1.8477 1.1445 2.1367-0.10547 0.60938-2.5039 0.92188-3.9219 1.9102-6.1094 0.35938-0.79297 0.77344-1.5547 1.2422-2.2852 0.37891-0.58984 0.80078-1.1406 1.2617-1.6602 1.8281-2.043 4.3828-3.3203 7.0117-3.9336 0.34766-0.082031 0.69922-0.10938 1.0664-0.20312 0.91406-0.22266 1.3164-0.46094 1.8281-1 0.38281-0.40625 0.21484-0.65625 0-0.99609-0.47656-0.74609-1.1172-0.9375-1.8281-1-0.37891-0.035156-0.71875-0.12109-1.0664-0.20312-2.6289-0.61328-5.1836-1.8906-7.0117-3.9375-0.46484-0.51953-0.88672-1.0781-1.2617-1.6602-0.46875-0.73047-0.88672-1.4961-1.2422-2.2852-0.63281-1.3828-1.1992-2.8242-1.2773-4.3203-0.085938-1.5312-0.33203-2.6836-1.5078-2.6836z"/>
 </g>
</svg>
